<svg width="84" height="67" viewBox="0 0 84 67" fill="none" xmlns="http://www.w3.org/2000/svg">
<g clip-path="url(#clip0_1_1019)">
<path fill-rule="evenodd" clip-rule="evenodd" d="M17.4453 0.0078125C12.6523 0.0078125 9.10938 4.20703 9.26562 8.76172C9.41797 13.1367 9.22266 18.8047 7.79688 23.4258C6.36719 28.0586 3.94922 30.9961 0 31.3711V35.6289C3.94922 36.0039 6.36719 38.9414 7.79688 43.5742C9.22266 48.1953 9.41797 53.8633 9.26562 58.2383C9.10938 62.793 12.6523 66.9922 17.4492 66.9922H66.5586C71.3516 66.9922 74.8984 62.793 74.7383 58.2383C74.5859 53.8633 74.7852 48.1953 76.2109 43.5742C77.6406 38.9414 80.0508 36.0039 84 35.6289V31.3711C80.0508 30.9961 77.6406 28.0586 76.2109 23.4258C74.7852 18.8047 74.5859 13.1367 74.7383 8.76172C74.8984 4.20703 71.3516 0.0078125 66.5586 0.0078125H17.4453ZM56.9492 41.2422C56.9492 47.5117 52.2773 51.3164 44.5234 51.3164H31.3203C30.5352 51.3164 29.8984 50.6758 29.8984 49.8906V17.1094C29.8984 16.3242 30.5352 15.6836 31.3203 15.6836H44.4453C50.9141 15.6836 55.1562 19.1914 55.1562 24.5742C55.1562 28.3516 52.3008 31.7344 48.6641 32.3281V32.5234C53.6172 33.0664 56.9492 36.5 56.9492 41.2422ZM43.082 20.2031H35.5547V30.8438H41.8945C46.7969 30.8438 49.5 28.8711 49.5 25.3398C49.4961 22.0312 47.1758 20.2031 43.082 20.2031ZM35.5547 35.0664V46.7969H43.3594C48.4609 46.7969 51.1641 44.7461 51.1641 40.8945C51.1641 37.043 48.3867 35.0664 43.0312 35.0664H35.5547Z" fill="#7952B3"/>
</g>
<defs>
<clipPath id="clip0_1_1019">
<rect width="84" height="67" fill="white"/>
</clipPath>
</defs>
</svg>
