<svg width="80" height="80" viewBox="0 0 80 80" fill="none" xmlns="http://www.w3.org/2000/svg">
<g filter="url(#filter0_d_1860_6716)">
<path d="M6.9699 24.9762C5.6468 20.7607 7.99157 16.2707 12.2071 14.9476L50.3715 2.96926C54.587 1.64617 59.0769 3.99094 60.4 8.20646L72.3784 46.3708C73.7015 50.5863 71.3567 55.0763 67.1412 56.3994L28.9768 68.3778C24.7613 69.7008 20.2714 67.3561 18.9483 63.1406L6.9699 24.9762Z" fill="url(#paint0_linear_1860_6716)"/>
<path d="M58.8703 50.0862L33.1093 58.1716C29.9477 59.1639 26.5802 57.4053 25.5879 54.2437L18.2685 30.9235L24.4424 20.54L47.3411 13.353C50.5027 12.3607 53.8702 14.1193 54.8625 17.2809L62.7982 42.5648C63.7905 45.7264 62.0319 49.0939 58.8703 50.0862Z" fill="#F7BE14"/>
<path d="M25.884 28.4724L18.2511 30.868L24.4424 20.54L26.5387 27.2188C26.7041 27.7457 26.411 28.307 25.884 28.4724Z" fill="#F7D968"/>
<path d="M47.958 34.1915C47.7168 33.6373 47.3183 33.2718 46.7627 33.0951C46.2115 32.9171 45.5747 32.9414 44.8524 33.1681C44.3446 33.3275 43.933 33.5408 43.6178 33.8081C43.3025 34.0754 43.0898 34.3706 42.9796 34.6937C42.8694 35.0168 42.865 35.3476 42.9664 35.6861C43.0544 35.9663 43.1941 36.1893 43.3857 36.3552C43.5816 36.5197 43.8138 36.6392 44.0824 36.7136C44.3497 36.7836 44.6341 36.8242 44.9358 36.8353C45.2374 36.8464 45.5365 36.8415 45.8329 36.8206L47.1926 36.7401C47.7375 36.6989 48.2758 36.7055 48.8074 36.7599C49.3434 36.8129 49.8456 36.9342 50.3139 37.1238C50.7865 37.3121 51.2003 37.5886 51.5553 37.9533C51.9102 38.318 52.179 38.7915 52.3618 39.3737C52.6091 40.1617 52.6255 40.9188 52.411 41.645C52.1951 42.3668 51.7592 43.0157 51.1032 43.5919C50.4503 44.1623 49.5854 44.6165 48.5084 44.9546C47.4621 45.2829 46.5029 45.4061 45.6307 45.3239C44.763 45.2404 44.0148 44.9559 43.3863 44.4703C42.7622 43.9833 42.2924 43.2987 41.9771 42.4167L44.3739 41.6644C44.556 42.1218 44.8227 42.4661 45.1742 42.6972C45.5257 42.9284 45.929 43.0566 46.3842 43.0821C46.8438 43.1061 47.3276 43.0385 47.8354 42.8791C48.3651 42.7128 48.8044 42.4884 49.1533 42.2058C49.5052 41.9174 49.7504 41.5952 49.8887 41.2392C50.0257 40.8788 50.0359 40.5053 49.9193 40.1187C49.805 39.7698 49.6115 39.5132 49.3386 39.3487C49.0644 39.1799 48.7216 39.0759 48.3102 39.0367C47.9017 38.9918 47.4375 38.9836 46.9175 39.0122L45.2638 39.0984C44.0669 39.1615 43.056 39.0051 42.2311 38.6292C41.4092 38.2475 40.8471 37.5752 40.5448 36.6121C40.2961 35.8197 40.2928 35.0585 40.535 34.3284C40.7815 33.597 41.2254 32.9504 41.8665 32.3885C42.5063 31.8222 43.2968 31.3913 44.2381 31.0959C45.1924 30.7963 46.0808 30.7003 46.9032 30.8076C47.7286 30.9093 48.4391 31.1888 49.0347 31.6463C49.629 32.0993 50.0515 32.7025 50.3023 33.4557L47.958 34.1915Z" fill="#A57704"/>
<path d="M34.4298 34.3765L36.8464 33.618L39.8143 43.074C40.0819 43.9422 40.1323 44.7463 39.9655 45.4864C39.7972 46.2221 39.4399 46.8608 38.8934 47.4027C38.3499 47.9387 37.6469 48.3421 36.7845 48.6128C35.9965 48.8601 35.2433 48.9426 34.525 48.8603C33.8097 48.7722 33.1809 48.5079 32.6386 48.0674C32.0964 47.6268 31.6954 46.9928 31.4357 46.1654L33.8588 45.4049C33.9773 45.7669 34.1543 46.0551 34.39 46.2697C34.63 46.4829 34.9099 46.6163 35.2297 46.6698C35.5495 46.7233 35.8888 46.6938 36.2478 46.5811C36.6374 46.4588 36.9425 46.2741 37.1631 46.0269C37.3823 45.7754 37.5111 45.4656 37.5496 45.0977C37.5923 44.7284 37.5417 44.3067 37.3977 43.8325L34.4298 34.3765Z" fill="#A57704"/>
</g>
<defs>
<filter id="filter0_d_1860_6716" x="0.0015626" y="6.19888e-06" width="79.3445" height="79.347" filterUnits="userSpaceOnUse" color-interpolation-filters="sRGB">
<feFlood flood-opacity="0" result="BackgroundImageFix"/>
<feColorMatrix in="SourceAlpha" type="matrix" values="0 0 0 0 0 0 0 0 0 0 0 0 0 0 0 0 0 0 127 0" result="hardAlpha"/>
<feOffset dy="4"/>
<feGaussianBlur stdDeviation="3.3"/>
<feComposite in2="hardAlpha" operator="out"/>
<feColorMatrix type="matrix" values="0 0 0 0 0 0 0 0 0 0 0 0 0 0 0 0 0 0 0.1 0"/>
<feBlend mode="normal" in2="BackgroundImageFix" result="effect1_dropShadow_1860_6716"/>
<feBlend mode="normal" in="SourceGraphic" in2="effect1_dropShadow_1860_6716" result="shape"/>
</filter>
<linearGradient id="paint0_linear_1860_6716" x1="9.4109" y1="21.0658" x2="68.5724" y2="55.9502" gradientUnits="userSpaceOnUse">
<stop offset="0.0330116" stop-color="#F5BE18" stop-opacity="0.2"/>
<stop offset="1" stop-color="#F5BE18" stop-opacity="0"/>
</linearGradient>
</defs>
</svg>
