<svg width="58" height="66" viewBox="0 0 58 66" fill="none" xmlns="http://www.w3.org/2000/svg">
<g clip-path="url(#clip0_1_977)">
<path d="M55.6696 59.4163C55.462 59.6225 55.203 59.7256 54.8929 59.7256C54.5827 59.7256 54.3237 59.6225 54.1161 59.4163C53.9111 59.21 53.8059 58.9522 53.8059 58.6428C53.8059 58.3334 53.9111 58.0512 54.143 57.845C54.3507 57.6387 54.6096 57.56 54.8929 57.56C55.203 57.56 55.462 57.6631 55.6696 57.8694C55.8773 58.0756 55.9798 58.3334 55.9798 58.6428C56.0068 58.9522 55.9016 59.21 55.6696 59.4163ZM54.2725 57.9996C54.0918 58.1788 54.0136 58.385 54.0136 58.6157C54.0136 58.8735 54.0918 59.0797 54.2725 59.2616C54.4532 59.4407 54.6609 59.5194 54.9198 59.5194C55.1788 59.5194 55.3864 59.4407 55.5671 59.2616C55.7479 59.0797 55.8261 58.8735 55.8261 58.6157C55.8261 58.385 55.7479 58.1543 55.5671 57.9996C55.3864 57.8178 55.1788 57.7147 54.9198 57.7147C54.6609 57.7418 54.4532 57.8178 54.2725 57.9996ZM55.257 59.1829C55.1518 59.2616 55.0493 59.286 54.9441 59.286C54.7904 59.286 54.6339 59.2344 54.5045 59.1069C54.375 58.9766 54.3237 58.8219 54.3237 58.6428C54.3237 58.461 54.375 58.309 54.4802 58.1788C54.5827 58.0512 54.7391 57.9996 54.9198 57.9996C55.0223 57.9996 55.1275 58.0241 55.23 58.0756C55.3595 58.1543 55.462 58.2819 55.4889 58.4881H55.203C55.1788 58.4094 55.1518 58.3334 55.1005 58.309C55.0493 58.2819 54.998 58.2575 54.9441 58.2575C54.8686 58.2575 54.7904 58.2819 54.7391 58.3606C54.6852 58.4366 54.6609 58.5397 54.6609 58.6672C54.6609 58.7975 54.6852 58.9006 54.7391 58.9522C54.7904 59.0038 54.8686 59.0553 54.9441 59.0553C55.0223 59.0553 55.0736 59.0282 55.1275 59.0038L55.203 58.8491H55.462C55.4377 59.0038 55.3595 59.1069 55.257 59.1829ZM58 47.7414C58 47.6383 57.973 47.5352 57.973 47.432C57.973 47.3561 57.9461 47.3045 57.9461 47.2529C57.9218 47.0983 57.8948 46.968 57.8436 46.8133C57.7411 46.5311 57.5846 46.2461 57.3769 46.0154C57.172 45.7821 56.9373 45.6029 56.7054 45.4727C56.4464 45.3451 56.1875 45.2664 55.9798 45.2149C55.9016 45.2149 55.8503 45.1904 55.7991 45.1904C56.085 43.9529 55.7209 43.0004 55.4889 42.5607L55.5402 42.5092C55.8503 42.1998 56.1093 41.9176 56.3439 41.6326L56.3952 41.5811C56.5759 41.3232 56.6784 41.0654 56.7566 40.8348C56.8078 40.6285 56.8591 40.4467 56.8591 40.2676V39.7791C56.8348 39.391 56.7836 38.9025 56.5246 38.3598C56.3952 38.102 56.2145 37.8197 55.9798 37.5619C55.7479 37.3041 55.462 37.0707 55.1275 36.8916C55.1005 36.8645 55.0736 36.8644 55.0493 36.84C54.3507 35.8359 53.5739 35.0353 52.8754 34.4437C52.5112 34.1343 52.1768 33.8765 51.8909 33.6703C51.6077 33.464 51.373 33.3094 51.2436 33.2062C50.9334 32.9756 50.7014 32.8453 50.5963 32.7937C50.3373 32.639 50.1566 32.5115 50.0541 32.4328C49.9759 32.3568 49.9247 32.3297 49.8977 32.3052C49.8977 32.3052 49.8977 32.2781 49.8734 32.2265C49.8464 32.1506 49.8464 32.0474 49.8464 31.8656C49.8464 31.6078 49.8464 31.2224 49.8734 30.7068C49.9247 29.8818 50.0029 28.7746 50.1054 27.2521C50.1323 26.7636 50.1323 26.2996 50.1323 25.8871C50.1054 25.1923 50.0029 24.5736 49.8734 24.0064C49.8464 23.8761 49.7952 23.7486 49.7682 23.6183C49.7439 23.5152 49.717 23.4636 49.6927 23.4121C49.6657 23.3361 49.6388 23.2574 49.5875 23.1543C49.5632 23.1027 49.5632 23.0511 49.5093 22.9996C49.458 22.872 49.4068 22.7418 49.3286 22.6142L49.3043 22.5871L49.2773 22.5111L49.2504 22.4595C49.1209 22.2261 48.9672 22.0226 48.8107 21.8408C48.7352 21.4798 48.6057 20.9642 48.3711 20.3726C48.1634 19.857 47.9045 19.2898 47.5188 18.7226C47.3893 18.5163 47.2329 18.3372 47.0764 18.1554L47.1304 18.1038C47.2059 18.0279 49.0184 16.12 50.4668 13.645C53.1343 9.03155 52.2523 6.22276 51.0359 4.67588L51.0116 4.62432L50.9846 4.57276C49.8222 3.28641 48.2174 2.51297 46.2754 2.25516C42.2107 1.73953 37.604 3.75047 36.3876 4.31494L34.1624 1.89422C33.9574 1.68797 33.7497 1.48172 33.5151 1.32703C33.2831 1.17234 33.0242 1.01766 32.7653 0.887394C32.2474 0.656719 31.6783 0.502032 31.0579 0.423332C29.8415 0.271358 28.4444 0.423332 26.9421 0.811407C24.6899 1.37859 22.1815 2.51297 19.541 4.08427C16.9005 5.65557 14.1575 7.69093 11.4927 10.1144C8.23177 13.0534 5.53999 16.1716 3.57375 19.1595C2.58928 20.6304 1.78553 22.0742 1.19215 23.4636C0.596074 24.8314 0.207681 26.1449 0.0539421 27.3308C-0.0512476 28.2074 -0.0512477 29.0324 0.129463 29.7787C0.207681 30.1125 0.310174 30.4219 0.466609 30.7312C0.64732 31.1193 0.881974 31.4802 1.16518 31.7896L3.46856 34.1859L3.72749 34.4437L3.70052 34.4682L3.625 34.6228C3.57375 34.7015 3.54678 34.7775 3.49553 34.8291L3.41732 34.9838C3.39034 35.0625 3.3391 35.1385 3.31482 35.2172L3.23661 35.3719C3.20963 35.4478 3.15839 35.5265 3.13142 35.6025C3.10714 35.6541 3.08017 35.7057 3.08017 35.7572L3.00195 35.9906C2.97768 36.0422 2.97768 36.0937 2.95071 36.1453C2.92643 36.2213 2.89946 36.3 2.87249 36.4031C2.87249 36.4275 2.84821 36.4547 2.84821 36.4791C2.84821 36.5062 2.82124 36.5307 2.82124 36.5578C2.79697 36.6338 2.76999 36.7369 2.74302 36.8129C2.74302 36.8645 2.71875 36.916 2.71875 36.9676C2.71875 36.9947 2.69178 37.0463 2.69178 37.0707C2.69178 37.1223 2.6675 37.1738 2.6675 37.2254C2.6675 37.277 2.64053 37.3285 2.64053 37.3801C2.61356 37.4832 2.61356 37.5863 2.58928 37.7166C2.58928 37.741 2.58928 37.7682 2.56231 37.8197V37.8441C2.56231 37.9228 2.53804 37.9988 2.53804 38.0504C2.53804 38.1535 2.51107 38.2838 2.51107 38.3869V39.676C2.51107 39.7275 2.51107 39.7791 2.53804 39.8307C2.53804 39.8822 2.53804 39.9582 2.56231 40.0369V40.1129C2.56231 40.1645 2.58928 40.2432 2.58928 40.292C2.58928 40.3436 2.61356 40.3951 2.61356 40.4738C2.61356 40.4982 2.61356 40.5254 2.64053 40.5498C2.64053 40.577 2.6675 40.6285 2.6675 40.6529V40.7045C2.6675 40.7561 2.69178 40.8076 2.71875 40.9108C2.71875 40.9379 2.71875 40.9379 2.74302 40.9623C2.76999 41.0139 2.77 41.0654 2.77 41.0926L2.79697 41.1441C2.79697 41.1686 2.79697 41.1686 2.82124 41.1957L2.84821 41.2473V41.3232C2.84821 41.3504 2.84821 41.3504 2.87249 41.3748L2.89946 41.4264C2.89946 41.4779 2.92643 41.5051 2.92643 41.5566C2.95071 41.6082 2.95071 41.6598 2.97768 41.7629C2.97768 41.7873 2.97768 41.7873 3.00195 41.8144C3.02892 41.8904 3.05589 41.942 3.05589 41.9691C3.08017 42.0207 3.10714 42.0723 3.13142 42.1754L3.15839 42.1998C3.18536 42.2514 3.18536 42.3029 3.20963 42.3301L3.23661 42.3816C3.23661 42.4061 3.26088 42.4332 3.26088 42.4576C3.26088 42.4848 3.28785 42.5363 3.31482 42.5607L3.3391 42.6123C3.36607 42.6395 3.36607 42.691 3.39034 42.7154C3.41732 42.7426 3.41732 42.767 3.41732 42.7941C3.44429 42.8457 3.46856 42.8973 3.49553 42.9733L3.51981 43.0004C3.54678 43.0248 3.54678 43.052 3.57375 43.0764C3.59803 43.1035 3.59803 43.1551 3.625 43.1795C3.64927 43.2066 3.67624 43.2582 3.70052 43.3342L3.72749 43.3613C3.75446 43.3857 3.75446 43.4129 3.77874 43.4373C3.80571 43.4889 3.82998 43.516 3.82998 43.5404C3.85696 43.5676 3.88393 43.6191 3.9082 43.6707V43.6951C3.93517 43.7223 3.93517 43.7467 3.95945 43.7738C3.98642 43.8254 4.01339 43.8498 4.03767 43.8769C4.06464 43.9014 4.08891 43.9529 4.14286 44.0289C4.16713 44.0561 4.1941 44.0805 4.1941 44.1076C4.21838 44.1592 4.24535 44.1836 4.27232 44.2108C4.29659 44.2352 4.32357 44.2867 4.34784 44.3383C4.37481 44.3654 4.40178 44.417 4.42606 44.4414C4.45303 44.493 4.4773 44.5201 4.53125 44.5445L4.60677 44.6232L4.63374 44.6477C4.68499 44.6992 4.71196 44.7508 4.76321 44.8024L5.04641 45.0873L5.10035 45.1389L5.20284 45.242C5.25409 45.2936 5.33231 45.3451 5.38355 45.4211L5.41053 45.4482C5.4348 45.4727 5.46177 45.4727 5.48875 45.5242C5.56427 45.6029 5.64248 45.6545 5.7207 45.7305L5.77195 45.7576L5.79892 45.782L5.85017 45.8092C5.92838 45.8607 5.97963 45.9123 6.05785 45.9639L6.08212 45.9883C6.10909 46.0154 6.13337 46.0154 6.13337 46.0154L6.18731 46.067C6.23856 46.1186 6.2898 46.143 6.34105 46.1945L6.3923 46.2217L6.44624 46.2733L6.47052 46.2977C6.52176 46.3248 6.59998 46.3764 6.65123 46.4008C6.6782 46.4279 6.70517 46.4524 6.75642 46.4524L6.80766 46.4795L6.83463 46.5039H6.85891C6.9641 46.5555 7.03962 46.607 7.11784 46.6586L7.16908 46.6857L7.47926 46.8404H7.50623L7.55748 46.8649L7.71391 46.9436C7.73819 46.9436 7.76516 46.968 7.79213 46.968C7.8164 46.9951 7.84338 46.9951 7.89462 47.0196H7.92159C7.97284 47.0467 8.02409 47.0711 8.07533 47.0711H8.10231C8.15355 47.0983 8.2048 47.1227 8.28302 47.1498H8.30729L8.36123 47.1742C8.38551 47.1742 8.41248 47.2014 8.43675 47.2014H8.46373C8.54194 47.2258 8.62016 47.2529 8.72265 47.2774H8.74963C8.87909 47.3289 9.00856 47.3561 9.13802 47.3805H9.16229C9.26479 47.4076 9.39425 47.432 9.49944 47.4592H9.60193C9.70712 47.4836 9.80962 47.5107 9.91211 47.5107H10.0173C10.0955 47.5107 10.1468 47.5352 10.225 47.5352C10.225 47.5596 10.2493 47.5867 10.2493 47.6112C10.43 48.1024 10.6107 48.5908 10.8184 49.0549C13.8716 57.484 22.3353 64.0297 31.9885 65.2401C41.6416 66.426 51.9691 60.035 56.1605 51.3996C56.3439 51.0658 56.4977 50.7565 56.6541 50.4227C57.0668 49.983 57.4039 49.5461 57.6116 49.0821C57.9461 48.7971 58.0243 48.2299 58 47.7414Z" fill="#664F44"/>
<path d="M49.7439 5.57967C49.2773 5.06405 48.7352 4.67597 48.1391 4.39373C48.0339 4.34217 47.9314 4.31503 47.802 4.29061C47.7507 4.26347 47.6995 4.21191 47.6455 4.18748C47.1304 3.98123 46.5856 3.85368 46.0165 3.77498C43.2222 3.41405 40.0126 4.4453 38.2001 5.16717C38.0976 5.21873 37.9924 5.24316 37.8899 5.29472C37.7334 5.37342 37.5797 5.42498 37.4233 5.50097C37.1643 5.60409 36.9054 5.73436 36.6222 5.86191C36.571 5.88905 36.544 5.88905 36.4927 5.91347L36.0019 5.34628L35.7672 5.08847L35.5595 4.8578L35.484 4.75467L33.5933 2.58905L33.4395 2.40993L33.2319 2.17655H33.2049L32.6628 2.30681L32.0397 2.43436C31.7053 2.27967 31.2899 2.17655 30.8233 2.10056C29.8928 1.9703 28.7033 2.10056 27.3574 2.43436C26.0115 2.77087 24.4849 3.36248 22.8801 4.16034C19.6435 5.75878 16.0724 8.20664 12.6039 11.352C11.3875 12.4348 10.2762 13.5691 9.24051 14.6764C8.23176 15.7592 7.32552 16.8664 6.49748 17.9248C4.81445 20.1149 3.54678 22.2262 2.71874 24.134C2.17392 25.3987 1.83947 26.5575 1.71 27.5616C1.60481 28.2835 1.63178 28.9293 1.76125 29.4423C1.81249 29.6241 1.86374 29.7516 1.91499 29.9063C2.04445 30.2157 2.20089 30.4735 2.40857 30.7069L4.50427 32.8969L4.73623 33.1276L4.7632 33.1032C4.81445 33.0245 4.89267 32.9485 4.97088 32.8969L5.07338 32.7938C5.12462 32.7178 5.20284 32.6663 5.25409 32.5876C5.30533 32.536 5.3323 32.5116 5.38355 32.4844C5.4348 32.46 5.46177 32.4085 5.51302 32.3813L5.56426 32.3298C5.61821 32.3053 5.64248 32.2538 5.69373 32.2266C5.74767 32.1751 5.82319 32.1235 5.87444 32.0719C5.90141 32.0475 5.95266 32.0204 5.97963 31.996H6.0039C6.08212 31.9444 6.13336 31.8928 6.21158 31.8413C6.26283 31.8141 6.2898 31.7897 6.34105 31.7381C6.41927 31.6866 6.47051 31.635 6.54873 31.5835C6.59998 31.5563 6.62695 31.5319 6.67819 31.5048C6.75641 31.4532 6.83463 31.4016 6.91015 31.3772C6.96409 31.3501 6.98837 31.3256 7.03961 31.2985C7.11783 31.2469 7.19605 31.2225 7.27427 31.171C7.32552 31.1438 7.34979 31.1194 7.40373 31.0923L7.45498 31.0678C7.5332 31.0407 7.58444 30.9891 7.66266 30.9647C7.68694 30.9376 7.73818 30.9376 7.76515 30.9131C7.8164 30.886 7.86765 30.8616 7.94586 30.8344L8.1023 30.7585L8.15355 30.7313L8.54194 30.5766C8.59319 30.5522 8.62016 30.5522 8.6714 30.5251C8.72265 30.5006 8.74962 30.5006 8.80087 30.4735L8.85211 30.4491C8.87909 30.4491 8.90336 30.4219 8.93033 30.4219C8.98158 30.3975 9.03282 30.3975 9.11104 30.3704H9.16229C9.24051 30.346 9.29175 30.346 9.36997 30.3188C9.42122 30.2944 9.49944 30.2944 9.55068 30.2673C9.6289 30.2428 9.70712 30.2428 9.78264 30.2157C9.80961 30.2157 9.83658 30.1913 9.88783 30.1913C9.9121 30.1913 9.96605 30.1913 9.99032 30.1641C10.0685 30.1397 10.1468 30.1397 10.225 30.1397C10.3005 30.1397 10.3544 30.1126 10.43 30.1126C10.4812 30.1126 10.5352 30.0881 10.5864 30.0881H10.7941C11.053 30.0881 11.3632 30.0881 11.6734 30.1126H11.7246C12.0348 30.1397 12.3989 30.1913 12.7603 30.2673C12.8385 30.2944 12.941 30.2944 13.0192 30.3188C13.0435 30.2944 13.0435 30.2428 13.0705 30.2157C13.2782 29.8819 13.4589 29.521 13.6666 29.1872C14.8317 27.2522 16.0724 25.5534 17.3401 24.058C17.7798 23.5424 18.2221 23.0784 18.6617 22.6143C20.4985 20.7065 22.3353 19.2383 23.9913 18.1039C24.3555 17.8461 24.7439 17.6154 25.0783 17.3821C25.5719 17.0727 26.0358 16.8149 26.4754 16.5571C26.8396 16.3508 27.1767 16.1717 27.5112 16.017C28.056 15.7321 28.5469 15.5014 28.9865 15.3196L29.3749 15.1649C29.5556 15.0889 29.7363 15.0102 29.8928 14.9586C29.7633 14.9342 29.6069 14.9342 29.4801 14.9342H28.9622C28.8328 14.9342 28.6763 14.9342 28.5469 14.9586C28.2879 14.9858 28.0047 15.0102 27.7188 15.0373C27.6163 15.0617 27.5381 15.0617 27.4329 15.0889C28.1342 14.7279 28.8328 14.4701 29.4801 14.2639C29.9197 14.1363 30.3594 14.0332 30.772 13.9545C31.3411 13.8514 31.886 13.7754 32.3769 13.7483C32.714 13.7238 33.0242 13.7238 33.3101 13.7238C33.5933 13.7238 33.8792 13.7483 34.1111 13.7483C34.9661 13.7998 35.484 13.9301 35.484 13.9301C35.3545 13.7483 35.1981 13.6207 35.0444 13.4904C34.7315 13.2598 34.397 13.1051 34.0842 12.9748C33.9574 12.9233 33.8522 12.8988 33.7497 12.8473C33.6715 12.8201 33.5933 12.7957 33.542 12.7957C33.6985 12.7686 33.8279 12.7441 33.9574 12.7441C34.1111 12.717 34.2406 12.717 34.397 12.6926C35.6135 12.5895 36.7004 12.6926 37.5015 12.8201C38.459 13.002 39.0551 13.2326 39.0551 13.2326C38.9256 12.9748 38.7179 12.7441 38.486 12.5379C38.3295 12.4076 38.1488 12.2801 37.9924 12.177C38.3295 12.2529 38.6154 12.3316 38.9256 12.4348C39.7024 12.6654 40.3497 12.9504 40.8649 13.1811L41.3315 13.4145C41.3827 13.4389 41.4097 13.466 41.4367 13.466C41.9006 13.7238 42.1595 13.9029 42.1595 13.9029C42.0813 13.6207 41.9275 13.3629 41.7199 13.1295C41.6686 13.0779 41.6174 13.002 41.5661 12.9504H41.5904C41.6174 12.9504 41.6416 12.9748 41.6956 12.9748C41.7199 12.9748 41.7711 13.002 41.8251 13.0264C42.03 13.1051 42.3402 13.2326 42.7043 13.4145C42.7286 13.4145 42.7286 13.4389 42.7556 13.4389L42.912 13.5176C43.0415 13.5936 43.1682 13.6451 43.2977 13.7483L43.6861 13.9816C43.7643 14.0332 43.8156 14.0576 43.8938 14.1092C44.0232 14.2123 44.1797 14.3154 44.3091 14.4457C44.4629 14.5733 44.5924 14.7035 44.7218 14.8311L44.8 14.9071C44.9025 15.0102 45.0077 15.1133 45.0859 15.2164C45.2666 15.4227 45.4204 15.6561 45.5768 15.8867C45.7575 16.1717 45.887 16.5055 46.0165 16.842C46.0165 16.8664 46.0165 16.8936 46.0434 16.8936C46.1189 16.8149 46.2754 16.6602 46.4561 16.4539C47.9584 14.7035 52.46 9.03164 49.7439 5.57967Z" fill="#132134"/>
<path d="M56.4464 47.9206C56.4464 47.9206 56.4977 47.5352 56.29 47.1743C56.29 47.1499 56.2657 47.1227 56.2657 47.1227L56.2387 47.0983L56.1605 47.0196C56.1093 46.9681 56.058 46.9165 55.9798 46.8649C55.9555 46.8405 55.9016 46.8134 55.8503 46.7889C55.7209 46.7374 55.5914 46.6858 55.4107 46.6587C55.2812 46.6343 55.1518 46.6343 54.998 46.6343H54.7904V46.6858C54.7904 46.7102 54.8146 46.7374 54.8146 46.7889C54.8146 46.8134 54.8146 46.8405 54.8416 46.8405C54.8686 46.9165 54.8929 47.0468 54.9198 47.1499C54.9198 47.1499 54.9198 47.1743 54.8928 47.2259V47.253C54.8146 47.4321 54.6096 47.8446 54.143 48.3602C54.0648 48.4634 53.9866 48.5394 53.8841 48.6425C52.5895 49.9831 49.7952 51.8638 43.8938 52.9222C41.9006 53.2044 40.0368 53.2315 38.486 53.0253C36.1556 52.7403 34.4213 51.994 33.5933 50.9899C33.5151 50.9112 33.4638 50.8081 33.3856 50.7321C33.3344 50.6534 33.3101 50.6019 33.2561 50.5259C33.2319 50.4987 33.2319 50.4743 33.2049 50.4472C32.8704 49.8284 32.714 49.1581 32.714 48.5149C32.714 47.7143 32.9729 46.9681 33.3856 46.4009C33.7227 45.9368 34.1624 45.5759 34.7072 45.4212C34.9661 45.3452 35.2493 45.2936 35.5352 45.3181C35.5865 45.3181 35.6647 45.3181 35.7672 45.3452C35.9479 45.3696 36.2338 45.3968 36.571 45.4483C36.5952 45.4483 36.6465 45.4483 36.6735 45.4727C37.7874 45.603 39.5459 45.7821 41.6686 45.6546C45.5498 45.4212 50.6502 44.2108 55.2812 40.037V40.0098C55.3082 39.6489 55.257 39.0301 54.8146 38.5417C54.7391 38.463 54.6609 38.387 54.5557 38.3083C54.5045 38.2567 54.4262 38.2323 54.375 38.1807C54.2995 38.1536 54.2455 38.102 54.1943 38.0776L53.9623 37.9229V37.8958C53.9354 37.8442 53.9111 37.7926 53.8571 37.7411C52.6677 35.9391 51.0116 34.8807 50.3373 34.3922C50.0272 34.1588 49.8222 34.0557 49.8222 34.0557C48.3981 33.1792 48.1904 32.8969 48.3198 30.5522C48.3711 29.7 48.4493 28.5928 48.5518 27.0731C48.5518 26.8668 48.5788 26.685 48.5788 26.5059V25.7569C48.5788 25.6293 48.5518 25.5018 48.5518 25.3986C48.5518 25.3471 48.5518 25.2955 48.5275 25.244C48.5006 25.1137 48.5006 24.9861 48.4763 24.8559C48.4763 24.8043 48.4493 24.7283 48.4493 24.6768C48.4493 24.5981 48.4223 24.5465 48.3981 24.4705C48.3711 24.419 48.3711 24.3403 48.3468 24.2887C48.3198 24.2127 48.2929 24.134 48.2929 24.058C48.2929 24.0309 48.2686 24.0065 48.2686 23.9793C48.2686 23.9549 48.2416 23.9278 48.2416 23.9033V23.8762L48.2174 23.8002C48.1904 23.7486 48.1634 23.6971 48.1634 23.6455V23.6184L48.1391 23.5668L48.1122 23.5153C48.0609 23.4121 48.0339 23.309 47.9827 23.233L47.9584 23.1543C47.9045 23.0783 47.8532 22.9752 47.802 22.8965L47.775 22.8721L47.7507 22.8449C47.6995 22.7934 47.6725 22.7418 47.6213 22.6903L47.57 22.6143C47.5188 22.5356 47.4648 22.484 47.4136 22.4324V22.2262C47.3893 22.1231 47.3623 21.9955 47.3354 21.868C47.3354 21.8408 47.3111 21.7893 47.3111 21.7648V21.7377C47.3111 21.6861 47.2841 21.6617 47.2841 21.6102C47.2599 21.507 47.2329 21.4039 47.1816 21.3008C47.1816 21.2736 47.1547 21.2221 47.1547 21.1977L47.0764 20.9643C47.0522 20.9127 47.0522 20.8611 47.0252 20.8367C47.0009 20.758 46.974 20.682 46.9227 20.6033L46.8445 20.4486C46.8175 20.3727 46.7663 20.294 46.742 20.218L46.6638 20.0633C46.6125 19.9846 46.5856 19.9086 46.5343 19.8299L46.4561 19.6752C46.4049 19.5992 46.3536 19.5205 46.3024 19.4174C46.2754 19.3658 46.2484 19.3414 46.2241 19.2898C46.1972 19.2627 46.1729 19.2111 46.1459 19.1867C46.0677 19.108 46.0165 19.032 45.9382 18.9533L45.887 18.9289C45.7845 18.8258 45.7063 18.7227 45.6011 18.644L45.5768 18.6195C45.5256 18.5924 45.4716 18.5408 45.4474 18.5164H45.4204C45.3691 18.4893 45.3449 18.4648 45.2909 18.4404L45.2666 18.4133C45.2154 18.3889 45.1372 18.3373 45.032 18.2857C45.0077 18.2586 44.9565 18.2586 44.9025 18.2342C44.6706 18.1555 44.3847 18.0523 44.0232 17.9492C43.999 17.9492 43.972 17.9492 43.945 17.9248C43.6618 17.8461 43.3247 17.7701 42.9633 17.7185C42.8338 17.6914 42.7286 17.6914 42.5991 17.667C42.5479 17.667 42.4966 17.667 42.4184 17.6398H42.3402C42.057 17.6154 41.7981 17.5883 41.5122 17.5883H41.4879C41.1238 17.5883 40.7624 17.6154 40.4252 17.6914C40.5034 17.5639 40.7381 17.4092 40.9431 17.2789C41.229 17.1242 41.4879 17.0211 41.4879 17.0211C41.3315 17.0211 41.1777 17.0482 41.0213 17.0727C40.97 17.0727 40.9188 17.0998 40.8649 17.0998C40.8406 17.0998 40.7893 17.0998 40.7624 17.1242H40.7381C40.7111 17.1242 40.6841 17.1242 40.6599 17.1514C39.8561 17.3305 39.0793 17.6154 38.6397 17.7945L38.486 17.8732H38.459C38.4077 17.8732 38.3808 17.8732 38.3295 17.8977C38.6397 17.306 39.1063 16.9967 39.4677 16.842C39.5217 16.8148 39.5972 16.7904 39.6511 16.7633C39.6754 16.7633 39.6754 16.7633 39.7024 16.7389C39.7536 16.7117 39.8049 16.7117 39.8318 16.6873C39.9074 16.6602 39.9613 16.6602 39.9613 16.6602H39.5459C38.6667 16.7633 37.8629 17.0482 37.1913 17.4336C36.7247 17.6914 36.312 17.9764 35.9479 18.2586C35.8454 18.2857 35.7672 18.3102 35.6647 18.3102C34.6802 18.5164 33.569 18.7742 32.4038 19.1352C31.9642 19.2627 31.5245 19.4174 31.0822 19.5721C30.7478 19.7023 30.3836 19.8299 30.0492 19.9602C29.7903 20.0633 29.5556 20.1664 29.2967 20.2695C27.5112 21.0674 25.7256 22.1231 24.2503 23.5424L24.0965 23.6971L23.7081 24.0824L23.5517 24.2371C23.5005 24.3158 23.4222 24.3918 23.371 24.4434C23.0851 24.7528 22.8262 25.0893 22.5699 25.4502C22.3865 25.708 22.2058 25.9903 22.0521 26.2725L22.0251 26.2996C21.688 26.8912 21.3778 27.51 21.1458 28.2074C21.0164 28.5412 20.9112 28.9022 20.8087 29.2631C20.7817 29.3662 20.7574 29.4422 20.7305 29.5454L20.7062 29.5969C20.601 29.985 20.5255 30.3975 20.4715 30.81C20.4715 30.886 20.4473 30.9647 20.4473 31.0678C20.4203 31.2741 20.396 31.4803 20.396 31.711C20.369 31.9172 20.369 32.0991 20.369 32.3053V33.1032C20.369 33.3338 20.369 33.5672 20.396 33.7979V33.825C20.396 34.0557 20.4203 34.2891 20.4473 34.5469C20.4473 34.65 20.4715 34.7532 20.4715 34.8563V34.9323C20.4715 34.9838 20.4715 35.0354 20.4985 35.1141C20.5255 35.3719 20.5767 35.6542 20.601 35.9391C20.601 36.0151 20.628 36.0938 20.628 36.1698C20.6792 36.4032 20.7062 36.6583 20.7574 36.8917C20.7574 36.8917 20.7062 36.5823 20.7305 36.1182C20.7305 36.0151 20.7574 35.8875 20.7574 35.7844C20.7817 35.5266 20.8357 35.2172 20.9381 34.9323L21.0164 34.7016C21.0164 34.6745 21.0406 34.65 21.0676 34.5985C21.1189 34.4682 21.1971 34.3135 21.2753 34.186C21.2996 34.2891 21.2996 34.3922 21.3265 34.4682V35.836C21.3535 36.7098 21.429 37.7682 21.6124 38.6692C21.6124 38.6692 21.6367 37.0463 21.9226 36.8401C21.9226 36.8401 22.4135 39.8823 22.8531 41.0139C22.9044 41.1686 22.9826 41.2718 23.0339 41.3505V41.0411L22.9826 39.3667V39.1848C23.3198 39.8823 23.7081 40.577 24.1478 41.3233C24.2772 41.5296 24.3797 41.7358 24.5092 41.9421C23.6812 42.6639 22.9044 43.7223 22.3353 44.9571C22.2571 45.1634 22.1546 45.3696 22.0764 45.5759C22.0251 45.7061 21.9981 45.8093 21.9469 45.9368C21.9469 45.9639 21.9226 46.0155 21.9226 46.0399C21.8956 46.1186 21.8687 46.2218 21.8444 46.2977C21.8444 46.3493 21.8174 46.3764 21.8174 46.428C21.7932 46.504 21.7662 46.6071 21.7392 46.6858C21.7392 46.7374 21.7149 46.7618 21.7149 46.8134L21.6367 47.2014C21.6124 47.329 21.5855 47.4593 21.5855 47.5868C21.5855 47.6384 21.5855 47.6628 21.5585 47.7143C21.5585 47.8175 21.5342 47.8962 21.5342 47.9993C21.5342 48.0509 21.5342 48.1024 21.5073 48.154C21.5073 48.2571 21.483 48.3331 21.483 48.4362V49.3399C21.483 49.4431 21.483 49.5462 21.5073 49.6737V49.7524C21.5073 49.88 21.5342 50.0102 21.5585 50.1649C21.5585 50.2165 21.5585 50.2409 21.5855 50.2925C21.5855 50.3956 21.6124 50.4743 21.6367 50.5774C21.6367 50.629 21.6637 50.6805 21.6637 50.7321C21.688 50.8081 21.688 50.9112 21.7149 50.9899C21.7149 51.0415 21.7392 51.0931 21.7392 51.1446C21.7662 51.2206 21.7932 51.2966 21.7932 51.3997C21.8174 51.4513 21.8174 51.5028 21.8444 51.5815C21.8687 51.6575 21.8956 51.7607 21.9226 51.8394C21.9469 51.8909 21.9469 51.9425 21.9739 51.994C21.9981 52.07 22.0251 52.1731 22.0521 52.2519C22.0764 52.3034 22.0764 52.355 22.1033 52.4065C22.1276 52.5097 22.1815 52.6128 22.2058 52.6888C22.2328 52.7403 22.2328 52.7675 22.2571 52.819L22.6455 53.6685C22.6724 53.72 22.6994 53.7472 22.7237 53.7987L22.8801 54.1081C22.9044 54.1597 22.9314 54.2112 22.9826 54.2628C23.0339 54.3388 23.0851 54.4419 23.139 54.5206C23.1633 54.5722 23.2146 54.6237 23.2415 54.6753C23.2928 54.7513 23.344 54.8544 23.4222 54.9304C23.4735 54.9819 23.5005 55.0335 23.5517 55.1122C23.603 55.1882 23.6812 55.2913 23.7324 55.37C23.7864 55.4216 23.8106 55.4731 23.8619 55.5491C23.9401 55.6278 23.9913 55.731 24.0696 55.8069C24.1208 55.8585 24.1478 55.9101 24.199 55.9616C24.2772 56.0648 24.3555 56.1435 24.458 56.2466L24.5874 56.3741C24.7169 56.5044 24.8464 56.6591 24.9758 56.7866C24.9758 56.7866 24.8976 56.6835 24.7951 56.4773C24.7681 56.4528 24.7439 56.4013 24.7439 56.3497L24.6656 56.195C24.6387 56.1435 24.6144 56.0919 24.5874 56.0132C24.3797 55.5491 24.199 54.8788 24.226 54.1597L24.458 54.469C24.5362 54.6481 24.6656 54.8788 24.7951 55.1366C24.8464 55.2153 24.8976 55.3185 24.9246 55.3944C25.1296 55.7554 25.3372 56.1679 25.5962 56.556C25.9063 57.0444 26.2165 57.5085 26.5537 57.9482C26.5537 57.9482 26.1653 57.1231 26.0358 56.5804C26.0115 56.4257 25.9846 56.2981 26.0115 56.2194C26.0358 56.2466 26.0628 56.2981 26.114 56.3226C26.141 56.3497 26.1653 56.4013 26.2165 56.4257C26.2705 56.5044 26.346 56.6075 26.4512 56.7351L26.5024 56.7866C26.5537 56.8382 26.5806 56.9169 26.6319 56.9685C26.6831 57.0444 26.7344 57.1231 26.8126 57.1991C27.3574 57.8966 28.1072 58.822 28.6251 59.3132C28.8058 59.4679 28.9622 59.5954 29.0647 59.647L28.3149 58.3091C30.0222 59.6986 37.1131 61.4788 44.0745 59.4923C44.9295 59.2616 45.7575 58.9523 46.5856 58.5913C47.0764 58.3851 47.57 58.1273 48.0609 57.8694L48.1391 57.8179C48.4763 57.6388 48.8107 57.4325 49.1479 57.2263C49.4068 57.0716 49.6657 56.8898 49.8977 56.7351C50.3131 56.4528 50.7257 56.1435 51.1411 55.8069C51.1654 55.7825 51.1923 55.7554 51.2193 55.7554C51.6077 55.4216 51.9961 55.0606 52.3305 54.6997C52.7971 54.2112 53.2125 53.72 53.5739 53.2315L53.5982 53.2044C53.7034 53.0769 53.7816 52.9737 53.8571 52.8435L53.8841 52.819C53.9111 52.7675 53.9354 52.7403 53.9623 52.6888C54.0918 52.5097 54.1943 52.355 54.3237 52.1731C54.3507 52.1216 54.375 52.0972 54.402 52.0456C54.4532 51.9425 54.5045 51.8638 54.5827 51.7607C54.6339 51.6847 54.6609 51.6331 54.7121 51.5544C54.7634 51.4784 54.8146 51.3997 54.8416 51.3237C54.9198 51.1935 54.998 51.0415 55.0736 50.9112L55.3864 50.2925L55.4107 50.2409C55.462 50.1134 55.5402 49.9831 55.5914 49.8556V49.8284C55.8261 49.6222 55.9798 49.4159 56.1362 49.2368C56.1605 49.2097 56.1875 49.1852 56.1875 49.1581C56.3439 48.6696 56.4464 48.2815 56.4464 47.9206ZM14.8048 42.9218C14.8048 42.8973 14.8048 42.8702 14.7778 42.8186C14.7023 42.3817 14.6241 41.9176 14.5971 41.4536V41.3505C14.5189 41.3749 14.4434 41.478 14.3382 41.6083C14.3139 41.6598 14.2599 41.7114 14.2357 41.7874C14.001 42.227 13.796 42.8458 13.796 42.8458C13.8203 42.6395 13.8473 42.4333 13.8473 42.227V42.1483C13.8716 41.9421 13.8985 41.7114 13.9255 41.5051V41.4264C13.9498 41.1686 14.001 40.938 14.055 40.7046C14.055 40.6801 14.055 40.653 14.0792 40.6014V40.577C14.0792 40.5499 14.0792 40.5255 14.1062 40.4983C14.1062 40.4468 14.1305 40.4223 14.1305 40.3708C14.1575 40.1917 14.2087 40.0098 14.2357 39.8307C14.2599 39.676 14.2869 39.5213 14.3139 39.3911V39.3395C14.3139 39.3151 14.3139 39.288 14.3382 39.288V39.2364C14.3382 39.212 14.3651 39.1604 14.3651 39.1333C14.3651 39.1088 14.3651 39.0817 14.3894 39.0573C14.3894 39.0057 14.4164 38.9542 14.4164 38.927C14.4164 38.9026 14.4434 38.851 14.4434 38.8239C14.4434 38.7723 14.4676 38.7208 14.4676 38.6963C14.4676 38.6692 14.4676 38.6448 14.4946 38.6176C14.4946 38.5932 14.4946 38.5661 14.5189 38.5661C14.5189 38.5145 14.5458 38.4901 14.5458 38.463V38.387L14.4946 38.4385C14.4434 38.463 14.4164 38.5145 14.3651 38.5417L14.3139 38.5932C14.2599 38.6448 14.2087 38.6963 14.1844 38.7479L14.1575 38.7723L14.001 39.0057L13.9767 39.0301C13.9767 39.0573 13.9498 39.0573 13.9498 39.0817L13.8716 39.2364V39.288C13.8473 39.3667 13.796 39.4426 13.7691 39.5213C13.6908 39.7276 13.6153 39.9338 13.5614 40.113C13.5371 40.1645 13.5371 40.2432 13.5101 40.2676C13.4859 40.3708 13.4589 40.4739 13.4589 40.4983C13.4589 40.4223 13.4589 40.3708 13.4859 40.2921C13.4859 40.1645 13.5101 40.0098 13.5101 39.8823C13.5101 39.7792 13.5371 39.6489 13.5614 39.5458C13.5614 39.5213 13.5614 39.4698 13.5884 39.4426C13.5884 39.3911 13.6153 39.3395 13.6153 39.288C13.6153 39.2364 13.6396 39.1848 13.6396 39.1333V39.0573C13.6396 39.0057 13.6666 38.927 13.6666 38.8755V38.6963C13.6666 38.6692 13.6666 38.6448 13.6908 38.6176C13.7178 38.5417 13.7448 38.4385 13.7448 38.3598V38.3354C13.7691 38.2838 13.7691 38.2051 13.796 38.1536V38.1292C13.8203 37.9989 13.8716 37.8713 13.8985 37.7411V37.6895C13.8985 37.6651 13.8985 37.638 13.9255 37.6135C13.9767 37.4073 14.055 37.201 14.1062 37.0192V36.9948C14.1575 36.8401 14.2357 36.6583 14.2869 36.5063V36.4792C14.3139 36.4032 14.3382 36.3516 14.3651 36.2729C14.4164 36.1698 14.4434 36.0667 14.4946 35.9635C14.4946 35.9391 14.5189 35.8875 14.5728 35.7844C14.5971 35.7573 14.5971 35.7057 14.6241 35.6813C14.6483 35.6297 14.6753 35.5782 14.7023 35.4995L14.7266 35.4479L15.1662 34.65C15.1932 34.6229 15.1932 34.5713 15.2174 34.5469V34.5198L15.2444 34.4682C15.2957 34.3922 15.3469 34.2891 15.4009 34.2104C15.4764 34.0829 15.5303 33.9526 15.6058 33.8495C15.7353 33.6188 15.8405 33.4125 15.9187 33.3094C15.943 33.2307 15.97 33.2063 15.9942 33.1792C15.97 33.1792 15.8405 33.076 15.6328 32.9485C15.3739 32.7938 15.0125 32.5875 14.5728 32.3813C14.4164 32.3053 14.2869 32.2537 14.1305 32.175C13.9498 32.0991 13.7448 32.0204 13.5371 31.9444C13.4859 31.9172 13.4319 31.9172 13.3807 31.8928C13.2 31.8412 13.0435 31.7897 12.8628 31.7381C12.7333 31.711 12.6039 31.6866 12.5014 31.6594C12.3989 31.635 12.2937 31.635 12.1912 31.6079C12.14 31.6079 12.086 31.6079 12.0348 31.5834C11.9835 31.5834 11.9323 31.5834 11.881 31.5563C11.7516 31.5563 11.5951 31.5319 11.4657 31.5319H11.258C10.9478 31.5319 10.6646 31.5563 10.3787 31.6079H10.3275C9.80962 31.6866 9.31873 31.8141 8.82515 31.9959C8.67141 32.0475 8.51497 32.1235 8.33426 32.2022C8.28302 32.2266 8.25604 32.2537 8.2048 32.2537L8.05106 32.3297C7.58445 32.5631 7.14481 32.8725 6.72944 33.2063H6.70517C6.34105 33.4885 6.03088 33.825 5.74767 34.1588L5.51302 34.4682C5.41053 34.5985 5.33231 34.726 5.25409 34.8563C5.10035 35.087 4.94392 35.3448 4.81445 35.6026C4.76321 35.7057 4.71196 35.7844 4.68499 35.8875C4.68499 35.912 4.66071 35.912 4.66071 35.9391C4.40178 36.5579 4.1941 37.201 4.11588 37.8958C4.08891 38.026 4.08891 38.1536 4.06464 38.3083V38.3598C4.06464 38.463 4.03767 38.5661 4.03767 38.6963V39.1604C4.03767 39.2635 4.03767 39.3667 4.06464 39.4698V39.5973C4.06464 39.676 4.08891 39.752 4.08891 39.8307V39.8551C4.08891 39.9067 4.08891 39.9338 4.11588 39.9854C4.11588 40.0614 4.14286 40.1401 4.14286 40.1917C4.14286 40.2432 4.16713 40.2921 4.16713 40.3436C4.1941 40.4223 4.1941 40.4739 4.21838 40.5499C4.21838 40.6014 4.24535 40.653 4.27232 40.7046V40.7317L4.29659 40.7833V40.8348L4.32357 40.8864C4.34784 40.938 4.34784 40.9895 4.37481 41.0411C4.40178 41.0926 4.40178 41.1686 4.42606 41.2202C4.45303 41.2718 4.47731 41.3233 4.47731 41.402L4.50428 41.4536C4.53125 41.5051 4.53125 41.5296 4.55552 41.5811C4.5825 41.6327 4.60677 41.6843 4.63374 41.763L4.71196 41.9176C4.73623 41.9421 4.73623 41.9692 4.76321 41.9936C4.78748 42.0208 4.78748 42.0452 4.81445 42.0723L4.89267 42.227C4.91694 42.2786 4.94392 42.3546 4.99516 42.4061C5.02213 42.4577 5.04641 42.5093 5.07338 42.5364C5.10035 42.588 5.1516 42.6639 5.17587 42.7155C5.20285 42.7671 5.22982 42.7942 5.25409 42.8458C5.28106 42.8973 5.33231 42.9733 5.38356 43.0249C5.41053 43.0764 5.4348 43.1036 5.46177 43.128C5.51302 43.1796 5.53999 43.2583 5.59124 43.3098C5.61821 43.3343 5.64248 43.3858 5.66946 43.413C5.7207 43.4645 5.77195 43.5405 5.82319 43.5921C5.85017 43.6192 5.87444 43.6436 5.90141 43.6952C5.95266 43.7468 6.00391 43.8255 6.05785 43.877L6.13337 43.953C6.18731 44.0046 6.23856 44.0806 6.31678 44.1321L6.3923 44.2108L6.57571 44.3899C6.59998 44.4171 6.62695 44.4415 6.65123 44.4415C6.70517 44.4931 6.78069 44.5446 6.85891 44.6233C6.88588 44.6477 6.91015 44.6477 6.93713 44.6749C7.01534 44.7264 7.06659 44.778 7.14481 44.8296C7.16908 44.854 7.19606 44.854 7.19606 44.8811L7.42801 45.0358L7.47926 45.0602L7.71391 45.2149L7.76516 45.2421C7.84338 45.2936 7.94587 45.3452 8.02409 45.3968L8.07533 45.4212C8.15355 45.4727 8.25604 45.5243 8.33426 45.5514L8.38551 45.5759C8.4907 45.6274 8.56622 45.6546 8.67141 45.7061L8.69568 45.7306C8.80087 45.7821 8.90337 45.8093 8.98158 45.8608H9.00856C9.11105 45.8852 9.21354 45.9368 9.31873 45.9639H9.343C9.39425 45.9884 9.44819 45.9884 9.49944 46.0155C9.55069 46.0399 9.60193 46.0399 9.68015 46.0671H9.70712C9.80961 46.0915 9.93908 46.1186 10.0416 46.1431C10.1468 46.1702 10.2762 46.1946 10.3787 46.1946C10.7401 46.2462 11.1043 46.2733 11.4657 46.2977H11.7246C11.8541 46.2977 11.9566 46.2977 12.086 46.2733C12.2425 46.2462 12.4232 46.2462 12.6039 46.2218C12.7603 46.1946 12.9141 46.1702 13.0435 46.1431C13.2782 46.0915 13.5101 46.0399 13.7178 45.9639C14.3894 45.7821 14.9585 45.5243 15.3226 45.2421C15.3226 45.2421 15.088 44.2108 14.9073 43.1796C14.856 43.128 14.8317 43.0249 14.8048 42.9218Z" fill="#90694C"/>
<path d="M31.4193 4.62495L31.3411 3.59642L31.859 2.46204L32.0666 2.41048C31.7295 2.25579 31.3168 2.15267 30.8502 2.07397C29.9197 1.94642 28.7275 2.07397 27.3817 2.41048C26.0358 2.74428 24.5092 3.33861 22.9044 4.13647C19.6704 5.73491 16.0994 8.18277 12.6308 11.3254C11.4144 12.4082 10.3005 13.5426 9.26475 14.6525C8.256 15.7326 7.34975 16.8426 6.52172 17.8982C4.84138 20.0883 3.57371 22.2023 2.74298 24.1101C2.20085 25.3721 1.8637 26.5309 1.73424 27.5377C1.63175 28.2596 1.65602 28.9028 1.78549 29.4184C1.83943 29.5975 1.89068 29.7277 1.94192 29.8824C2.07139 30.1918 2.22782 30.4496 2.43281 30.6803L4.53121 32.8731L4.76317 33.1037L4.78744 33.0766C4.84138 33.0006 4.9169 32.9246 4.99512 32.8731L5.02209 32.8459L5.10031 32.7699C5.15156 32.6912 5.22978 32.6397 5.28102 32.5637C5.33227 32.5121 5.35924 32.485 5.41049 32.4606C5.46173 32.4334 5.4887 32.3819 5.53995 32.3574L5.5912 32.3059C5.64244 32.2787 5.66942 32.2272 5.72066 32.2027C5.77191 32.1512 5.85013 32.0996 5.90137 32.0481C5.92834 32.0209 5.97959 31.9965 6.00386 31.9694H6.03084C6.10905 31.9178 6.1603 31.8662 6.23852 31.8147C6.28976 31.7902 6.31674 31.7631 6.36798 31.7115C6.4462 31.66 6.49745 31.6084 6.57567 31.5569C6.62691 31.5324 6.65119 31.5053 6.70513 31.4809C6.78065 31.4293 6.85887 31.3777 6.93709 31.3506C6.98833 31.3262 7.0153 31.299 7.06655 31.2746C7.14477 31.2231 7.22029 31.1959 7.29851 31.1444C7.34975 31.1199 7.37673 31.0928 7.42797 31.0684L7.47922 31.0412C7.9728 29.6762 8.72261 28.1565 9.70708 26.6096C10.8965 24.7018 12.4231 22.6908 14.2356 20.6826C15.3738 19.418 16.6172 18.156 17.9631 16.9457C19.6947 15.3717 21.4829 13.9551 23.2415 12.7176C24.431 11.8926 25.5961 11.1463 26.7343 10.5031C26.8395 10.4515 26.942 10.3728 27.0715 10.3213C27.3817 10.1421 27.6676 9.98745 27.9777 9.83277C28.6251 9.49625 29.2724 9.18688 29.8927 8.92907L29.5826 8.56813L29.5313 8.51657L29.1429 8.07964L26.9933 5.50152L27.0202 3.64798L26.9933 3.62084L28.5199 3.15678L31.4193 4.62495Z" fill="#2F83C1"/>
<path d="M56.4464 47.9198C56.4464 47.9198 56.4977 47.5345 56.29 47.1735C56.29 47.1491 56.2657 47.122 56.2657 47.122L56.2388 47.0975L56.1605 47.0188C56.1093 46.9673 56.058 46.9157 55.9798 46.8641C55.9556 46.8397 55.9016 46.8126 55.8504 46.7882C55.7209 46.7366 55.5914 46.685 55.4107 46.6579C55.2813 46.6335 55.1518 46.6335 54.9981 46.6335H54.7904V46.685C54.7904 46.7095 54.8146 46.7366 54.8146 46.7882C54.8146 46.8126 54.8146 46.8397 54.8416 46.8397C54.8686 46.9157 54.8929 47.046 54.9198 47.1491C54.9198 47.1491 54.9198 47.1735 54.8929 47.2251V47.2522C54.8146 47.4313 54.6097 47.8438 54.1431 48.3595C54.0648 48.4626 53.9866 48.5386 53.8841 48.6417C52.5895 49.9823 49.7952 51.863 43.8938 52.9214C41.9006 53.2036 40.0368 53.2308 38.486 53.0245C36.1556 52.7396 34.4213 51.9933 33.5933 50.9891C33.5151 50.9104 33.4638 50.8073 33.3856 50.7313C33.3344 50.6526 33.3101 50.6011 33.2561 50.5251C33.2319 50.4979 33.2319 50.4735 33.2049 50.4464C32.8704 49.8276 32.714 49.1573 32.714 48.5141C32.714 47.7136 32.9729 46.9673 33.3856 46.4001C33.7228 45.936 34.1624 45.5751 34.7072 45.4204C34.9662 45.3444 35.2494 45.2928 35.5353 45.3173C35.5865 45.3173 35.6647 45.3173 35.7672 45.3444C35.9479 45.3688 36.2338 45.396 36.571 45.4475C36.5952 45.4475 36.6465 45.4475 36.6735 45.472C37.7874 45.6022 39.5459 45.7813 41.6686 45.6538C45.5499 45.4204 50.6502 44.21 55.2813 40.0362V40.009C55.3082 39.6481 55.257 39.0294 54.8146 38.5409C54.7391 38.4622 54.6609 38.3862 54.5557 38.3075C54.5045 38.2559 54.4263 38.2315 54.375 38.1799C54.2995 38.1528 54.2455 38.1012 54.1943 38.0768L53.9623 37.9221V37.895C53.9354 37.8434 53.9111 37.7919 53.8572 37.7403C52.6677 35.9383 51.0116 34.8799 50.3373 34.3914C50.0272 34.1581 49.8222 34.0549 49.8222 34.0549C48.3981 33.1784 48.1904 32.8961 48.3199 30.5514C48.3711 29.6993 48.4493 28.592 48.5518 27.0723C48.5518 26.866 48.5788 26.6842 48.5788 26.5051V25.7561C48.5788 25.6285 48.5518 25.501 48.5518 25.3979C48.5518 25.3463 48.5518 25.2947 48.5275 25.2432C48.5006 25.1129 48.5006 24.9854 48.4763 24.8551C48.4763 24.8035 48.4493 24.7275 48.4493 24.676C48.4493 24.5973 48.4223 24.5457 48.3981 24.4697C48.3711 24.4182 48.3711 24.3395 48.3468 24.2879C48.3199 24.2119 48.2929 24.1332 48.2929 24.0572C48.2929 24.0301 48.2686 24.0057 48.2686 23.9785C48.2686 23.9541 48.2416 23.927 48.2416 23.9025V23.8754L48.2174 23.7994C48.1904 23.7479 48.1634 23.6963 48.1634 23.6447V23.6176L48.1391 23.566L48.1122 23.5145C48.0609 23.4113 48.034 23.3082 47.9827 23.2322L47.9584 23.1535C47.9045 23.0775 47.8532 22.9744 47.802 22.8957L47.775 22.8713L47.7507 22.8442C47.6995 22.7926 47.6725 22.741 47.6213 22.6895L47.57 22.6135C47.5188 22.5348 47.4648 22.4832 47.4136 22.4317L47.2059 22.2254C47.1304 22.1738 47.0522 22.1223 46.974 22.0979C46.947 22.0734 46.9227 22.0734 46.8957 22.0734L46.742 21.9947C46.715 21.9947 46.6881 21.9703 46.6638 21.9703C46.6125 21.9432 46.5586 21.9432 46.5343 21.9187C46.5074 21.9187 46.4831 21.8916 46.4318 21.8916C46.3779 21.8916 46.3536 21.8672 46.3024 21.8672H45.7306C45.7063 21.8672 45.6793 21.8672 45.655 21.8916C45.6281 21.8916 45.6011 21.8916 45.5768 21.9187C45.5256 21.9187 45.4716 21.9432 45.3961 21.9703H45.3449C45.1884 22.0219 45.059 22.0734 44.9025 22.1223L44.8513 22.1494C44.8 22.1738 44.7488 22.201 44.6706 22.2254L44.5924 22.2525L44.4386 22.3285L44.3604 22.3801L44.204 22.4588L44.1284 22.5104C44.0745 22.5348 44.0233 22.5863 43.972 22.6135L43.9208 22.6379C43.8695 22.6895 43.7913 22.7166 43.7401 22.7682L43.7131 22.7926C43.6349 22.8442 43.5836 22.8957 43.5054 22.9229C43.3759 22.9988 43.2465 23.102 43.117 23.1807C43.0145 23.2567 42.912 23.3354 42.7826 23.4113L42.7286 23.4385C42.6261 23.5145 42.4967 23.5932 42.3942 23.6447L42.3402 23.6692C42.2377 23.7479 42.1083 23.7994 42.0058 23.8754L41.9545 23.9025C41.8493 23.9785 41.7199 24.0301 41.5904 24.0817L41.5392 24.1088C41.4097 24.1604 41.3072 24.2119 41.1777 24.2635L41.1238 24.2879C40.9943 24.3395 40.8649 24.3666 40.7381 24.4182H40.7111C40.5817 24.4426 40.4252 24.4697 40.2958 24.4942C40.0638 24.5213 39.8049 24.5457 39.5729 24.5457C39.1845 24.5457 38.7961 24.5213 38.3808 24.4697L37.9924 24.391C37.9411 24.391 37.8899 24.3666 37.8629 24.3666C37.5285 24.2879 37.1643 24.2119 36.8299 24.1332C36.6735 24.1088 36.544 24.0572 36.3876 24.0301C36.1556 23.9785 35.9236 23.927 35.6647 23.8754C35.6135 23.8754 35.5595 23.851 35.5353 23.851C35.5083 23.851 35.457 23.8238 35.4301 23.8238C35.3788 23.8238 35.3276 23.7994 35.2763 23.7994C35.2251 23.7994 35.1738 23.7723 35.1199 23.7723H35.0686C35.0174 23.7723 34.9662 23.7479 34.9392 23.7479C34.8367 23.7207 34.7315 23.6963 34.602 23.6963C34.5778 23.6963 34.5265 23.6963 34.4995 23.6692C34.4213 23.6692 34.3431 23.6447 34.2676 23.6447C34.2136 23.6447 34.1894 23.6447 34.1381 23.6176C34.0599 23.6176 34.0087 23.5932 33.9304 23.5932H32.741C32.6115 23.5932 32.5063 23.6176 32.3769 23.6176H32.2744C32.1962 23.6176 32.1179 23.6447 32.0397 23.6447H32.0154C31.9642 23.6447 31.9372 23.6692 31.886 23.6692C31.8078 23.6963 31.7295 23.6963 31.654 23.7207C31.6001 23.7207 31.5488 23.7479 31.5246 23.7479C31.4463 23.7723 31.3681 23.7994 31.2899 23.7994C31.2387 23.7994 31.2117 23.8238 31.1604 23.851C31.0822 23.8754 30.9797 23.9025 30.9015 23.927C30.8503 23.9541 30.8233 23.9541 30.799 23.9785C30.6696 24.0301 30.5401 24.0817 30.4376 24.1332C29.4531 24.7004 28.5981 25.4738 27.9508 26.3504C27.7188 26.6598 27.5112 26.9692 27.3305 27.2785C27.1228 27.6123 26.969 27.9733 26.8126 28.3342C26.7614 28.4373 26.7344 28.5405 26.6831 28.6436C26.6319 28.8254 26.5537 29.0045 26.5024 29.1863C26.5024 29.2108 26.5024 29.2379 26.4755 29.2379C26.4242 29.4414 26.373 29.6477 26.3217 29.8811C26.2705 30.1118 26.2435 30.318 26.2165 30.5514C26.1922 30.6789 26.1922 30.7821 26.1922 30.9123C26.1653 31.2461 26.1653 31.5555 26.1922 31.892V31.968C26.1922 32.0467 26.1922 32.1227 26.2165 32.2258C26.2435 32.4592 26.2705 32.6899 26.3217 32.9233C26.346 32.9993 26.373 33.0752 26.373 33.1784C26.3999 33.2571 26.3999 33.3331 26.4242 33.4118C26.5806 34.0034 26.8126 34.5461 27.0985 35.0102C28.1585 36.8393 29.9197 37.9465 31.2117 38.5409C31.7053 38.7471 32.2231 38.9534 32.7653 39.1325L32.714 39.184C32.6115 39.2112 32.5063 39.2356 32.3769 39.2627C32.1962 39.3143 31.9642 39.3903 31.7295 39.469C31.4706 39.545 31.1604 39.6752 30.8503 39.8028C30.0222 40.1393 29.0917 40.6278 28.2637 41.2981C28.1585 41.3741 28.056 41.4772 27.9508 41.5559C27.7701 41.7106 27.6164 41.8653 27.4599 42.0444L27.3305 42.1747C27.2792 42.2507 27.201 42.3022 27.1497 42.3809L27.0715 42.4569C26.9933 42.56 26.9178 42.6632 26.8638 42.7663C26.7883 42.8694 26.7344 42.9725 26.6589 43.0757C26.1653 43.9251 25.8821 44.9563 25.9603 46.1938V46.1423C25.9603 46.1178 25.9603 46.0907 25.9846 46.0663V46.0391C25.9846 46.0147 26.0115 45.9876 26.0115 45.936V45.9116C26.0115 45.8845 26.0358 45.8329 26.0358 45.7813C26.0358 45.7298 26.0628 45.7053 26.0898 45.6538V45.6266C26.114 45.5751 26.114 45.5235 26.141 45.472V45.4475C26.1653 45.396 26.1653 45.3444 26.1922 45.2928V45.2657C26.2165 45.2141 26.2435 45.1626 26.2705 45.0866L26.2947 45.0595C26.3217 45.0079 26.346 44.9319 26.3999 44.8803C26.4512 44.7772 26.5024 44.6985 26.5537 44.5954C26.5806 44.571 26.6049 44.5194 26.6319 44.4923L26.6589 44.4678L26.8126 44.2345C26.8638 44.1829 26.9178 44.1069 26.969 44.0553L27.0203 44.0038C27.0715 43.9522 27.0985 43.9007 27.1497 43.8762L27.201 43.8247C27.2522 43.7731 27.3305 43.7215 27.3817 43.6428C27.3817 43.6428 26.2705 46.1694 26.7614 48.1532V47.7651C26.7614 47.7136 26.7614 47.662 26.7883 47.6104C26.7883 47.5589 26.7883 47.51 26.8126 47.4585V47.4313C26.8126 47.3798 26.8396 47.3038 26.8396 47.2522V47.2007C26.8638 47.122 26.8638 47.0704 26.8908 46.9944V46.9673C26.9178 46.8913 26.9421 46.8126 26.9421 46.761C26.9421 46.7366 26.969 46.7095 26.969 46.685L26.9933 46.6335C27.0203 46.5819 27.0473 46.5032 27.0715 46.4516C27.0985 46.3757 27.1497 46.297 27.201 46.221C27.201 46.1938 27.228 46.1694 27.228 46.1694L27.3817 45.936C27.3817 45.936 27.3305 46.5548 27.3305 47.3038C27.3305 47.4313 27.3305 47.5345 27.3574 47.662C27.3574 47.7407 27.3574 47.8167 27.3817 47.8954C27.3574 48.411 27.3574 48.9266 27.4087 49.4667C27.4869 50.3704 27.7188 51.3474 28.1072 52.3542C28.1072 52.3542 27.7458 51.1927 28.2637 50.0339L28.4174 50.3433C28.4687 50.6798 28.5199 51.1683 28.6251 51.7083C28.7276 52.612 29.143 55.3177 31.0067 57.1984C31.0067 57.1984 30.3081 56.2974 30.4106 55.1359C30.4888 55.2905 30.5671 55.4208 30.6183 55.5484C30.9285 56.1427 31.5488 57.2255 32.2474 57.9989C32.2474 57.9989 31.7053 56.9405 31.8347 56.7099C31.8347 56.7099 33.6445 58.9515 34.2136 59.1577L33.4638 57.9202L33.4396 57.8958C36.0531 59.8009 39.6754 60.4984 44.1284 59.2609C44.9025 59.0546 45.6793 58.7697 46.5074 58.4359C47.0009 58.2296 47.4918 57.9718 47.9827 57.714L48.0609 57.6624C48.3981 57.4833 48.7352 57.2771 49.0697 57.0708C49.3286 56.9161 49.5875 56.7343 49.8222 56.5796C50.2348 56.2974 50.6502 55.988 51.0629 55.6515C51.0898 55.6271 51.1141 55.5999 51.1411 55.5999C51.5295 55.2661 51.9179 54.9052 52.2523 54.5442C52.7189 54.0558 53.1343 53.5646 53.4957 53.0761L53.5227 53.0489C53.6252 52.9214 53.7034 52.8183 53.7816 52.688L53.8059 52.6636C53.8329 52.612 53.8572 52.5849 53.8841 52.5333C54.0136 52.3542 54.1161 52.1995 54.2455 52.0177C54.2725 51.9661 54.2995 51.9417 54.3238 51.8901C54.375 51.787 54.4263 51.7083 54.5045 51.6052C54.5557 51.5292 54.5827 51.4776 54.6339 51.3989C54.6852 51.3229 54.7391 51.2442 54.7634 51.1683C54.8416 51.0407 54.9198 50.886 54.9981 50.7558L55.0736 50.6011L55.3082 50.137L55.3325 50.0854C55.3864 49.9579 55.462 49.8276 55.5159 49.7001V49.6729C55.7479 49.4667 55.9016 49.2604 56.058 49.0813C56.085 49.0542 56.1093 49.0298 56.1093 49.0026C56.3439 48.6688 56.4464 48.2808 56.4464 47.9198ZM14.5971 41.3497C14.5189 41.3741 14.4434 41.4772 14.3382 41.6075C14.3139 41.659 14.26 41.7106 14.2357 41.7866C14.001 42.2262 13.796 42.845 13.796 42.845C13.8203 42.6387 13.8473 42.4325 13.8473 42.2262V42.1475C13.8716 41.9413 13.8985 41.7106 13.9255 41.5044V41.4257C13.9498 41.1678 14.001 40.9372 14.055 40.7038C14.055 40.6794 14.055 40.6522 14.0792 40.6007V40.5762C14.0792 40.5491 14.0792 40.5247 14.1062 40.4975C14.1062 40.446 14.1305 40.4215 14.1305 40.37C14.1575 40.1909 14.2087 40.009 14.2357 39.8299C14.26 39.6752 14.2869 39.5206 14.3139 39.3903V39.3387C14.3139 39.3143 14.3139 39.2872 14.3382 39.2872V39.2356C14.3382 39.2112 14.3651 39.1596 14.3651 39.1325C14.3651 39.1081 14.3651 39.0809 14.3894 39.0565C14.3894 39.0049 14.4164 38.9534 14.4164 38.9262C14.4164 38.9018 14.4434 38.8502 14.4434 38.8231C14.4434 38.7715 14.4676 38.72 14.4676 38.6956C14.4676 38.6684 14.4676 38.644 14.4946 38.6169C14.4946 38.5924 14.4946 38.5653 14.5189 38.5653C14.5189 38.5137 14.5459 38.4893 14.5459 38.4622V38.3862L14.4946 38.4377C14.4434 38.4622 14.4164 38.5137 14.3651 38.5409L14.3139 38.5924C14.26 38.644 14.2087 38.6956 14.1844 38.7471L14.1575 38.7715L14.001 39.0049L13.9768 39.0294C13.9768 39.0565 13.9498 39.0565 13.9498 39.0809L13.8716 39.2356V39.2872C13.8473 39.3659 13.796 39.4419 13.7691 39.5206C13.6909 39.7268 13.6153 39.9331 13.5614 40.1122C13.5371 40.1637 13.5371 40.2424 13.5101 40.2669C13.4859 40.37 13.4589 40.4731 13.4589 40.4975C13.4589 40.4215 13.4589 40.37 13.4859 40.2913C13.4859 40.1637 13.5101 40.009 13.5101 39.8815C13.5101 39.7784 13.5371 39.6481 13.5614 39.545C13.5614 39.5206 13.5614 39.469 13.5884 39.4419C13.5884 39.3903 13.6153 39.3387 13.6153 39.2872C13.6153 39.2356 13.6396 39.184 13.6396 39.1325V39.0565C13.6396 39.0049 13.6666 38.9262 13.6666 38.8747V38.6956C13.6666 38.6684 13.6666 38.644 13.6909 38.6169C13.7178 38.5409 13.7448 38.4377 13.7448 38.359V38.3346C13.7691 38.2831 13.7691 38.2044 13.796 38.1528V38.1284C13.8203 37.9981 13.8716 37.8706 13.8985 37.7403V37.6887C13.8985 37.6643 13.8985 37.6372 13.9255 37.6127C13.9768 37.4065 14.055 37.2002 14.1062 37.0184V36.994C14.1575 36.8393 14.2357 36.6575 14.2869 36.5055V36.4784C14.3139 36.4024 14.3382 36.3508 14.3651 36.2721C14.4164 36.169 14.4434 36.0659 14.4946 35.9627C14.4946 35.9383 14.5189 35.8868 14.5728 35.7836C14.5971 35.7565 14.5971 35.7049 14.6241 35.6805C14.6483 35.6289 14.6753 35.5774 14.7023 35.4987L14.7266 35.4471C14.7023 35.4227 14.6483 35.4227 14.6241 35.3956H14.5971L14.5459 35.3711C14.3139 35.268 14.055 35.1649 13.796 35.0862H13.7448C13.5614 35.0346 13.4076 35.0102 13.2269 34.9831C13.1217 34.9831 13.0193 34.9586 12.9141 34.9586H12.6551C12.5284 34.9586 12.3989 34.9831 12.2694 34.9831C12.2155 34.9831 12.1912 34.9831 12.14 35.0102C12.086 35.0102 12.0105 35.0346 11.9566 35.0346C11.9323 35.0346 11.9053 35.0346 11.881 35.0618C11.8271 35.0618 11.8028 35.0862 11.7516 35.0862C11.6734 35.1133 11.5682 35.1377 11.4927 35.1649C11.4657 35.1649 11.4144 35.1893 11.3875 35.1893C11.285 35.2409 11.1555 35.268 11.053 35.3196C10.9991 35.344 10.9748 35.3711 10.9236 35.3711L10.7671 35.4471L10.7159 35.4743C10.6646 35.4987 10.6107 35.5258 10.5594 35.5774C10.5082 35.6018 10.4569 35.6289 10.4057 35.6805C10.3544 35.7049 10.3005 35.7565 10.2493 35.7836C10.225 35.8081 10.171 35.8352 10.1468 35.8596C10.0685 35.9383 9.96606 36.0143 9.88784 36.093L9.75837 36.2206C9.68015 36.2993 9.62891 36.3752 9.55069 36.4539L9.52372 36.4784C9.49944 36.5299 9.4482 36.5571 9.42123 36.6086L9.34301 36.6846C9.21354 36.8637 9.08408 37.07 8.98159 37.2762C8.95462 37.3034 8.95462 37.3278 8.93034 37.3549C8.87909 37.4581 8.85212 37.5612 8.80088 37.6643C8.7739 37.7159 8.7739 37.7403 8.74963 37.7919C8.72266 37.895 8.67141 37.9981 8.64444 38.1284V38.2315C8.62017 38.3075 8.62017 38.3862 8.59319 38.4622C8.59319 38.5137 8.59319 38.5409 8.56622 38.5924C8.56622 38.644 8.56622 38.6684 8.54195 38.72V38.8231C8.54195 38.9534 8.51498 39.0809 8.54195 39.2112C8.54195 39.3143 8.54195 39.4174 8.56622 39.5206V39.5721C8.56622 39.6237 8.59319 39.6752 8.59319 39.7268C8.62017 39.9331 8.67141 40.1122 8.72266 40.3184C8.7739 40.4731 8.82515 40.6007 8.87909 40.7309C8.98159 40.9887 9.11105 41.2194 9.26479 41.4528C9.57766 41.9169 9.99033 42.3294 10.4812 42.6387C10.7401 42.8178 11.053 42.9481 11.3632 43.0512C11.6464 43.1544 11.9566 43.2303 12.2937 43.2575C12.3719 43.2575 12.4502 43.2819 12.5014 43.2819H12.8385C12.941 43.2819 13.0435 43.2575 13.1487 43.2575C13.2 43.2575 13.2782 43.2575 13.3294 43.2303C13.4859 43.2059 13.6153 43.1788 13.7691 43.1544H13.796C13.8473 43.1272 13.8985 43.1272 13.9768 43.1028C14.1575 43.0512 14.3382 42.9725 14.4946 42.8965L14.5189 42.8694C14.5728 42.845 14.6241 42.8178 14.6483 42.8178C14.5728 42.3809 14.4946 41.9169 14.4676 41.4528C14.5971 41.4012 14.5971 41.3741 14.5971 41.3497Z" fill="#FCE9CD"/>
<path d="M54.8687 46.8641C54.8687 46.8397 54.8687 46.8125 54.8417 46.8125C54.8147 46.761 54.8147 46.7365 54.8147 46.7094C54.6853 46.2969 54.5315 45.9875 54.3751 45.7568C54.1944 45.4719 54.0406 45.3172 54.0406 45.3172L54.1162 45.0078C54.1431 44.8803 54.1701 44.75 54.1701 44.6225C54.2726 43.6943 54.0406 42.9725 53.833 42.56C53.806 42.484 53.7817 42.4324 53.7547 42.3809C53.5983 42.484 53.4688 42.5871 53.3151 42.6902C50.5208 44.5709 47.3894 45.7813 43.9991 46.2969C41.6687 46.6578 39.2089 46.685 36.6466 46.3756L36.7005 46.4C36.7005 46.4 35.1469 46.6063 34.7316 48.0744L34.7586 48.1016L34.6291 49.0813C34.6803 50.4219 35.2764 51.2442 35.975 51.6838C36.7005 51.9661 37.5798 52.1723 38.5643 52.3026C40.2446 52.5088 42.2108 52.4573 44.1798 52.1479C46.8176 51.7869 50.5451 50.3948 53.2126 48.5901C53.806 48.1776 54.3751 47.7406 54.8417 47.3037L54.8929 47.2522C54.8929 47.0703 54.8687 46.9672 54.8687 46.8641Z" fill="black"/>
<path d="M49.8223 34.134C48.3982 33.2574 48.1906 32.9752 48.32 30.6278C48.3713 29.7783 48.4495 28.6711 48.552 27.1486C48.552 26.9424 48.5789 26.7633 48.5789 26.5815V25.8352C48.5789 25.7076 48.552 25.5773 48.552 25.4742C48.552 25.4227 48.552 25.3711 48.5277 25.3195C48.5007 25.192 48.5007 25.0617 48.4765 24.9342C48.4765 24.8826 48.4495 24.8039 48.4495 24.7523C48.4495 24.6764 48.4225 24.6248 48.3982 24.5461C48.3713 24.4945 48.3713 24.4185 48.347 24.367C48.1393 24.0576 47.9047 23.7998 47.6215 23.5664L47.5702 23.5148L47.519 23.4904H47.492C47.4407 23.4633 47.4138 23.4389 47.3625 23.4117C47.3113 23.3873 47.26 23.3602 47.2331 23.3357C46.8177 23.0779 46.3268 22.9232 45.8359 22.8445C45.55 22.793 45.2668 22.793 44.9809 22.793C44.8515 22.793 44.6977 22.8201 44.5683 22.8201C44.2041 22.8717 43.8427 22.9477 43.4543 23.0508C43.3249 23.1295 43.1954 23.2326 43.0659 23.3086C42.9634 23.3873 42.8582 23.4633 42.7288 23.542L42.6775 23.5664C42.575 23.6451 42.4456 23.7211 42.3404 23.7727L42.2891 23.7998C42.1866 23.8758 42.0572 23.9273 41.9547 24.006L41.9007 24.0305C41.7983 24.1092 41.6688 24.1607 41.5393 24.2123L41.4881 24.2367C41.3586 24.2883 41.2534 24.3398 41.124 24.3914L41.0727 24.4185C40.9433 24.4701 40.8138 24.4945 40.6843 24.5461H40.66C40.5306 24.5732 40.3741 24.5977 40.2447 24.6248C40.0127 24.6492 39.7538 24.6764 39.5218 24.6764C39.1334 24.6764 38.7451 24.6492 38.3297 24.5977L37.9413 24.5217C37.8901 24.5217 37.8388 24.4945 37.8118 24.4945C37.4747 24.4185 37.1133 24.3398 36.7761 24.2639C36.6224 24.2367 36.4929 24.1852 36.3365 24.1607C36.1045 24.1092 35.8726 24.0576 35.6136 24.006C35.5597 24.006 35.5084 23.9789 35.4842 23.9789C35.2765 23.9789 35.0688 24.006 34.8881 24.0305H34.8369C34.2408 24.1092 33.6717 24.2367 33.0756 24.443C33.0513 24.443 33.0244 24.4701 32.9731 24.4701C32.8706 24.4945 32.7924 24.5461 32.6872 24.5732C32.5577 24.6248 32.4552 24.6764 32.3258 24.7279C31.4708 25.0889 30.6697 25.6045 29.8929 26.2477C29.5828 26.5055 29.2969 26.7877 29.0137 27.0727C28.5983 27.5096 28.2369 27.9736 27.8997 28.4648C27.8754 28.4893 27.8754 28.5164 27.8485 28.5408C27.6678 28.7986 27.5113 29.0836 27.3819 29.3414C27.3306 29.4418 27.2794 29.5449 27.2281 29.6236V29.6481C27.0717 29.9846 26.9422 30.294 26.8397 30.6278C26.8397 30.6549 26.8397 30.6793 26.8128 30.6793C26.7885 30.7309 26.7885 30.7824 26.7615 30.834C26.7103 30.9887 26.659 31.1434 26.6321 31.2981C26.5808 31.4528 26.5538 31.6074 26.5296 31.7893C26.5296 31.8137 26.5026 31.8653 26.5026 31.8924C26.4756 31.9955 26.4756 32.0986 26.4513 32.1746C26.4001 32.5356 26.3731 32.8965 26.3462 33.2574V33.5153C26.5026 34.1069 26.7345 34.6496 27.0204 35.1137C28.0804 36.9428 29.8417 38.05 31.1363 38.6444C31.6272 38.8506 32.1451 39.0569 32.6872 39.236L32.7142 39.2631L32.7411 39.236C32.8167 39.1844 32.8706 39.1329 32.9461 39.0813C32.9731 39.0569 32.9974 39.0569 33.0244 39.0297L33.2563 38.875C33.2833 38.8506 33.3103 38.8506 33.3345 38.8235L33.5692 38.6688C33.5935 38.6444 33.6204 38.6444 33.6447 38.6172C33.7229 38.5657 33.8011 38.5141 33.9036 38.4625C33.9306 38.4381 33.9576 38.4381 33.9818 38.411C34.0601 38.3594 34.1626 38.3079 34.2408 38.2563C34.2677 38.2319 34.292 38.2319 34.319 38.2047C34.3972 38.1532 34.4997 38.1016 34.5779 38.05C34.6022 38.0256 34.6561 38.0256 34.6804 37.9985C34.7586 37.9469 34.8611 37.8954 34.9393 37.8438C34.9663 37.8194 35.0176 37.7922 35.0445 37.7922C35.1201 37.7407 35.2252 37.6891 35.3277 37.6375C35.379 37.6131 35.406 37.586 35.4572 37.586C35.5597 37.5344 35.6379 37.4829 35.7431 37.4584C35.7943 37.4313 35.8186 37.4069 35.8726 37.4069C35.9751 37.3553 36.0533 37.3282 36.1558 37.2766L36.3122 37.2006C36.4147 37.1491 36.4929 37.1219 36.5954 37.0704C36.6467 37.0459 36.7006 37.0188 36.7761 36.9944C36.8813 36.9672 36.9595 36.9157 37.062 36.8912C37.1133 36.8641 37.1915 36.8397 37.2427 36.8125C37.3479 36.7881 37.4234 36.7366 37.5286 36.7094C37.6042 36.685 37.6581 36.6579 37.7336 36.6334C37.8388 36.609 37.917 36.5574 38.0195 36.5303L38.2515 36.4543C38.3297 36.4272 38.4349 36.4028 38.5104 36.3512C38.5886 36.3241 38.6911 36.2996 38.7693 36.2725C38.8475 36.2481 38.95 36.2209 39.0283 36.1965C39.1334 36.1694 39.2359 36.1449 39.3142 36.1178C39.3924 36.0934 39.4679 36.0662 39.5731 36.0418C39.6756 36.0147 39.7781 35.9903 39.9075 35.9387C39.9615 35.9116 40.0127 35.9116 40.064 35.8871C40.4793 34.8287 41.747 32.2018 43.894 31.9168C44.1286 31.8924 44.3336 31.8653 44.5413 31.8653H44.6977C44.6707 31.7106 44.6438 31.5559 44.6438 31.3768C44.5683 30.2424 44.9297 29.2898 45.4206 29.2627C45.809 29.2383 46.1191 29.8028 46.1731 29.9846C46.3268 30.3184 46.432 30.758 46.4563 31.2465C46.4832 31.6861 46.432 32.0986 46.3538 32.4596C46.405 32.5111 46.432 32.5627 46.4832 32.5871C46.9741 33.2059 47.0523 34.0309 47.0254 34.6496C47.2061 34.6225 47.4138 34.6225 47.6215 34.5981C47.6727 34.5981 47.7239 34.5981 47.7752 34.5709H47.8804C48.1123 34.5465 48.3713 34.5194 48.6302 34.5194C49.1993 34.4678 49.7684 34.4434 50.3645 34.4162C50.0273 34.2371 49.8223 34.134 49.8223 34.134ZM55.2302 50.0098C54.2996 50.8348 53.3152 51.5024 52.3307 52.0452C51.8398 52.303 51.3489 52.5337 50.8823 52.7399C49.8223 53.204 48.8109 53.5134 47.9047 53.7468C45.9141 54.2352 44.5413 54.2352 44.5413 54.2352C45.6282 54.8269 47.0011 54.8269 47.9316 54.7509C48.5789 54.6993 49.0186 54.5718 49.0186 54.5718C48.9916 54.9571 48.9404 55.3181 48.8891 55.679C48.8109 56.0644 48.7084 56.4009 48.5789 56.7102V56.7347C48.4225 57.1227 48.2175 57.4565 48.0098 57.7659C47.9829 57.793 47.9586 57.8446 47.9316 57.869L48.0098 57.8175C48.347 57.6384 48.6814 57.4321 49.0186 57.2259C49.2775 57.0712 49.5364 56.8894 49.7684 56.7347C50.1838 56.4524 50.5964 56.1431 51.0118 55.8065C51.0361 55.7821 51.063 55.755 51.09 55.755C51.4784 55.4212 51.8668 55.0602 52.2012 54.6993C52.6679 54.2108 53.0832 53.7196 53.4446 53.2311L53.4689 53.204C53.5741 53.0764 53.6523 52.9733 53.7278 52.8431L53.7548 52.8186C53.7818 52.7671 53.8061 52.7399 53.833 52.6884C53.9625 52.5093 54.065 52.3546 54.1945 52.1727C54.2214 52.1212 54.2457 52.0968 54.2727 52.0452C54.3239 51.9421 54.3752 51.8634 54.4534 51.7602C54.5046 51.6843 54.5316 51.6327 54.5829 51.554C54.6341 51.478 54.6853 51.3993 54.7123 51.3233C54.7905 51.1931 54.8688 51.0411 54.9443 50.9108L55.2571 50.2921L55.2814 50.2405C55.3327 50.113 55.4109 49.9827 55.4621 49.8551C55.3596 49.8796 55.3084 49.9311 55.2302 50.0098ZM31.6272 39.6241C31.3683 39.7 31.0581 39.8303 30.7479 39.9579C29.9199 40.2917 28.9867 40.7829 28.1587 41.4532C28.0562 41.5292 27.951 41.6323 27.8485 41.711C27.6678 41.8657 27.5113 42.0204 27.3576 42.1995L27.3036 42.251L27.2281 42.3297C27.1769 42.4057 27.0987 42.4573 27.0474 42.536L26.9692 42.612C26.891 42.7151 26.8128 42.8182 26.7615 42.9213C26.6833 43.0245 26.6321 43.1276 26.5538 43.2307C26.0629 44.0801 25.777 45.1114 25.8553 46.3489V46.2973C25.8553 46.2729 25.8553 46.2458 25.8822 46.2213V46.1942C25.8822 46.1698 25.9065 46.1426 25.9065 46.0911V46.0667C25.9065 46.0395 25.9335 45.988 25.9335 45.9364C25.9335 45.8848 25.9605 45.8604 25.9847 45.8088V45.7817C26.0117 45.7301 26.0117 45.6786 26.036 45.627V45.6026C26.0629 45.551 26.0629 45.4995 26.0899 45.4479V45.4208C26.1142 45.3692 26.1412 45.3176 26.1654 45.2417L26.1924 45.2145C26.2167 45.163 26.2437 45.087 26.2949 45.0354C26.3462 44.9323 26.4001 44.8536 26.4513 44.7505C26.4756 44.726 26.5026 44.6745 26.5296 44.6473L26.5538 44.6229L26.7103 44.3895C26.7615 44.338 26.8128 44.262 26.864 44.2104L26.918 44.1588C26.9692 44.1073 26.9935 44.0557 27.0474 44.0286L27.0987 43.977C27.1499 43.9255 27.2281 43.8766 27.2794 43.7979C27.2794 43.7979 26.1654 46.3245 26.659 48.3083V47.9202C26.659 47.8686 26.659 47.8171 26.6833 47.7655C26.6833 47.7139 26.6833 47.6624 26.7103 47.6108V47.5864C26.7103 47.5348 26.7345 47.4588 26.7345 47.4073V47.3557C26.7615 47.277 26.7615 47.2255 26.7885 47.1495V47.1223C26.8128 47.0463 26.8397 46.9676 26.8397 46.9161C26.8397 46.8917 26.864 46.8645 26.864 46.8401L26.891 46.7885C26.918 46.737 26.9422 46.6583 26.9692 46.6067C26.9935 46.5307 27.0474 46.452 27.0987 46.376C27.0987 46.3489 27.1229 46.3245 27.1229 46.3245L27.2794 46.0911C27.2794 46.0911 27.2281 46.7098 27.2281 47.4588C27.2281 47.5864 27.2281 47.6895 27.2524 47.8171C27.2524 47.8958 27.2524 47.9718 27.2794 48.0505C27.3306 47.2526 27.4871 46.5036 27.692 45.8088C27.746 45.627 27.8215 45.4208 27.8754 45.2417C27.8754 45.2145 27.8997 45.1901 27.8997 45.163C27.9779 44.9838 28.0292 44.8292 28.1074 44.6473C28.1344 44.6229 28.1344 44.5958 28.1587 44.5442C28.2369 44.3895 28.3151 44.2104 28.3933 44.0557C28.4176 44.0286 28.4176 44.0042 28.4176 43.977C28.5983 43.6432 28.779 43.3338 28.9624 43.0516C28.9867 43.0245 28.9867 43 29.0137 42.9729C29.0919 42.8698 29.1674 42.7667 29.2456 42.6391C29.2726 42.612 29.2726 42.5875 29.2969 42.5604C29.3238 42.536 29.3238 42.5088 29.3508 42.4844C29.4533 42.3542 29.5315 42.2266 29.634 42.0963C29.661 42.0719 29.661 42.0448 29.6853 42.0448C29.7904 41.9172 29.8929 41.787 29.9954 41.6838C30.1249 41.5292 30.2544 41.4016 30.3838 41.2469C30.489 41.1438 30.5672 41.0407 30.6697 40.962L30.7722 40.8588C30.9799 40.6526 31.1876 40.4463 31.3953 40.2672C31.9644 39.7516 32.4283 39.4178 32.5847 39.3147C32.4822 39.3391 32.377 39.3662 32.2476 39.3907C32.0938 39.4694 31.8861 39.5454 31.6272 39.6241Z" fill="#F2D2AC"/>
<path d="M46.5345 34.0309C46.5345 34.0309 46.5345 33.9793 46.5075 33.8762C46.4051 33.5152 46.0436 32.6387 44.6195 32.7689C43.1172 32.9236 42.5993 34.134 42.4699 34.5465C42.4456 34.6225 42.4456 34.674 42.4456 34.674L42.4968 34.7012C42.6776 34.5465 43.0417 34.5465 43.3761 34.7772C43.5326 34.8803 43.6351 34.9834 43.7402 35.1137C43.8697 35.3199 43.894 35.5262 43.8158 35.6809L43.7402 35.7569C43.7402 35.7569 43.7915 35.784 43.894 35.8084C44.3093 35.9387 45.4718 36.1694 46.0949 35.3715C46.1192 35.3199 46.1461 35.2928 46.1731 35.2412C46.0436 35.1897 45.9897 35.0106 45.9897 34.7772C45.9897 34.674 46.0167 34.5709 46.0436 34.4434C46.1192 34.134 46.3538 33.9522 46.5345 34.0309ZM39.0553 45.0598C38.0708 45.2661 37.2185 45.4208 36.5712 45.5239C36.5954 45.5239 36.6467 45.5239 36.6737 45.551C37.7876 45.6786 39.5461 45.8604 41.6688 45.7301C45.55 45.4995 50.6504 44.2864 55.2814 40.1125V40.0881C55.3084 39.7272 55.2572 39.1084 54.8148 38.6172C54.7393 38.5412 54.6611 38.4625 54.5559 38.3865C54.5316 38.3865 54.5316 38.3594 54.5047 38.3594C54.3752 38.2834 54.2727 38.2319 54.1702 38.1532L53.9356 37.9985V37.974C53.6524 38.3865 53.3152 38.7719 52.9538 39.1328C52.8243 39.2631 52.6949 39.3907 52.5384 39.5209C51.2708 40.6526 49.6147 41.6323 47.8292 42.4057C44.8785 43.6948 41.5663 44.5442 39.0553 45.0598ZM14.5191 38.335C14.4678 38.3594 14.4436 38.411 14.3896 38.4381L14.3384 38.4897C14.2871 38.5412 14.2359 38.5928 14.2089 38.6444L14.1846 38.6688L14.0282 38.9022L14.0012 38.9266C14.0012 38.9537 13.9769 38.9537 13.9769 38.9782L13.8987 39.1328V39.1844C13.8718 39.2631 13.8205 39.3391 13.7962 39.4178C13.718 39.624 13.6398 39.8303 13.5886 40.0094C13.5616 40.061 13.5616 40.1397 13.5373 40.1641C13.5103 40.2672 13.4861 40.3703 13.4861 40.3948C13.4861 40.3188 13.4861 40.2672 13.5103 40.1912C13.5103 40.061 13.5373 39.9063 13.5373 39.7787C13.5373 39.6756 13.5616 39.5453 13.5886 39.4422C13.5886 39.4178 13.5886 39.3662 13.6155 39.3391C13.6155 39.2875 13.6398 39.236 13.6398 39.1844C13.6398 39.1328 13.6668 39.0813 13.6668 39.0297V38.9537C13.6668 38.9022 13.691 38.8235 13.691 38.7719V38.5928C13.691 38.5657 13.691 38.5412 13.718 38.5141C13.745 38.4381 13.7693 38.335 13.7693 38.2563V38.2319C13.7962 38.1803 13.7962 38.1016 13.8205 38.05V38.0256C13.8475 37.8953 13.8987 37.7678 13.9257 37.6375V37.586C13.9257 37.5615 13.9257 37.5344 13.95 37.51C14.0012 37.3037 14.0794 37.0975 14.1307 36.9157V36.8912C14.1846 36.7365 14.2602 36.5574 14.3141 36.4027V36.3756C14.3384 36.2996 14.3653 36.2481 14.3896 36.1694C14.4436 36.0662 14.4678 35.9631 14.5191 35.86C14.5191 35.8356 14.5461 35.784 14.5973 35.6809C14.6243 35.6537 14.6243 35.6022 14.6485 35.5777C14.6755 35.5262 14.7025 35.4746 14.7268 35.3959L14.7537 35.3444C14.7268 35.3199 14.6755 35.3199 14.6485 35.2928H14.6243L14.573 35.2684C14.3384 35.1652 14.0794 35.0621 13.8205 34.9834H13.7693C13.5886 34.9319 13.4321 34.9074 13.2514 34.8803C13.1489 34.8803 13.0437 34.8559 12.9412 34.8559H12.6823C12.5528 34.8559 12.4234 34.8803 12.2939 34.8803C12.2427 34.8803 12.2157 34.8803 12.1644 34.9074C12.1132 34.9074 12.035 34.9319 11.9837 34.9319C11.9568 34.9319 11.9325 34.9319 11.9055 34.959C11.8543 34.959 11.8273 34.9834 11.7761 34.9834C11.6978 35.0106 11.5953 35.035 11.5171 35.0621C11.4929 35.0621 11.4416 35.0865 11.4146 35.0865C11.3121 35.1381 11.1827 35.1652 11.0775 35.2168C11.0262 35.2412 10.9993 35.2684 10.948 35.2684L10.7943 35.3444L10.7403 35.3715C10.6891 35.3959 10.6378 35.4231 10.5866 35.4746C10.5354 35.499 10.4814 35.5262 10.4302 35.5777C10.3789 35.6022 10.3277 35.6537 10.2764 35.6809C10.2495 35.7053 10.1982 35.7324 10.1712 35.7569C10.0957 35.8356 9.99053 35.9115 9.91231 35.9902L9.78284 36.1178C9.70732 36.1965 9.65338 36.2725 9.57786 36.3512L9.55089 36.3756C9.52392 36.4272 9.47267 36.4543 9.44839 36.5059L9.37018 36.5819C9.24071 36.761 9.11125 36.9672 9.00876 37.1735C8.98178 37.2006 8.98178 37.225 8.95481 37.2522C8.90357 37.3553 8.87929 37.4584 8.82535 37.5615C8.80107 37.6131 8.80107 37.6375 8.7741 37.6891C8.7741 37.7162 8.80107 37.7407 8.80107 37.7678C8.82535 37.8709 8.85232 37.9469 8.87929 38.05V38.1016C8.90357 38.1803 8.95481 38.2834 8.98178 38.3594C9.08428 38.6172 9.18947 38.8506 9.31893 39.0569C9.3432 39.0813 9.3432 39.1084 9.37018 39.1328V39.16L9.39445 39.1844C9.47267 39.3391 9.55089 39.4694 9.6291 39.5725C9.75857 39.7516 9.86106 39.8819 9.93928 39.985L9.99053 40.0365C9.99053 40.061 10.0175 40.061 10.0175 40.061L10.0687 40.1125C10.0687 40.061 10.0418 40.0094 10.0418 39.985C9.96625 39.6485 9.93928 39.3391 9.93928 39.0053V38.9537C9.93928 38.7475 9.93928 38.5412 9.96625 38.3594L10.0418 38.5928C10.0687 38.6959 10.12 38.799 10.147 38.9022V38.9537C10.3007 39.3907 10.4814 39.7516 10.6648 40.0365C10.8698 40.3948 11.0532 40.6282 11.1827 40.7828C11.207 40.8073 11.2339 40.8344 11.2339 40.8588L11.2852 40.9104C11.207 40.5495 11.1557 40.2157 11.1557 39.8819V39.5453C11.1557 39.3907 11.1557 39.2631 11.1827 39.1328C11.2339 39.3662 11.3121 39.5969 11.3877 39.8032V39.8303C11.6736 40.5766 12.0107 41.1166 12.2427 41.4532L12.2696 41.4776C12.3209 41.5291 12.3452 41.5807 12.3721 41.6323C12.3991 41.6594 12.4234 41.6838 12.4234 41.711L12.4746 41.7625L12.5016 41.787V41.7354C12.5016 41.6838 12.4746 41.6323 12.4746 41.5807C12.4503 41.4016 12.4234 41.2198 12.3991 41.0651C12.3991 40.962 12.3721 40.8344 12.3721 40.7313V40.1641C12.3721 40.0365 12.3991 39.8819 12.3991 39.7516C12.4234 39.8303 12.4503 39.9334 12.4746 40.0094C12.5016 40.061 12.5286 40.1397 12.5528 40.1912V40.2157L12.5798 40.2428C12.6041 40.3188 12.6311 40.3948 12.6553 40.4463C12.7093 40.5766 12.7605 40.7041 12.8387 40.8073C12.9143 40.962 12.9682 41.0922 13.0437 41.1953C13.0977 41.2713 13.1219 41.3229 13.1489 41.3745C13.2002 41.4532 13.2514 41.5291 13.2784 41.5807C13.3296 41.6323 13.3566 41.6838 13.3809 41.7354L13.4078 41.7625C13.4321 41.8141 13.4861 41.8385 13.5103 41.8901C13.5373 41.9172 13.5616 41.9416 13.5616 41.9688C13.6155 42.0203 13.6398 42.0719 13.6668 42.0719L13.691 42.0963V42.0203C13.718 41.8141 13.745 41.5807 13.7693 41.3745V41.2985C13.7962 41.0407 13.8475 40.8073 13.8987 40.5766C13.8987 40.5495 13.8987 40.525 13.9257 40.4735V40.4463C13.9257 40.4219 13.9257 40.3948 13.95 40.3703C13.95 40.3188 13.9769 40.2916 13.9769 40.2428C14.0012 40.061 14.0552 39.8819 14.0794 39.7C14.1064 39.5453 14.1307 39.3907 14.1577 39.2631V39.2115C14.1577 39.1844 14.1577 39.16 14.1846 39.16V39.1084C14.1846 39.0813 14.2089 39.0297 14.2089 39.0053C14.2089 38.9782 14.2089 38.9537 14.2359 38.9266C14.2359 38.875 14.2602 38.8235 14.2602 38.799C14.2602 38.7719 14.2871 38.7203 14.2871 38.6959C14.2871 38.6444 14.3141 38.5928 14.3141 38.5657C14.3141 38.5412 14.3141 38.5141 14.3384 38.4897C14.3384 38.4625 14.3384 38.4381 14.3653 38.4381C14.3653 38.3865 14.3896 38.3594 14.3896 38.335V38.2563L14.5191 38.335ZM45.8872 49.1061C46.2486 48.9786 46.5588 48.8754 46.8177 48.7723C47.3113 48.5661 47.5702 48.4114 47.5702 48.3598C47.5433 48.3083 47.2601 48.3327 46.7422 48.4629C46.4833 48.5145 46.1731 48.5661 45.7847 48.6692C45.6013 48.7208 45.3963 48.7452 45.1886 48.7723C44.9809 48.7967 44.749 48.8483 44.5143 48.8754C44.0504 48.9514 43.5326 49.003 42.9635 49.0546L42.1085 49.1333C41.8253 49.1577 41.5124 49.1577 41.2022 49.1848C39.9615 49.2092 38.5886 49.1577 37.1915 48.8999C36.466 48.7723 35.4572 48.4358 34.7587 48.0504L34.7317 48.0233C35.1471 46.5551 36.7006 46.3489 36.7006 46.3489L36.6467 46.3245H36.5712C36.3365 46.2973 36.1558 46.2729 35.9751 46.2458C35.8456 46.2213 35.7431 46.2213 35.6649 46.1942C35.5867 46.1942 35.5085 46.1698 35.4842 46.1698C34.551 46.1182 34.0331 46.8916 33.8794 47.2254L33.8012 47.3801C33.6717 47.6895 33.5692 48.0233 33.5422 48.4114C33.491 49.1061 33.6717 49.8551 34.2138 50.4983C34.578 50.9379 35.1983 51.3233 36.0021 51.6327C35.3008 51.193 34.6804 50.3436 34.6562 49.0301C35.4572 49.3639 36.3635 49.5702 37.062 49.7004C38.5374 49.9827 39.9858 50.0098 41.2535 49.9311C41.5663 49.9067 41.9008 49.8796 42.1867 49.8551C42.4968 49.8036 42.7827 49.7764 43.066 49.752C43.6351 49.6489 44.1286 49.5702 44.6195 49.4671C44.8515 49.4155 45.0861 49.3639 45.2911 49.2879C45.5258 49.2364 45.7065 49.1848 45.8872 49.1061Z" fill="#F2D2AC"/>
<path d="M44.6706 31.8934C45.4474 31.9178 45.9653 32.1512 46.3267 32.5121C46.4049 32.1756 46.4561 31.7631 46.4319 31.2991C46.4049 30.8106 46.3024 30.3709 46.146 30.0371C46.0947 29.8309 45.7845 29.2908 45.3962 29.3153C44.9026 29.3424 44.5412 30.2949 44.6194 31.4293C44.6194 31.584 44.6436 31.7387 44.6706 31.8934ZM45.9653 34.8053C45.9653 35.0116 46.0435 35.1907 46.146 35.2694C46.3267 35.3725 46.5586 35.1662 46.6638 34.8297C46.6638 34.8053 46.6881 34.7782 46.6881 34.7537C46.7663 34.4444 46.6881 34.135 46.5074 34.0563C46.3267 33.9532 46.0947 34.1594 45.9895 34.4959C45.9895 34.5991 45.9653 34.7022 45.9653 34.8053ZM42.4454 35.3725C42.5237 35.5 42.6531 35.6303 42.8069 35.7334C43.144 35.9397 43.5054 35.9641 43.7131 35.785L43.7913 35.7063C43.8696 35.5516 43.8426 35.3454 43.7131 35.1391C43.6349 35.0116 43.5054 34.8813 43.3517 34.8053C43.0146 34.5991 42.6531 34.5719 42.4697 34.7266C42.4454 34.7537 42.4185 34.7782 42.3942 34.8297C42.316 34.96 42.3403 35.1662 42.4454 35.3725ZM55.3083 40.0891C55.2813 40.0891 55.2813 40.0891 55.3083 40.0891V40.0891ZM54.8929 47.2264C54.402 47.6905 53.8572 48.1274 53.2368 48.5399C50.572 50.3446 46.8445 51.7612 44.204 52.0977C42.2108 52.4071 40.2715 52.4587 38.5885 52.2524C37.604 52.1222 36.7517 51.9159 36.0019 51.6337C35.1981 51.3243 34.5778 50.9389 34.2137 50.4993C33.6715 49.8561 33.5151 49.0827 33.5421 48.4124C33.5691 48.0514 33.6446 47.6905 33.801 47.3811L33.8792 47.2264C34.0599 46.8926 34.5508 46.0921 35.484 46.1708C35.5083 46.1708 35.5865 46.1708 35.6648 46.1952C35.743 46.1952 35.8724 46.2223 35.9749 46.2468C36.1556 46.2739 36.3364 46.2983 36.571 46.3255H36.6465C39.2088 46.6348 41.6687 46.6077 43.999 46.2468C47.3894 45.7311 50.5208 44.5208 53.3151 42.6401C53.4688 42.537 53.5983 42.4338 53.7547 42.3307L55.2813 40.062C50.6502 44.263 45.5499 45.4733 41.6687 45.7067C39.546 45.8343 37.7874 45.6796 36.6735 45.5249C36.6223 45.5249 36.5953 45.5249 36.571 45.5005C36.2339 45.4489 35.9749 45.4218 35.7672 45.3973C35.6648 45.3973 35.5865 45.3702 35.5353 45.3702C35.2494 45.3458 34.9662 45.3973 34.7073 45.4733C34.1894 45.628 33.7228 45.9889 33.3856 46.453C32.973 47.0202 32.7141 47.7936 32.7141 48.5671C32.7141 49.2102 32.8705 49.8806 33.2049 50.4993C33.2319 50.5264 33.2319 50.5509 33.2562 50.578C33.3101 50.654 33.3344 50.7056 33.3856 50.7843C33.4396 50.8602 33.5151 50.9634 33.5933 51.0421C34.3971 52.0462 36.1556 52.7681 38.486 53.0774C40.0638 53.2837 41.9006 53.2565 43.8938 52.9743C49.7952 51.9159 52.5895 50.0108 53.8842 48.6946C53.9867 48.5915 54.0649 48.5155 54.1431 48.4124C54.6097 47.8696 54.8147 47.4598 54.8929 47.3051V47.278C54.9199 47.2264 54.9199 47.202 54.9199 47.202L54.8929 47.2264Z" fill="#664F44"/>
<path d="M36.1312 26.8673C35.9478 26.7641 35.7428 26.6854 35.5351 26.6339C35.4057 26.6094 35.2762 26.5823 35.1198 26.5579C35.0685 26.5579 35.0173 26.5579 34.966 26.5307C34.2675 26.4792 33.6714 26.5823 33.6714 26.5823C33.5419 26.6094 33.4125 26.6339 33.31 26.6854C32.3768 26.9704 31.7294 27.4589 31.2655 28.0261C30.9014 28.4901 30.6425 28.9813 30.513 29.4698C30.4887 29.5214 30.4887 29.5458 30.4887 29.5974C30.4618 29.7276 30.4105 29.8552 30.3835 29.9583C30.308 30.3708 30.2541 30.7317 30.2541 31.0411C30.2541 31.4536 30.2811 31.7114 30.2811 31.7114C30.4375 31.3505 30.6182 31.0411 30.7989 30.7317C31.2385 29.9854 31.7052 29.3667 32.196 28.8782C33.1266 27.9229 34.0841 27.4073 34.8096 27.1495C35.5864 26.8917 36.1312 26.8673 36.1312 26.8673ZM47.3353 25.5538L47.311 25.5022C47.2058 25.3719 47.0763 25.2444 46.9226 25.1413C46.5585 24.9079 46.0676 24.7803 45.396 24.9079C45.396 24.9079 44.5923 25.0897 44.1283 25.6298C44.1283 25.6298 45.5255 25.0381 47.0251 26.0938C47.1546 26.1969 47.311 26.3001 47.4405 26.4276C47.5699 26.5579 47.7237 26.6854 47.8531 26.8673C47.8531 26.8673 47.8019 26.2214 47.4135 25.6569C47.3892 25.6053 47.3622 25.5782 47.3353 25.5538Z" fill="#E9B784"/>
<path d="M36.312 35.8088C36.8542 35.6541 37.4233 35.4994 38.0706 35.3448C38.1758 34.8563 38.2001 34.2619 38.1218 33.6188C37.9411 32.1235 37.2695 30.9647 36.5952 31.0406C35.9236 31.1193 35.5353 32.4084 35.716 33.901C35.8185 34.6744 36.0261 35.3448 36.312 35.8088Z" fill="#664F44"/>
<path d="M33.2319 2.125L31.8347 2.43437L32.1179 4.96094L28.4174 3.08026L26.8908 3.54433L26.9178 3.56875L31.4194 8.67072L31.4706 8.6463L31.5245 8.61916C31.654 8.54317 31.8078 8.44005 31.9372 8.36135C31.9885 8.33692 32.0397 8.30979 32.0937 8.25822C32.2986 8.13067 32.5063 8.00041 32.714 7.89729L30.799 5.70724L33.8792 7.20255C33.9817 7.15099 34.0599 7.09942 34.1624 7.04786L33.8792 4.85781L35.2763 6.48067H35.3006C35.4301 6.42911 35.5352 6.35312 35.6647 6.30156L35.716 6.27442L35.7672 6.25C35.7942 6.25 35.8184 6.22286 35.8184 6.22286L35.9749 6.14687C35.9749 6.14687 36.0019 6.14687 36.0019 6.11974C36.1556 6.04375 36.3363 5.96505 36.4927 5.88906L33.2319 2.125Z" fill="#FFD250"/>
<path d="M31.859 2.43514L32.0667 2.38358C31.7296 2.22889 31.3169 2.12576 30.8503 2.04978C29.9198 1.91951 28.7276 2.04978 27.3817 2.38358C26.0358 2.72009 24.5092 3.3117 22.9044 4.10956C19.6705 5.708 16.0995 8.15586 12.6309 11.3012C11.4145 12.384 10.3005 13.5184 9.26482 14.6256L13.4589 19.7791C14.5971 18.5416 15.8136 17.3069 17.1594 16.0938C18.945 14.4709 20.7575 13.0272 22.543 11.7897C24.2773 10.5793 26.0116 9.54805 27.6407 8.72305L26.9178 5.42576L26.9421 3.56951L26.9178 3.54509L28.4444 3.08103L31.4194 4.60076L31.3412 3.56951L31.859 2.43514Z" fill="#4D9ED7"/>
<path d="M31.859 2.43359L31.3411 3.56797L31.4194 4.62364L32.1449 4.98458L31.859 2.43359ZM30.799 5.70646L33.9034 7.22891L32.714 7.89651L30.799 5.70646ZM33.9034 4.85703L34.1893 7.04708L35.3006 6.47989L33.9034 4.85703Z" fill="#132134"/>
<path d="M45.6011 4.05782H46.1729C46.688 4.05782 47.1816 4.13652 47.6455 4.23965C47.6725 4.23965 47.6995 4.23965 47.7238 4.26407H47.7507L47.802 4.29121H47.8532C47.802 4.26407 47.7507 4.21251 47.6995 4.18809C47.1816 3.98184 46.6368 3.85429 46.0677 3.77559C43.2734 3.41465 40.0638 4.4459 38.2513 5.16777C38.1488 5.21934 38.0463 5.24376 37.9411 5.29532C37.7874 5.37402 37.6309 5.42559 37.4745 5.50157C37.2183 5.6047 36.9593 5.73496 36.6734 5.86251C36.6222 5.88965 36.5952 5.88965 36.544 5.91407C36.3875 5.99277 36.2068 6.06876 36.0531 6.14746C36.0531 6.14746 36.0261 6.14746 36.0261 6.17189L35.8724 6.25059C35.8454 6.25059 35.8184 6.27501 35.8184 6.27501H35.7159L35.689 6.30215C35.5595 6.35371 35.457 6.40527 35.3276 6.48126H35.3006C35.2763 6.5084 35.2493 6.5084 35.2251 6.53282H35.1981C35.1738 6.53282 35.1468 6.55996 35.1468 6.55996C34.9661 6.66309 34.7854 6.73907 34.602 6.8422C34.4726 6.9209 34.3431 6.97246 34.2136 7.04845H34.1893C34.0842 7.10001 34.0086 7.15157 33.9034 7.20314C33.5933 7.35782 33.3101 7.53965 32.9972 7.71876C32.9729 7.74319 32.946 7.74319 32.8947 7.77032C32.8704 7.79475 32.8435 7.79475 32.8165 7.82189C32.7922 7.84631 32.7652 7.84631 32.741 7.87345L32.714 7.89787C32.5063 8.02814 32.2986 8.13126 32.0936 8.25881C32.0397 8.28595 31.9885 8.31037 31.9372 8.36194C31.8077 8.44064 31.654 8.54376 31.5245 8.61975L31.4706 8.64689L31.4194 8.67131L30.2542 9.44475C29.6069 9.88439 28.9865 10.3213 28.3662 10.7854C28.2879 10.8369 28.2097 10.9156 28.1342 10.9672C26.5024 12.1776 24.9488 13.491 23.4492 14.8317C21.8687 16.2754 20.3421 17.7436 18.9207 19.2389C18.1439 20.0123 17.4696 20.7071 16.9517 21.2743C15.8648 22.4331 15.2714 23.1549 15.2957 23.1821C15.2957 23.1821 15.4008 23.1034 15.5816 22.9243C15.4521 23.079 15.2957 23.2581 15.1662 23.4128C17.5478 20.8889 20.1614 18.3108 22.9826 15.8873C24.6899 14.4192 26.4754 13.0026 28.3149 11.6864C29.116 11.1219 29.944 10.5547 30.772 10.0119C31.031 9.83282 31.3169 9.67814 31.5758 9.49631C31.7053 9.42032 31.8347 9.34162 31.9885 9.26564C32.0667 9.21407 32.1449 9.16251 32.2231 9.13537C32.3768 9.05939 32.5063 8.95626 32.6627 8.87756C32.7922 8.80157 32.946 8.72287 33.0754 8.61975C33.1536 8.56819 33.2319 8.54376 33.3101 8.4922L33.8522 8.18282C33.9574 8.13126 34.0599 8.05256 34.1624 8.001C34.4995 7.82189 34.8367 7.64006 35.1981 7.46095C35.2251 7.43652 35.2493 7.43652 35.2763 7.40939L35.43 7.3334C35.5083 7.30626 35.5595 7.2547 35.6377 7.23027C35.6647 7.20314 35.689 7.20314 35.7159 7.17871L35.8724 7.10001C35.8724 7.10001 35.8967 7.10001 35.8967 7.07559H35.9236C36.0774 6.99689 36.2338 6.9209 36.3633 6.86934C36.3875 6.86934 36.4145 6.8422 36.4415 6.81777L36.5952 6.73907C36.7759 6.66309 36.9324 6.58439 37.1131 6.5084C37.1643 6.48126 37.2183 6.45684 37.2425 6.4297C37.2695 6.4297 37.2938 6.40527 37.3208 6.40527C37.372 6.37814 37.4233 6.35371 37.4745 6.35371C37.6822 6.27501 37.8629 6.17189 38.0706 6.0959C38.2513 6.0172 38.4077 5.94121 38.5884 5.86251C39.5729 5.45001 40.4792 5.11621 41.3315 4.83126C42.9363 4.39434 44.3604 4.10939 45.6011 4.05782Z" fill="black"/>
</g>
<defs>
<clipPath id="clip0_1_977">
<rect width="58" height="66" fill="white"/>
</clipPath>
</defs>
</svg>
