<svg width="30" height="66" viewBox="0 0 30 66" fill="none" xmlns="http://www.w3.org/2000/svg">
<path d="M14.6137 0.179688L16.3748 3.48654C16.7716 4.09878 17.2024 4.63921 17.7051 5.14185C19.1866 6.60442 20.5698 8.16526 21.8396 9.81301C24.8252 13.7321 26.8358 18.0858 28.2757 22.791C29.1373 25.667 29.606 28.6148 29.64 31.5967C29.7836 40.5119 26.7262 48.1687 20.566 54.5292C19.5607 55.5382 18.4798 56.4642 17.3272 57.2956C16.7149 57.2956 16.4277 56.8308 16.1745 56.3999C15.7172 55.5987 15.4149 54.7219 15.2788 53.8111C15.0596 52.7303 14.9198 51.6532 14.9878 50.5383V50.0356C14.9387 49.9298 14.402 0.432898 14.6137 0.179688Z" fill="#599636"/>
<path d="M14.6133 0.0704073C14.5415 -0.073205 14.4697 0.0363944 14.3979 0.104421C14.4319 0.826259 14.1825 1.46873 13.7895 2.08475C13.3548 2.69699 12.7804 3.16184 12.2059 3.66826C9.00869 6.43468 6.49171 9.77554 4.47737 13.517C1.79787 18.5472 0.414664 23.9402 0.0254007 29.6204C-0.156004 31.6688 0.671654 38.8947 1.31791 40.9771C3.07904 46.5137 6.24228 51.1508 10.339 55.1795C11.3443 56.147 12.4214 57.0465 13.5362 57.9119C13.8613 57.9119 13.8953 57.6209 13.9709 57.4055C14.1107 56.9482 14.2203 56.4796 14.2921 56.0034L15.0139 50.6142L14.6133 0.0704073Z" fill="#6CAC48"/>
<path d="M16.3746 59.4882C16.4464 58.6643 16.8432 57.9803 17.2741 57.2963C16.8432 57.1149 16.522 56.7596 16.2688 56.3628C16.0534 55.9849 15.872 55.588 15.7321 55.1761C15.2295 53.6682 15.1237 52.0809 14.9763 50.5389V49.6055C14.7986 49.7491 14.7609 50.9698 14.7609 51.1512C14.655 52.7838 14.4396 54.4051 14.1146 56.0038C14.005 56.6538 13.9332 57.2963 13.5364 57.8745C13.5364 57.9463 13.5364 58.0181 13.5704 58.1239C14.2204 60.0324 14.398 61.9712 14.5039 63.9477V64.6696C14.5039 65.5313 14.4699 65.3499 15.1879 65.6409C15.4751 65.7467 15.7964 65.7845 16.0836 65.9999C16.3028 65.9999 16.3368 65.8185 16.3368 65.6749L16.231 64.4882V61.1813C16.1932 60.6031 16.3028 60.0324 16.3746 59.492V59.4882Z" fill="#C2BFBF"/>
</svg>
