<svg width="63" height="70" viewBox="0 0 63 70" fill="none" xmlns="http://www.w3.org/2000/svg">
<path d="M31.5 69.5718C30.5387 69.5757 29.6005 69.3282 28.7699 68.8599L20.0836 63.8227C18.7839 63.1108 19.4183 62.8595 19.8452 62.7148C21.2256 62.296 22.5445 61.7135 23.775 60.9748L31.0963 64.904L57.9359 50.1886L58.3319 20.0648L31.8999 4.66021L5.07954 19.368L4.6681 49.488L12.2163 54.2015C16.0845 56.0976 18.457 53.8665 18.457 51.624V22.5738C18.457 22.1626 18.7954 21.8276 19.2184 21.8276H22.5137C22.9367 21.8276 23.2751 22.1626 23.2751 22.5738V51.6278C23.2751 56.6839 20.4642 59.5775 15.5693 59.5775C13.4544 59.6118 11.378 59.0597 9.5746 57.9823L2.73011 54.1368C1.04206 53.1736 1.06051e-05 51.4031 1.06051e-05 49.488V20.0648C-0.00383461 18.1459 1.03822 16.3678 2.73011 15.4046L28.7622 0.685324C30.4695 -0.228441 32.5305 -0.228441 34.234 0.685324L60.2622 15.4046C61.9541 16.3678 62.9962 18.1383 62.9962 20.0534V49.488C62.9923 51.4031 61.9541 53.1736 60.2622 54.1368L34.234 68.8599C33.4034 69.3282 32.4575 69.5757 31.5 69.5718Z" fill="#00D486"/>
<path d="M26.563 39.6375C26.563 39.2263 26.9014 38.8913 27.3243 38.8913H30.6889C31.9463 42.8738 33.469 44.5643 40.3519 44.5643C45.8314 44.5643 48.1693 43.3497 48.1693 40.5018C48.1693 38.857 47.5079 37.6387 38.9869 36.8201C31.8617 36.131 27.4589 34.5852 27.4589 29.0074C27.4589 23.8637 31.8848 20.7949 39.306 20.7949C47.6463 20.7949 51.7722 23.6314 52.2952 29.7156C52.3105 29.9212 52.2413 30.1229 52.0991 30.2752C51.9568 30.4275 51.7568 30.5151 51.5453 30.5151H48.1577C46.6158 26.4108 44.6355 25.28 39.3099 25.28C33.319 25.28 32.6269 27.3245 32.6269 28.8551C32.6269 30.7093 33.4459 31.2499 41.5286 32.2969C49.5305 33.3326 53.3295 34.7984 53.3295 40.3038C53.3295 45.8588 48.5999 49.0417 40.3519 49.0417C28.9509 49.0569 26.563 43.936 26.563 39.6375Z" fill="#00D486"/>
</svg>
