<svg width="66" height="66" viewBox="0 0 66 66" fill="none" xmlns="http://www.w3.org/2000/svg">
<path d="M0.353373 22.0989C-0.944202 17.8755 1.42768 13.3998 5.65113 12.1022L43.8872 0.354888C48.1107 -0.942686 52.5864 1.4292 53.8839 5.65264L65.6313 43.8888C66.9288 48.1122 64.557 52.5879 60.3335 53.8854L22.0974 65.6328C17.874 66.9304 13.3983 64.5585 12.1007 60.335L0.353373 22.0989Z" fill="url(#paint0_linear_0_1)"/>
<path d="M52.1289 47.5367L26.3196 55.4661C23.152 56.4393 19.7952 54.6604 18.8221 51.4928L11.6439 28.1287L17.8805 17.7828L40.8221 10.7344C43.9897 9.76123 47.3465 11.5401 48.3197 14.7077L56.1023 40.0392C57.0754 43.2067 55.2965 46.5635 52.1289 47.5367Z" fill="#CC0000"/>
<g clip-path="url(#clip0_0_1)">
<path d="M31.9456 36.3846C31.9456 36.3846 33.0936 35.9186 32.6144 34.3588C32.1351 32.7989 30.6613 33.0931 30.6613 33.0931L28.0859 33.8844L29.5978 38.8054L30.8923 38.4077L30.5276 37.2206L32.0114 38.0639L33.9261 37.4756L31.9456 36.3846ZM31.1371 35.5302L30.1056 35.8471L29.7599 34.7221L30.7982 34.4031C30.7982 34.4031 31.122 34.4245 31.2599 34.8731C31.3977 35.3217 31.1371 35.5302 31.1371 35.5302ZM35.2969 31.7067L33.9822 32.1106C33.0451 32.3985 32.9954 33.3655 33.1226 33.7796L34.2295 37.3824L35.5442 36.9785L35.2791 36.1158L36.5129 35.7367L36.7779 36.5995L38.0522 36.208L36.9453 32.6052C36.623 31.5561 35.6205 31.6073 35.2969 31.7067ZM36.0845 34.3425L34.844 34.7237L34.4772 33.5296C34.4772 33.5296 34.3945 33.2605 34.8058 33.1341L35.2575 32.9953C35.6215 32.8835 35.711 33.1506 35.711 33.1506L36.0778 34.3446L36.0845 34.3425ZM37.1509 31.1371L38.5195 30.7166L40.0208 35.6032L38.6522 36.0236L37.1509 31.1371ZM41.5542 33.7498L40.4409 30.1263L39.0791 30.5447L40.1923 34.1682L40.5804 35.4312L41.9422 35.0128L43.7828 34.4474L43.3947 33.1843L41.5542 33.7498ZM43.8507 33.0593L44.2345 34.3086L46.4391 33.6313C46.8908 33.4925 47.5622 32.9161 47.2986 31.9622L47.1502 31.4791C46.9021 30.6716 46.1086 30.3942 45.5018 30.5806L44.4029 30.9182L44.2248 30.3385L46.4024 29.6695L46.0165 28.4133L43.9265 29.0554C43.3871 29.2211 42.8057 29.8983 43.0665 30.7472L43.2001 31.182C43.4609 32.031 44.3092 32.2462 44.8553 32.0784C46.3743 31.6193 44.4912 32.1903 45.8935 31.7595L46.0801 32.3668L43.8507 33.0593Z" fill="white"/>
<path d="M21.4393 41.3048L26.7653 39.6685C26.7653 39.6685 24.2863 35.2258 27.0656 32.2646C27.6881 31.673 29.6077 29.5877 34.3277 31.3099C34.4172 31.1691 34.5064 31.0511 34.5064 31.0511C34.5064 31.0511 29.9001 28.5461 26.1195 30.1457C24.2128 30.9279 22.3611 33.4984 21.6875 36.3491C21.0139 39.1997 21.4393 41.3048 21.4393 41.3048ZM29.9261 29.3992L29.811 28.9285C29.7397 28.9126 29.5457 28.8816 29.0828 28.8878L29.1958 29.3516C29.4416 29.3592 29.6828 29.3758 29.9261 29.3992ZM29.7352 31.0592L29.8418 31.5023C30.0664 31.4408 30.2973 31.4001 30.5347 31.38L30.4302 30.9438C30.1861 30.9659 29.9551 31.0067 29.7352 31.0592ZM26.5791 29.6722L26.6465 29.6515L26.3823 29.2719C26.1733 29.3361 25.9618 29.4162 25.7478 29.5121L26.001 29.88C26.1902 29.7992 26.3836 29.7322 26.5791 29.6722ZM27.683 32.1126L27.9844 32.5412C28.1502 32.3845 28.3203 32.2416 28.4967 32.1195L28.2084 31.7095C28.0004 31.8489 27.8282 31.9849 27.683 32.1126ZM24.0645 31.2378L23.6148 30.8548C23.4738 30.9963 23.3282 31.1468 23.1801 31.3131L23.6387 31.701C23.7801 31.5367 23.9168 31.3814 24.0645 31.2378ZM26.4008 33.9191L26.8771 34.3166C26.9387 34.1088 27.0248 33.9086 27.1243 33.7043L26.6767 33.3282C26.5662 33.5208 26.4734 33.723 26.4008 33.9191ZM26.106 36.4418L26.7878 36.7157C26.7321 36.4383 26.6966 36.1546 26.6813 35.8647L26.075 35.6205C26.0659 35.9027 26.0836 36.1768 26.106 36.4418ZM22.1459 34.0706L21.5357 33.7898C21.4134 34.0162 21.2979 34.2405 21.1959 34.4607L21.8549 34.7567C21.9393 34.5269 22.0371 34.2929 22.1459 34.0706ZM21.0577 37.7813L20.1933 37.7296C20.1564 38.0658 20.1208 38.4544 20.1107 38.6614L20.975 38.7131C20.9906 38.4515 21.0283 38.0698 21.0577 37.7813ZM26.5435 38.2259C26.6694 38.5876 26.7943 38.874 26.8916 39.0707L27.7918 39.119C27.6484 38.8684 27.4944 38.5834 27.3543 38.2714L26.5435 38.2259Z" fill="white"/>
</g>
<defs>
<linearGradient id="paint0_linear_0_1" x1="-1.99609" y1="14.4517" x2="65.6284" y2="50.6895" gradientUnits="userSpaceOnUse">
<stop offset="0.25566" stop-color="#CC0000" stop-opacity="0.2"/>
<stop offset="1" stop-color="#CC0000" stop-opacity="0"/>
</linearGradient>
<clipPath id="clip0_0_1">
<rect width="28" height="11" fill="white" transform="translate(17.875 31.3843) rotate(-17.0786)"/>
</clipPath>
</defs>
</svg>
