<svg width="84" height="76" viewBox="0 0 84 76" fill="none" xmlns="http://www.w3.org/2000/svg">
<g clip-path="url(#clip0_1_1031)">
<path d="M42.1484 29.8359C37.7031 29.8359 34.1016 33.457 34.1016 37.9258C34.1016 42.3945 37.7031 46.0156 42.1484 46.0156C46.5898 46.0156 50.1914 42.3945 50.1914 37.9258C50.1914 33.457 46.5898 29.8359 42.1484 29.8359Z" fill="#58C4DC"/>
<path d="M83.9922 37.9991C83.9922 31.6476 78.1445 26.0773 68.832 22.4093C68.957 21.5851 69.0703 20.7687 69.1484 19.9679C70.0664 10.8429 67.8789 4.25304 62.9922 1.4171C57.5273 -1.75868 49.8047 0.546005 41.9961 6.83116C34.1875 0.546005 26.4688 -1.75868 21 1.4171C16.1133 4.25304 13.9258 10.8429 14.8438 19.9679C14.9258 20.7687 15.0352 21.589 15.1641 22.4171C14.3867 22.714 13.625 23.0304 12.8945 23.3624C4.57812 27.1202 0 32.3233 0 37.9991C0 44.3507 5.84766 49.921 15.1641 53.5851C15.0352 54.4093 14.9258 55.2296 14.8438 56.0304C13.9258 65.1554 16.1133 71.7413 21 74.5812C22.6797 75.5382 24.582 76.0265 26.5156 75.9991C31.1445 75.9991 36.5469 73.5499 41.9961 69.1671C47.4414 73.5499 52.8516 75.9991 57.4844 75.9991C59.418 76.0265 61.3203 75.5382 63 74.5812C67.8867 71.7413 70.0742 65.1554 69.1562 56.0304C69.0742 55.2296 68.9609 54.4093 68.8359 53.5851C78.1523 49.9249 84 44.3468 84 37.9991M57.4492 4.02257C58.6914 3.99132 59.918 4.296 61.0039 4.89757C64.3984 6.87022 65.9219 12.214 65.1797 19.5577C65.1289 20.0577 65.0703 20.5655 65 21.0773C61.1289 19.9015 57.1641 19.0655 53.1484 18.5733C50.7148 15.3233 48.0078 12.2843 45.0586 9.49522C49.6875 5.89366 54.0352 4.02257 57.4453 4.02257M55.8555 46.046C54.3555 48.6632 52.7266 51.1983 50.9648 53.6437C47.9844 53.9523 44.9922 54.1046 41.9922 54.1046C39 54.1046 36.0039 53.9523 33.0234 53.6437C31.2695 51.1983 29.6445 48.6632 28.1484 46.046C26.6523 43.4366 25.2891 40.7491 24.0703 37.9991C25.2891 35.2452 26.6523 32.5616 28.1484 29.9523C29.6406 27.3468 31.2617 24.8194 33.0078 22.378C35.9961 22.0616 38.9961 21.9054 41.9961 21.9054C44.9922 21.9054 47.9883 22.0577 50.9648 22.3663C52.7188 24.8116 54.3477 27.3429 55.8438 29.9523C57.3398 32.5616 58.7031 35.2452 59.9258 37.9991C58.7031 40.7491 57.3398 43.4366 55.8438 46.046M61.9609 43.0655C62.9023 45.6437 63.6758 48.2843 64.2734 50.964C61.6758 51.7765 59.0273 52.421 56.3438 52.8858C57.3633 51.339 58.3516 49.7296 59.3086 48.0616C60.2539 46.4093 61.1406 44.7413 61.9766 43.0773M36.3711 57.9444C38.2148 58.0577 40.0938 58.1241 42 58.1241C43.9062 58.1241 45.7969 58.0577 47.6445 57.9444C45.8945 60.0538 44.0078 62.046 42 63.9054C39.9961 62.046 38.1133 60.0538 36.3711 57.9444ZM27.6523 52.878C24.9688 52.4171 22.3203 51.7765 19.7188 50.964C20.3164 48.2882 21.0859 45.6515 22.0234 43.0773C22.8477 44.7413 23.7305 46.4093 24.6875 48.0616C25.6484 49.7101 26.6406 51.339 27.6523 52.8858M22.0234 32.9171C21.0898 30.3507 20.3203 27.7257 19.7266 25.0616C22.3203 24.2452 24.9609 23.6007 27.6367 23.1319C26.625 24.6749 25.6328 26.2687 24.6758 27.9366C23.7188 29.6007 22.8438 31.2491 22.0078 32.9171M47.6289 18.046C45.7852 17.9327 43.9023 17.8702 41.9805 17.8702C40.0781 17.8702 38.2031 17.9288 36.3516 18.046C38.0977 15.9405 39.9766 13.9483 41.9805 12.089C43.9922 13.9483 45.8789 15.9366 47.6289 18.046ZM59.3008 27.9366C58.3438 26.2648 57.3477 24.6554 56.3242 23.1085C59.0117 23.5733 61.668 24.2179 64.2734 25.0343C63.6758 27.7101 62.9062 30.3429 61.9727 32.921C61.1484 31.253 60.2617 29.589 59.3047 27.9405M18.8242 19.5616C18.0742 12.2179 19.6055 6.87022 22.9961 4.90147C24.0859 4.29991 25.3125 3.99522 26.5547 4.02647C29.9648 4.02647 34.3125 5.89757 38.9414 9.49522C35.9922 12.2882 33.2812 15.3273 30.8477 18.5851C26.832 19.0773 22.8672 19.9093 18.9922 21.0773C18.9258 20.5655 18.8633 20.0616 18.8164 19.5616M14.5352 27.0304C14.9922 26.8312 15.457 26.6319 15.9297 26.4327C16.8633 30.3898 18.125 34.2569 19.707 37.9991C18.1211 41.7452 16.8594 45.6241 15.9258 49.5851C8.375 46.4718 4 42.1554 4 37.9991C4 34.0577 7.85156 30.0616 14.5352 27.0304ZM22.9961 71.0968C19.6055 69.1241 18.0742 63.7804 18.8242 56.4366C18.8711 55.9327 18.9336 55.4288 19.0039 54.9171C22.875 56.089 26.8398 56.9288 30.8555 57.4171C33.2891 60.6749 35.9961 63.714 38.9453 66.5069C32.4883 71.5226 26.5898 73.1749 23.0078 71.0968M65.1797 56.4366C65.918 63.7804 64.3945 69.1241 61.0039 71.0968C57.4219 73.1827 51.5195 71.5226 45.0664 66.5069C48.0156 63.714 50.7188 60.6749 53.1523 57.4171C57.168 56.9288 61.1328 56.089 65.0078 54.9171C65.0781 55.4288 65.1367 55.9327 65.1875 56.4366M68.0859 49.5812C67.1523 45.6202 65.8867 41.7452 64.3008 37.9991C65.8828 34.2491 67.1484 30.3741 68.082 26.4093C75.6172 29.5265 80.0039 33.839 80.0039 37.9991C80.0039 42.1554 75.6289 46.4718 68.0781 49.5851" fill="#58C4DC"/>
</g>
<defs>
<clipPath id="clip0_1_1031">
<rect width="84" height="76" fill="white"/>
</clipPath>
</defs>
</svg>
