<svg width="111" height="66" viewBox="0 0 111 66" fill="none" xmlns="http://www.w3.org/2000/svg">
<g clip-path="url(#clip0_1_1006)">
<path d="M55.5 0C40.8817 0 31.7453 7.33219 28.0907 21.9966C33.5725 14.6644 39.9681 11.9161 47.2772 13.7517C51.448 14.7933 54.4263 17.8303 57.7299 21.1922C63.1034 26.663 69.3234 33 82.9093 33C97.5276 33 106.664 25.6678 110.319 10.9983C104.837 18.3305 98.4413 21.0839 91.1321 19.2483C86.9614 18.2067 83.983 15.1697 80.6794 11.8078C75.3059 6.33703 69.0859 0 55.5 0ZM28.0907 33C13.4724 33 4.33594 40.3322 0.681366 55.0017C6.16323 47.6644 12.5587 44.9161 19.8679 46.7517C24.0386 47.7984 27.017 50.8303 30.3206 54.1922C35.6941 59.663 41.9141 66 55.5 66C70.1183 66 79.2547 58.6678 82.9093 43.9983C77.4275 51.3305 71.032 54.0839 63.7228 52.2483C59.552 51.2067 56.5737 48.1645 53.2701 44.8078C47.8966 39.337 41.6766 33 28.0907 33Z" fill="#06B6D4"/>
</g>
<defs>
<clipPath id="clip0_1_1006">
<rect width="111" height="66" fill="white"/>
</clipPath>
</defs>
</svg>
