<svg width="61" height="66" viewBox="0 0 61 66" fill="none" xmlns="http://www.w3.org/2000/svg">
<g clip-path="url(#clip0_1_998)">
<path d="M34.8571 10.1523V20.3073L52.2829 30.4594V20.3073L34.8571 10.1523ZM0.00567627 20.3073V30.4594L8.71996 35.5383V25.3833L0.00567627 20.3073ZM26.1429 25.3833L17.4314 30.4594V60.9214L26.1429 66.0003V45.6932L34.8571 50.7693V40.6172L26.1429 35.5411V25.3833Z" fill="#E55B2D"/>
<path d="M34.8572 10.1523L8.72003 25.3833V35.5383L26.1458 25.3833V35.5383L34.8601 30.4594V10.1523H34.8572ZM60.9944 15.2313L52.2801 20.3073V30.4594L60.9944 25.3833V15.2313ZM43.5687 35.5411L34.8572 40.6172V50.7693L43.5687 45.6932V35.5411ZM34.8572 50.7693L26.1429 45.6932V66.0003L34.8572 60.9242V50.7693Z" fill="#ED8E24"/>
<path d="M34.8571 0L0.00567627 20.307L8.71996 25.3831L34.8571 10.1521L52.2829 20.307L60.9972 15.231L34.8571 0ZM34.8571 30.4591L26.1429 35.538L34.8571 40.6141L43.5686 35.538L34.8571 30.4591Z" fill="#F8BF3C"/>
</g>
<defs>
<clipPath id="clip0_1_998">
<rect width="61" height="66" fill="white"/>
</clipPath>
</defs>
</svg>
