<svg width="75" height="75" viewBox="0 0 75 75" fill="none" xmlns="http://www.w3.org/2000/svg">
<path d="M46.875 37.5174C46.875 40.2204 46.3867 42.9025 45.4346 45.4346C42.9025 46.3867 40.2204 46.875 37.514 46.875H37.4826C34.6994 46.8715 32.0278 46.3623 29.5654 45.4346C28.6133 42.9025 28.125 40.2204 28.125 37.5174V37.4826C28.125 34.7796 28.6098 32.0975 29.5619 29.5689C32.094 28.6133 34.7796 28.125 37.4826 28.125H37.514C40.2204 28.125 42.9025 28.6133 45.4346 29.5689C46.3902 32.0975 46.875 34.7796 46.875 37.4826V37.5174ZM74.4803 31.25H52.5914L68.0664 15.7715C66.8527 14.066 65.496 12.4616 64.0172 10.9828V10.9794C62.5349 9.50056 60.934 8.14732 59.2285 6.93359L43.75 22.4121V0.523159C41.6888 0.174386 39.6066 0 37.5174 0H37.4791C35.355 0 33.2764 0.181362 31.25 0.523159V22.4121L15.7715 6.93359C14.066 8.14732 12.4651 9.50056 10.9863 10.9828L10.9759 10.9898C9.49707 12.4686 8.14383 14.0695 6.93011 15.7715L22.4121 31.25H0.523159C0.523159 31.25 0 35.362 0 37.486V37.514C0 39.638 0.181362 41.7236 0.523159 43.75H22.4121L6.93359 59.2285C9.36802 62.6465 12.3535 65.632 15.7715 68.0664L31.25 52.5879V74.4803C33.3078 74.8221 35.3864 74.9965 37.4721 75H37.5244C39.6101 74.9965 41.6922 74.8256 43.75 74.4803V52.5879L59.2285 68.0664C60.934 66.8527 62.5349 65.4994 64.0172 64.0206L64.0206 64.0172C65.4994 62.5349 66.8527 60.934 68.0664 59.2285L52.5879 43.75H74.4803C74.8186 41.7271 74.9965 39.6484 75 37.5279V37.4721C74.9965 35.3516 74.8186 33.2729 74.4803 31.25Z" fill="#FF4A00"/>
</svg>
