<svg width="206" height="106" viewBox="0 0 206 106" fill="none" xmlns="http://www.w3.org/2000/svg">
<g clip-path="url(#clip0_1292_140)">
<path d="M18.0097 55.9316C8.29969 40.4816 2.67969 22.2016 2.67969 2.60156" stroke="#FE9700" stroke-width="2" stroke-miterlimit="10"/>
<path d="M62.5198 94.4197C44.1198 86.2997 28.6198 72.8097 18.0098 55.9297" stroke="#25C5D9" stroke-width="3" stroke-miterlimit="10"/>
<path d="M144.019 94.1797C131.499 99.7997 117.609 102.92 102.999 102.92C88.5993 102.92 74.9093 99.8897 62.5293 94.4197" stroke="#42A4F5" stroke-width="6" stroke-miterlimit="10"/>
<path d="M187.19 57.1719C176.71 73.3019 161.73 86.2319 144.02 94.1819" stroke="#EB407A" stroke-width="5" stroke-miterlimit="10"/>
<path d="M203.309 2.60156C203.309 22.7216 197.389 41.4616 187.189 57.1616" stroke="#673BB6" stroke-miterlimit="10"/>
<path d="M205.07 2.62947C205.07 3.60947 204.28 4.39947 203.3 4.39947C202.32 4.39947 201.53 3.60947 201.53 2.62947C201.53 1.64947 202.32 0.859468 203.3 0.859468C204.28 0.849468 205.07 1.64947 205.07 2.62947Z" fill="white" stroke="#673BB6" stroke-miterlimit="10"/>
<path d="M5.25 2.63C5.25 4.08 4.07 5.26 2.62 5.26C1.18 5.25 0 4.08 0 2.63C0 1.18 1.18 0 2.63 0C4.08 0 5.25 1.18 5.25 2.63Z" fill="#FE9700"/>
<path d="M190.79 57.1816C190.79 59.1616 189.19 60.7616 187.21 60.7616C185.23 60.7616 183.63 59.1616 183.63 57.1816C183.63 55.2016 185.23 53.6016 187.21 53.6016C189.19 53.6016 190.79 55.2116 190.79 57.1816Z" fill="white" stroke="#EB407A" stroke-miterlimit="10"/>
<path d="M21.9102 57.6915C21.9102 59.3515 20.5702 60.6915 18.9102 60.6915C17.2502 60.6915 15.9102 59.3515 15.9102 57.6915C15.9102 56.0315 17.2502 54.6915 18.9102 54.6915C20.5602 54.6815 21.9102 56.0315 21.9102 57.6915Z" fill="white" stroke="#FE9700" stroke-width="1.5" stroke-miterlimit="10"/>
<path d="M148.68 94.1819C148.68 96.6719 146.66 98.6919 144.17 98.6919C141.68 98.6919 139.66 96.6719 139.66 94.1819C139.66 91.6919 141.68 89.6719 144.17 89.6719C146.66 89.6719 148.68 91.6919 148.68 94.1819Z" fill="white" stroke="#42A4F5" stroke-width="1.2599" stroke-miterlimit="10"/>
<path d="M66.2399 94.1795C66.2399 96.1995 64.5999 97.8395 62.5799 97.8395C60.5599 97.8395 58.9199 96.1995 58.9199 94.1795C58.9199 92.1595 60.5599 90.5195 62.5799 90.5195C64.5999 90.5195 66.2399 92.1595 66.2399 94.1795Z" fill="white" stroke="#25C5D9" stroke-width="1.6245" stroke-miterlimit="10"/>
</g>
<defs>
<clipPath id="clip0_1292_140">
<rect width="205.57" height="105.92" fill="white"/>
</clipPath>
</defs>
</svg>
