<svg width="456" height="476" viewBox="0 0 456 476" fill="none" xmlns="http://www.w3.org/2000/svg">
<path d="M4.43654 342.179L233.945 472.188C240.615 475.965 248.777 475.965 255.447 472.188L451.23 358.855C456.393 355.931 456.393 348.491 451.23 345.565L222.1 215.789C215.669 212.145 207.796 212.145 201.364 215.789L4.43654 329.753C2.19811 331.02 0.814453 333.394 0.814453 335.966C0.814453 338.538 2.19811 340.912 4.43654 342.179Z" fill="url(#paint0_linear_842_9777)"/>
<path d="M4.43654 334.293L233.945 464.302C240.615 468.078 248.777 468.078 255.447 464.302L451.23 350.968C456.393 348.043 456.393 340.602 451.23 337.679L222.1 207.903C215.669 204.258 207.796 204.258 201.364 207.903L4.43654 321.866C2.19811 323.134 0.814453 325.507 0.814453 328.079C0.814453 330.652 2.19811 333.025 4.43654 334.293Z" fill="url(#paint1_linear_842_9777)"/>
<g opacity="0.09">
<path opacity="0.04" d="M298.459 350.473C347.206 350.473 386.723 328.334 386.723 301.025C386.723 273.716 347.206 251.577 298.459 251.577C249.712 251.577 210.195 273.716 210.195 301.025C210.195 328.334 249.712 350.473 298.459 350.473Z" fill="#190C00"/>
<path opacity="0.08" d="M298.46 349.505C346.251 349.505 384.994 327.8 384.994 301.025C384.994 274.25 346.251 252.545 298.46 252.545C250.668 252.545 211.926 274.25 211.926 301.025C211.926 327.8 250.668 349.505 298.46 349.505Z" fill="#190C00"/>
<path opacity="0.13" d="M298.459 348.535C345.295 348.535 383.262 327.264 383.262 301.025C383.262 274.786 345.295 253.515 298.459 253.515C251.624 253.515 213.656 274.786 213.656 301.025C213.656 327.264 251.624 348.535 298.459 348.535Z" fill="#190C00"/>
<path opacity="0.17" d="M298.46 347.565C344.339 347.565 381.531 326.728 381.531 301.025C381.531 275.322 344.339 254.485 298.46 254.485C252.581 254.485 215.389 275.322 215.389 301.025C215.389 326.728 252.581 347.565 298.46 347.565Z" fill="#190C00"/>
<path opacity="0.21" d="M298.459 346.596C343.382 346.596 379.799 326.193 379.799 301.025C379.799 275.857 343.382 255.454 298.459 255.454C253.536 255.454 217.119 275.857 217.119 301.025C217.119 326.193 253.536 346.596 298.459 346.596Z" fill="#190C00"/>
<path opacity="0.25" d="M298.46 345.626C342.427 345.626 378.07 325.657 378.07 301.025C378.07 276.392 342.427 256.424 298.46 256.424C254.492 256.424 218.85 276.392 218.85 301.025C218.85 325.657 254.492 345.626 298.46 345.626Z" fill="#190C00"/>
<path opacity="0.29" d="M298.459 344.656C341.469 344.656 376.336 325.122 376.336 301.025C376.336 276.928 341.469 257.394 298.459 257.394C255.449 257.394 220.582 276.928 220.582 301.025C220.582 325.122 255.449 344.656 298.459 344.656Z" fill="#190C00"/>
<path opacity="0.33" d="M298.46 343.686C340.514 343.686 374.606 324.586 374.606 301.025C374.606 277.464 340.514 258.364 298.46 258.364C256.405 258.364 222.312 277.464 222.312 301.025C222.312 324.586 256.405 343.686 298.46 343.686Z" fill="#190C00"/>
<path opacity="0.38" d="M298.46 342.716C339.559 342.716 372.877 324.05 372.877 301.025C372.877 278 339.559 259.334 298.46 259.334C257.361 259.334 224.043 278 224.043 301.025C224.043 324.05 257.361 342.716 298.46 342.716Z" fill="#190C00"/>
<path opacity="0.42" d="M298.459 341.746C338.602 341.746 371.143 323.515 371.143 301.025C371.143 278.535 338.602 260.304 298.459 260.304C258.317 260.304 225.775 278.535 225.775 301.025C225.775 323.515 258.317 341.746 298.459 341.746Z" fill="#190C00"/>
<path opacity="0.46" d="M298.46 340.777C337.647 340.777 369.414 322.979 369.414 301.025C369.414 279.071 337.647 261.273 298.46 261.273C259.273 261.273 227.506 279.071 227.506 301.025C227.506 322.979 259.273 340.777 298.46 340.777Z" fill="#190C00"/>
<path opacity="0.5" d="M298.459 339.807C336.69 339.807 367.682 322.444 367.682 301.025C367.682 279.606 336.69 262.243 298.459 262.243C260.229 262.243 229.236 279.606 229.236 301.025C229.236 322.444 260.229 339.807 298.459 339.807Z" fill="#190C00"/>
<path opacity="0.54" d="M298.46 338.837C335.735 338.837 365.953 321.908 365.953 301.025C365.953 280.142 335.735 263.213 298.46 263.213C261.184 263.213 230.967 280.142 230.967 301.025C230.967 321.908 261.184 338.837 298.46 338.837Z" fill="#190C00"/>
<path opacity="0.58" d="M298.459 337.867C334.777 337.867 364.219 321.372 364.219 301.025C364.219 280.678 334.777 264.183 298.459 264.183C262.141 264.183 232.699 280.678 232.699 301.025C232.699 321.372 262.141 337.867 298.459 337.867Z" fill="#190C00"/>
<path opacity="0.63" d="M298.46 336.897C333.822 336.897 362.49 320.836 362.49 301.025C362.49 281.213 333.822 265.153 298.46 265.153C263.097 265.153 234.43 281.213 234.43 301.025C234.43 320.836 263.097 336.897 298.46 336.897Z" fill="#190C00"/>
<path opacity="0.67" d="M298.46 335.927C332.868 335.927 360.76 320.301 360.76 301.025C360.76 281.749 332.868 266.123 298.46 266.123C264.053 266.123 236.16 281.749 236.16 301.025C236.16 320.301 264.053 335.927 298.46 335.927Z" fill="#190C00"/>
<path opacity="0.71" d="M298.46 334.958C331.91 334.958 359.027 319.765 359.027 301.025C359.027 282.284 331.91 267.092 298.46 267.092C265.009 267.092 237.893 282.284 237.893 301.025C237.893 319.765 265.009 334.958 298.46 334.958Z" fill="#190C00"/>
<path opacity="0.75" d="M298.46 333.988C330.955 333.988 357.297 319.23 357.297 301.025C357.297 282.82 330.955 268.062 298.46 268.062C265.965 268.062 239.623 282.82 239.623 301.025C239.623 319.23 265.965 333.988 298.46 333.988Z" fill="#190C00"/>
<path opacity="0.79" d="M298.46 333.018C329.998 333.018 355.566 318.694 355.566 301.025C355.566 283.356 329.998 269.032 298.46 269.032C266.921 269.032 241.354 283.356 241.354 301.025C241.354 318.694 266.921 333.018 298.46 333.018Z" fill="#190C00"/>
<path opacity="0.83" d="M298.46 332.048C329.042 332.048 353.834 318.158 353.834 301.025C353.834 283.891 329.042 270.002 298.46 270.002C267.878 270.002 243.086 283.891 243.086 301.025C243.086 318.158 267.878 332.048 298.46 332.048Z" fill="#190C00"/>
<path opacity="0.88" d="M298.459 331.078C328.086 331.078 352.102 317.623 352.102 301.025C352.102 284.427 328.086 270.972 298.459 270.972C268.833 270.972 244.816 284.427 244.816 301.025C244.816 317.623 268.833 331.078 298.459 331.078Z" fill="#190C00"/>
<path opacity="0.92" d="M298.46 330.108C327.131 330.108 350.373 317.087 350.373 301.025C350.373 284.963 327.131 271.942 298.46 271.942C269.789 271.942 246.547 284.963 246.547 301.025C246.547 317.087 269.789 330.108 298.46 330.108Z" fill="#190C00"/>
<path opacity="0.96" d="M298.459 329.139C326.173 329.139 348.639 316.552 348.639 301.025C348.639 285.498 326.173 272.911 298.459 272.911C270.746 272.911 248.279 285.498 248.279 301.025C248.279 316.552 270.746 329.139 298.459 329.139Z" fill="#190C00"/>
<path d="M298.46 328.169C325.218 328.169 346.91 316.016 346.91 301.025C346.91 286.034 325.218 273.881 298.46 273.881C271.702 273.881 250.01 286.034 250.01 301.025C250.01 316.016 271.702 328.169 298.46 328.169Z" fill="#190C00"/>
</g>
<g opacity="0.09">
<path opacity="0.04" d="M164.157 427.036C212.903 427.036 252.421 404.897 252.421 377.588C252.421 350.279 212.903 328.14 164.157 328.14C115.41 328.14 75.8926 350.279 75.8926 377.588C75.8926 404.897 115.41 427.036 164.157 427.036Z" fill="#190C00"/>
<path opacity="0.08" d="M164.157 426.068C211.948 426.068 250.691 404.363 250.691 377.588C250.691 350.813 211.948 329.108 164.157 329.108C116.366 329.108 77.623 350.813 77.623 377.588C77.623 404.363 116.366 426.068 164.157 426.068Z" fill="#190C00"/>
<path opacity="0.13" d="M164.157 425.098C210.992 425.098 248.96 403.827 248.96 377.588C248.96 351.349 210.992 330.078 164.157 330.078C117.321 330.078 79.3535 351.349 79.3535 377.588C79.3535 403.827 117.321 425.098 164.157 425.098Z" fill="#190C00"/>
<path opacity="0.17" d="M164.157 424.128C210.036 424.128 247.228 403.291 247.228 377.588C247.228 351.885 210.036 331.048 164.157 331.048C118.278 331.048 81.0859 351.885 81.0859 377.588C81.0859 403.291 118.278 424.128 164.157 424.128Z" fill="#190C00"/>
<path opacity="0.21" d="M164.156 423.159C209.079 423.159 245.496 402.756 245.496 377.588C245.496 352.42 209.079 332.017 164.156 332.017C119.234 332.017 82.8164 352.42 82.8164 377.588C82.8164 402.756 119.234 423.159 164.156 423.159Z" fill="#190C00"/>
<path opacity="0.25" d="M164.157 422.189C208.124 422.189 243.767 402.22 243.767 377.588C243.767 352.955 208.124 332.987 164.157 332.987C120.189 332.987 84.5469 352.955 84.5469 377.588C84.5469 402.22 120.189 422.189 164.157 422.189Z" fill="#190C00"/>
<path opacity="0.29" d="M164.156 421.219C207.167 421.219 242.033 401.685 242.033 377.588C242.033 353.491 207.167 333.957 164.156 333.957C121.146 333.957 86.2793 353.491 86.2793 377.588C86.2793 401.685 121.146 421.219 164.156 421.219Z" fill="#190C00"/>
<path opacity="0.33" d="M164.157 420.249C206.212 420.249 240.304 401.149 240.304 377.588C240.304 354.027 206.212 334.927 164.157 334.927C122.102 334.927 88.0098 354.027 88.0098 377.588C88.0098 401.149 122.102 420.249 164.157 420.249Z" fill="#190C00"/>
<path opacity="0.38" d="M164.157 419.279C205.257 419.279 238.574 400.613 238.574 377.588C238.574 354.563 205.257 335.897 164.157 335.897C123.058 335.897 89.7402 354.563 89.7402 377.588C89.7402 400.613 123.058 419.279 164.157 419.279Z" fill="#190C00"/>
<path opacity="0.42" d="M164.157 418.309C204.3 418.309 236.843 400.078 236.843 377.588C236.843 355.098 204.3 336.867 164.157 336.867C124.013 336.867 91.4707 355.098 91.4707 377.588C91.4707 400.078 124.013 418.309 164.157 418.309Z" fill="#190C00"/>
<path opacity="0.46" d="M164.157 417.34C203.344 417.34 235.111 399.542 235.111 377.588C235.111 355.634 203.344 337.836 164.157 337.836C124.97 337.836 93.2031 355.634 93.2031 377.588C93.2031 399.542 124.97 417.34 164.157 417.34Z" fill="#190C00"/>
<path opacity="0.5" d="M164.157 416.37C202.387 416.37 233.38 399.007 233.38 377.588C233.38 356.169 202.387 338.806 164.157 338.806C125.926 338.806 94.9336 356.169 94.9336 377.588C94.9336 399.007 125.926 416.37 164.157 416.37Z" fill="#190C00"/>
<path opacity="0.54" d="M164.157 415.4C201.432 415.4 231.65 398.471 231.65 377.588C231.65 356.705 201.432 339.776 164.157 339.776C126.882 339.776 96.6641 356.705 96.6641 377.588C96.6641 398.471 126.882 415.4 164.157 415.4Z" fill="#190C00"/>
<path opacity="0.58" d="M164.156 414.43C200.475 414.43 229.916 397.935 229.916 377.588C229.916 357.241 200.475 340.746 164.156 340.746C127.838 340.746 98.3965 357.241 98.3965 377.588C98.3965 397.935 127.838 414.43 164.156 414.43Z" fill="#190C00"/>
<path opacity="0.63" d="M164.157 413.46C199.52 413.46 228.187 397.399 228.187 377.588C228.187 357.776 199.52 341.716 164.157 341.716C128.794 341.716 100.127 357.776 100.127 377.588C100.127 397.399 128.794 413.46 164.157 413.46Z" fill="#190C00"/>
<path opacity="0.67" d="M164.157 412.49C198.565 412.49 226.457 396.864 226.457 377.588C226.457 358.312 198.565 342.686 164.157 342.686C129.75 342.686 101.857 358.312 101.857 377.588C101.857 396.864 129.75 412.49 164.157 412.49Z" fill="#190C00"/>
<path opacity="0.71" d="M164.157 411.521C197.607 411.521 224.724 396.328 224.724 377.588C224.724 358.847 197.607 343.655 164.157 343.655C130.707 343.655 103.59 358.847 103.59 377.588C103.59 396.328 130.707 411.521 164.157 411.521Z" fill="#190C00"/>
<path opacity="0.75" d="M164.157 410.551C196.652 410.551 222.994 395.793 222.994 377.588C222.994 359.383 196.652 344.625 164.157 344.625C131.663 344.625 105.32 359.383 105.32 377.588C105.32 395.793 131.663 410.551 164.157 410.551Z" fill="#190C00"/>
<path opacity="0.79" d="M164.157 409.581C195.696 409.581 221.263 395.257 221.263 377.588C221.263 359.919 195.696 345.595 164.157 345.595C132.618 345.595 107.051 359.919 107.051 377.588C107.051 395.257 132.618 409.581 164.157 409.581Z" fill="#190C00"/>
<path opacity="0.83" d="M164.157 408.611C194.739 408.611 219.531 394.721 219.531 377.588C219.531 360.454 194.739 346.565 164.157 346.565C133.575 346.565 108.783 360.454 108.783 377.588C108.783 394.721 133.575 408.611 164.157 408.611Z" fill="#190C00"/>
<path opacity="0.88" d="M164.157 407.641C193.783 407.641 217.8 394.186 217.8 377.588C217.8 360.99 193.783 347.535 164.157 347.535C134.53 347.535 110.514 360.99 110.514 377.588C110.514 394.186 134.53 407.641 164.157 407.641Z" fill="#190C00"/>
<path opacity="0.92" d="M164.157 406.671C192.828 406.671 216.07 393.65 216.07 377.588C216.07 361.526 192.828 348.505 164.157 348.505C135.486 348.505 112.244 361.526 112.244 377.588C112.244 393.65 135.486 406.671 164.157 406.671Z" fill="#190C00"/>
<path opacity="0.96" d="M164.157 405.702C191.87 405.702 214.337 393.115 214.337 377.588C214.337 362.061 191.87 349.474 164.157 349.474C136.443 349.474 113.977 362.061 113.977 377.588C113.977 393.115 136.443 405.702 164.157 405.702Z" fill="#190C00"/>
<path d="M164.157 404.732C190.915 404.732 212.607 392.579 212.607 377.588C212.607 362.597 190.915 350.444 164.157 350.444C137.399 350.444 115.707 362.597 115.707 377.588C115.707 392.579 137.399 404.732 164.157 404.732Z" fill="#190C00"/>
</g>
<path d="M329.057 336.307L337.571 340.084L377.786 316.996L369.271 313.219L329.057 336.307Z" fill="url(#paint2_linear_842_9777)"/>
<path d="M377.785 320.378L337.57 343.465V340.084L377.785 316.996V320.378Z" fill="url(#paint3_linear_842_9777)"/>
<path d="M337.571 340.084L329.057 336.307V339.688L337.571 343.465V340.084Z" fill="url(#paint4_linear_842_9777)"/>
<path d="M217.279 271.64L225.793 275.417L266.007 252.329L257.493 248.554L217.279 271.64Z" fill="url(#paint5_linear_842_9777)"/>
<path d="M266.007 255.713L225.793 278.798V275.417L266.007 252.329V255.713Z" fill="url(#paint6_linear_842_9777)"/>
<path d="M225.793 275.417L217.279 271.64V275.021L225.793 278.798V275.417Z" fill="url(#paint7_linear_842_9777)"/>
<path d="M350.658 325.65L356.182 328.818V272.726L350.658 269.56V325.65Z" fill="url(#paint8_linear_842_9777)"/>
<path d="M359.329 274.698V326.911L356.182 328.818V272.726L359.329 274.698Z" fill="url(#paint9_linear_842_9777)"/>
<path d="M237.885 261.271L243.406 264.437V208.347L237.885 205.181V261.271Z" fill="url(#paint10_linear_842_9777)"/>
<path d="M246.553 210.319V262.532L243.406 264.437V208.347L246.553 210.319Z" fill="url(#paint11_linear_842_9777)"/>
<path d="M388.419 271.449L424.294 119.436C425.65 113.694 423.07 107.743 417.952 104.807L273.558 22.0109C267.816 18.7176 256.989 20.434 255.468 26.8763L223.606 178.326C221.827 185.864 225.215 193.675 231.934 197.528L371.151 282.096C377.339 285.654 386.777 278.398 388.419 271.449Z" fill="url(#paint12_linear_842_9777)"/>
<path d="M381.389 273.872L417.266 121.86C418.621 116.117 416.041 110.166 410.922 107.231L266.53 24.4343C263.82 22.8794 260.534 22.696 257.667 23.9394C254.8 25.1828 252.688 27.7071 251.971 30.7487L216.571 180.759C214.791 188.297 218.178 196.108 224.897 199.96L365.688 280.684C368.612 282.361 372.156 282.558 375.248 281.217C378.34 279.876 380.616 277.153 381.389 273.872Z" fill="#090817"/>
<path d="M370.982 277.844C369.867 277.844 368.772 277.547 367.808 276.986L227.017 196.262C221.954 193.328 219.398 187.434 220.716 181.733L256.119 31.723C256.716 29.1684 258.998 27.3646 261.621 27.3738C262.602 27.3738 263.565 27.6338 264.412 28.1274L408.804 110.924C412.273 112.935 414.025 116.973 413.123 120.88L377.246 272.891C376.567 275.798 373.971 277.852 370.985 277.844H370.982Z" fill="white"/>
<path opacity="0.46" d="M345.628 92.0547L277.235 52.552C276.503 52.0945 276.138 51.225 276.326 50.3821C276.54 49.6006 277.295 49.2983 278.009 49.71L346.4 89.2127C347.133 89.67 347.498 90.5392 347.312 91.3826C347.098 92.164 346.34 92.4664 345.628 92.0547ZM328.424 92.9594L274.684 61.9178C273.951 61.4607 273.586 60.5908 273.774 59.7478C273.986 58.9664 274.744 58.6641 275.458 59.0757L329.211 90.1174C329.943 90.5744 330.308 91.4443 330.12 92.2873C329.908 93.0641 329.138 93.3711 328.424 92.9594ZM371.513 117.845L335.783 97.2085C335.05 96.7515 334.686 95.8816 334.874 95.0386C335.085 94.2572 335.844 93.9548 336.558 94.3665L372.286 115.003C373.018 115.461 373.383 116.331 373.197 117.175C372.983 117.95 372.237 118.259 371.513 117.845ZM311.163 93.8293L281.035 76.4281C280.304 75.9696 279.94 75.1009 280.126 74.2581C280.34 73.4767 281.096 73.1743 281.81 73.586L311.937 90.9872C312.67 91.4442 313.035 92.3141 312.847 93.1571C312.635 93.9386 311.877 94.2409 311.163 93.8293ZM359.929 121.994L319.773 98.8017C319.041 98.3432 318.677 97.4746 318.863 96.6318C319.077 95.8503 319.833 95.548 320.547 95.9596L360.703 119.152C361.435 119.611 361.799 120.481 361.613 121.324C361.399 122.106 360.641 122.408 359.929 121.994ZM321.477 110.626L278.484 85.7938C277.751 85.3368 277.386 84.4669 277.574 83.6239C277.788 82.8425 278.544 82.5401 279.258 82.9518L322.25 107.784C322.982 108.241 323.347 109.11 323.161 109.954C322.947 110.74 322.189 111.037 321.477 110.626ZM314.24 137.188L271.248 112.368C270.515 111.91 270.151 111.039 270.339 110.195C270.551 109.414 271.309 109.112 272.023 109.526L315.024 134.344C315.756 134.802 316.121 135.672 315.933 136.516C315.721 137.297 314.954 137.6 314.24 137.188ZM371.96 139.784L328.978 114.952C328.246 114.494 327.881 113.625 328.069 112.782C328.283 112 329.038 111.698 329.752 112.11L372.744 136.941C373.476 137.399 373.842 138.268 373.655 139.111C373.43 139.893 372.672 140.195 371.96 139.784ZM338.579 131.343L284.835 100.302C284.104 99.8433 283.74 98.9747 283.926 98.1319C284.14 97.3504 284.898 97.0481 285.61 97.4597L339.351 128.501C340.083 128.959 340.449 129.828 340.262 130.671C340.049 131.453 339.29 131.755 338.579 131.343ZM324.943 134.306L271.202 103.267C270.469 102.81 270.104 101.941 270.29 101.097C270.504 100.316 271.262 100.013 271.974 100.425L325.722 131.464C326.454 131.922 326.819 132.791 326.631 133.634C326.42 134.416 325.657 134.718 324.943 134.306Z" fill="#ADADAD"/>
<path d="M362.343 263.309C361.397 263.309 360.469 263.059 359.652 262.583L240.367 194.185C236.078 191.701 233.912 186.709 235.029 181.88L248.377 127.12C248.881 124.959 250.809 123.431 253.028 123.434C253.859 123.434 254.674 123.656 255.391 124.074L377.725 194.213C380.664 195.916 382.148 199.337 381.384 202.646L367.648 259.122C367.069 261.582 364.87 263.318 362.343 263.309Z" fill="#090817"/>
<path d="M252.228 181.878L290.996 204.267C291.612 204.654 291.939 205.363 291.842 206.073L291.815 206.226C291.746 206.545 291.523 206.809 291.22 206.93C290.917 207.052 290.573 207.014 290.303 206.83L251.531 184.441C250.914 184.055 250.586 183.346 250.682 182.635L250.71 182.482C250.778 182.161 251.002 181.894 251.307 181.773C251.612 181.651 251.958 181.691 252.228 181.878ZM252.194 173.682L300.653 201.677C301.27 202.061 301.597 202.77 301.501 203.48L301.474 203.633C301.404 203.953 301.18 204.218 300.875 204.339C300.57 204.46 300.225 204.421 299.955 204.235L251.496 176.245C250.879 175.86 250.551 175.15 250.648 174.439L250.675 174.286C250.743 173.965 250.967 173.699 251.272 173.577C251.577 173.455 251.923 173.495 252.194 173.682ZM264.487 171.009L312.949 198.997C313.565 199.383 313.892 200.092 313.795 200.803L313.768 200.956C313.7 201.277 313.476 201.543 313.17 201.665C312.865 201.787 312.519 201.747 312.249 201.56L263.79 173.57C263.174 173.185 262.846 172.477 262.942 171.766L262.969 171.614C263.037 171.293 263.261 171.026 263.566 170.905C263.871 170.783 264.217 170.822 264.487 171.009ZM304.281 184.229L324.164 195.341C324.78 195.727 325.106 196.436 325.01 197.147L324.982 197.3C324.912 197.619 324.687 197.882 324.383 198.001C324.078 198.12 323.734 198.08 323.466 197.893L303.583 186.792C302.968 186.406 302.641 185.699 302.735 184.988L302.762 184.836C302.83 184.515 303.054 184.249 303.359 184.127C303.664 184.005 304.01 184.043 304.281 184.229ZM295.992 169.656L332.199 190.569C332.816 190.953 333.144 191.662 333.047 192.373L333.02 192.525C332.953 192.847 332.729 193.114 332.424 193.236C332.118 193.358 331.772 193.319 331.501 193.132L295.294 172.219C294.677 171.834 294.349 171.124 294.446 170.413L294.473 170.26C294.541 169.939 294.765 169.673 295.071 169.551C295.376 169.43 295.722 169.469 295.992 169.656ZM258.759 157.925L297.527 180.317C298.143 180.702 298.471 181.41 298.375 182.121L298.348 182.273C298.28 182.594 298.056 182.86 297.751 182.982C297.446 183.104 297.1 183.066 296.829 182.88L258.061 160.488C257.446 160.102 257.119 159.394 257.216 158.684L257.243 158.532C257.31 158.211 257.534 157.944 257.839 157.822C258.143 157.7 258.489 157.739 258.759 157.925ZM261.066 149.48L288.229 165.162C288.845 165.547 289.172 166.256 289.075 166.966L289.047 167.118C288.982 167.441 288.76 167.71 288.455 167.834C288.15 167.958 287.803 167.921 287.531 167.735L260.369 152.043C259.751 151.658 259.424 150.949 259.52 150.237L259.548 150.085C259.615 149.763 259.84 149.497 260.145 149.375C260.45 149.254 260.796 149.293 261.066 149.48ZM255.333 136.398L303.792 164.386C304.41 164.771 304.738 165.48 304.641 166.192L304.613 166.344C304.546 166.665 304.321 166.932 304.016 167.053C303.711 167.175 303.365 167.136 303.095 166.949L254.636 138.961C254.019 138.575 253.692 137.866 253.788 137.155L253.815 137.002C253.882 136.681 254.107 136.415 254.412 136.293C254.717 136.171 255.063 136.211 255.333 136.398Z" fill="white"/>
<path d="M206.848 354.45L205.48 366.732C205.48 366.732 219.081 375.551 224.163 370.321C229.245 365.09 230.591 354.027 235.076 349.543C239.56 345.058 234.478 331.906 224.912 340.126C215.346 348.345 206.848 354.45 206.848 354.45Z" fill="#090817"/>
<path d="M206.848 354.45L205.48 366.732C205.48 366.732 219.081 375.551 224.163 370.321C229.245 365.09 230.591 354.027 235.076 349.543C239.56 345.058 234.478 331.906 224.912 340.126C215.346 348.345 206.848 354.45 206.848 354.45Z" fill="white" fill-opacity="0.2"/>
<path d="M231.76 362.013C231.76 362.013 228.809 373.907 230.453 374.805C232.098 375.702 236.433 380.484 240.919 380.335C245.406 380.187 253.774 370.47 260.351 366.134C266.928 361.799 276.943 351.636 268.87 347.601C260.797 343.565 248.541 352.682 248.541 352.682L231.76 362.013Z" fill="#090817"/>
<path d="M231.76 362.013C231.76 362.013 228.809 373.907 230.453 374.805C232.098 375.702 236.433 380.484 240.919 380.335C245.406 380.187 253.774 370.47 260.351 366.134C266.928 361.799 276.943 351.636 268.87 347.601C260.797 343.565 248.541 352.682 248.541 352.682L231.76 362.013Z" fill="white" fill-opacity="0.2"/>
<path d="M171.874 271.64C171.874 271.64 206.257 251.378 213.353 254.327C231.782 261.985 227.54 351.71 227.54 351.71C227.54 351.71 224.914 358.243 217.281 358.527C209.648 358.811 206.239 353.699 206.239 353.699L193.466 291.787L156.254 290.65L171.874 271.64Z" fill="#090817"/>
<path d="M171.874 271.64C171.874 271.64 206.257 251.378 213.353 254.327C231.782 261.985 227.54 351.71 227.54 351.71C227.54 351.71 224.914 358.243 217.281 358.527C209.648 358.811 206.239 353.699 206.239 353.699L193.466 291.787L156.254 290.65L171.874 271.64Z" fill="white" fill-opacity="0.1"/>
<path d="M102.683 294.202C102.683 294.202 97.6688 324.65 101.681 330.23C105.693 335.809 146.87 354.38 155.173 351.438C163.476 348.496 221.263 307.605 225.81 309.477C230.357 311.349 231.118 360.757 231.118 360.757C231.118 360.757 232.104 365.839 242.281 363.699C252.458 361.56 252.712 353.001 252.712 353.001C252.712 353.001 256.724 269.814 243.874 264.732C231.024 259.65 169.064 288.573 169.064 288.573L102.683 294.202Z" fill="#090817"/>
<path d="M155.503 127.448C155.503 127.448 156.566 137.644 156.04 138.884C155.572 139.882 155.022 140.839 154.396 141.747C154.396 141.747 156.003 142.87 155.559 145.968C155.115 149.066 155.773 158.946 152.907 161.002C150.042 163.058 144.963 164.232 143.709 165.702C142.456 167.172 141.983 177.331 141.983 177.331L115.73 164.781L116.196 145.91L155.503 127.448Z" fill="url(#paint13_linear_842_9777)"/>
<path d="M153.465 130.276C148.423 131.107 151.346 138.8 149.614 140.947C147.881 143.093 146.737 145.001 147.104 149.58C147.472 154.159 146.407 154.797 145.325 154.143C144.244 153.49 144.395 142.391 141.604 141.605C138.813 140.819 137.376 150.224 138.178 152.722C138.981 155.22 135.769 158.101 128.929 158.143C122.089 158.185 113.942 158.548 111.867 148.561C109.792 138.575 103.264 136.221 103.978 127.02C104.692 117.82 110.637 116.429 110.637 116.429C110.637 116.429 109.02 106.047 124.835 104.14C140.65 102.233 157.298 107.933 160.128 110.003C162.959 112.073 165.838 128.248 153.465 130.276Z" fill="#090817"/>
<path d="M90.4834 163.786C81.5177 175.186 79.8897 185.573 88.7275 215.605C97.5653 245.638 101.389 293.336 101.389 293.336C101.389 293.336 111.106 316.008 142.903 311.296C174.701 306.584 177.941 287.152 177.941 287.152C177.941 287.152 170.58 193.229 164.684 188.518C158.788 183.806 96.9606 155.541 90.4834 163.786Z" fill="url(#paint14_linear_842_9777)"/>
<path d="M90.4834 163.786C81.5177 175.186 79.8897 185.573 88.7275 215.605C97.5653 245.638 101.389 293.336 101.389 293.336C101.389 293.336 111.106 316.008 142.903 311.296C174.701 306.584 177.941 287.152 177.941 287.152C177.941 287.152 170.58 193.229 164.684 188.518C158.788 183.806 96.9606 155.541 90.4834 163.786Z" fill="#EA6016"/>
<path d="M164.68 188.518C156.788 186.517 138.522 202.281 157.123 223.771C175.725 245.261 224.449 256.78 228.64 253.899C232.831 251.017 237.885 237.123 237.885 237.123C237.885 237.123 183.765 193.353 164.68 188.518Z" fill="#090817"/>
<path d="M164.68 188.518C156.788 186.517 138.522 202.281 157.123 223.771C175.725 245.261 224.449 256.78 228.64 253.899C232.831 251.017 237.885 237.123 237.885 237.123C237.885 237.123 183.765 193.353 164.68 188.518Z" fill="white" fill-opacity="0.2"/>
<path d="M217.525 221.336C217.525 221.336 223.209 225.841 225.793 237.114C228.377 248.387 228.64 253.889 228.64 253.889C228.64 253.889 232.361 251.775 237.885 237.114C243.409 222.452 251.956 192.327 251.956 192.327C251.956 192.327 250.053 193.899 244.978 192.327C239.904 190.755 237.885 187.087 237.885 187.087L217.525 221.336Z" fill="#090817"/>
<path d="M217.525 221.336C217.525 221.336 223.209 225.841 225.793 237.114C228.377 248.387 228.64 253.889 228.64 253.889C228.64 253.889 232.361 251.775 237.885 237.114C243.409 222.452 251.956 192.327 251.956 192.327C251.956 192.327 250.053 193.899 244.978 192.327C239.904 190.755 237.885 187.087 237.885 187.087L217.525 221.336Z" fill="white" fill-opacity="0.2"/>
<path d="M109.299 164.897C109.299 164.897 110.071 160.943 118.89 163.637C127.709 166.33 142.285 171.016 144.443 173.535C146.601 176.054 146.243 180.415 146.243 180.415L109.299 164.897Z" fill="url(#paint15_linear_842_9777)"/>
<path d="M257.18 180.473L257.161 180.505C257.052 180.67 256.95 180.84 256.845 180.998C256.74 181.157 256.626 181.319 256.519 181.464C256.494 181.502 256.466 181.538 256.436 181.573C256.415 181.605 256.389 181.636 256.37 181.668C256.298 181.757 256.233 181.852 256.163 181.933C256.043 182.091 255.919 182.238 255.794 182.398L255.643 182.564C255.612 182.598 255.57 182.636 255.54 182.671L255.384 182.843C255.236 183.001 255.084 183.15 254.919 183.287C254.875 183.331 254.831 183.359 254.791 183.396C254.752 183.433 254.696 183.482 254.645 183.522C254.594 183.561 254.487 183.666 254.412 183.724C254.245 183.854 254.084 183.971 253.919 184.085C253.887 184.11 253.859 184.129 253.835 184.15C253.812 184.171 253.81 184.15 253.808 184.168C253.673 184.257 253.533 184.34 253.398 184.42C253.39 184.423 253.381 184.423 253.373 184.42C253.249 184.494 253.117 184.566 252.989 184.631C252.981 184.628 252.972 184.628 252.963 184.631C252.922 184.645 252.883 184.662 252.845 184.682C252.61 184.793 252.368 184.887 252.121 184.966C252.034 184.998 251.945 185.024 251.854 185.045C251.653 185.104 251.448 185.153 251.242 185.192C251.152 185.208 251.072 185.222 250.986 185.234C250.703 185.273 250.418 185.294 250.133 185.296L111.109 183.147C111.129 183.151 111.148 183.151 111.168 183.147C111.279 183.152 111.391 183.148 111.502 183.136C111.523 183.136 111.547 183.136 111.568 183.136C111.661 183.136 111.768 183.115 111.865 183.103C111.963 183.092 112.04 183.075 112.121 183.061C112.202 183.047 112.328 183.026 112.433 183.001C112.537 182.975 112.64 182.947 112.737 182.917C112.844 182.894 112.949 182.863 113.051 182.824C113.154 182.787 113.261 182.745 113.365 182.701C113.47 182.664 113.572 182.622 113.672 182.575L113.842 182.501C114.064 182.396 114.278 182.276 114.484 182.143C114.742 181.985 114.989 181.81 115.224 181.619C115.333 181.543 115.431 181.452 115.538 181.366C115.552 181.358 115.565 181.346 115.575 181.333C115.607 181.31 115.642 181.277 115.679 181.247L115.747 181.18C116.038 180.921 116.313 180.646 116.573 180.356C116.68 180.236 116.782 180.11 116.884 179.984L117.228 179.545C117.228 179.531 117.254 179.517 117.266 179.496C117.284 179.478 117.3 179.458 117.312 179.435L117.505 179.161C117.694 178.894 117.875 178.621 118.052 178.328C118.558 177.484 118.998 176.6 119.366 175.686L119.38 175.668C119.382 175.66 119.382 175.652 119.38 175.645C119.749 174.713 120.06 173.759 120.31 172.788C120.31 172.761 120.324 172.735 120.333 172.707C120.37 172.57 120.398 172.435 120.426 172.3C120.454 172.165 120.482 172.068 120.505 171.968C120.559 171.714 120.619 171.467 120.661 171.219C120.877 170.085 121.025 168.939 121.105 167.788C121.129 167.383 121.14 166.993 121.152 166.59C121.16 166.472 121.16 166.353 121.152 166.235C121.161 165.672 121.154 165.109 121.131 164.546C121.072 162.925 120.865 161.313 120.512 159.729C120.47 159.518 120.424 159.313 120.368 159.111C120.305 158.834 120.226 158.555 120.147 158.285C120.015 157.843 119.88 157.406 119.726 156.985C119.393 156.021 118.977 155.087 118.484 154.194C118.384 154.008 118.282 153.841 118.177 153.673C118.031 153.415 117.87 153.169 117.712 152.938C117.654 152.857 117.603 152.782 117.542 152.706C117.49 152.624 117.432 152.546 117.368 152.473C117.312 152.406 117.263 152.341 117.205 152.271C117.193 152.25 117.177 152.231 117.159 152.215L117.005 152.017C116.961 151.973 116.926 151.924 116.882 151.88C116.792 151.77 116.696 151.665 116.593 151.566C116.555 151.518 116.514 151.473 116.47 151.429C116.389 151.345 116.314 151.264 116.238 151.196L116.086 151.05C116.005 150.975 115.928 150.913 115.854 150.838L115.749 150.747C115.724 150.722 115.696 150.699 115.666 150.68C115.589 150.615 115.514 150.561 115.433 150.499C115.377 150.454 115.319 150.413 115.258 150.375C115.241 150.358 115.22 150.343 115.198 150.331C115.135 150.285 115.07 150.245 115.017 150.203C114.963 150.161 114.838 150.087 114.754 150.036C114.53 149.893 114.297 149.766 114.056 149.657C113.884 149.569 113.707 149.492 113.526 149.424C113.512 149.413 113.495 149.406 113.477 149.403C113.457 149.396 113.437 149.39 113.417 149.385C113.212 149.315 113.004 149.258 112.793 149.212C112.768 149.197 112.739 149.188 112.709 149.189C112.668 149.189 112.626 149.166 112.584 149.159C112.537 149.147 112.488 149.138 112.44 149.133C112.319 149.115 112.207 149.094 112.079 149.085C111.969 149.07 111.858 149.063 111.747 149.064C111.687 149.056 111.627 149.052 111.568 149.052L250.682 151.192C250.849 151.192 251.019 151.208 251.196 151.227C251.25 151.23 251.304 151.238 251.356 151.252L251.7 151.299C251.719 151.31 251.74 151.299 251.754 151.315L251.824 151.329C252.084 151.385 252.34 151.456 252.591 151.543C252.608 151.548 252.624 151.555 252.64 151.564C252.817 151.624 252.991 151.703 253.166 151.782L253.242 151.817C253.277 151.832 253.311 151.85 253.342 151.871C253.456 151.931 253.575 151.992 253.677 152.055C253.719 152.072 253.76 152.093 253.798 152.117L253.868 152.162C253.961 152.215 254.04 152.273 254.133 152.327C254.178 152.363 254.226 152.396 254.277 152.424C254.298 152.436 254.312 152.455 254.34 152.471C254.408 152.52 254.482 152.573 254.545 152.629C254.608 152.685 254.659 152.706 254.705 152.745C254.727 152.768 254.751 152.787 254.777 152.803L254.961 152.969C255.015 153.008 255.066 153.051 255.115 153.096L255.201 153.176C255.252 153.222 255.31 153.276 255.359 153.324C255.4 153.367 255.443 153.407 255.489 153.445L255.603 153.569L255.761 153.734C255.784 153.766 255.815 153.792 255.838 153.824C255.898 153.887 255.954 153.957 256.015 154.02C256.075 154.083 256.091 154.11 256.133 154.162C256.175 154.213 256.161 154.187 256.177 154.206C256.289 154.343 256.394 154.478 256.501 154.622C256.608 154.766 256.708 154.899 256.805 155.045L256.857 155.111C256.891 155.169 256.926 155.215 256.961 155.273C256.996 155.331 257.059 155.42 257.112 155.506C257.166 155.592 257.168 155.601 257.198 155.655C257.241 155.715 257.281 155.777 257.317 155.841C257.347 155.886 257.375 155.932 257.401 155.98C257.478 156.106 257.55 156.239 257.633 156.362C257.654 156.401 257.675 156.441 257.703 156.485L257.973 157.02C258.068 157.201 258.152 157.385 258.24 157.58L258.275 157.655L258.31 157.727C258.373 157.874 258.438 158.018 258.496 158.169C258.587 158.374 258.666 158.581 258.745 158.788C258.773 158.857 258.799 158.936 258.826 159.006C258.854 159.076 258.857 159.104 258.873 159.148C258.91 159.25 258.95 159.346 258.98 159.443C259.057 159.676 259.131 159.909 259.199 160.125C259.231 160.234 259.264 160.341 259.292 160.457C259.306 160.509 259.329 160.557 259.34 160.611C259.352 160.664 259.382 160.75 259.399 160.823C259.464 161.055 259.52 161.288 259.573 161.52C259.613 161.676 259.645 161.827 259.682 161.985C259.682 162.027 259.696 162.065 259.708 162.106C259.72 162.148 259.727 162.178 259.729 162.216C259.78 162.448 259.827 162.681 259.864 162.913C259.901 163.146 259.952 163.379 259.985 163.625V163.646C260.02 163.879 260.052 164.111 260.082 164.344C260.117 164.639 260.152 164.934 260.18 165.225C260.224 165.669 260.25 166.111 260.273 166.56C260.277 166.607 260.277 166.655 260.273 166.702C260.289 167.014 260.273 167.321 260.292 167.632C260.292 167.844 260.306 168.049 260.292 168.256C260.292 168.304 260.292 168.351 260.292 168.4C260.292 168.523 260.292 168.632 260.292 168.758C260.278 168.991 260.278 169.237 260.264 169.477C260.264 169.667 260.243 169.853 260.227 170.039C260.227 170.084 260.227 170.135 260.227 170.179C260.227 170.223 260.227 170.253 260.213 170.288C260.194 170.521 260.175 170.753 260.152 170.986C260.129 171.219 260.108 171.412 260.078 171.623C260.078 171.658 260.078 171.681 260.078 171.716C260.075 171.74 260.075 171.764 260.078 171.788C260.054 171.944 260.033 172.1 260.015 172.254C259.978 172.461 259.947 172.675 259.91 172.882C259.887 173.009 259.859 173.144 259.838 173.282C259.838 173.312 259.838 173.347 259.817 173.375C259.796 173.402 259.801 173.463 259.794 173.503C259.752 173.719 259.706 173.928 259.659 174.14C259.613 174.351 259.559 174.568 259.513 174.779C259.513 174.81 259.499 174.833 259.489 174.863C259.48 174.893 259.471 174.924 259.466 174.947C259.422 175.107 259.385 175.27 259.338 175.412C259.282 175.626 259.22 175.845 259.154 176.054C259.129 176.145 259.094 176.231 259.066 176.321C259.05 176.363 259.038 176.41 259.022 176.454C259.006 176.498 258.98 176.596 258.954 176.67C258.882 176.875 258.812 177.082 258.738 177.277C258.664 177.473 258.596 177.642 258.524 177.821V177.835C258.524 177.835 258.524 177.852 258.524 177.859C258.443 178.049 258.368 178.235 258.292 178.421L258.043 178.966C258.015 179.028 257.98 179.087 257.95 179.149C257.919 179.212 257.917 179.217 257.898 179.249L257.78 179.482C257.691 179.661 257.596 179.833 257.505 180.001C257.415 180.168 257.271 180.322 257.18 180.473Z" fill="url(#paint16_linear_842_9777)"/>
<path d="M118.498 154.199C122.236 160.944 122.036 171.756 118.052 178.329C114.068 184.901 107.802 184.752 104.065 177.996C100.327 171.24 100.53 160.437 104.516 153.864C108.502 147.292 114.777 147.44 118.498 154.199Z" fill="#2F655F"/>
<path d="M259.566 161.497L151.902 158.797L152.693 170.06L260.068 171.614C260.068 171.614 263.773 163.946 259.566 161.497Z" fill="white"/>
<path d="M257.162 180.512L257.18 180.48C257.271 180.329 257.357 180.17 257.457 180.015C257.557 179.859 257.643 179.675 257.731 179.496L257.85 179.263C257.869 179.231 257.883 179.196 257.901 179.163C257.92 179.131 257.966 179.042 257.994 178.98L258.243 178.435C258.329 178.249 258.404 178.063 258.476 177.873C258.476 177.873 258.476 177.856 258.476 177.849V177.835C258.548 177.656 258.625 177.473 258.69 177.291C258.755 177.11 258.834 176.889 258.906 176.684C258.932 176.61 258.948 176.54 258.973 176.468C258.999 176.396 259.001 176.377 259.018 176.335C259.045 176.245 259.08 176.159 259.106 176.068C259.171 175.858 259.234 175.64 259.29 175.426C259.336 175.275 259.373 175.112 259.418 174.961C259.418 174.937 259.432 174.907 259.441 174.877C259.45 174.847 259.455 174.824 259.464 174.793C259.511 174.582 259.562 174.365 259.611 174.154C259.659 173.942 259.704 173.733 259.746 173.516C259.746 173.477 259.762 173.43 259.769 173.389C259.776 173.347 259.769 173.326 259.79 173.296C259.811 173.158 259.839 173.023 259.862 172.896C259.899 172.689 259.929 172.475 259.966 172.268C259.985 172.119 260.006 171.963 260.029 171.802C260.027 171.778 260.027 171.754 260.029 171.73C260.029 171.695 260.029 171.672 260.029 171.637C260.06 171.426 260.078 171.216 260.104 171C260.129 170.784 260.146 170.535 260.164 170.302C260.164 170.267 260.164 170.235 260.178 170.193C260.192 170.151 260.178 170.098 260.178 170.053C260.194 169.867 260.208 169.681 260.215 169.491C260.229 169.258 260.229 169.012 260.243 168.772C260.243 168.656 260.243 168.539 260.243 168.414C260.243 168.365 260.243 168.318 260.243 168.27C260.243 168.063 260.243 167.858 260.243 167.646C260.243 167.339 260.243 167.032 260.225 166.716C260.228 166.669 260.228 166.621 260.225 166.574C260.201 166.125 260.176 165.683 260.132 165.239C260.104 164.948 260.069 164.653 260.034 164.358C260.004 164.125 259.971 163.893 259.936 163.66V163.639C259.904 163.406 259.862 163.16 259.815 162.927C259.769 162.695 259.732 162.462 259.68 162.23C259.68 162.192 259.662 162.158 259.659 162.12C259.657 162.083 259.646 162.041 259.634 161.999C259.597 161.841 259.564 161.69 259.525 161.534C259.471 161.302 259.415 161.069 259.35 160.837C259.334 160.764 259.311 160.697 259.292 160.625C259.273 160.553 259.257 160.523 259.243 160.471C259.215 160.355 259.183 160.239 259.15 160.139C259.083 159.906 259.008 159.674 258.932 159.457C258.901 159.36 258.862 159.264 258.825 159.162C258.808 159.118 258.792 159.071 258.778 159.02C258.764 158.969 258.725 158.871 258.697 158.802C258.618 158.595 258.538 158.388 258.448 158.183C258.39 158.032 258.325 157.888 258.262 157.741L258.227 157.669L258.192 157.594C258.104 157.399 258.02 157.215 257.924 157.034L257.655 156.499C257.627 156.455 257.606 156.415 257.585 156.376C257.511 156.252 257.438 156.12 257.352 155.994C257.327 155.946 257.299 155.9 257.269 155.855C257.232 155.791 257.193 155.729 257.15 155.669C257.12 155.615 257.097 155.566 257.064 155.52C257.031 155.473 256.966 155.371 256.913 155.287C256.859 155.204 256.843 155.183 256.808 155.125L256.757 155.059C256.659 154.913 256.559 154.771 256.452 154.636C256.345 154.501 256.241 154.357 256.129 154.22C256.113 154.201 256.099 154.194 256.085 154.176C256.071 154.157 256.006 154.085 255.966 154.034C255.927 153.983 255.85 153.901 255.789 153.838C255.766 153.806 255.736 153.78 255.713 153.748L255.555 153.583L255.441 153.459C255.395 153.421 255.351 153.381 255.31 153.338C255.262 153.29 255.203 153.236 255.152 153.189L255.066 153.11C255.018 153.065 254.966 153.022 254.913 152.983L254.729 152.817C254.702 152.801 254.678 152.782 254.657 152.759C254.61 152.72 254.552 152.685 254.496 152.643C254.441 152.601 254.359 152.534 254.292 152.485C254.264 152.469 254.25 152.45 254.229 152.438C254.178 152.41 254.13 152.377 254.085 152.341C253.992 152.287 253.913 152.229 253.82 152.175L253.75 152.131C253.711 152.107 253.671 152.086 253.629 152.068C253.524 152.006 253.396 151.945 253.294 151.885C253.262 151.864 253.229 151.846 253.194 151.831L253.117 151.796L295.367 169.023L253.357 184.438C253.492 184.359 253.631 184.275 253.766 184.187C253.766 184.187 253.785 184.171 253.794 184.168C253.803 184.166 253.845 184.129 253.878 184.103C254.043 183.989 254.203 183.871 254.371 183.743C254.45 183.685 254.531 183.61 254.603 183.54C254.675 183.471 254.699 183.457 254.75 183.415C254.801 183.373 254.834 183.35 254.878 183.306C255.031 183.168 255.182 183.019 255.343 182.861L255.499 182.689C255.529 182.654 255.571 182.617 255.601 182.582L255.752 182.417C255.878 182.268 256.001 182.122 256.122 181.952C256.192 181.871 256.257 181.775 256.329 181.687C256.348 181.654 256.373 181.624 256.394 181.591C256.425 181.557 256.453 181.521 256.478 181.482C256.585 181.336 256.71 181.173 256.803 181.017C256.897 180.861 257.052 180.67 257.162 180.512Z" fill="#F35825"/>
<path d="M281.998 163.534C281.998 163.534 284.194 165.162 284.398 167.788C284.603 170.414 282.231 173.837 282.231 173.837L295.425 168.995L281.998 163.534Z" fill="#090817"/>
<path d="M281.998 163.534C281.998 163.534 284.194 165.162 284.398 167.788C284.603 170.414 282.231 173.837 282.231 173.837L295.425 168.995L281.998 163.534Z" fill="white" fill-opacity="0.2"/>
<path d="M150.056 178.507C150.153 178.335 150.247 178.163 150.337 177.989C150.379 177.907 150.419 177.826 150.458 177.756L150.512 177.652C150.542 177.591 150.574 177.531 150.602 177.468C150.691 177.286 150.774 177.105 150.856 176.921C150.937 176.738 151.019 176.545 151.088 176.352V176.335V176.314C151.161 176.133 151.23 175.952 151.3 175.77C151.37 175.589 151.447 175.363 151.516 175.158C151.542 175.084 151.565 175.01 151.588 174.937L151.63 174.807C151.661 174.717 151.691 174.626 151.719 174.535C151.784 174.321 151.847 174.107 151.907 173.893C151.951 173.735 151.993 173.575 152.033 173.428C152.033 173.398 152.049 173.37 152.056 173.34C152.063 173.309 152.072 173.284 152.079 173.256C152.133 173.042 152.184 172.828 152.23 172.612C152.277 172.395 152.323 172.184 152.365 171.968C152.365 171.926 152.382 171.886 152.389 171.844C152.396 171.802 152.389 171.779 152.407 171.747C152.433 171.612 152.458 171.477 152.482 171.34C152.519 171.13 152.551 170.921 152.584 170.709C152.607 170.556 152.628 170.405 152.647 170.244C152.647 170.216 152.647 170.191 152.658 170.163C152.67 170.135 152.658 170.105 152.658 170.077C152.686 169.863 152.709 169.649 152.733 169.435C152.756 169.221 152.779 168.97 152.798 168.721V168.611C152.798 168.565 152.798 168.516 152.798 168.47C152.812 168.279 152.826 168.091 152.835 167.9C152.849 167.667 152.851 167.418 152.858 167.179C152.858 167.058 152.858 166.946 152.858 166.816C152.858 166.769 152.858 166.721 152.858 166.674C152.858 166.465 152.858 166.256 152.858 166.046C152.858 165.737 152.858 165.425 152.84 165.116C152.84 165.067 152.84 165.018 152.84 164.969C152.819 164.523 152.789 164.074 152.747 163.63C152.719 163.332 152.686 163.037 152.649 162.741C152.619 162.509 152.586 162.262 152.549 162.023V162.002C152.512 161.769 152.472 161.523 152.43 161.285C152.389 161.048 152.342 160.82 152.293 160.588C152.293 160.548 152.277 160.511 152.268 160.474C152.258 160.436 152.251 160.395 152.242 160.355C152.207 160.197 152.175 160.039 152.137 159.89C152.082 159.657 152.021 159.425 151.958 159.192C151.94 159.12 151.916 159.048 151.898 158.978C151.879 158.908 151.868 158.871 151.851 158.818C151.819 158.708 151.791 158.585 151.756 158.488C151.686 158.255 151.612 158.022 151.523 157.79C151.491 157.692 151.454 157.594 151.419 157.497C151.4 157.446 151.384 157.397 151.365 157.348L151.288 157.132C151.207 156.92 151.126 156.711 151.04 156.504C150.977 156.355 150.912 156.208 150.847 156.062L150.812 155.983C150.812 155.959 150.791 155.932 150.779 155.908C150.693 155.718 150.605 155.532 150.512 155.348C150.419 155.164 150.328 154.987 150.233 154.811L150.167 154.687L149.935 154.301C149.907 154.255 149.877 154.21 149.849 154.162L149.73 153.971L149.64 153.822C149.591 153.745 149.539 153.673 149.491 153.59L149.381 153.427L149.337 153.359C149.235 153.213 149.132 153.071 149.028 152.934C148.921 152.792 148.812 152.655 148.702 152.522L148.658 152.473C148.619 152.424 148.577 152.378 148.537 152.331C148.498 152.285 148.423 152.196 148.365 152.134C148.307 152.071 148.307 152.073 148.279 152.043C148.251 152.013 148.174 151.934 148.123 151.88C148.072 151.827 148.044 151.794 148.005 151.755L147.879 151.634L147.718 151.482L147.635 151.401L147.481 151.271L147.291 151.108L147.223 151.05L147.06 150.929L146.849 150.771L146.786 150.724C146.737 150.689 146.686 150.661 146.637 150.629C146.551 150.571 146.465 150.513 146.379 150.459L146.304 150.413C146.267 150.389 146.228 150.371 146.188 150.35C146.076 150.285 145.956 150.224 145.851 150.166L145.749 150.113C145.723 150.099 145.695 150.092 145.669 150.08C145.493 149.996 145.316 149.922 145.137 149.847L145.093 149.829C144.84 149.739 144.581 149.666 144.318 149.61L144.248 149.592H144.193C144.079 149.571 143.96 149.554 143.848 149.538L143.681 149.515C143.511 149.496 143.339 149.487 143.169 149.482L110.358 149.101C110.528 149.101 110.7 149.115 110.869 149.131L111.037 149.154C111.151 149.171 111.269 149.187 111.381 149.21L111.507 149.238C111.769 149.293 112.028 149.366 112.281 149.454L112.332 149.475C112.511 149.54 112.688 149.617 112.867 149.708L113.046 149.796C113.16 149.852 113.279 149.915 113.384 149.978C113.449 150.015 113.511 150.05 113.574 150.089C113.637 150.129 113.749 150.199 113.835 150.257L114.044 150.399C114.116 150.45 114.186 150.506 114.256 150.559C114.325 150.613 114.409 150.675 114.488 150.738L114.679 150.899C114.758 150.968 114.839 151.038 114.912 151.113L115.067 151.261C115.151 151.343 115.235 151.424 115.316 151.51L115.47 151.671C115.556 151.764 115.642 151.861 115.728 151.962L115.849 152.101C115.974 152.25 116.098 152.403 116.219 152.566C116.34 152.724 116.451 152.889 116.572 153.059L116.681 153.222C116.763 153.343 116.842 153.469 116.914 153.594L117.033 153.787C117.137 153.959 117.24 154.131 117.34 154.313C117.572 154.729 117.784 155.162 117.984 155.606C117.998 155.634 118.007 155.662 118.021 155.687C118.205 156.104 118.379 156.534 118.537 156.971C118.556 157.022 118.575 157.071 118.591 157.12C118.746 157.548 118.886 157.985 119.012 158.432C119.028 158.483 119.042 158.536 119.058 158.59C119.185 159.046 119.3 159.511 119.403 159.985L119.43 160.102C119.537 160.606 119.633 161.118 119.71 161.634V161.648C119.865 162.673 119.963 163.706 120.005 164.741C120.017 165.051 120.017 165.36 120.021 165.672C120.021 165.928 120.021 166.186 120.021 166.444C120.021 166.565 120.021 166.676 120.021 166.804C120.01 167.237 119.993 167.667 119.961 168.095C119.961 168.144 119.961 168.191 119.961 168.237C119.924 168.758 119.871 169.276 119.803 169.791C119.803 169.816 119.803 169.842 119.803 169.87C119.734 170.372 119.657 170.871 119.57 171.367C119.57 171.4 119.57 171.433 119.551 171.463C119.456 171.968 119.344 172.468 119.221 172.958C119.221 172.989 119.205 173.016 119.198 173.047C119.075 173.512 118.942 173.977 118.793 174.442C118.782 174.486 118.765 174.528 118.751 174.572C118.598 175.037 118.433 175.503 118.251 175.949C118.252 175.956 118.252 175.963 118.251 175.97C118.07 176.421 117.87 176.861 117.661 177.289L117.607 177.393C117.395 177.819 117.17 178.233 116.928 178.628C116.686 179.024 116.44 179.396 116.184 179.742L116.114 179.835C115.881 180.152 115.633 180.449 115.384 180.724C115.351 180.761 115.319 180.798 115.284 180.833C115.04 181.098 114.791 181.343 114.537 181.568L114.393 181.689C114.156 181.892 113.91 182.083 113.653 182.261L113.57 182.322C113.288 182.51 112.994 182.679 112.69 182.829C112.651 182.85 112.611 182.861 112.574 182.88C112.336 182.991 112.093 183.089 111.844 183.173L111.576 183.252C111.373 183.311 111.166 183.358 110.958 183.394C110.872 183.41 110.786 183.429 110.7 183.44C110.416 183.48 110.13 183.498 109.844 183.496L142.686 183.85C142.973 183.85 143.259 183.831 143.544 183.792C143.63 183.78 143.714 183.764 143.8 183.747C144.009 183.711 144.216 183.663 144.421 183.603C144.511 183.578 144.6 183.554 144.688 183.524C144.936 183.441 145.179 183.344 145.416 183.233L145.535 183.182L145.562 183.171C145.846 183.032 146.121 182.877 146.386 182.705L146.414 182.685C146.442 182.666 146.467 182.643 146.497 182.624C146.663 182.51 146.83 182.391 146.995 182.261C147.077 182.196 147.156 182.124 147.228 182.054L147.372 181.931C147.414 181.894 147.458 181.861 147.5 181.822C147.656 181.68 147.809 181.529 147.965 181.37C148.018 181.317 148.07 181.254 148.123 181.198L148.223 181.089C148.274 181.033 148.325 180.98 148.374 180.922C148.501 180.776 148.627 180.621 148.751 180.456C148.819 180.37 148.886 180.277 148.953 180.189L149.023 180.096L149.107 179.984C149.216 179.831 149.326 179.673 149.433 179.519C149.539 179.366 149.646 179.191 149.749 179.021L149.767 178.991C149.874 178.826 149.967 178.668 150.056 178.507Z" fill="#090817"/>
<path d="M117.349 154.304C121.112 161.109 120.912 171.979 116.898 178.605C112.883 185.231 106.578 185.075 102.813 178.27C99.0476 171.465 99.2523 160.595 103.267 153.966C107.281 147.338 113.583 147.498 117.349 154.304Z" fill="white"/>
<path d="M239.456 189.043C238.408 185.397 239.45 181.47 242.168 178.824C246.819 174.172 247.284 161.423 249.556 161.302C251.829 161.181 255.636 161.183 257.066 168.93C258.497 176.677 251.201 192.699 251.201 192.699C251.201 192.699 244.493 195.685 239.456 189.043Z" fill="url(#paint17_linear_842_9777)"/>
<path d="M243.654 317.631L222.082 307.007L159.785 348.91C159.785 348.91 173.751 363.434 183.989 362.957C194.227 362.481 243.654 317.631 243.654 317.631Z" fill="url(#paint18_linear_842_9777)"/>
<path d="M48.3984 199.853L72.4117 312.026C74.529 321.918 80.8171 330.412 89.6594 335.325L164.162 376.747L137.195 246.359L48.3984 199.853Z" fill="url(#paint19_linear_842_9777)"/>
<path d="M48.3984 199.853L126.892 247.066C132.073 250.18 135.645 255.392 136.681 261.348L154.841 365.774C156.578 375.774 167.902 380.796 176.47 375.386L242.14 333.988C244.88 332.259 246.542 329.246 246.542 326.006V321.617C246.537 320.11 245.722 318.723 244.408 317.984C243.095 317.245 241.486 317.27 240.195 318.047L180.1 354.561C176.87 356.525 172.875 356.755 169.439 355.178C166.004 353.6 163.576 350.419 162.96 346.689L147.626 253.892C146.69 248.164 143.327 243.119 138.4 240.051L63.4692 193.536C60.4106 191.638 56.4525 192.062 53.8663 194.567L48.3984 199.853Z" fill="url(#paint20_linear_842_9777)"/>
<path d="M417.909 273.163C416.897 273.16 415.904 272.889 415.03 272.379L346.314 233.4C341.711 230.733 339.388 225.376 340.585 220.194L354.907 161.441C355.449 159.118 357.525 157.478 359.91 157.487C360.8 157.487 361.675 157.724 362.445 158.171L434.429 199.034C437.583 200.861 439.176 204.533 438.355 208.084L423.6 268.658C422.986 271.302 420.624 273.169 417.909 273.156V273.163Z" fill="url(#paint21_linear_842_9777)"/>
<path d="M414.62 274.27C413.606 274.27 412.61 274.001 411.733 273.491L343.024 234.507C338.423 231.84 336.1 226.483 337.296 221.301L351.618 162.546C352.16 160.223 354.235 158.583 356.62 158.592C357.511 158.592 358.387 158.829 359.158 159.276L431.139 200.139C434.294 201.966 435.887 205.637 435.065 209.189L420.313 269.772C419.698 272.416 417.336 274.283 414.622 274.27H414.62Z" fill="url(#paint22_linear_842_9777)"/>
<path d="M414.62 274.27C413.606 274.27 412.61 274.001 411.733 273.491L343.024 234.507C338.423 231.84 336.1 226.483 337.296 221.301L351.618 162.546C352.16 160.223 354.235 158.583 356.62 158.592C357.511 158.592 358.387 158.829 359.158 159.276L431.139 200.139C434.294 201.966 435.887 205.637 435.065 209.189L420.313 269.772C419.698 272.416 417.336 274.283 414.622 274.27H414.62Z" fill="#EA6016"/>
<path d="M380.276 200.486L373.324 224.499L397.223 223.78L380.276 200.486Z" fill="white"/>
<path d="M384.852 188.636C371.196 187.08 360.125 197.767 360.125 212.507C360.125 227.248 371.196 240.456 384.852 242.012C398.509 243.568 409.58 232.881 409.58 218.14C409.58 203.4 398.516 190.192 384.852 188.636ZM384.852 239.893C372.279 238.46 362.088 226.299 362.088 212.731C362.088 199.162 372.279 189.322 384.852 190.755C397.425 192.187 407.617 204.349 407.617 217.917C407.617 231.486 397.425 241.326 384.852 239.893Z" fill="white"/>
<path d="M431.141 200.139L359.159 159.276C358.389 158.828 357.513 158.592 356.622 158.592C356.026 158.592 355.434 158.695 354.873 158.897C355.318 158.773 355.778 158.711 356.241 158.711C357.133 158.714 358.009 158.955 358.778 159.409L430.762 200.258C433.915 202.086 435.507 205.757 434.685 209.307L419.933 269.891C419.484 271.815 418.089 273.379 416.228 274.044C418.267 273.471 419.832 271.834 420.315 269.772L435.067 209.189C435.889 205.637 434.296 201.966 431.141 200.139Z" fill="url(#paint23_linear_842_9777)"/>
<path d="M250.503 116.178C249.489 116.178 248.493 115.91 247.617 115.399L178.907 76.4146C174.305 73.7483 171.981 68.3912 173.179 63.209L187.501 4.45384C188.043 2.13094 190.118 0.490789 192.504 0.500039C193.396 0.503579 194.271 0.744394 195.039 1.1978L267.023 42.0587C270.177 43.8856 271.769 47.5569 270.949 51.1082L256.194 111.67C255.58 114.314 253.217 116.181 250.503 116.168V116.178Z" fill="url(#paint24_linear_842_9777)"/>
<path d="M247.214 117.285C246.2 117.285 245.204 117.015 244.327 116.506L175.618 77.5215C171.019 74.8531 168.698 69.4965 169.897 64.3159L184.212 5.56077C184.754 3.23787 186.829 1.59772 189.214 1.60697C190.107 1.61044 190.983 1.85124 191.752 2.30473L263.736 43.154C266.889 44.9816 268.481 48.6527 267.659 52.2035L252.907 112.787C252.293 115.431 249.93 117.298 247.216 117.285H247.214Z" fill="url(#paint25_linear_842_9777)"/>
<path d="M247.214 117.285C246.2 117.285 245.204 117.015 244.327 116.506L175.618 77.5215C171.019 74.8531 168.698 69.4965 169.897 64.3159L184.212 5.56077C184.754 3.23787 186.829 1.59772 189.214 1.60697C190.107 1.61044 190.983 1.85124 191.752 2.30473L263.736 43.154C266.889 44.9816 268.481 48.6527 267.659 52.2035L252.907 112.787C252.293 115.431 249.93 117.298 247.216 117.285H247.214Z" fill="#EA6016"/>
<path d="M261.63 46.8589L189.63 5.98638C189.505 5.90866 189.361 5.86772 189.214 5.86772C188.796 5.86359 188.433 6.15598 188.349 6.56549L178.176 48.3079L208.069 38.8537L217.585 73.4026L241.845 69.7884L252.613 96.7856L263.512 51.222C263.891 49.5141 263.133 47.7553 261.63 46.8589Z" fill="white"/>
<path d="M250.749 54.5273C251.381 51.2389 249.227 48.0612 245.938 47.4298C242.65 46.7983 239.472 48.9522 238.841 52.2406C238.209 55.529 240.363 58.7067 243.651 59.3382C246.94 59.9697 250.118 57.8158 250.749 54.5273Z" fill="url(#paint26_linear_842_9777)"/>
<path d="M250.749 54.5273C251.381 51.2389 249.227 48.0612 245.938 47.4298C242.65 46.7983 239.472 48.9522 238.841 52.2406C238.209 55.529 240.363 58.7067 243.651 59.3382C246.94 59.9697 250.118 57.8158 250.749 54.5273Z" fill="#EA6016"/>
<path d="M263.732 43.1542L191.758 2.29328C190.988 1.84385 190.112 1.60718 189.22 1.60718C188.622 1.60718 188.029 1.71016 187.467 1.91418C187.893 1.80291 188.331 1.74664 188.772 1.74673C189.664 1.75015 190.54 1.99096 191.309 2.44445L263.286 43.2938C266.439 45.12 268.031 48.7907 267.209 52.3409L252.46 112.926C252.012 114.85 250.618 116.414 248.759 117.08C250.828 116.523 252.422 114.873 252.908 112.787L267.661 52.2037C268.482 48.6517 266.888 44.9799 263.732 43.1542Z" fill="url(#paint27_linear_842_9777)"/>
<defs>
<linearGradient id="paint0_linear_842_9777" x1="9537.68" y1="12891.9" x2="35944.8" y2="15412.6" gradientUnits="userSpaceOnUse">
<stop stop-color="#EBEBEB"/>
<stop offset="1" stop-color="#FBFAFB"/>
</linearGradient>
<linearGradient id="paint1_linear_842_9777" x1="15681" y1="6407.18" x2="20412.9" y2="20358.3" gradientUnits="userSpaceOnUse">
<stop stop-color="#EBEBEB"/>
<stop offset="1" stop-color="#FBFAFB"/>
</linearGradient>
<linearGradient id="paint2_linear_842_9777" x1="329.057" y1="1656.58" x2="5201.96" y2="1656.58" gradientUnits="userSpaceOnUse">
<stop stop-color="#EBEBEB"/>
<stop offset="1" stop-color="#FBFAFB"/>
</linearGradient>
<linearGradient id="paint3_linear_842_9777" x1="4359.07" y1="1640.55" x2="337.57" y2="1640.55" gradientUnits="userSpaceOnUse">
<stop stop-color="#6D7596"/>
<stop offset="1" stop-color="#C9C9CE"/>
</linearGradient>
<linearGradient id="paint4_linear_842_9777" x1="1180.46" y1="694.207" x2="328.827" y2="694.207" gradientUnits="userSpaceOnUse">
<stop stop-color="#EBEBEB"/>
<stop offset="1" stop-color="#FBFAFB"/>
</linearGradient>
<linearGradient id="paint5_linear_842_9777" x1="217.279" y1="1591.7" x2="5090.08" y2="1591.7" gradientUnits="userSpaceOnUse">
<stop stop-color="#EBEBEB"/>
<stop offset="1" stop-color="#FBFAFB"/>
</linearGradient>
<linearGradient id="paint6_linear_842_9777" x1="270572" y1="1575.89" x2="274593" y2="1575.89" gradientUnits="userSpaceOnUse">
<stop stop-color="#6D7596"/>
<stop offset="1" stop-color="#C9C9CE"/>
</linearGradient>
<linearGradient id="paint7_linear_842_9777" x1="1068.68" y1="629.54" x2="217.279" y2="629.54" gradientUnits="userSpaceOnUse">
<stop stop-color="#EBEBEB"/>
<stop offset="1" stop-color="#FBFAFB"/>
</linearGradient>
<linearGradient id="paint8_linear_842_9777" x1="350.658" y1="3232.34" x2="903.06" y2="3232.34" gradientUnits="userSpaceOnUse">
<stop stop-color="#EBEBEB"/>
<stop offset="1" stop-color="#FBFAFB"/>
</linearGradient>
<linearGradient id="paint9_linear_842_9777" x1="513.415" y1="5310.24" x2="513.415" y2="1883.52" gradientUnits="userSpaceOnUse">
<stop stop-color="#6D7596"/>
<stop offset="1" stop-color="#C9C9CE"/>
</linearGradient>
<linearGradient id="paint10_linear_842_9777" x1="237.885" y1="3167.98" x2="789.984" y2="3167.98" gradientUnits="userSpaceOnUse">
<stop stop-color="#EBEBEB"/>
<stop offset="1" stop-color="#FBFAFB"/>
</linearGradient>
<linearGradient id="paint11_linear_842_9777" x1="400.64" y1="5245.9" x2="400.64" y2="1819.14" gradientUnits="userSpaceOnUse">
<stop stop-color="#6D7596"/>
<stop offset="1" stop-color="#C9C9CE"/>
</linearGradient>
<linearGradient id="paint12_linear_842_9777" x1="20374.7" y1="13154.1" x2="223.137" y2="13154.1" gradientUnits="userSpaceOnUse">
<stop stop-color="#D6D5D5"/>
<stop offset="1" stop-color="white"/>
</linearGradient>
<linearGradient id="paint13_linear_842_9777" x1="2967.7" y1="3011.4" x2="1174.54" y2="1604.45" gradientUnits="userSpaceOnUse">
<stop stop-color="#FFC5C5"/>
<stop offset="1" stop-color="#DE8B8B"/>
</linearGradient>
<linearGradient id="paint14_linear_842_9777" x1="82.9642" y1="7644.31" x2="9590.01" y2="7644.31" gradientUnits="userSpaceOnUse">
<stop stop-color="#FFAC06"/>
<stop offset="1" stop-color="#FA8A13"/>
</linearGradient>
<linearGradient id="paint15_linear_842_9777" x1="3806.07" y1="1048.56" x2="109.299" y2="1048.56" gradientUnits="userSpaceOnUse">
<stop stop-color="#6D7596"/>
<stop offset="1" stop-color="#C9C9CE"/>
</linearGradient>
<linearGradient id="paint16_linear_842_9777" x1="111.109" y1="1961.41" x2="15030" y2="1961.41" gradientUnits="userSpaceOnUse">
<stop stop-color="white"/>
<stop offset="1" stop-color="#D6D5D5"/>
</linearGradient>
<linearGradient id="paint17_linear_842_9777" x1="2058.79" y1="1766.01" x2="239.055" y2="1766.01" gradientUnits="userSpaceOnUse">
<stop stop-color="#D6D5D5"/>
<stop offset="1" stop-color="white"/>
</linearGradient>
<linearGradient id="paint18_linear_842_9777" x1="159.785" y1="3105.32" x2="8546.64" y2="3105.32" gradientUnits="userSpaceOnUse">
<stop stop-color="white"/>
<stop offset="1" stop-color="#D6D5D5"/>
</linearGradient>
<linearGradient id="paint19_linear_842_9777" x1="5836.58" y1="200.561" x2="5836.58" y2="17889.9" gradientUnits="userSpaceOnUse">
<stop stop-color="white"/>
<stop offset="1" stop-color="#D6D5D5"/>
</linearGradient>
<linearGradient id="paint20_linear_842_9777" x1="3881.89" y1="8440.95" x2="21030.8" y2="15875.5" gradientUnits="userSpaceOnUse">
<stop stop-color="white"/>
<stop offset="1" stop-color="#D1D0CF"/>
</linearGradient>
<linearGradient id="paint21_linear_842_9777" x1="5255.03" y1="157.95" x2="5255.03" y2="11725.5" gradientUnits="userSpaceOnUse">
<stop stop-color="white"/>
<stop offset="1" stop-color="#D6D5D5"/>
</linearGradient>
<linearGradient id="paint22_linear_842_9777" x1="337.083" y1="5942.02" x2="10166.5" y2="5942.02" gradientUnits="userSpaceOnUse">
<stop stop-color="#FFAC06"/>
<stop offset="1" stop-color="#FA8A13"/>
</linearGradient>
<linearGradient id="paint23_linear_842_9777" x1="1951.45" y1="7338.44" x2="6580.89" y2="5745.58" gradientUnits="userSpaceOnUse">
<stop stop-color="#FFAC06"/>
<stop offset="1" stop-color="white"/>
</linearGradient>
<linearGradient id="paint24_linear_842_9777" x1="5087.63" y1="0.962711" x2="5087.63" y2="11568.7" gradientUnits="userSpaceOnUse">
<stop stop-color="white"/>
<stop offset="1" stop-color="#D6D5D5"/>
</linearGradient>
<linearGradient id="paint25_linear_842_9777" x1="169.682" y1="5785.04" x2="9998.51" y2="5785.04" gradientUnits="userSpaceOnUse">
<stop stop-color="#FFAC06"/>
<stop offset="1" stop-color="#FA8A13"/>
</linearGradient>
<linearGradient id="paint26_linear_842_9777" x1="833.073" y1="172.511" x2="1061.74" y2="-1018.32" gradientUnits="userSpaceOnUse">
<stop stop-color="#FFAC06"/>
<stop offset="1" stop-color="#FA8A13"/>
</linearGradient>
<linearGradient id="paint27_linear_842_9777" x1="4304.18" y1="1636.13" x2="2653.58" y2="8798.42" gradientUnits="userSpaceOnUse">
<stop stop-color="#FFAC06"/>
<stop offset="1" stop-color="white"/>
</linearGradient>
</defs>
</svg>
