<svg width="471" height="495" viewBox="0 0 471 495" fill="none" xmlns="http://www.w3.org/2000/svg">
<path d="M299.733 380.441L219.191 494.93C211.57 494.83 204.105 492.759 197.523 488.918L28.6388 391.341C22.4094 387.713 19.2666 381.542 18.9423 375.201H18.8887V368.362L299.733 380.441Z" fill="url(#paint0_linear_842_9608)"/>
<path d="M425.21 363.859V372.259H424.993C425.642 377.786 423.313 383.528 417.842 386.668L241.289 489.233C234.559 493.06 226.931 495.023 219.189 494.921V478.612L299.732 380.432L425.21 363.859Z" fill="url(#paint1_linear_842_9608)"/>
<path d="M197.518 476.097L28.6525 378.53C15.4353 370.775 15.5636 351.62 28.8858 344.044L202.889 242.922C213.114 237.11 225.663 237.199 235.805 243.155L418.008 348.545C427.703 354.233 427.607 368.281 417.838 373.836L241.297 476.403C227.698 484.132 211.007 484.016 197.518 476.097Z" fill="url(#paint2_linear_842_9608)"/>
<path d="M169.195 444.929L70.8671 389.634C66.1519 386.981 66.3199 382.557 71.2404 379.753L240.523 283.273C245.444 280.473 253.255 280.347 257.968 282.998L356.296 338.305C361.009 340.955 360.841 345.379 355.92 348.183L186.637 444.661C181.717 447.465 173.908 447.589 169.195 444.929Z" fill="#D9DBDB"/>
<path d="M169.195 442.276L70.8671 386.962C66.1519 384.31 66.3199 379.886 71.2404 377.081L240.523 280.602C245.444 277.802 253.255 277.674 257.968 280.326L356.291 335.643C361.004 338.293 360.836 342.717 355.916 345.521L186.637 442.001C181.717 444.805 173.908 444.929 169.195 442.276Z" fill="white"/>
<path d="M300.353 332.367L264.262 312.068C262.943 311.329 262.99 310.08 264.367 309.297C265.741 308.513 267.943 308.478 269.266 309.22L305.36 329.518C306.676 330.257 306.629 331.506 305.252 332.29C303.874 333.074 301.671 333.109 300.353 332.367Z" fill="#D9DBDB"/>
<path d="M252.409 332.472L216.317 312.174C214.999 311.432 215.048 310.183 216.422 309.4C217.799 308.616 220.001 308.581 221.322 309.323L257.413 329.621C258.731 330.363 258.682 331.611 257.308 332.395C255.929 333.172 253.727 333.209 252.409 332.472Z" fill="#FF9F2C"/>
<path d="M184.195 427.769L148.103 407.47C146.785 406.729 146.832 405.483 148.208 404.699C149.583 403.915 151.787 403.88 153.108 404.619L189.199 424.918C190.517 425.66 190.468 426.908 189.094 427.692C187.715 428.476 185.513 428.511 184.195 427.769Z" fill="#F35825"/>
<path d="M204.789 353.423L174.155 336.188C172.837 335.449 172.886 334.201 174.26 333.417C175.637 332.633 177.839 332.598 179.16 333.34L209.794 350.574C211.112 351.314 211.063 352.562 209.689 353.346C208.312 354.13 206.11 354.17 204.789 353.423ZM198.996 362.91L162.902 342.611C161.587 341.87 161.633 340.621 163.007 339.837C164.384 339.053 166.586 339.018 167.907 339.76L203.998 360.059C205.316 360.801 205.27 362.046 203.893 362.83C202.517 363.614 200.312 363.649 198.996 362.91ZM170.56 359.657L151.661 349.018C150.343 348.276 150.39 347.028 151.766 346.244C153.141 345.46 155.345 345.425 156.666 346.167L175.578 356.806C176.897 357.548 176.848 358.796 175.473 359.58C174.08 360.364 171.878 360.399 170.56 359.657ZM165.593 369.613L140.395 355.432C139.076 354.69 139.125 353.442 140.5 352.658C141.874 351.874 144.079 351.841 145.399 352.581L170.597 366.762C171.915 367.504 171.869 368.75 170.492 369.534C169.12 370.317 166.915 370.352 165.593 369.613ZM162.524 380.628L129.14 361.846C127.824 361.104 127.87 359.858 129.245 359.074C130.621 358.29 132.824 358.255 134.144 358.995L167.529 377.779C168.847 378.518 168.798 379.767 167.424 380.551C166.045 381.335 163.843 381.37 162.524 380.628ZM141.046 381.29L117.885 368.26C116.569 367.52 116.615 366.272 117.992 365.488C119.366 364.704 121.569 364.669 122.891 365.411L146.046 378.434C147.364 379.176 147.317 380.425 145.941 381.206C144.566 381.995 142.361 382.03 141.046 381.29ZM257.343 382.989L226.721 365.754C225.402 365.012 225.451 363.766 226.826 362.982C228.202 362.198 230.405 362.163 231.725 362.903L262.359 380.138C263.675 380.88 263.629 382.128 262.254 382.912C260.864 383.696 258.661 383.731 257.343 382.989ZM246.086 389.4L215.452 372.165C214.136 371.426 214.182 370.177 215.557 369.394C216.933 368.61 219.136 368.575 220.456 369.317L251.09 386.551C252.408 387.291 252.359 388.539 250.985 389.323C249.609 390.1 247.406 390.144 246.086 389.4ZM234.835 395.819L204.199 378.584C202.883 377.842 202.93 376.594 204.306 375.81C205.68 375.026 207.883 374.991 209.206 375.733L239.84 392.968C241.158 393.709 241.111 394.955 239.735 395.739C238.356 396.523 236.151 396.558 234.835 395.819ZM223.58 402.232L192.946 384.998C191.628 384.256 191.675 383.007 193.051 382.223C194.425 381.44 196.63 381.405 197.951 382.146L228.587 399.381C229.903 400.123 229.856 401.371 228.482 402.153C227.101 402.932 224.898 402.972 223.58 402.232ZM212.325 408.646L181.691 391.411C180.373 390.669 180.422 389.421 181.796 388.637C183.173 387.853 185.375 387.818 186.696 388.56L217.33 405.795C218.648 406.537 218.599 407.785 217.225 408.569C215.846 409.353 213.655 409.388 212.325 408.646ZM201.072 415.065L170.436 397.83C169.12 397.088 169.167 395.842 170.541 395.058C171.918 394.274 174.12 394.239 175.441 394.979L206.075 412.214C207.393 412.956 207.346 414.204 205.97 414.988C204.593 415.765 202.388 415.802 201.072 415.065ZM283.257 366.535L201.562 320.573C200.244 319.833 200.291 318.585 201.667 317.801C203.042 317.017 205.246 316.982 206.567 317.724L288.264 363.687C289.58 364.429 289.533 365.675 288.157 366.458C286.778 367.235 284.582 367.273 283.257 366.535Z" fill="#D9DBDB"/>
<path d="M355.921 344.837L186.638 441.322C181.717 444.121 173.908 444.25 169.193 441.599L70.8676 386.283C68.7258 385.079 67.6012 383.509 67.4636 381.892C67.3072 383.742 68.4272 385.588 70.8676 386.962L169.188 442.276C173.904 444.929 181.713 444.805 186.633 442.001L355.916 345.521C358.602 343.99 359.861 341.977 359.693 340.033C359.551 341.76 358.296 343.491 355.921 344.837Z" fill="url(#paint3_linear_842_9608)"/>
<g opacity="0.15">
<path opacity="0.04" d="M279.224 357.954C319.164 357.954 351.542 342.893 351.542 324.315C351.542 305.736 319.164 290.676 279.224 290.676C239.284 290.676 206.906 305.736 206.906 324.315C206.906 342.893 239.284 357.954 279.224 357.954Z" fill="#2B2E3D"/>
<path opacity="0.07" d="M279.224 357.408C318.515 357.408 350.366 342.592 350.366 324.315C350.366 306.038 318.515 291.222 279.224 291.222C239.933 291.222 208.082 306.038 208.082 324.315C208.082 342.592 239.933 357.408 279.224 357.408Z" fill="#2B2E3D"/>
<path opacity="0.11" d="M279.224 356.86C317.865 356.86 349.19 342.289 349.19 324.315C349.19 306.341 317.865 291.77 279.224 291.77C240.583 291.77 209.258 306.341 209.258 324.315C209.258 342.289 240.583 356.86 279.224 356.86Z" fill="#2B2E3D"/>
<path d="M279.224 356.314C317.214 356.314 348.012 341.987 348.012 324.315C348.012 306.642 317.214 292.316 279.224 292.316C241.233 292.316 210.436 306.642 210.436 324.315C210.436 341.987 241.233 356.314 279.224 356.314Z" fill="#2B2E3D"/>
<path opacity="0.19" d="M279.225 355.766C316.566 355.766 346.837 341.685 346.837 324.315C346.837 306.945 316.566 292.864 279.225 292.864C241.884 292.864 211.613 306.945 211.613 324.315C211.613 341.685 241.884 355.766 279.225 355.766Z" fill="#2B2E3D"/>
<path opacity="0.22" d="M279.225 355.217C315.917 355.217 345.661 341.382 345.661 324.315C345.661 307.248 315.917 293.413 279.225 293.413C242.533 293.413 212.789 307.248 212.789 324.315C212.789 341.382 242.533 355.217 279.225 355.217Z" fill="#2B2E3D"/>
<path opacity="0.26" d="M279.225 354.671C315.267 354.671 344.485 341.08 344.485 324.315C344.485 307.55 315.267 293.959 279.225 293.959C243.183 293.959 213.965 307.55 213.965 324.315C213.965 341.08 243.183 354.671 279.225 354.671Z" fill="#2B2E3D"/>
<path opacity="0.3" d="M279.225 354.123C314.617 354.123 343.309 340.777 343.309 324.315C343.309 307.852 314.617 294.507 279.225 294.507C243.832 294.507 215.141 307.852 215.141 324.315C215.141 340.777 243.832 354.123 279.225 354.123Z" fill="#2B2E3D"/>
<path opacity="0.33" d="M279.224 353.577C313.966 353.577 342.13 340.476 342.13 324.315C342.13 308.154 313.966 295.053 279.224 295.053C244.482 295.053 216.318 308.154 216.318 324.315C216.318 340.476 244.482 353.577 279.224 353.577Z" fill="#2B2E3D"/>
<path opacity="0.37" d="M279.224 353.029C313.317 353.029 340.954 340.173 340.954 324.315C340.954 308.457 313.317 295.601 279.224 295.601C245.132 295.601 217.494 308.457 217.494 324.315C217.494 340.173 245.132 353.029 279.224 353.029Z" fill="#2B2E3D"/>
<path opacity="0.41" d="M279.224 352.483C312.667 352.483 339.778 339.872 339.778 324.315C339.778 308.758 312.667 296.147 279.224 296.147C245.781 296.147 218.67 308.758 218.67 324.315C218.67 339.872 245.781 352.483 279.224 352.483Z" fill="#2B2E3D"/>
<path opacity="0.44" d="M279.224 351.935C312.017 351.935 338.602 339.569 338.602 324.315C338.602 309.061 312.017 296.695 279.224 296.695C246.43 296.695 219.846 309.061 219.846 324.315C219.846 339.569 246.43 351.935 279.224 351.935Z" fill="#2B2E3D"/>
<path opacity="0.48" d="M279.225 351.389C311.368 351.389 337.425 339.267 337.425 324.315C337.425 309.362 311.368 297.241 279.225 297.241C247.082 297.241 221.025 309.362 221.025 324.315C221.025 339.267 247.082 351.389 279.225 351.389Z" fill="#2B2E3D"/>
<path opacity="0.52" d="M279.225 350.84C310.719 350.84 336.249 338.964 336.249 324.315C336.249 309.666 310.719 297.79 279.225 297.79C247.732 297.79 222.201 309.666 222.201 324.315C222.201 338.964 247.732 350.84 279.225 350.84Z" fill="#2B2E3D"/>
<path opacity="0.56" d="M279.225 350.294C310.069 350.294 335.073 338.663 335.073 324.315C335.073 309.967 310.069 298.336 279.225 298.336C248.381 298.336 223.377 309.967 223.377 324.315C223.377 338.663 248.381 350.294 279.225 350.294Z" fill="#2B2E3D"/>
<path opacity="0.59" d="M279.225 349.746C309.419 349.746 333.897 338.36 333.897 324.315C333.897 310.27 309.419 298.884 279.225 298.884C249.03 298.884 224.553 310.27 224.553 324.315C224.553 338.36 249.03 349.746 279.225 349.746Z" fill="#2B2E3D"/>
<path opacity="0.63" d="M279.224 349.198C308.768 349.198 332.718 338.058 332.718 324.315C332.718 310.573 308.768 299.432 279.224 299.432C249.681 299.432 225.73 310.573 225.73 324.315C225.73 338.058 249.681 349.198 279.224 349.198Z" fill="#2B2E3D"/>
<path opacity="0.67" d="M279.224 348.652C308.119 348.652 331.542 337.756 331.542 324.315C331.542 310.874 308.119 299.978 279.224 299.978C250.33 299.978 226.906 310.874 226.906 324.315C226.906 337.756 250.33 348.652 279.224 348.652Z" fill="#2B2E3D"/>
<path opacity="0.7" d="M279.224 348.104C307.469 348.104 330.366 337.453 330.366 324.315C330.366 311.177 307.469 300.526 279.224 300.526C250.979 300.526 228.082 311.177 228.082 324.315C228.082 337.453 250.979 348.104 279.224 348.104Z" fill="#2B2E3D"/>
<path opacity="0.74" d="M279.224 347.558C306.819 347.558 329.19 337.152 329.19 324.315C329.19 311.478 306.819 301.072 279.224 301.072C251.628 301.072 229.258 311.478 229.258 324.315C229.258 337.152 251.628 347.558 279.224 347.558Z" fill="#2B2E3D"/>
<path opacity="0.78" d="M279.224 347.009C306.168 347.009 328.012 336.849 328.012 324.315C328.012 311.782 306.168 301.621 279.224 301.621C252.279 301.621 230.436 311.782 230.436 324.315C230.436 336.849 252.279 347.009 279.224 347.009Z" fill="#2B2E3D"/>
<path opacity="0.81" d="M279.225 346.463C305.521 346.463 326.837 336.547 326.837 324.315C326.837 312.083 305.521 302.167 279.225 302.167C252.93 302.167 231.613 312.083 231.613 324.315C231.613 336.547 252.93 346.463 279.225 346.463Z" fill="#2B2E3D"/>
<path opacity="0.85" d="M279.225 345.915C304.871 345.915 325.661 336.244 325.661 324.315C325.661 312.385 304.871 302.715 279.225 302.715C253.579 302.715 232.789 312.385 232.789 324.315C232.789 336.244 253.579 345.915 279.225 345.915Z" fill="#2B2E3D"/>
<path opacity="0.89" d="M279.225 345.369C304.221 345.369 324.485 335.943 324.485 324.315C324.485 312.687 304.221 303.261 279.225 303.261C254.228 303.261 233.965 312.687 233.965 324.315C233.965 335.943 254.228 345.369 279.225 345.369Z" fill="#2B2E3D"/>
<path opacity="0.93" d="M279.225 344.821C303.57 344.821 323.307 335.64 323.307 324.315C323.307 312.99 303.57 303.809 279.225 303.809C254.879 303.809 235.143 312.99 235.143 324.315C235.143 335.64 254.879 344.821 279.225 344.821Z" fill="#2B2E3D"/>
<path opacity="0.96" d="M279.224 344.273C302.921 344.273 322.13 335.337 322.13 324.315C322.13 313.292 302.921 304.357 279.224 304.357C255.528 304.357 236.318 313.292 236.318 324.315C236.318 335.337 255.528 344.273 279.224 344.273Z" fill="#2B2E3D"/>
<path d="M279.224 343.727C302.271 343.727 320.954 335.036 320.954 324.315C320.954 313.594 302.271 304.903 279.224 304.903C256.177 304.903 237.494 313.594 237.494 324.315C237.494 335.036 256.177 343.727 279.224 343.727Z" fill="#2B2E3D"/>
</g>
<g opacity="0.15">
<path opacity="0.04" d="M123.672 393.171C163.612 393.171 195.99 387.794 195.99 381.162C195.99 374.529 163.612 369.153 123.672 369.153C83.7314 369.153 51.3535 374.529 51.3535 381.162C51.3535 387.794 83.7314 393.171 123.672 393.171Z" fill="#2B2E3D"/>
<path opacity="0.07" d="M123.671 392.975C162.962 392.975 194.813 387.686 194.813 381.162C194.813 374.638 162.962 369.349 123.671 369.349C84.3807 369.349 52.5293 374.638 52.5293 381.162C52.5293 387.686 84.3807 392.975 123.671 392.975Z" fill="#2B2E3D"/>
<path opacity="0.11" d="M123.671 392.779C162.312 392.779 193.637 387.578 193.637 381.162C193.637 374.746 162.312 369.545 123.671 369.545C85.0299 369.545 53.7051 374.746 53.7051 381.162C53.7051 387.578 85.0299 392.779 123.671 392.779Z" fill="#2B2E3D"/>
<path d="M123.671 392.585C161.661 392.585 192.459 387.471 192.459 381.162C192.459 374.853 161.661 369.739 123.671 369.739C85.6803 369.739 54.8828 374.853 54.8828 381.162C54.8828 387.471 85.6803 392.585 123.671 392.585Z" fill="#2B2E3D"/>
<path opacity="0.19" d="M123.673 392.389C161.014 392.389 191.285 387.363 191.285 381.162C191.285 374.962 161.014 369.935 123.673 369.935C86.3315 369.935 56.0605 374.962 56.0605 381.162C56.0605 387.363 86.3315 392.389 123.673 392.389Z" fill="#2B2E3D"/>
<path opacity="0.22" d="M123.672 392.193C160.364 392.193 190.108 387.254 190.108 381.162C190.108 375.07 160.364 370.131 123.672 370.131C86.9807 370.131 57.2363 375.07 57.2363 381.162C57.2363 387.254 86.9807 392.193 123.672 392.193Z" fill="#2B2E3D"/>
<path opacity="0.26" d="M123.672 391.997C159.714 391.997 188.932 387.146 188.932 381.162C188.932 375.178 159.714 370.327 123.672 370.327C87.63 370.327 58.4121 375.178 58.4121 381.162C58.4121 387.146 87.63 391.997 123.672 391.997Z" fill="#2B2E3D"/>
<path opacity="0.3" d="M123.672 391.803C159.065 391.803 187.756 387.039 187.756 381.162C187.756 375.285 159.065 370.521 123.672 370.521C88.2793 370.521 59.5879 375.285 59.5879 381.162C59.5879 387.039 88.2793 391.803 123.672 391.803Z" fill="#2B2E3D"/>
<path opacity="0.33" d="M123.672 391.607C158.414 391.607 186.578 386.93 186.578 381.162C186.578 375.393 158.414 370.717 123.672 370.717C88.9296 370.717 60.7656 375.393 60.7656 381.162C60.7656 386.93 88.9296 391.607 123.672 391.607Z" fill="#2B2E3D"/>
<path opacity="0.37" d="M123.671 391.411C157.764 391.411 185.401 386.822 185.401 381.162C185.401 375.502 157.764 370.913 123.671 370.913C89.5789 370.913 61.9414 375.502 61.9414 381.162C61.9414 386.822 89.5789 391.411 123.671 391.411Z" fill="#2B2E3D"/>
<path opacity="0.41" d="M123.671 391.215C157.114 391.215 184.225 386.714 184.225 381.162C184.225 375.61 157.114 371.109 123.671 371.109C90.2281 371.109 63.1172 375.61 63.1172 381.162C63.1172 386.714 90.2281 391.215 123.671 391.215Z" fill="#2B2E3D"/>
<path opacity="0.44" d="M123.671 391.022C156.465 391.022 183.049 386.607 183.049 381.162C183.049 375.716 156.465 371.302 123.671 371.302C90.8774 371.302 64.293 375.716 64.293 381.162C64.293 386.607 90.8774 391.022 123.671 391.022Z" fill="#2B2E3D"/>
<path opacity="0.48" d="M123.673 390.826C155.816 390.826 181.873 386.499 181.873 381.162C181.873 375.825 155.816 371.498 123.673 371.498C91.5297 371.498 65.4727 375.825 65.4727 381.162C65.4727 386.499 91.5297 390.826 123.673 390.826Z" fill="#2B2E3D"/>
<path opacity="0.52" d="M123.672 390.63C155.166 390.63 180.696 386.391 180.696 381.162C180.696 375.933 155.166 371.694 123.672 371.694C92.179 371.694 66.6484 375.933 66.6484 381.162C66.6484 386.391 92.179 390.63 123.672 390.63Z" fill="#2B2E3D"/>
<path opacity="0.56" d="M123.672 390.436C154.516 390.436 179.52 386.284 179.52 381.162C179.52 376.04 154.516 371.888 123.672 371.888C92.8282 371.888 67.8242 376.04 67.8242 381.162C67.8242 386.284 92.8282 390.436 123.672 390.436Z" fill="#2B2E3D"/>
<path opacity="0.59" d="M123.672 390.24C153.867 390.24 178.344 386.176 178.344 381.162C178.344 376.148 153.867 372.084 123.672 372.084C93.4775 372.084 69 376.148 69 381.162C69 386.176 93.4775 390.24 123.672 390.24Z" fill="#2B2E3D"/>
<path opacity="0.63" d="M123.672 390.044C153.216 390.044 177.166 386.067 177.166 381.162C177.166 376.256 153.216 372.28 123.672 372.28C94.1278 372.28 70.1777 376.256 70.1777 381.162C70.1777 386.067 94.1278 390.044 123.672 390.044Z" fill="#2B2E3D"/>
<path opacity="0.67" d="M123.672 389.848C152.566 389.848 175.99 385.959 175.99 381.162C175.99 376.365 152.566 372.476 123.672 372.476C94.7771 372.476 71.3535 376.365 71.3535 381.162C71.3535 385.959 94.7771 389.848 123.672 389.848Z" fill="#2B2E3D"/>
<path opacity="0.7" d="M123.671 389.655C151.916 389.655 174.813 385.852 174.813 381.162C174.813 376.471 151.916 372.669 123.671 372.669C95.4264 372.669 72.5293 376.471 72.5293 381.162C72.5293 385.852 95.4264 389.655 123.671 389.655Z" fill="#2B2E3D"/>
<path opacity="0.74" d="M123.671 389.459C151.267 389.459 173.637 385.744 173.637 381.162C173.637 376.579 151.267 372.865 123.671 372.865C96.0756 372.865 73.7051 376.579 73.7051 381.162C73.7051 385.744 96.0756 389.459 123.671 389.459Z" fill="#2B2E3D"/>
<path opacity="0.78" d="M123.671 389.263C150.616 389.263 172.459 385.636 172.459 381.162C172.459 376.688 150.616 373.061 123.671 373.061C96.7259 373.061 74.8828 376.688 74.8828 381.162C74.8828 385.636 96.7259 389.263 123.671 389.263Z" fill="#2B2E3D"/>
<path opacity="0.81" d="M123.673 389.067C149.968 389.067 171.285 385.528 171.285 381.162C171.285 376.796 149.968 373.257 123.673 373.257C97.3772 373.257 76.0605 376.796 76.0605 381.162C76.0605 385.528 97.3772 389.067 123.673 389.067Z" fill="#2B2E3D"/>
<path opacity="0.85" d="M123.672 388.873C149.318 388.873 170.108 385.421 170.108 381.162C170.108 376.904 149.318 373.451 123.672 373.451C98.0264 373.451 77.2363 376.904 77.2363 381.162C77.2363 385.421 98.0264 388.873 123.672 388.873Z" fill="#2B2E3D"/>
<path opacity="0.89" d="M123.672 388.677C148.669 388.677 168.932 385.312 168.932 381.162C168.932 377.012 148.669 373.647 123.672 373.647C98.6757 373.647 78.4121 377.012 78.4121 381.162C78.4121 385.312 98.6757 388.677 123.672 388.677Z" fill="#2B2E3D"/>
<path opacity="0.93" d="M123.672 388.481C148.018 388.481 167.754 385.204 167.754 381.162C167.754 377.12 148.018 373.843 123.672 373.843C99.326 373.843 79.5898 377.12 79.5898 381.162C79.5898 385.204 99.326 388.481 123.672 388.481Z" fill="#2B2E3D"/>
<path opacity="0.96" d="M123.672 388.287C147.368 388.287 166.578 385.097 166.578 381.162C166.578 377.227 147.368 374.037 123.672 374.037C99.9753 374.037 80.7656 377.227 80.7656 381.162C80.7656 385.097 99.9753 388.287 123.672 388.287Z" fill="#2B2E3D"/>
<path d="M123.671 388.091C146.718 388.091 165.401 384.989 165.401 381.162C165.401 377.335 146.718 374.233 123.671 374.233C100.625 374.233 81.9414 377.335 81.9414 381.162C81.9414 384.989 100.625 388.091 123.671 388.091Z" fill="#2B2E3D"/>
</g>
<path d="M198.061 355.966V355.936C198.043 355.768 198.029 355.602 198.01 355.441C197.991 355.28 197.963 355.117 197.938 354.975C197.934 354.936 197.927 354.898 197.917 354.86C197.917 354.828 197.917 354.797 197.903 354.765C197.882 354.669 197.868 354.573 197.849 354.485C197.816 354.319 197.777 354.16 197.739 354.002L197.686 353.82C197.686 353.78 197.66 353.738 197.651 353.698C197.641 353.659 197.613 353.572 197.597 353.509C197.543 353.332 197.485 353.162 197.42 353.001C197.403 352.949 197.38 352.912 197.364 352.868C197.347 352.823 197.324 352.77 197.301 352.719C197.277 352.667 197.235 352.551 197.198 352.485C197.121 352.322 197.044 352.173 196.965 352.019C196.951 351.992 196.938 351.965 196.927 351.937C196.92 351.93 196.915 351.922 196.911 351.914C196.843 351.795 196.771 351.68 196.696 351.568C196.696 351.568 196.696 351.554 196.682 351.55C196.617 351.445 196.545 351.342 196.472 351.244C196.472 351.244 196.458 351.232 196.456 351.225C196.431 351.199 196.407 351.171 196.386 351.141C196.249 350.969 196.102 350.805 195.945 350.651C195.891 350.594 195.833 350.54 195.772 350.49C195.639 350.367 195.502 350.257 195.364 350.147C195.301 350.101 195.248 350.061 195.187 350.021C194.988 349.883 194.779 349.759 194.562 349.65L88.3666 298.641C88.3817 298.65 88.3958 298.66 88.4086 298.671C88.4952 298.71 88.5786 298.755 88.6583 298.807C88.6723 298.807 88.6909 298.823 88.7049 298.835C88.7726 298.874 88.8496 298.928 88.9172 298.972L89.0946 299.101C89.1692 299.154 89.2392 299.206 89.3092 299.266C89.3792 299.327 89.4469 299.383 89.5098 299.444C89.582 299.503 89.6499 299.566 89.7128 299.635C89.7758 299.7 89.8388 299.773 89.9042 299.845C89.9692 299.913 90.0307 299.983 90.0885 300.057C90.1235 300.099 90.1515 300.137 90.1888 300.179C90.3166 300.342 90.4335 300.513 90.5388 300.692C90.6748 300.909 90.7964 301.135 90.9027 301.369C90.9564 301.467 90.9961 301.574 91.0427 301.681C91.0523 301.691 91.0581 301.705 91.0591 301.719C91.0769 301.752 91.0925 301.788 91.1057 301.824C91.1057 301.849 91.1244 301.875 91.1314 301.898C91.2547 302.203 91.3598 302.514 91.4464 302.831C91.4813 302.964 91.5117 303.097 91.542 303.233C91.5723 303.368 91.605 303.543 91.6377 303.699C91.6377 303.713 91.6377 303.732 91.6377 303.751C91.6449 303.771 91.6488 303.792 91.6493 303.814C91.6633 303.912 91.6773 304 91.6913 304.096C91.7333 304.371 91.7683 304.644 91.7893 304.934C91.8558 305.766 91.8558 306.602 91.7893 307.435V307.453C91.7932 307.459 91.7932 307.466 91.7893 307.472C91.7165 308.318 91.5918 309.159 91.416 309.989L91.402 310.062C91.3787 310.178 91.3484 310.295 91.318 310.405C91.2877 310.514 91.276 310.594 91.2504 310.687C91.1967 310.897 91.1477 311.107 91.0871 311.312C90.8209 312.253 90.4999 313.178 90.1258 314.082C89.9881 314.397 89.8505 314.698 89.7082 315.015C89.6719 315.109 89.6298 315.201 89.5822 315.29C89.3769 315.72 89.1583 316.144 88.9266 316.564C88.2674 317.77 87.4997 318.913 86.6331 319.98C86.5211 320.125 86.3998 320.262 86.2925 320.395C86.1385 320.58 85.9728 320.762 85.8118 320.937C85.5435 321.221 85.2752 321.501 84.9999 321.762C84.3821 322.362 83.7148 322.908 83.0051 323.396C82.8581 323.498 82.7158 323.587 82.5734 323.676C82.3658 323.813 82.1488 323.942 81.9388 324.054L81.7218 324.168C81.6474 324.212 81.5693 324.251 81.4885 324.282L81.2879 324.376C81.2713 324.388 81.2521 324.396 81.2319 324.399C81.1712 324.432 81.1012 324.462 81.0406 324.492C80.9799 324.523 80.9472 324.532 80.8959 324.548C80.7857 324.598 80.6728 324.642 80.5576 324.679C80.5086 324.702 80.4573 324.719 80.413 324.735C80.3196 324.77 80.231 324.803 80.1353 324.828L79.965 324.882C79.8763 324.908 79.7947 324.926 79.706 324.954L79.5917 324.982C79.5628 324.991 79.5331 324.998 79.503 325.001C79.419 325.022 79.3444 325.034 79.2697 325.052C79.1951 325.071 79.1484 325.076 79.0924 325.08C79.0711 325.087 79.0492 325.09 79.0271 325.092C78.9641 325.092 78.9011 325.108 78.8428 325.12C78.7844 325.132 78.6631 325.139 78.5814 325.146C78.3568 325.17 78.1306 325.177 77.9048 325.167C77.7418 325.166 77.5789 325.155 77.4172 325.134C77.4019 325.137 77.3859 325.137 77.3706 325.134H77.3192C77.1377 325.109 76.9578 325.074 76.7803 325.029C76.7553 325.032 76.7301 325.027 76.7079 325.015C76.6753 325.015 76.6356 325.001 76.603 324.992C76.5627 324.981 76.5229 324.969 76.484 324.954C76.3851 324.926 76.2878 324.892 76.1923 324.854C76.103 324.824 76.0157 324.788 75.931 324.747C75.8831 324.729 75.8364 324.709 75.791 324.686L182.042 375.714C182.17 375.777 182.303 375.831 182.443 375.884C182.486 375.902 182.531 375.915 182.576 375.924L182.854 376.02C182.873 376.02 182.887 376.02 182.901 376.02L182.959 376.034C183.177 376.091 183.398 376.134 183.622 376.162C183.636 376.163 183.651 376.163 183.666 376.162C183.825 376.181 183.986 376.192 184.146 376.195C184.172 376.195 184.193 376.195 184.219 376.195C184.251 376.198 184.283 376.198 184.314 376.195C184.424 376.195 184.534 376.195 184.636 376.195C184.675 376.197 184.714 376.197 184.753 376.195H184.823L185.087 376.169C185.135 376.16 185.184 376.154 185.234 376.15C185.252 376.15 185.271 376.15 185.297 376.139C185.367 376.139 185.444 376.115 185.514 376.097C185.584 376.078 185.628 376.08 185.679 376.071C185.704 376.06 185.73 376.054 185.756 376.052L185.957 375.996C186.013 375.987 186.068 375.973 186.123 375.957L186.218 375.931L186.393 375.877C186.441 375.86 186.49 375.846 186.54 375.835L186.671 375.786L186.853 375.719C186.883 375.705 186.916 375.695 186.946 375.679C187.016 375.656 187.084 375.623 187.154 375.6L187.296 375.537C187.315 375.537 187.329 375.537 187.348 375.518C187.485 375.457 187.616 375.394 187.751 375.327C187.886 375.259 188.012 375.196 188.143 375.121L188.204 375.089L188.346 375.007L188.544 374.895C188.587 374.87 188.629 374.843 188.668 374.813C188.723 374.785 188.776 374.753 188.827 374.718C188.867 374.695 188.906 374.67 188.943 374.643C189.048 374.578 189.153 374.505 189.258 374.438L189.356 374.372L189.765 374.069C189.905 373.966 190.038 373.859 190.178 373.745L190.231 373.703L190.287 373.658C190.39 373.574 190.493 373.488 190.595 373.397C190.74 373.276 190.88 373.147 191.018 373.021C191.067 372.977 191.113 372.928 191.162 372.886C191.211 372.844 191.223 372.823 191.251 372.795C191.319 372.732 191.384 372.676 191.445 372.613C191.587 372.471 191.731 372.324 191.869 372.179C191.934 372.109 192 372.039 192.065 371.962C192.093 371.927 192.13 371.899 192.161 371.864C192.191 371.829 192.242 371.773 192.284 371.727C192.42 371.573 192.55 371.421 192.681 371.26C192.77 371.155 192.851 371.052 192.94 370.95C192.963 370.922 192.98 370.894 193.005 370.866C193.024 370.84 193.043 370.815 193.064 370.791C193.187 370.639 193.309 370.481 193.425 370.324C193.542 370.168 193.659 370.002 193.787 369.832C193.904 369.669 194.02 369.496 194.128 369.333C194.268 369.123 194.405 368.91 194.536 368.701C194.737 368.381 194.926 368.057 195.112 367.725C195.133 367.691 195.152 367.655 195.168 367.618C195.299 367.385 195.402 367.151 195.532 366.918C195.609 366.757 195.702 366.608 195.765 366.451C195.789 366.419 195.798 366.379 195.821 366.344C195.866 366.251 195.903 366.157 195.947 366.069C196.031 365.882 196.12 365.7 196.202 365.513C196.267 365.366 196.328 365.219 196.386 365.072C196.402 365.04 196.419 365 196.435 364.965C196.451 364.93 196.456 364.907 196.468 364.879C196.542 364.692 196.619 364.506 196.687 364.319C196.755 364.132 196.815 363.981 196.874 363.808L196.899 363.733C196.903 363.713 196.91 363.693 196.92 363.675C196.962 363.549 197.004 363.423 197.046 363.304C197.098 363.131 197.154 362.959 197.205 362.786C197.235 362.681 197.266 362.569 197.303 362.457C197.308 362.43 197.314 362.404 197.322 362.378L197.352 362.27C197.403 362.093 197.445 361.916 197.49 361.736L197.623 361.197L197.637 361.125C197.635 361.101 197.635 361.077 197.637 361.052C197.665 360.915 197.7 360.777 197.721 360.647C197.758 360.462 197.795 360.271 197.826 360.089C197.84 360.01 197.847 359.933 197.858 359.856C197.858 359.816 197.872 359.776 197.875 359.739C197.877 359.702 197.898 359.613 197.905 359.548C197.931 359.366 197.954 359.184 197.973 359.006C197.991 358.829 198.003 358.675 198.017 358.512C198.017 358.512 198.017 358.498 198.017 358.491C198.029 358.316 198.04 358.148 198.045 357.973C198.05 357.798 198.059 357.637 198.064 357.466C198.064 357.408 198.064 357.352 198.064 357.294C198.064 357.235 198.064 357.228 198.064 357.196C198.064 357.119 198.064 357.042 198.064 356.962C198.064 356.795 198.064 356.629 198.05 356.468C198.036 356.307 198.073 356.116 198.061 355.966Z" fill="url(#paint4_linear_842_9608)"/>
<path d="M83.0005 323.4C88.3901 319.693 92.3331 311.429 91.7941 304.938C91.2552 298.447 86.4559 296.191 81.0617 299.899C75.6675 303.606 71.7292 311.872 72.2704 318.361C72.8117 324.849 77.604 327.105 83.0005 323.4Z" fill="#2F655F"/>
<path d="M192.688 371.255L110.064 332.553L114.915 324.306L196.899 363.766C196.899 363.766 196.806 370.992 192.688 371.255Z" fill="white"/>
<path d="M198.058 355.936V355.967C198.07 356.116 198.077 356.27 198.089 356.433C198.1 356.597 198.103 356.76 198.103 356.928C198.103 357 198.103 357.077 198.103 357.161C198.103 357.194 198.103 357.227 198.103 357.259C198.103 357.292 198.103 357.374 198.103 357.432C198.103 357.602 198.091 357.77 198.084 357.938C198.077 358.106 198.068 358.281 198.056 358.456C198.056 358.456 198.056 358.47 198.056 358.477C198.042 358.64 198.03 358.808 198.012 358.972C197.993 359.135 197.97 359.331 197.944 359.513C197.944 359.578 197.923 359.639 197.914 359.704C197.904 359.77 197.914 359.781 197.897 359.821C197.886 359.9 197.879 359.977 197.865 360.054C197.834 360.236 197.797 360.428 197.76 360.612C197.739 360.743 197.704 360.88 197.676 361.018C197.674 361.042 197.674 361.066 197.676 361.09L197.662 361.163L197.529 361.701C197.484 361.881 197.442 362.058 197.391 362.236L197.361 362.343C197.353 362.369 197.347 362.396 197.342 362.422C197.305 362.534 197.274 362.656 197.244 362.751C197.193 362.924 197.137 363.097 197.085 363.269C197.043 363.388 197.001 363.503 196.959 363.64C196.949 363.659 196.942 363.678 196.938 363.699L196.913 363.773C196.854 363.946 196.791 364.112 196.726 364.284C196.661 364.457 196.581 364.658 196.507 364.844C196.495 364.872 196.486 364.898 196.474 364.931C196.463 364.963 196.442 365.005 196.425 365.038C196.367 365.185 196.306 365.332 196.241 365.479C196.159 365.665 196.071 365.847 195.987 366.034C195.942 366.123 195.905 366.216 195.861 366.309C195.837 366.344 195.828 366.384 195.805 366.417C195.735 366.578 195.641 366.727 195.571 366.883C195.448 367.117 195.338 367.35 195.207 367.583C195.191 367.62 195.172 367.656 195.151 367.691C194.965 368.022 194.776 368.346 194.575 368.666C194.444 368.876 194.307 369.088 194.167 369.298C194.057 369.461 193.933 369.634 193.826 369.797C193.709 369.968 193.593 370.133 193.464 370.29C193.336 370.446 193.231 370.614 193.103 370.756C193.082 370.78 193.063 370.805 193.044 370.831C193.019 370.859 193.002 370.887 192.979 370.915C192.89 371.018 192.809 371.12 192.72 371.225C192.589 371.384 192.459 371.536 192.324 371.692C192.282 371.739 192.24 371.783 192.2 371.83C192.16 371.876 192.132 371.893 192.104 371.928C192.039 372.005 191.974 372.075 191.908 372.145C191.771 372.289 191.626 372.436 191.484 372.579C191.423 372.642 191.358 372.698 191.29 372.761C191.262 372.789 191.232 372.817 191.201 372.852C191.171 372.887 191.106 372.943 191.057 372.987C190.919 373.113 190.779 373.241 190.634 373.362C190.532 373.453 190.429 373.54 190.326 373.624L190.27 373.668L190.217 373.71C190.077 373.824 189.944 373.943 189.804 374.034L189.395 374.338L189.297 374.403C189.192 374.471 189.087 374.543 188.982 374.608C188.945 374.635 188.906 374.66 188.866 374.683C188.815 374.718 188.762 374.75 188.707 374.779C188.668 374.808 188.626 374.836 188.584 374.86L188.385 374.972L188.243 375.054L188.182 375.087C188.052 375.161 187.921 375.229 187.79 375.292C187.66 375.355 187.524 375.423 187.387 375.483C187.368 375.483 187.354 375.483 187.335 375.502L187.193 375.565C187.123 375.588 187.055 375.621 186.985 375.644C186.955 375.661 186.922 375.67 186.892 375.684L186.71 375.752L186.579 375.801C186.529 375.811 186.48 375.825 186.432 375.843L186.257 375.896L186.162 375.922C186.107 375.939 186.052 375.952 185.996 375.962L185.795 376.018C185.769 376.019 185.743 376.026 185.718 376.036C185.667 376.036 185.611 376.05 185.553 376.062C185.494 376.074 185.406 376.092 185.336 376.104C185.31 376.104 185.291 376.104 185.273 376.116C185.223 376.119 185.174 376.125 185.126 376.134L184.862 376.16H184.792C184.753 376.162 184.714 376.162 184.676 376.16C184.573 376.16 184.463 376.16 184.354 376.16C184.322 376.163 184.29 376.163 184.258 376.16C184.232 376.16 184.211 376.16 184.186 376.16L222.701 379.135L196.689 351.555C196.763 351.664 196.836 351.788 196.903 351.9C196.907 351.909 196.913 351.917 196.92 351.923C196.931 351.951 196.943 351.978 196.957 352.005C197.041 352.152 197.118 352.301 197.19 352.472C197.228 352.546 197.26 352.633 197.293 352.705C197.326 352.777 197.333 352.805 197.356 352.854C197.379 352.903 197.396 352.936 197.412 352.987C197.477 353.148 197.536 353.319 197.589 353.496C197.606 353.559 197.624 353.622 197.643 353.685C197.662 353.748 197.669 353.766 197.678 353.806L197.732 353.988C197.769 354.147 197.809 354.305 197.841 354.471C197.86 354.56 197.874 354.655 197.895 354.751C197.895 354.784 197.895 354.814 197.909 354.847C197.92 354.884 197.927 354.922 197.93 354.961C197.956 355.115 197.981 355.281 198.002 355.428C198.023 355.575 198.04 355.768 198.058 355.936Z" fill="#F35825"/>
<path d="M210.457 378.201C210.457 378.201 212.737 377.798 213.887 375.887C215.037 373.976 214.533 370.469 214.533 370.469L222.699 379.135L210.457 378.201Z" fill="#0C1248"/>
<path d="M116.112 316.914C116.112 317.08 116.126 317.246 116.128 317.414C116.128 317.491 116.128 317.568 116.128 317.647V317.747C116.128 317.806 116.128 317.864 116.128 317.922C116.128 318.093 116.128 318.261 116.112 318.431C116.096 318.601 116.093 318.778 116.079 318.953V318.988C116.079 319.154 116.051 319.317 116.035 319.483C116.019 319.649 115.993 319.845 115.967 320.029L115.939 320.223C115.939 320.26 115.939 320.3 115.921 320.337L115.886 320.57C115.855 320.755 115.82 320.941 115.785 321.128C115.757 321.263 115.729 321.401 115.699 321.536L115.685 321.611C115.685 321.637 115.673 321.66 115.669 321.686C115.629 321.868 115.587 322.05 115.54 322.232C115.494 322.414 115.449 322.591 115.4 322.77L115.37 322.871C115.37 322.899 115.354 322.924 115.347 322.952C115.314 323.064 115.284 323.186 115.251 323.288C115.197 323.461 115.144 323.634 115.088 323.806C115.049 323.931 115.007 324.054 114.962 324.177L114.941 324.243L114.918 324.313C114.857 324.485 114.794 324.656 114.731 324.828C114.668 325.001 114.586 325.204 114.498 325.393L114.463 325.479C114.446 325.517 114.43 325.552 114.416 325.589C114.353 325.738 114.292 325.888 114.229 326.035C114.148 326.224 114.059 326.406 113.973 326.592C113.928 326.683 113.889 326.776 113.844 326.87C113.826 326.905 113.812 326.942 113.793 326.979C113.716 327.138 113.627 327.292 113.546 327.446C113.427 327.679 113.312 327.913 113.182 328.146C113.163 328.183 113.144 328.221 113.123 328.258C112.939 328.589 112.745 328.916 112.547 329.238C112.412 329.453 112.276 329.665 112.136 329.875C112.022 330.045 111.903 330.213 111.789 330.381C111.672 330.549 111.555 330.715 111.429 330.878C111.303 331.041 111.196 331.198 111.063 331.345L111 331.422L110.937 331.501L110.678 331.821C110.545 331.977 110.412 332.131 110.277 332.287L110.149 332.427L110.055 332.53C109.99 332.602 109.925 332.675 109.857 332.745C109.717 332.894 109.575 333.039 109.43 333.181L109.239 333.365L109.143 333.456L109.003 333.592C108.861 333.722 108.721 333.848 108.576 333.972C108.473 334.063 108.368 334.149 108.263 334.236L108.207 334.282L108.154 334.327C108.016 334.436 107.878 334.546 107.738 334.651C107.598 334.756 107.463 334.854 107.323 334.952L107.227 335.019C107.123 335.092 107.018 335.159 106.915 335.227L106.796 335.302L106.635 335.402L106.509 335.479L106.311 335.593L106.166 335.675L106.108 335.71C105.975 335.782 105.844 335.85 105.713 335.915C105.578 335.981 105.445 336.044 105.31 336.104L105.258 336.125L105.114 336.186L104.908 336.272L104.808 336.307L104.628 336.373L104.493 336.422L104.351 336.466L104.171 336.52L104.078 336.55L103.912 336.59L103.704 336.641L103.632 336.66L103.464 336.69L103.243 336.73L103.177 336.741C103.128 336.741 103.079 336.741 103.028 336.76L102.769 336.788H102.694H102.582C102.473 336.788 102.365 336.788 102.258 336.788H102.16H102.088C101.924 336.788 101.761 336.774 101.6 336.755H101.551C101.326 336.727 101.103 336.684 100.884 336.627C100.865 336.627 100.844 336.627 100.823 336.627L100.779 336.613C100.683 336.587 100.59 336.555 100.496 336.524L100.361 336.478C100.223 336.426 100.09 336.37 99.9598 336.307L74.8926 324.149C75.0232 324.213 75.1572 324.269 75.2939 324.317C75.3382 324.336 75.3825 324.348 75.4269 324.364C75.5202 324.397 75.6135 324.427 75.7115 324.453L75.8165 324.478C76.0358 324.536 76.2587 324.58 76.4838 324.609H76.5304C76.6914 324.628 76.8547 324.637 77.0204 324.642H77.1907C77.298 324.642 77.4054 324.642 77.515 324.642C77.578 324.642 77.6387 324.642 77.7017 324.642L77.963 324.614L78.1753 324.586L78.3969 324.544C78.4763 324.53 78.5579 324.513 78.6303 324.495L78.8356 324.446L79.0969 324.376L79.2742 324.32C79.3675 324.292 79.4609 324.259 79.5565 324.226L79.7315 324.163L80.0395 324.04L80.1841 323.979C80.3397 323.914 80.4913 323.844 80.6391 323.769C80.7946 323.694 80.9463 323.617 81.094 323.536L81.2387 323.452C81.346 323.391 81.4534 323.328 81.5607 323.26L81.724 323.16C81.8663 323.069 82.011 322.976 82.1556 322.878C82.4869 322.644 82.8136 322.411 83.1355 322.141L83.1915 322.094C83.4902 321.847 83.7834 321.587 84.0711 321.315L84.1668 321.224C84.4444 320.955 84.7174 320.678 84.9811 320.388C85.0137 320.356 85.0464 320.321 85.0767 320.286C85.3474 319.99 85.6094 319.679 85.863 319.352C85.8863 319.327 85.9073 319.301 85.9283 319.273C86.2013 318.932 86.4673 318.573 86.7216 318.219C87.2289 317.5 87.6963 316.754 88.1215 315.983C88.2474 315.75 88.3664 315.517 88.4854 315.283C88.5857 315.09 88.6884 314.898 88.7841 314.7C88.8284 314.609 88.8681 314.514 88.9124 314.423C89.0664 314.091 89.2157 313.758 89.3557 313.422C89.3697 313.384 89.386 313.347 89.4023 313.31C89.5688 312.902 89.7243 312.49 89.869 312.073L89.89 312.01C90.03 311.603 90.1583 311.193 90.2749 310.783C90.2749 310.755 90.2913 310.729 90.2983 310.704C90.4149 310.284 90.5191 309.864 90.6109 309.444C90.6109 309.418 90.6226 309.392 90.6272 309.369C90.7143 308.965 90.7882 308.562 90.8489 308.16C90.8489 308.123 90.8606 308.086 90.8652 308.046C90.9259 307.633 90.9749 307.222 91.0075 306.814C91.0064 306.807 91.0064 306.8 91.0075 306.793C91.0379 306.383 91.0542 305.974 91.0565 305.571V305.473C91.0565 305.069 91.0425 304.67 91.0099 304.278C90.9772 303.886 90.9282 303.513 90.8652 303.151C90.8652 303.118 90.8536 303.086 90.8489 303.055C90.7882 302.724 90.7159 302.407 90.6319 302.104L90.5969 301.985C90.5153 301.7 90.4187 301.419 90.3076 301.145C90.2889 301.096 90.2679 301.047 90.2469 300.998C90.1396 300.748 90.0253 300.51 89.9016 300.286L89.8596 300.207C89.7207 299.958 89.5647 299.718 89.393 299.49C89.372 299.46 89.3464 299.434 89.323 299.406C89.1859 299.232 89.0386 299.066 88.8821 298.91C88.8261 298.854 88.7677 298.802 88.7094 298.749C88.5776 298.626 88.4389 298.512 88.2941 298.406C88.2334 298.361 88.1751 298.315 88.1145 298.273C87.9145 298.135 87.7047 298.013 87.4868 297.906L112.552 310.074C112.77 310.18 112.979 310.303 113.179 310.44C113.242 310.482 113.301 310.526 113.359 310.571C113.503 310.678 113.642 310.794 113.774 310.916C113.833 310.967 113.891 311.021 113.947 311.077C114.103 311.234 114.251 311.4 114.388 311.574C114.411 311.602 114.437 311.627 114.46 311.658L114.474 311.676C114.637 311.891 114.786 312.115 114.92 312.348L114.934 312.374C114.948 312.4 114.96 312.428 114.974 312.451C115.057 312.603 115.139 312.754 115.207 312.918C115.244 312.999 115.277 313.083 115.312 313.167C115.347 313.251 115.354 313.263 115.375 313.314C115.396 313.366 115.412 313.401 115.428 313.447C115.494 313.613 115.552 313.786 115.608 313.961C115.629 314.024 115.645 314.089 115.662 314.154L115.697 314.273C115.715 314.336 115.734 314.395 115.75 314.458C115.79 314.616 115.827 314.78 115.862 314.945C115.881 315.036 115.897 315.129 115.914 315.223C115.914 315.255 115.914 315.288 115.932 315.321L115.953 315.435C115.979 315.594 116.002 315.755 116.021 315.92C116.04 316.086 116.058 316.249 116.072 316.417C116.074 316.427 116.074 316.436 116.072 316.445C116.096 316.606 116.105 316.758 116.112 316.914Z" fill="#090817"/>
<path d="M82.1582 322.883C87.5874 319.15 91.5537 310.825 91.0241 304.29C90.4945 297.755 85.6579 295.48 80.2193 299.213C74.7808 302.946 70.8285 311.271 71.3534 317.808C71.8784 324.345 76.729 326.616 82.1582 322.883Z" fill="#F35825"/>
<path d="M194.254 198.867L185.549 3.759L194.254 0L395.251 119.382V318.249L386.546 322.008L194.254 198.867Z" fill="url(#paint5_linear_842_9608)"/>
<path d="M185.549 202.626V3.75879L386.546 123.141V322.008L185.549 202.626Z" fill="#090817"/>
<path d="M193.992 197.82L378.102 307.174V127.947L193.992 18.5928V197.82Z" fill="url(#paint6_linear_842_9608)"/>
<path d="M395.25 119.382L386.545 123.141V322.008L395.25 318.249V119.382Z" fill="url(#paint7_linear_842_9608)"/>
<path d="M193.992 197.82L378.102 307.174V303.765L196.57 196.574L193.992 197.82Z" fill="url(#paint8_linear_842_9608)"/>
<path d="M159.132 103.442C157.976 104.103 156.754 104.64 155.485 105.045C162.746 99.0998 165.62 87.8565 164.073 74.6859C162.907 64.6768 159.225 53.5617 153.003 42.7803C152.149 41.2886 151.256 39.8374 150.324 38.4267C143.075 27.2533 134.118 18.595 125.147 13.4131C116.582 8.45988 108.006 6.70536 100.883 8.98017C101.711 8.29291 102.597 7.67856 103.531 7.14399C111.254 2.74603 121.365 4.15524 131.456 9.98342C140.366 15.1326 149.267 23.7092 156.505 34.7916C157.464 36.2677 158.398 37.7874 159.305 39.3506C165.527 50.132 169.22 61.2494 170.375 71.2585C170.374 71.2817 170.378 71.3049 170.387 71.3262C172.095 85.976 168.331 98.2249 159.132 103.442Z" fill="url(#paint9_linear_842_9608)"/>
<path d="M155.486 105.045C154.652 105.73 153.759 106.34 152.819 106.869C147.819 109.732 141.818 110.159 135.458 108.503C131.752 107.505 128.198 106.009 124.893 104.058C119.25 100.792 113.606 96.1509 108.398 90.3554C104.07 85.5381 100.263 80.2773 97.0405 74.6604C81.6745 48.0907 81.7562 19.3931 97.2318 10.5738C98.3909 9.91361 99.6174 9.37939 100.89 8.98031C108.013 6.7055 116.59 8.46002 125.155 13.4133C134.126 18.5835 143.083 27.2534 150.332 38.4268C151.265 39.836 152.158 41.2872 153.01 42.7804C159.233 53.5619 162.926 64.6769 164.081 74.6861C165.621 87.8566 162.746 99.1 155.486 105.045Z" fill="#090817"/>
<path d="M152.82 106.857C147.823 109.72 141.82 110.147 135.46 108.491L125.023 58.7295L164.075 74.6835C165.795 89.3589 162.032 101.65 152.82 106.857Z" fill="url(#paint10_linear_842_9608)"/>
<path d="M152.82 106.857C147.823 109.72 141.82 110.147 135.46 108.491L125.023 58.7295L164.075 74.6835C165.795 89.3589 162.032 101.65 152.82 106.857Z" fill="#EA6016"/>
<path d="M159.133 103.437C157.977 104.097 156.754 104.635 155.486 105.04C162.747 99.0954 165.621 87.852 164.075 74.6815L170.4 71.3218C172.096 85.9715 168.333 98.2252 159.133 103.437Z" fill="url(#paint11_linear_842_9608)"/>
<path d="M159.133 103.437C157.977 104.097 156.754 104.635 155.486 105.04C162.747 99.0954 165.621 87.852 164.075 74.6815L170.4 71.3218C172.096 85.9715 168.333 98.2252 159.133 103.437Z" fill="#EA6016"/>
<path d="M159.133 103.437C157.977 104.097 156.754 104.635 155.486 105.04C162.747 99.0954 165.621 87.852 164.075 74.6815L170.4 71.3218C172.096 85.9715 168.333 98.2252 159.133 103.437Z" fill="#090817" fill-opacity="0.2"/>
<path d="M164.074 74.6858L125.021 58.7319L150.324 38.4336C151.258 39.8428 152.15 41.294 153.003 42.7872C159.225 53.5616 162.919 64.6767 164.074 74.6858Z" fill="url(#paint12_linear_842_9608)"/>
<path d="M170.399 71.3261L164.073 74.6858C162.907 64.6766 159.225 53.5616 153.003 42.7802C152.149 41.2885 151.256 39.8373 150.324 38.4265L156.512 34.7915C157.471 36.2676 158.405 37.7872 159.311 39.3504C165.534 50.1319 169.227 61.2493 170.382 71.2584C170.382 71.282 170.388 71.3052 170.399 71.3261Z" fill="#BEC3CE"/>
<path d="M396.104 230.493L408.432 237.926V210.838L396.104 203.405V230.493Z" fill="url(#paint13_linear_842_9608)"/>
<path d="M392.492 232.677L404.821 240.11V213.025L392.492 205.589V232.677Z" fill="url(#paint14_linear_842_9608)"/>
<path d="M392.492 232.677L404.821 240.11V213.025L392.492 205.589V232.677Z" fill="#EA6016"/>
<path d="M408.431 210.838L404.82 213.025V240.11L408.431 237.926V210.838Z" fill="url(#paint15_linear_842_9608)"/>
<path d="M392.492 205.589L396.104 203.405L408.432 210.838L404.821 213.025L392.492 205.589Z" fill="url(#paint16_linear_842_9608)"/>
<path d="M416.691 242.567L429.019 250V209.719L416.691 202.283V242.567Z" fill="url(#paint17_linear_842_9608)"/>
<path d="M413.08 244.751L425.408 252.184V211.902L413.08 204.469V244.751Z" fill="url(#paint18_linear_842_9608)"/>
<path d="M413.08 244.751L425.408 252.184V211.902L413.08 204.469V244.751Z" fill="#EA6016"/>
<path d="M429.02 209.719L425.408 211.902V252.184L429.02 250V209.719Z" fill="url(#paint19_linear_842_9608)"/>
<path d="M413.08 204.469L416.692 202.283L429.02 209.719L425.408 211.902L413.08 204.469Z" fill="url(#paint20_linear_842_9608)"/>
<path d="M437.279 254.641L449.608 262.074V208.342L437.279 200.909V254.641Z" fill="url(#paint21_linear_842_9608)"/>
<path d="M433.668 256.825L445.996 264.258V210.526L433.668 203.092V256.825Z" fill="url(#paint22_linear_842_9608)"/>
<path d="M433.668 256.825L445.996 264.258V210.526L433.668 203.092V256.825Z" fill="#EA6016"/>
<path d="M449.608 208.342L445.996 210.526V264.258L449.608 262.074V208.342Z" fill="url(#paint23_linear_842_9608)"/>
<path d="M433.668 203.092L437.279 200.909L449.608 208.342L445.996 210.526L433.668 203.092Z" fill="url(#paint24_linear_842_9608)"/>
<path d="M457.867 266.715L470.195 274.148V210.838L457.867 203.405V266.715Z" fill="url(#paint25_linear_842_9608)"/>
<path d="M454.256 268.898L466.584 276.332V213.025L454.256 205.589V268.898Z" fill="url(#paint26_linear_842_9608)"/>
<path d="M454.256 268.898L466.584 276.332V213.025L454.256 205.589V268.898Z" fill="#EA6016"/>
<path d="M470.196 210.838L466.584 213.025V276.332L470.196 274.148V210.838Z" fill="url(#paint27_linear_842_9608)"/>
<path d="M454.256 205.589L457.868 203.405L470.196 210.838L466.584 213.025L454.256 205.589Z" fill="url(#paint28_linear_842_9608)"/>
<path d="M330.079 197.661C329.937 199.509 329.708 201.296 329.421 203.041C329.358 203.419 329.33 203.823 329.26 204.208C328.882 206.234 328.379 208.235 327.755 210.199C327.583 210.743 327.359 211.242 327.17 211.769C326.705 213.088 326.172 214.383 325.574 215.647C325.278 216.268 324.946 216.851 324.62 217.441C324.037 218.504 323.398 219.534 322.704 220.528C322.319 221.076 321.93 221.62 321.517 222.136C320.743 223.092 319.909 223.998 319.02 224.849C318.612 225.246 318.229 225.673 317.798 226.044C316.454 227.219 314.999 228.26 313.453 229.154L326.857 221.361C327.394 220.953 327.921 220.533 328.432 220.094C328.864 219.723 329.244 219.296 329.652 218.9C330.542 218.049 331.377 217.143 332.151 216.186C332.564 215.67 332.951 215.127 333.336 214.579C334.031 213.585 334.671 212.555 335.254 211.492C335.581 210.902 335.91 210.325 336.208 209.698C336.807 208.434 337.338 207.139 337.802 205.82C337.991 205.293 338.217 204.793 338.387 204.25C339.012 202.285 339.516 200.284 339.895 198.258C339.962 197.885 339.99 197.481 340.053 197.092C340.343 195.347 340.571 193.559 340.711 191.711C340.77 190.951 340.786 190.162 340.819 189.378C340.884 187.843 340.912 186.282 340.879 184.689C340.861 183.818 340.826 182.937 340.779 182.05C340.693 180.44 340.546 178.805 340.368 177.15C340.273 176.28 340.191 175.415 340.07 174.533C339.836 172.808 339.512 171.054 339.171 169.292C339.02 168.504 338.903 167.729 338.73 166.934C338.539 166.047 338.292 165.146 338.073 164.255C337.732 162.855 337.396 161.455 336.995 160.056C336.794 159.356 336.565 158.656 336.353 157.956C335.886 156.402 335.378 154.846 334.832 153.289C334.598 152.634 334.365 151.978 334.132 151.323C333.432 149.442 332.702 147.559 331.904 145.672C331.787 145.399 331.687 145.128 331.57 144.855C330.637 142.716 329.638 140.571 328.581 138.432C328.322 137.909 328.054 137.389 327.788 136.866C326.701 134.739 325.576 132.613 324.356 130.499C323.094 128.313 321.773 126.204 320.427 124.135C320.061 123.57 319.683 123.022 319.309 122.466C318.322 120.997 317.315 119.561 316.288 118.159C315.805 117.497 315.322 116.832 314.83 116.183C313.913 114.977 312.963 113.817 312.03 112.663C311.37 111.853 310.716 111.029 310.047 110.245C309.412 109.508 308.761 108.818 308.12 108.104C306.834 106.673 305.539 105.276 304.221 103.944C303.647 103.363 303.068 102.807 302.49 102.247C299.848 99.6675 297.074 97.2276 294.177 94.9377C293.799 94.6414 293.419 94.3801 293.041 94.0931C290.179 91.8865 287.182 89.8605 284.067 88.027C281.744 86.7002 279.345 85.5091 276.884 84.4596C276.209 84.1687 275.536 83.8919 274.866 83.629C273.447 83.0761 272.04 82.6001 270.638 82.1778C269.938 81.9655 269.219 81.7275 268.519 81.5502C267.731 81.3495 266.956 81.2072 266.175 81.0509C265.206 80.8596 264.24 80.6683 263.286 80.5446C262.717 80.4699 262.152 80.4233 261.588 80.3743C260.496 80.281 259.416 80.2273 258.347 80.2296C257.904 80.2296 257.458 80.2296 257.017 80.2413C255.576 80.2882 254.139 80.4332 252.717 80.6753C252.591 80.6986 252.484 80.7359 252.346 80.7616C251.062 81.0104 249.797 81.3471 248.559 81.7695C248.228 81.8815 247.897 82.0028 247.568 82.1195C246.224 82.6129 244.921 83.2112 243.672 83.909L233.037 89.8585C234.288 89.1603 235.591 88.5619 236.936 88.069C237.262 87.943 237.594 87.8357 237.927 87.719C239.165 87.2977 240.43 86.961 241.714 86.7111C241.838 86.6854 241.947 86.6481 242.085 86.6248C243.507 86.3825 244.943 86.2375 246.385 86.1908C246.824 86.1721 247.269 86.1908 247.715 86.1791C248.781 86.1791 249.861 86.2305 250.953 86.3238C251.52 86.3728 252.082 86.4194 252.654 86.4941C253.606 86.6178 254.574 86.8091 255.543 87.0004C256.322 87.1567 257.099 87.299 257.876 87.4997C258.576 87.677 259.287 87.915 259.994 88.1273C261.394 88.5496 262.794 89.0256 264.219 89.5785C264.891 89.8398 265.565 90.1167 266.24 90.4091C268.7 91.4575 271.098 92.6471 273.421 93.9718C276.536 95.8054 279.532 97.8314 282.395 100.038C282.773 100.325 283.155 100.586 283.533 100.883C286.429 103.172 289.203 105.612 291.844 108.192C292.422 108.752 293.01 109.307 293.575 109.888C294.893 111.221 296.188 112.618 297.474 114.048C298.115 114.762 298.769 115.448 299.401 116.19C300.073 116.974 300.724 117.798 301.384 118.607C302.317 119.762 303.267 120.922 304.184 122.128C304.676 122.777 305.157 123.442 305.642 124.104C306.667 125.504 307.678 126.94 308.675 128.411C309.046 128.966 309.424 129.515 309.793 130.079C311.139 132.149 312.457 134.258 313.719 136.444C314.939 138.558 316.052 140.683 317.151 142.811C317.417 143.334 317.686 143.854 317.945 144.377C319.004 146.516 320.012 148.66 320.933 150.8C321.05 151.073 321.153 151.344 321.267 151.617C322.067 153.504 322.802 155.387 323.497 157.267C323.737 157.924 323.97 158.579 324.197 159.234C324.746 160.8 325.245 162.356 325.719 163.901C325.933 164.6 326.162 165.3 326.36 166C326.764 167.414 327.1 168.8 327.44 170.2C327.657 171.091 327.907 171.992 328.096 172.878C328.271 173.674 328.385 174.449 328.539 175.237C328.88 176.999 329.197 178.753 329.435 180.477C329.559 181.359 329.641 182.225 329.736 183.095C329.918 184.752 330.061 186.387 330.147 187.995C330.194 188.881 330.228 189.763 330.245 190.634C330.277 192.227 330.245 193.788 330.184 195.323C330.159 196.112 330.145 196.9 330.079 197.661Z" fill="url(#paint29_linear_842_9608)"/>
<path d="M313.901 229.231C302.74 235.623 288.113 233.601 273.505 225.166C258.898 216.732 244.311 201.891 233.219 182.649C210.982 144.188 211.101 102.693 233.487 89.9377C244.649 83.5776 259.276 85.6191 273.883 94.051C288.491 102.483 303.078 117.312 314.17 136.514C336.402 175.036 336.283 216.541 313.901 229.231Z" fill="url(#paint30_linear_842_9608)"/>
<path d="M313.901 229.231C302.74 235.623 288.113 233.601 273.505 225.166C258.898 216.732 244.311 201.891 233.219 182.649C210.982 144.188 211.101 102.693 233.487 89.9377C244.649 83.5776 259.276 85.6191 273.883 94.051C288.491 102.483 303.078 117.312 314.17 136.514C336.402 175.036 336.283 216.541 313.901 229.231Z" fill="#EA6016"/>
<path d="M306.859 217.035C297.65 222.308 285.585 220.64 273.537 213.683C261.489 206.725 249.454 194.483 240.306 178.611C221.965 146.894 222.061 112.66 240.523 102.14C249.732 96.8928 261.794 98.575 273.843 105.532C285.891 112.49 297.925 124.718 307.073 140.562C325.412 172.332 325.319 206.569 306.859 217.035Z" fill="url(#paint31_linear_842_9608)"/>
<path d="M299.704 204.642C292.471 208.776 283.022 207.463 273.572 202.005C264.123 196.548 254.674 186.945 247.511 174.495C233.128 149.619 233.205 122.77 247.682 114.534C254.914 110.42 264.364 111.734 273.813 117.201C283.262 122.667 292.697 132.252 299.872 144.68C314.255 169.586 314.181 196.436 299.704 204.642Z" fill="url(#paint32_linear_842_9608)"/>
<path d="M299.704 204.642C292.471 208.776 283.022 207.463 273.572 202.005C264.123 196.548 254.674 186.945 247.511 174.495C233.128 149.619 233.205 122.77 247.682 114.534C254.914 110.42 264.364 111.734 273.813 117.201C283.262 122.667 292.697 132.252 299.872 144.68C314.255 169.586 314.181 196.436 299.704 204.642Z" fill="#EA6016"/>
<path d="M292.405 192.001C287.211 194.973 280.406 194.026 273.607 190.097C266.808 186.168 260.021 179.255 254.86 170.296C244.513 152.393 244.566 133.075 254.982 127.147C260.177 124.188 266.983 125.142 273.78 129.074C280.576 133.005 287.365 139.906 292.526 148.852C302.876 166.784 302.82 186.1 292.405 192.001Z" fill="url(#paint33_linear_842_9608)"/>
<path d="M285.049 179.236C281.9 181.038 277.775 180.464 273.652 178.07C269.529 175.676 265.416 171.497 262.287 166.066C256.014 155.212 256.046 143.5 262.362 139.904C265.509 138.113 269.637 138.691 273.757 141.071C277.877 143.451 281.995 147.639 285.124 153.061C291.386 163.947 291.349 175.66 285.049 179.236Z" fill="url(#paint34_linear_842_9608)"/>
<path d="M285.049 179.236C281.9 181.038 277.775 180.464 273.652 178.07C269.529 175.676 265.416 171.497 262.287 166.066C256.014 155.212 256.046 143.5 262.362 139.904C265.509 138.113 269.637 138.691 273.757 141.071C277.877 143.451 281.995 147.639 285.124 153.061C291.386 163.947 291.349 175.66 285.049 179.236Z" fill="#EA6016"/>
<path d="M254.423 167.139L193.657 200.983L184.149 195.463L158.916 210.192L169.819 217.957L158.916 238.449L184.149 223.72L194.294 205.988L254.423 172.496V167.139Z" fill="url(#paint35_linear_842_9608)"/>
<path d="M277.099 156.796L243.674 160.314L254.423 166.875L192.852 201.364L198.911 204.686L260.328 170.478L270.258 176.539L277.099 156.796Z" fill="url(#paint36_linear_842_9608)"/>
<path d="M277.099 156.796L243.674 160.314L254.423 166.875L192.852 201.364L198.911 204.686L260.328 170.478L270.258 176.539L277.099 156.796Z" fill="#090817"/>
<path d="M277.099 156.796L270.258 176.539V181.896L277.099 162.153V156.796Z" fill="url(#paint37_linear_842_9608)"/>
<path d="M243.674 160.314V165.671L250.014 169.346L254.423 166.875L243.674 160.314Z" fill="url(#paint38_linear_842_9608)"/>
<path d="M260.328 170.478V175.834L270.258 181.896V176.539L260.328 170.478Z" fill="url(#paint39_linear_842_9608)"/>
<path d="M260.327 170.478L199.561 204.324L190.056 198.802L164.82 213.531L175.723 221.296L164.82 241.787L190.056 227.058L200.198 209.327L260.327 175.834V170.478Z" fill="url(#paint40_linear_842_9608)"/>
<path d="M260.327 170.478L199.561 204.324L190.056 198.802L164.82 213.531L175.723 221.296L164.82 241.787L190.056 227.058L200.198 209.327L260.327 175.834V170.478Z" fill="#EA6016"/>
<path d="M184.149 195.463L190.057 198.802L164.821 213.531L158.916 210.192L184.149 195.463Z" fill="#090817"/>
<path d="M169.819 217.957L175.724 221.296L164.821 241.787L158.916 238.449L169.819 217.957Z" fill="url(#paint41_linear_842_9608)"/>
<path d="M286.049 326.119V262.468L277.561 257.235V320.885L286.049 326.119Z" fill="url(#paint42_linear_842_9608)"/>
<path d="M291.588 265.606V322.904L286.049 326.119V262.468L291.588 265.606Z" fill="#83869B"/>
<path d="M299.643 270.392L313.25 341.816L320.753 347.182L306.726 274.598L299.643 270.392Z" fill="url(#paint43_linear_842_9608)"/>
<path d="M306.727 274.598L320.754 347.182L325.318 344.333L312.738 278.168L306.727 274.598Z" fill="#83869B"/>
<path d="M272.188 254.085L247.12 303.555L238.465 298.987L264.351 249.428L272.188 254.085Z" fill="url(#paint44_linear_842_9608)"/>
<path d="M247.119 303.555L272.187 254.085L275.266 255.912L251.331 302.276L247.119 303.555Z" fill="#83869B"/>
<path d="M54.6247 240.397C54.6247 240.383 54.6247 240.369 54.6247 240.355C54.6247 240.341 54.6247 240.322 54.6247 240.306L56.7245 221.277H26.5664L28.6662 240.304C28.6662 240.32 28.6662 240.339 28.6662 240.355C28.6662 240.371 28.6662 240.383 28.6662 240.397V240.735H28.6872C29.0699 244.235 34.7254 247.035 41.6478 247.035C48.5702 247.035 54.2257 244.251 54.6084 240.735H54.6317L54.6247 240.397Z" fill="#090817"/>
<path d="M59.0616 232.341C59.0616 232.359 59.0616 232.371 59.0616 232.39V232.856H59.0312C58.5156 237.557 50.9282 241.295 41.6424 241.295C32.3565 241.295 24.7691 237.562 24.2535 232.856H24.2208V232.408C24.2208 232.39 24.2208 232.371 24.2208 232.352C24.2208 232.334 24.2208 232.301 24.2208 232.278L21.7617 212.679C25.2358 216.527 32.8278 219.212 41.6354 219.212C50.4429 219.212 58.0466 216.538 61.516 212.679L59.0499 232.292C59.0569 232.289 59.0616 232.315 59.0616 232.341Z" fill="#090817"/>
<path opacity="0.568" d="M41.6423 225.712C49.9296 225.712 57.1086 223.248 60.6783 219.646L61.1193 216.064C57.7199 219.921 50.2772 222.597 41.6423 222.597C33.0073 222.597 25.5763 219.926 22.1699 216.076L22.6109 219.653C26.1852 223.248 33.3596 225.712 41.6423 225.712Z" fill="white"/>
<path opacity="0.568" d="M41.6435 231.797C49.5971 231.815 56.4869 229.366 59.9143 225.768L60.3366 222.189C57.0702 226.036 49.9308 228.691 41.6435 228.673C33.3562 228.654 26.2238 225.964 22.9551 222.114L23.3774 225.693C26.8094 229.296 33.6945 231.778 41.6435 231.797Z" fill="white"/>
<path opacity="0.568" d="M41.6429 237.88C49.2862 237.88 55.9077 235.416 59.1997 231.813L59.608 228.234C56.4723 232.089 49.6059 234.767 41.6429 234.767C33.6799 234.767 26.8251 232.096 23.6777 228.246L24.0837 231.825C27.3874 235.413 34.0042 237.88 41.6429 237.88Z" fill="white"/>
<path d="M83.2846 164.901C83.2949 177.89 77.2341 190.138 66.9013 198.008C64.7732 199.654 63.5335 202.197 63.5486 204.886V207.938C63.5486 209.618 62.8277 211.219 61.5258 212.658C58.0564 216.512 50.4574 219.191 41.6451 219.191C32.8329 219.191 25.2455 216.517 21.7715 212.658C20.4626 211.219 19.7393 209.625 19.7393 207.931V204.886C19.7472 202.179 18.493 199.622 16.3469 197.971C5.62894 189.795 -0.455563 176.927 0.0266547 163.455C0.773258 141.407 18.946 123.595 41.0082 123.264C52.1608 123.095 62.9152 127.406 70.8621 135.233C78.809 143.06 83.2846 153.747 83.2846 164.901Z" fill="url(#paint45_linear_842_9608)"/>
<path d="M83.2846 164.901C83.2949 177.89 77.2341 190.138 66.9013 198.008C64.7732 199.654 63.5335 202.197 63.5486 204.886V207.938C63.5486 209.618 62.8277 211.219 61.5258 212.658C58.0564 216.512 50.4574 219.191 41.6451 219.191C32.8329 219.191 25.2455 216.517 21.7715 212.658C20.4626 211.219 19.7393 209.625 19.7393 207.931V204.886C19.7472 202.179 18.493 199.622 16.3469 197.971C5.62894 189.795 -0.455563 176.927 0.0266547 163.455C0.773258 141.407 18.946 123.595 41.0082 123.264C52.1608 123.095 62.9152 127.406 70.8621 135.233C78.809 143.06 83.2846 153.747 83.2846 164.901Z" fill="#EA6016"/>
<path opacity="0.58" d="M33.862 209.394C35.9247 209.394 37.597 208.532 37.597 207.469C37.597 206.406 35.9247 205.544 33.862 205.544C31.7992 205.544 30.127 206.406 30.127 207.469C30.127 208.532 31.7992 209.394 33.862 209.394Z" fill="#B25D10"/>
<path opacity="0.58" d="M49.2077 209.394C51.2704 209.394 52.9427 208.532 52.9427 207.469C52.9427 206.406 51.2704 205.544 49.2077 205.544C47.1449 205.544 45.4727 206.406 45.4727 207.469C45.4727 208.532 47.1449 209.394 49.2077 209.394Z" fill="#B25D10"/>
<path d="M33.9652 207.47C33.9652 207.47 36.3543 155.553 32.3507 155.415C28.347 155.277 15.3024 169.766 28.347 173.63C41.3916 177.493 57.1029 176.528 59.779 169.619C62.4551 162.711 58.1458 156.509 53.5519 156.509C48.9579 156.509 49.5529 207.46 49.5529 207.46" stroke="white" stroke-width="5" stroke-linecap="round" stroke-linejoin="round"/>
<path d="M41.6437 218.323C29.8287 218.323 20.2045 213.517 19.7612 207.507C19.7612 207.649 19.7402 207.794 19.7402 207.938C19.7402 214.149 29.5394 219.187 41.6437 219.187C53.748 219.187 63.5472 214.149 63.5472 207.938C63.5472 207.794 63.5355 207.649 63.5262 207.507C63.0829 213.517 53.4587 218.323 41.6437 218.323Z" fill="url(#paint46_linear_842_9608)"/>
<defs>
<linearGradient id="paint0_linear_842_9608" x1="28804.6" y1="7177.08" x2="7012.52" y2="-388.172" gradientUnits="userSpaceOnUse">
<stop stop-color="white"/>
<stop offset="1" stop-color="#D6D5D5"/>
</linearGradient>
<linearGradient id="paint1_linear_842_9608" x1="219.189" y1="6917.65" x2="20821.2" y2="6917.65" gradientUnits="userSpaceOnUse">
<stop stop-color="white"/>
<stop offset="1" stop-color="#D6D5D5"/>
</linearGradient>
<linearGradient id="paint2_linear_842_9608" x1="23167.3" y1="6663.97" x2="21191.9" y2="17895.4" gradientUnits="userSpaceOnUse">
<stop stop-color="white"/>
<stop offset="1" stop-color="#E3E2E2"/>
</linearGradient>
<linearGradient id="paint3_linear_842_9608" x1="14661.1" y1="4978.54" x2="14678.6" y2="6220.92" gradientUnits="userSpaceOnUse">
<stop stop-color="white"/>
<stop offset="1" stop-color="white"/>
</linearGradient>
<linearGradient id="paint4_linear_842_9608" x1="75.791" y1="4176.75" x2="12303.1" y2="4176.75" gradientUnits="userSpaceOnUse">
<stop stop-color="white"/>
<stop offset="1" stop-color="#D6D5D5"/>
</linearGradient>
<linearGradient id="paint5_linear_842_9608" x1="12559.9" y1="23725.2" x2="7656.29" y2="14193.6" gradientUnits="userSpaceOnUse">
<stop stop-color="white"/>
<stop offset="1" stop-color="#D6D5D5"/>
</linearGradient>
<linearGradient id="paint6_linear_842_9608" x1="8467.34" y1="3836.81" x2="12859.8" y2="24187.3" gradientUnits="userSpaceOnUse">
<stop stop-color="#F9F9FB"/>
<stop offset="1" stop-color="#E5E8EF"/>
</linearGradient>
<linearGradient id="paint7_linear_842_9608" x1="825.311" y1="13955.9" x2="-1257.7" y2="9902.47" gradientUnits="userSpaceOnUse">
<stop stop-color="white"/>
<stop offset="1" stop-color="#D6D5D5"/>
</linearGradient>
<linearGradient id="paint8_linear_842_9608" x1="193.992" y1="5726.57" x2="18605" y2="5726.57" gradientUnits="userSpaceOnUse">
<stop stop-color="white"/>
<stop offset="1" stop-color="#D6D5D5"/>
</linearGradient>
<linearGradient id="paint9_linear_842_9608" x1="3596.09" y1="4.96686" x2="3596.09" y2="10052.9" gradientUnits="userSpaceOnUse">
<stop stop-color="#D6D5D5"/>
<stop offset="1" stop-color="white"/>
</linearGradient>
<linearGradient id="paint10_linear_842_9608" x1="125.063" y1="2594.92" x2="4070.68" y2="2594.92" gradientUnits="userSpaceOnUse">
<stop stop-color="#FFAC06"/>
<stop offset="1" stop-color="#FA8A13"/>
</linearGradient>
<linearGradient id="paint11_linear_842_9608" x1="155.502" y1="1757.11" x2="1686.36" y2="1757.11" gradientUnits="userSpaceOnUse">
<stop stop-color="#FFAC06"/>
<stop offset="1" stop-color="#FA8A13"/>
</linearGradient>
<linearGradient id="paint12_linear_842_9608" x1="125.021" y1="1850.83" x2="4030.22" y2="1850.83" gradientUnits="userSpaceOnUse">
<stop stop-color="white"/>
<stop offset="1" stop-color="#E5E8EF"/>
</linearGradient>
<linearGradient id="paint13_linear_842_9608" x1="888.422" y1="1463.08" x2="1189.2" y2="1607.29" gradientUnits="userSpaceOnUse">
<stop stop-color="#57BDB2"/>
<stop offset="1" stop-color="#089299"/>
</linearGradient>
<linearGradient id="paint14_linear_842_9608" x1="392.505" y1="1931.5" x2="1625.39" y2="1931.5" gradientUnits="userSpaceOnUse">
<stop stop-color="#FFAC06"/>
<stop offset="1" stop-color="#FA8A13"/>
</linearGradient>
<linearGradient id="paint15_linear_842_9608" x1="585.37" y1="210.955" x2="585.37" y2="3138.16" gradientUnits="userSpaceOnUse">
<stop stop-color="white"/>
<stop offset="1" stop-color="#D6D5D5"/>
</linearGradient>
<linearGradient id="paint16_linear_842_9608" x1="392.492" y1="684.443" x2="1986.49" y2="684.443" gradientUnits="userSpaceOnUse">
<stop stop-color="white"/>
<stop offset="1" stop-color="#D6D5D5"/>
</linearGradient>
<linearGradient id="paint17_linear_842_9608" x1="953.921" y1="2019.54" x2="1258.27" y2="2165.48" gradientUnits="userSpaceOnUse">
<stop stop-color="#57BDB2"/>
<stop offset="1" stop-color="#089299"/>
</linearGradient>
<linearGradient id="paint18_linear_842_9608" x1="413.092" y1="2590.03" x2="1645.88" y2="2590.03" gradientUnits="userSpaceOnUse">
<stop stop-color="#FFAC06"/>
<stop offset="1" stop-color="#FA8A13"/>
</linearGradient>
<linearGradient id="paint19_linear_842_9608" x1="606.008" y1="209.889" x2="606.008" y2="4456.39" gradientUnits="userSpaceOnUse">
<stop stop-color="white"/>
<stop offset="1" stop-color="#D6D5D5"/>
</linearGradient>
<linearGradient id="paint20_linear_842_9608" x1="413.08" y1="683.271" x2="2007.08" y2="683.271" gradientUnits="userSpaceOnUse">
<stop stop-color="white"/>
<stop offset="1" stop-color="#D6D5D5"/>
</linearGradient>
<linearGradient id="paint21_linear_842_9608" x1="996.707" y1="2586.28" x2="1325.08" y2="2743.73" gradientUnits="userSpaceOnUse">
<stop stop-color="#57BDB2"/>
<stop offset="1" stop-color="#089299"/>
</linearGradient>
<linearGradient id="paint22_linear_842_9608" x1="433.68" y1="3261.15" x2="1666.47" y2="3261.15" gradientUnits="userSpaceOnUse">
<stop stop-color="#FFAC06"/>
<stop offset="1" stop-color="#FA8A13"/>
</linearGradient>
<linearGradient id="paint23_linear_842_9608" x1="626.596" y1="208.565" x2="626.596" y2="5800.17" gradientUnits="userSpaceOnUse">
<stop stop-color="white"/>
<stop offset="1" stop-color="#D6D5D5"/>
</linearGradient>
<linearGradient id="paint24_linear_842_9608" x1="433.668" y1="681.798" x2="2027.67" y2="681.798" gradientUnits="userSpaceOnUse">
<stop stop-color="white"/>
<stop offset="1" stop-color="#D6D5D5"/>
</linearGradient>
<linearGradient id="paint25_linear_842_9608" x1="1026.95" y1="2993.58" x2="1377.66" y2="3161.72" gradientUnits="userSpaceOnUse">
<stop stop-color="#57BDB2"/>
<stop offset="1" stop-color="#089299"/>
</linearGradient>
<linearGradient id="paint26_linear_842_9608" x1="454.268" y1="3742.46" x2="1687.06" y2="3742.46" gradientUnits="userSpaceOnUse">
<stop stop-color="#FFAC06"/>
<stop offset="1" stop-color="#FA8A13"/>
</linearGradient>
<linearGradient id="paint27_linear_842_9608" x1="647.184" y1="211.1" x2="647.184" y2="6760.5" gradientUnits="userSpaceOnUse">
<stop stop-color="white"/>
<stop offset="1" stop-color="#D6D5D5"/>
</linearGradient>
<linearGradient id="paint28_linear_842_9608" x1="454.256" y1="684.443" x2="2048.26" y2="684.443" gradientUnits="userSpaceOnUse">
<stop stop-color="white"/>
<stop offset="1" stop-color="#D6D5D5"/>
</linearGradient>
<linearGradient id="paint29_linear_842_9608" x1="233.037" y1="7527.03" x2="11018.6" y2="7527.03" gradientUnits="userSpaceOnUse">
<stop stop-color="white"/>
<stop offset="1" stop-color="#D6D5D5"/>
</linearGradient>
<linearGradient id="paint30_linear_842_9608" x1="216.733" y1="7424.68" x2="11631.3" y2="7424.68" gradientUnits="userSpaceOnUse">
<stop stop-color="#FFAC06"/>
<stop offset="1" stop-color="#FA8A13"/>
</linearGradient>
<linearGradient id="paint31_linear_842_9608" x1="5311.5" y1="1327.11" x2="3995.95" y2="11505.4" gradientUnits="userSpaceOnUse">
<stop stop-color="#F9F9FB"/>
<stop offset="1" stop-color="#E5E8EF"/>
</linearGradient>
<linearGradient id="paint32_linear_842_9608" x1="236.847" y1="4859.26" x2="7620.48" y2="4859.26" gradientUnits="userSpaceOnUse">
<stop stop-color="#FFAC06"/>
<stop offset="1" stop-color="#FA8A13"/>
</linearGradient>
<linearGradient id="paint33_linear_842_9608" x1="3071.41" y1="291.802" x2="2334.6" y2="5991.96" gradientUnits="userSpaceOnUse">
<stop stop-color="#F9F9FB"/>
<stop offset="1" stop-color="#E5E8EF"/>
</linearGradient>
<linearGradient id="paint34_linear_842_9608" x1="257.636" y1="2210.58" x2="3477" y2="2210.58" gradientUnits="userSpaceOnUse">
<stop stop-color="#FFAC06"/>
<stop offset="1" stop-color="#FA8A13"/>
</linearGradient>
<linearGradient id="paint35_linear_842_9608" x1="5237.88" y1="1784.59" x2="4699.37" y2="5951.39" gradientUnits="userSpaceOnUse">
<stop stop-color="#FFAC06"/>
<stop offset="1" stop-color="#F66C1E"/>
</linearGradient>
<linearGradient id="paint36_linear_842_9608" x1="192.936" y1="2551.1" x2="8617.55" y2="2551.1" gradientUnits="userSpaceOnUse">
<stop stop-color="#FFAC06"/>
<stop offset="1" stop-color="#FA8A13"/>
</linearGradient>
<linearGradient id="paint37_linear_842_9608" x1="270.258" y1="1411.9" x2="954.358" y2="1411.9" gradientUnits="userSpaceOnUse">
<stop stop-color="white"/>
<stop offset="1" stop-color="#D6D5D5"/>
</linearGradient>
<linearGradient id="paint38_linear_842_9608" x1="243.674" y1="611.95" x2="1318.57" y2="611.95" gradientUnits="userSpaceOnUse">
<stop stop-color="white"/>
<stop offset="1" stop-color="#D6D5D5"/>
</linearGradient>
<linearGradient id="paint39_linear_842_9608" x1="260.328" y1="741.424" x2="1253.33" y2="741.424" gradientUnits="userSpaceOnUse">
<stop stop-color="white"/>
<stop offset="1" stop-color="#D6D5D5"/>
</linearGradient>
<linearGradient id="paint40_linear_842_9608" x1="164.916" y1="3735.64" x2="9715.52" y2="3735.64" gradientUnits="userSpaceOnUse">
<stop stop-color="#FFAC06"/>
<stop offset="1" stop-color="#FA8A13"/>
</linearGradient>
<linearGradient id="paint41_linear_842_9608" x1="158.916" y1="1409.55" x2="1839.72" y2="1409.55" gradientUnits="userSpaceOnUse">
<stop stop-color="white"/>
<stop offset="1" stop-color="#D6D5D5"/>
</linearGradient>
<linearGradient id="paint42_linear_842_9608" x1="702.801" y1="9031.54" x2="645.228" y2="3472.71" gradientUnits="userSpaceOnUse">
<stop stop-color="white"/>
<stop offset="1" stop-color="#D6D5D5"/>
</linearGradient>
<linearGradient id="paint43_linear_842_9608" x1="1357.97" y1="7699.52" x2="1299.88" y2="2140.71" gradientUnits="userSpaceOnUse">
<stop stop-color="white"/>
<stop offset="1" stop-color="#D6D5D5"/>
</linearGradient>
<linearGradient id="paint44_linear_842_9608" x1="1952.4" y1="9831.69" x2="1894.55" y2="4272.84" gradientUnits="userSpaceOnUse">
<stop stop-color="white"/>
<stop offset="1" stop-color="#D6D5D5"/>
</linearGradient>
<linearGradient id="paint45_linear_842_9608" x1="0.0832846" y1="4919.46" x2="8328.46" y2="4919.46" gradientUnits="userSpaceOnUse">
<stop stop-color="#FFAC06"/>
<stop offset="1" stop-color="#FA8A13"/>
</linearGradient>
<linearGradient id="paint46_linear_842_9608" x1="19.7402" y1="791.49" x2="4400.43" y2="791.49" gradientUnits="userSpaceOnUse">
<stop stop-color="white"/>
<stop offset="1" stop-color="#7CDAC9"/>
</linearGradient>
</defs>
</svg>
