          <svg width="530" height="438" viewBox="0 0 530 438" fill="none" xmlns="http://www.w3.org/2000/svg">
<path d="M330.65 95.3154L329.795 106.092C329.795 107.48 326.442 108.602 322.319 108.602C318.196 108.602 314.843 107.48 314.843 106.092L313.988 95.3154C313.988 96.8641 317.726 98.1137 322.34 98.1137C326.954 98.1137 330.65 96.8641 330.65 95.3154Z" fill="#090817"/>
<path d="M330.65 95.3154L329.795 106.092C329.795 107.48 326.442 108.602 322.319 108.602C318.196 108.602 314.843 107.48 314.843 106.092L313.988 95.3154C313.988 96.8641 317.726 98.1137 322.34 98.1137C326.954 98.1137 330.65 96.8641 330.65 95.3154Z" fill="white" fill-opacity="0.2"/>
<path d="M333.042 87.7163C333.042 89.7029 328.236 91.3102 322.303 91.3102C316.37 91.3102 311.559 89.7082 311.559 87.7163C311.559 85.7244 316.365 84.1171 322.303 84.1171C328.241 84.1171 333.042 85.7351 333.042 87.7163Z" fill="url(#paint0_linear_743_6233)"/>
<path d="M333.043 87.7163L331.943 101.601C331.943 103.384 327.629 104.831 322.331 104.831C317.034 104.831 312.655 103.363 312.655 101.579L311.555 87.6949C311.555 89.6815 316.361 91.2889 322.299 91.2889C328.237 91.2889 333.043 89.7028 333.043 87.7163Z" fill="#090817"/>
<path d="M333.043 87.7163L331.943 101.601C331.943 103.384 327.629 104.831 322.331 104.831C317.034 104.831 312.655 103.363 312.655 101.579L311.555 87.6949C311.555 89.6815 316.361 91.2889 322.299 91.2889C328.237 91.2889 333.043 89.7028 333.043 87.7163Z" fill="white" fill-opacity="0.2"/>
<path d="M322.303 93.5264C327.403 93.5264 331.659 92.3355 332.759 90.7388L333.042 87.7109C333.042 89.7028 328.236 91.3102 322.303 91.3102C316.37 91.3102 311.559 89.7082 311.559 87.7109L311.842 90.7388C312.942 92.3355 317.203 93.5264 322.303 93.5264Z" fill="#090817"/>
<path d="M322.305 97.8146C327.25 97.8146 331.384 96.6237 332.452 95.027L332.729 91.9991C332.729 93.991 328.062 95.5984 322.311 95.5984C316.559 95.5984 311.887 93.9964 311.887 91.9991L312.164 95.027C313.227 96.6237 317.355 97.8146 322.305 97.8146Z" fill="#090817"/>
<path d="M322.305 102.097C326.956 102.097 330.849 100.912 331.842 99.3151L332.104 96.2872C332.104 98.2738 327.714 99.8865 322.305 99.8865C316.895 99.8865 312.5 98.2844 312.5 96.2872L312.762 99.3151C313.766 100.912 317.648 102.097 322.305 102.097Z" fill="#090817"/>
<path d="M349.865 50.8158C349.865 37.2839 336.579 26.406 320.574 27.2444C306.871 27.96 295.7 37.4868 294.803 49.2245C294.484 53.3843 295.432 57.5431 297.521 61.1544L307.907 84.4962C310.188 89.612 315.918 91.3102 322.326 91.3102C322.326 91.3102 333.7 91.6627 336.744 84.4962L347.131 61.1544C348.928 58.0057 349.871 54.4415 349.865 50.8158Z" fill="url(#paint1_linear_743_6233)"/>
<path d="M396.798 312.441C396.798 345.048 330.356 371.476 248.39 371.476C166.424 371.476 99.9766 345.016 99.9766 312.441C99.9766 279.866 166.424 253.395 248.39 253.395C330.356 253.395 396.798 279.823 396.798 312.441Z" fill="url(#paint2_linear_743_6233)"/>
<path d="M396.798 312.44V362.317C396.798 394.924 330.356 421.38 248.39 421.38C166.424 421.38 99.9766 394.924 99.9766 362.317V312.44C99.9766 345.047 166.424 371.476 248.39 371.476C330.356 371.476 396.798 345.015 396.798 312.44Z" fill="url(#paint3_linear_743_6233)"/>
<path d="M341.093 296.858V320.451C341.093 338.169 309.709 352.956 267.858 356.513V333.737L267.441 332.957C309.5 329.465 341.093 314.635 341.093 296.858Z" fill="#EA6016"/>
<path d="M341.093 296.858V320.451C341.093 338.169 309.709 352.956 267.858 356.513V333.737L267.441 332.957C309.5 329.465 341.093 314.635 341.093 296.858Z" fill="black" fill-opacity="0.15"/>
<path d="M341.09 296.858C341.09 314.635 309.498 329.465 267.439 332.957L248.391 296.858L329.096 278.701C336.733 284.068 341.09 290.263 341.09 296.858Z" fill="#EA6016"/>
<path d="M248.393 284.186L267.441 320.285C261.289 320.819 254.924 321.065 248.393 321.065C197.191 321.065 155.688 304.559 155.688 284.186C155.688 263.813 197.191 247.339 248.393 247.339C283.002 247.339 313.174 254.879 329.098 266.056L248.393 284.186Z" fill="url(#paint4_linear_743_6233)"/>
<path d="M267.441 320.29C261.289 320.798 254.924 321.065 248.393 321.065C197.191 321.065 155.688 304.558 155.688 284.218V320.451C155.688 340.823 197.191 357.33 248.393 357.33C255.073 357.33 261.577 357.047 267.857 356.513V321.065L267.441 320.29Z" fill="url(#paint5_linear_743_6233)"/>
<path d="M329.097 266.034V278.707L254.372 295.517L248.391 284.186L329.097 266.034Z" fill="url(#paint6_linear_743_6233)"/>
<path d="M160.711 215.18H188.4C189.178 215.18 189.809 215.812 189.809 216.59V254.185C189.809 254.964 189.178 255.595 188.4 255.595H160.711V215.18Z" fill="#090817"/>
<path d="M183.834 215.18H159.116C157.906 215.18 156.926 216.161 156.926 217.37V253.41C156.926 254.62 157.906 255.6 159.116 255.6H183.834C185.043 255.6 186.024 254.62 186.024 253.41V217.37C186.024 216.161 185.043 215.18 183.834 215.18Z" fill="url(#paint7_linear_743_6233)"/>
<path d="M207.164 181.564H234.853C235.631 181.564 236.263 182.195 236.263 182.974V254.19C236.263 254.969 235.631 255.6 234.853 255.6H207.164V181.564Z" fill="#090817"/>
<path d="M230.287 181.564H205.569C204.359 181.564 203.379 182.545 203.379 183.754V253.41C203.379 254.62 204.359 255.6 205.569 255.6H230.287C231.496 255.6 232.477 254.62 232.477 253.41V183.754C232.477 182.545 231.496 181.564 230.287 181.564Z" fill="url(#paint8_linear_743_6233)"/>
<path d="M253.617 131.602H281.306C282.084 131.602 282.716 132.233 282.716 133.011V254.19C282.716 254.969 282.084 255.6 281.306 255.6H253.617V131.602Z" fill="#090817"/>
<path d="M276.74 121.601H252.022C250.813 121.601 249.832 122.582 249.832 123.791V253.409C249.832 254.619 250.813 255.599 252.022 255.599H276.74C277.95 255.599 278.93 254.619 278.93 253.409V123.791C278.93 122.582 277.95 121.601 276.74 121.601Z" fill="url(#paint9_linear_743_6233)"/>
<path d="M300.074 151.344H327.763C328.542 151.344 329.173 151.975 329.173 152.754V254.19C329.173 254.969 328.542 255.6 327.763 255.6H300.074V151.344Z" fill="#090817"/>
<path d="M323.189 141.344H298.471C297.262 141.344 296.281 142.325 296.281 143.534V253.415C296.281 254.625 297.262 255.605 298.471 255.605H323.189C324.399 255.605 325.379 254.625 325.379 253.415V143.534C325.379 142.325 324.399 141.344 323.189 141.344Z" fill="url(#paint10_linear_743_6233)"/>
<path d="M85.269 275.535L210.335 172.406C215.389 168.237 222.643 168.08 227.872 172.027L270.348 204.068C274.361 207.098 280.009 206.639 283.479 202.999L336.726 147.142C339.206 144.544 339.139 140.435 336.577 137.919L326.238 129.551L323.995 125.562L397.326 105.157L399.569 109.146L375.287 175.305L364.874 167.06C362.25 164.989 358.49 165.219 356.138 167.594L283.196 240.792C279.693 244.305 274.13 244.684 270.182 241.678L223.526 206.172C218.913 202.659 212.624 202.314 207.655 205.301L87.6934 281.158C86.1982 282.06 83.9233 276.662 85.269 275.535Z" fill="url(#paint11_linear_743_6233)"/>
<path d="M87.5146 279.524L212.581 176.395C217.635 172.226 224.889 172.069 230.118 176.016L272.594 208.057C276.607 211.087 282.254 210.628 285.725 206.989L338.972 151.168C341.449 148.567 341.383 144.459 338.822 141.94L326.241 129.588L399.572 109.184L377.533 179.295L367.125 171.044C364.5 168.978 360.743 169.208 358.388 171.578L285.421 244.776C281.927 248.284 276.378 248.674 272.428 245.689L225.771 210.134C221.159 206.621 214.871 206.274 209.9 209.258L89.138 281.82C88.5053 282.202 87.6853 282.03 87.2587 281.427C86.8321 280.823 86.9438 279.993 87.5146 279.524Z" fill="#EA6016"/>
<path d="M263.831 49.6781H121.6C119.377 49.6781 117.574 51.4806 117.574 53.7041V53.7051C117.574 55.9286 119.377 57.7311 121.6 57.7311H263.831C266.055 57.7311 267.857 55.9286 267.857 53.7051V53.7041C267.857 51.4806 266.055 49.6781 263.831 49.6781Z" fill="url(#paint12_linear_743_6233)"/>
<path d="M255.089 49.6781H121.6C119.377 49.6781 117.574 51.4806 117.574 53.7041V53.7051C117.574 55.9286 119.377 57.7311 121.6 57.7311H255.089C257.313 57.7311 259.115 55.9286 259.115 53.7051V53.7041C259.115 51.4806 257.313 49.6781 255.089 49.6781Z" fill="url(#paint13_linear_743_6233)"/>
<path d="M255.089 49.6781H121.6C119.377 49.6781 117.574 51.4806 117.574 53.7041V53.7051C117.574 55.9286 119.377 57.7311 121.6 57.7311H255.089C257.313 57.7311 259.115 55.9286 259.115 53.7051V53.7041C259.115 51.4806 257.313 49.6781 255.089 49.6781Z" fill="#EA6016"/>
<path d="M263.831 70.3872H121.6C119.377 70.3872 117.574 72.1897 117.574 74.4132V74.4142C117.574 76.6377 119.377 78.4402 121.6 78.4402H263.831C266.055 78.4402 267.857 76.6377 267.857 74.4142V74.4132C267.857 72.1897 266.055 70.3872 263.831 70.3872Z" fill="url(#paint14_linear_743_6233)"/>
<path d="M238.678 70.3872H121.6C119.377 70.3872 117.574 72.1897 117.574 74.4132V74.4142C117.574 76.6377 119.377 78.4402 121.6 78.4402H238.678C240.902 78.4402 242.704 76.6377 242.704 74.4142V74.4132C242.704 72.1897 240.902 70.3872 238.678 70.3872Z" fill="url(#paint15_linear_743_6233)"/>
<path d="M238.678 70.3872H121.6C119.377 70.3872 117.574 72.1897 117.574 74.4132V74.4142C117.574 76.6377 119.377 78.4402 121.6 78.4402H238.678C240.902 78.4402 242.704 76.6377 242.704 74.4142V74.4132C242.704 72.1897 240.902 70.3872 238.678 70.3872Z" fill="#EA6016"/>
<path d="M263.831 91.0962H121.6C119.377 91.0962 117.574 92.8987 117.574 95.1222V95.1232C117.574 97.3467 119.377 99.1492 121.6 99.1492H263.831C266.055 99.1492 267.857 97.3467 267.857 95.1232V95.1222C267.857 92.8987 266.055 91.0962 263.831 91.0962Z" fill="url(#paint16_linear_743_6233)"/>
<path d="M215.246 91.0962H121.6C119.377 91.0962 117.574 92.8987 117.574 95.1222V95.1232C117.574 97.3467 119.377 99.1492 121.6 99.1492H215.246C217.47 99.1492 219.272 97.3467 219.272 95.1232V95.1222C219.272 92.8987 217.47 91.0962 215.246 91.0962Z" fill="url(#paint17_linear_743_6233)"/>
<path d="M215.246 91.0962H121.6C119.377 91.0962 117.574 92.8987 117.574 95.1222V95.1232C117.574 97.3467 119.377 99.1492 121.6 99.1492H215.246C217.47 99.1492 219.272 97.3467 219.272 95.1232V95.1222C219.272 92.8987 217.47 91.0962 215.246 91.0962Z" fill="#EA6016"/>
<path d="M252.728 51.0671H247.083C245.626 51.0671 244.445 52.2482 244.445 53.7051C244.445 55.1621 245.626 56.3431 247.083 56.3431H252.728C254.185 56.3431 255.366 55.1621 255.366 53.7051C255.366 52.2482 254.185 51.0671 252.728 51.0671Z" fill="white"/>
<path d="M236.99 71.7762H231.345C229.888 71.7762 228.707 72.9573 228.707 74.4142C228.707 75.8712 229.888 77.0522 231.345 77.0522H236.99C238.447 77.0522 239.628 75.8712 239.628 74.4142C239.628 72.9573 238.447 71.7762 236.99 71.7762Z" fill="white"/>
<path d="M214.978 92.4852H209.333C207.876 92.4852 206.695 93.6663 206.695 95.1232C206.695 96.5802 207.876 97.7612 209.333 97.7612H214.978C216.435 97.7612 217.616 96.5802 217.616 95.1232C217.616 93.6663 216.435 92.4852 214.978 92.4852Z" fill="white"/>
<path d="M175.111 117.349C163.613 117.347 153.246 124.272 148.845 134.894C144.444 145.516 146.876 157.744 155.006 165.874C163.137 174.005 175.364 176.436 185.987 172.035C196.609 167.634 203.534 157.267 203.532 145.769C203.532 130.073 190.808 117.349 175.111 117.349ZM175.111 167.883C162.898 167.883 152.998 157.982 152.998 145.769C152.998 133.556 162.898 123.656 175.111 123.656C187.324 123.656 197.225 133.556 197.225 145.769C197.225 157.982 187.324 167.883 175.111 167.883Z" fill="url(#paint18_linear_743_6233)"/>
<path d="M175.111 117.349C163.613 117.347 153.246 124.272 148.845 134.894C144.444 145.516 146.876 157.744 155.006 165.874C163.137 174.005 175.364 176.436 185.987 172.035C196.609 167.634 203.534 157.267 203.532 145.769C203.532 130.073 190.808 117.349 175.111 117.349ZM175.111 167.883C162.898 167.883 152.998 157.982 152.998 145.769C152.998 133.556 162.898 123.656 175.111 123.656C187.324 123.656 197.225 133.556 197.225 145.769C197.225 157.982 187.324 167.883 175.111 167.883Z" fill="#EA6016"/>
<path d="M176.186 167.375C176.186 166.785 175.707 166.307 175.117 166.307C163.763 166.307 154.558 157.102 154.558 145.748C154.558 134.393 163.763 125.188 175.117 125.188C175.707 125.188 176.186 124.71 176.186 124.12V116.841C176.186 116.266 175.73 115.794 175.155 115.773H175.112C158.709 115.992 145.527 129.352 145.527 145.756C145.527 162.16 158.709 175.519 175.112 175.738H175.155C175.73 175.718 176.186 175.246 176.186 174.67V167.375Z" fill="#090817"/>
<path d="M176.186 167.375C176.186 166.785 175.707 166.307 175.117 166.307C163.763 166.307 154.558 157.102 154.558 145.748C154.558 134.393 163.763 125.188 175.117 125.188C175.707 125.188 176.186 124.71 176.186 124.12V116.841C176.186 116.266 175.73 115.794 175.155 115.773H175.112C158.709 115.992 145.527 129.352 145.527 145.756C145.527 162.16 158.709 175.519 175.112 175.738H175.155C175.73 175.718 176.186 175.246 176.186 174.67V167.375Z" fill="white" fill-opacity="0.2"/>
<path opacity="0.2" d="M161.224 145.833H160.034C158.824 145.833 157.844 146.814 157.844 148.023V152.892C157.844 154.102 158.824 155.082 160.034 155.082H161.224C162.433 155.082 163.414 154.102 163.414 152.892V148.023C163.414 146.814 162.433 145.833 161.224 145.833Z" fill="#090817"/>
<path opacity="0.2" d="M170.114 140.915H168.924C167.715 140.915 166.734 141.896 166.734 143.105V152.898C166.734 154.108 167.715 155.088 168.924 155.088H170.114C171.324 155.088 172.304 154.108 172.304 152.898V143.105C172.304 141.896 171.324 140.915 170.114 140.915Z" fill="#090817"/>
<path opacity="0.2" d="M179.005 131.35H177.815C176.605 131.35 175.625 132.331 175.625 133.54V152.897C175.625 154.107 176.605 155.087 177.815 155.087H179.005C180.215 155.087 181.195 154.107 181.195 152.897V133.54C181.195 132.331 180.215 131.35 179.005 131.35Z" fill="#090817"/>
<path opacity="0.2" d="M187.896 135.126H186.706C185.496 135.126 184.516 136.107 184.516 137.316V152.892C184.516 154.102 185.496 155.082 186.706 155.082H187.896C189.105 155.082 190.086 154.102 190.086 152.892V137.316C190.086 136.107 189.105 135.126 187.896 135.126Z" fill="#090817"/>
<path d="M434.529 278.392L466.239 230.571C466.784 229.751 466.977 228.748 466.776 227.784C466.576 226.821 465.998 225.978 465.171 225.444L401.912 184.774C399.897 183.479 397.216 184.043 395.893 186.039L364.504 233.374L430.674 278.392H434.529Z" fill="url(#paint19_linear_743_6233)"/>
<path d="M430.673 278.392L462.388 230.571C462.932 229.751 463.126 228.748 462.925 227.784C462.725 226.821 462.146 225.978 461.32 225.444L398.039 184.774C396.026 183.479 393.347 184.043 392.026 186.039L360.637 233.374L430.673 278.392Z" fill="#090817"/>
<path d="M363.602 232.509L394.115 186.498C394.352 186.14 394.754 185.925 395.183 185.927C395.426 185.924 395.665 185.995 395.867 186.13L461.017 228.002C461.144 228.083 461.235 228.212 461.268 228.36C461.297 228.508 461.266 228.662 461.182 228.787L430.289 275.375L363.602 232.509Z" fill="white"/>
<path d="M386.942 288.116L428.456 282.114L430.656 278.376L359.307 237.358L320.927 239.2C319.512 239.403 318.257 245.075 319.469 245.87L383.626 287.39C384.606 288.027 385.785 288.286 386.942 288.116Z" fill="#090817"/>
<path d="M388.273 284.138L430.674 278.392L360.654 233.374L321.436 239.046C320.796 239.137 320.279 239.616 320.141 240.248C320.003 240.88 320.272 241.531 320.816 241.881L384.973 283.406C385.949 284.039 387.121 284.299 388.273 284.138Z" fill="url(#paint20_linear_743_6233)"/>
<path d="M416.53 273.19L361.981 238.212C361.134 237.669 360.117 237.458 359.124 237.62L343.018 240.226C342.524 240.324 342.137 240.709 342.037 241.202C341.936 241.696 342.142 242.201 342.559 242.485L396.051 276.795C396.939 277.361 397.995 277.606 399.041 277.489L415.97 275.594C416.513 275.521 416.956 275.12 417.08 274.586C417.205 274.052 416.986 273.496 416.53 273.19Z" fill="#090817"/>
<path d="M365.04 241.603L362.904 240.375C362.769 240.3 362.614 240.27 362.461 240.29L360.025 240.669C359.946 240.677 359.882 240.738 359.869 240.817C359.857 240.896 359.899 240.973 359.972 241.005L361.916 242.132C362.056 242.216 362.219 242.251 362.38 242.234L364.986 241.951C365.063 241.935 365.123 241.873 365.135 241.796C365.147 241.718 365.109 241.641 365.04 241.603Z" fill="url(#paint21_linear_743_6233)"/>
<path d="M368.391 243.782L366.255 242.554C366.122 242.473 365.965 242.443 365.812 242.469L363.377 242.848C363.298 242.858 363.236 242.919 363.224 242.998C363.213 243.076 363.256 243.153 363.329 243.184L365.267 244.311C365.408 244.392 365.57 244.427 365.732 244.412L368.306 244.135C368.391 244.134 368.466 244.075 368.486 243.992C368.506 243.909 368.467 243.822 368.391 243.782Z" fill="url(#paint22_linear_743_6233)"/>
<path d="M371.744 245.956L369.635 244.733C369.502 244.653 369.345 244.623 369.191 244.647L366.751 245.026C366.676 245.04 366.618 245.1 366.607 245.175C366.596 245.25 366.635 245.324 366.703 245.358L368.641 246.484C368.78 246.569 368.944 246.605 369.106 246.586L371.68 246.308C371.762 246.299 371.828 246.237 371.843 246.156C371.858 246.074 371.818 245.993 371.744 245.956Z" fill="url(#paint23_linear_743_6233)"/>
<path d="M375.091 248.134L372.982 246.906C372.847 246.831 372.692 246.801 372.539 246.821L370.104 247.2C370.024 247.208 369.96 247.269 369.948 247.348C369.935 247.427 369.977 247.504 370.05 247.536L371.994 248.663C372.134 248.747 372.297 248.782 372.459 248.765L375.027 248.487C375.109 248.478 375.176 248.416 375.191 248.335C375.205 248.253 375.165 248.172 375.091 248.134Z" fill="url(#paint24_linear_743_6233)"/>
<path d="M378.442 250.313L376.306 249.085C376.173 249.005 376.016 248.974 375.863 249L373.427 249.379C373.349 249.389 373.286 249.45 373.275 249.529C373.264 249.607 373.307 249.684 373.379 249.715L375.318 250.842C375.459 250.923 375.621 250.958 375.782 250.943L378.356 250.666C378.442 250.665 378.517 250.606 378.537 250.523C378.557 250.44 378.518 250.353 378.442 250.313Z" fill="url(#paint25_linear_743_6233)"/>
<path d="M381.789 252.487L379.685 251.264C379.552 251.184 379.395 251.154 379.242 251.178L376.802 251.557C376.727 251.571 376.669 251.631 376.658 251.706C376.647 251.781 376.686 251.855 376.754 251.889L378.692 253.015C378.831 253.1 378.995 253.136 379.157 253.117L381.731 252.839C381.812 252.828 381.877 252.766 381.89 252.685C381.904 252.604 381.863 252.523 381.789 252.487Z" fill="url(#paint26_linear_743_6233)"/>
<path d="M385.143 254.665L383.006 253.437C382.872 253.362 382.716 253.332 382.563 253.352L380.123 253.731C380.044 253.741 379.982 253.802 379.971 253.881C379.959 253.959 380.002 254.036 380.075 254.067L382.019 255.194C382.158 255.278 382.321 255.313 382.483 255.296L385.052 255.018C385.139 255.02 385.215 254.962 385.237 254.878C385.258 254.794 385.219 254.706 385.143 254.665Z" fill="url(#paint27_linear_743_6233)"/>
<path d="M388.485 256.844L386.349 255.616C386.216 255.536 386.059 255.505 385.906 255.531L383.47 255.91C383.392 255.92 383.329 255.981 383.318 256.06C383.307 256.138 383.35 256.215 383.422 256.246L385.361 257.373C385.501 257.454 385.664 257.489 385.825 257.474L388.399 257.197C388.485 257.196 388.56 257.137 388.58 257.054C388.6 256.971 388.561 256.884 388.485 256.844Z" fill="url(#paint28_linear_743_6233)"/>
<path d="M391.84 259.039L389.736 257.816C389.603 257.736 389.446 257.706 389.293 257.73L386.852 258.11C386.778 258.123 386.72 258.183 386.709 258.258C386.698 258.333 386.736 258.407 386.804 258.441L388.743 259.568C388.882 259.653 389.046 259.689 389.207 259.669L391.781 259.391C391.863 259.38 391.927 259.318 391.941 259.237C391.954 259.156 391.914 259.076 391.84 259.039Z" fill="url(#paint29_linear_743_6233)"/>
<path d="M395.194 261.175L393.085 259.947C392.95 259.871 392.794 259.841 392.641 259.861L390.201 260.24C390.122 260.25 390.06 260.312 390.049 260.39C390.037 260.469 390.08 260.545 390.153 260.577L392.097 261.704C392.236 261.787 392.399 261.823 392.561 261.805L395.13 261.527C395.212 261.518 395.278 261.456 395.293 261.375C395.308 261.294 395.268 261.212 395.194 261.175Z" fill="url(#paint30_linear_743_6233)"/>
<path d="M398.54 263.375L396.403 262.147C396.271 262.066 396.113 262.036 395.96 262.061L393.525 262.441C393.446 262.451 393.384 262.512 393.373 262.59C393.362 262.669 393.404 262.745 393.477 262.777L395.416 263.904C395.556 263.985 395.719 264.02 395.88 264.005L398.454 263.728C398.54 263.727 398.614 263.668 398.634 263.585C398.655 263.501 398.616 263.415 398.54 263.375Z" fill="url(#paint31_linear_743_6233)"/>
<path d="M360.392 242.367L358.283 241.139C358.149 241.061 357.993 241.03 357.839 241.053L355.404 241.433C355.325 241.441 355.261 241.501 355.248 241.58C355.236 241.659 355.278 241.737 355.351 241.769L357.295 242.896C357.435 242.977 357.598 243.012 357.759 242.997L360.328 242.72C360.41 242.71 360.477 242.649 360.491 242.567C360.506 242.486 360.466 242.404 360.392 242.367Z" fill="url(#paint32_linear_743_6233)"/>
<path d="M363.739 244.541L361.63 243.318C361.497 243.237 361.34 243.207 361.187 243.232L358.752 243.611C358.673 243.621 358.611 243.683 358.599 243.761C358.588 243.84 358.631 243.916 358.704 243.948L360.642 245.075C360.783 245.155 360.945 245.191 361.107 245.176L363.681 244.898C363.766 244.891 363.836 244.827 363.85 244.742C363.863 244.658 363.818 244.575 363.739 244.541Z" fill="url(#paint33_linear_743_6233)"/>
<path d="M367.091 246.719L364.955 245.496C364.822 245.417 364.665 245.385 364.512 245.406L362.071 245.79C361.996 245.803 361.939 245.863 361.928 245.938C361.917 246.014 361.955 246.087 362.023 246.121L363.962 247.248C364.102 247.33 364.264 247.366 364.426 247.35L367 247.072C367.087 247.074 367.164 247.016 367.185 246.932C367.207 246.848 367.168 246.76 367.091 246.719Z" fill="url(#paint34_linear_743_6233)"/>
<path d="M370.439 248.893L368.303 247.665C368.17 247.586 368.013 247.556 367.86 247.579L365.42 247.958C365.341 247.968 365.279 248.03 365.267 248.108C365.256 248.187 365.299 248.263 365.372 248.295L367.315 249.422C367.456 249.503 367.618 249.538 367.78 249.523L370.349 249.245C370.435 249.247 370.512 249.189 370.534 249.105C370.555 249.021 370.516 248.933 370.439 248.893Z" fill="url(#paint35_linear_743_6233)"/>
<path d="M373.79 251.072L371.653 249.849C371.521 249.768 371.363 249.738 371.21 249.763L368.775 250.142C368.696 250.152 368.634 250.214 368.623 250.292C368.612 250.371 368.654 250.447 368.727 250.479L370.666 251.606C370.806 251.687 370.968 251.722 371.13 251.707L373.704 251.429C373.794 251.434 373.875 251.374 373.896 251.286C373.917 251.198 373.872 251.108 373.79 251.072Z" fill="url(#paint36_linear_743_6233)"/>
<path d="M377.137 253.25L375.033 252.027C374.9 251.948 374.744 251.916 374.59 251.937L372.149 252.321C372.075 252.334 372.017 252.394 372.006 252.469C371.995 252.545 372.033 252.618 372.101 252.652L374.04 253.779C374.18 253.862 374.343 253.898 374.504 253.881L377.078 253.603C377.16 253.592 377.224 253.529 377.238 253.448C377.251 253.367 377.21 253.287 377.137 253.25Z" fill="url(#paint37_linear_743_6233)"/>
<path d="M380.475 255.429L378.366 254.201C378.232 254.123 378.076 254.092 377.923 254.115L375.482 254.495C375.403 254.505 375.341 254.566 375.33 254.644C375.319 254.723 375.361 254.799 375.434 254.831L377.378 255.958C377.519 256.039 377.681 256.074 377.843 256.059L380.411 255.782C380.493 255.772 380.56 255.711 380.575 255.629C380.589 255.548 380.549 255.467 380.475 255.429Z" fill="url(#paint38_linear_743_6233)"/>
<path d="M383.837 257.603L381.728 256.369C381.595 256.289 381.438 256.258 381.284 256.284L378.849 256.663C378.771 256.673 378.708 256.734 378.697 256.813C378.686 256.891 378.729 256.968 378.801 256.999L380.74 258.126C380.88 258.207 381.043 258.242 381.204 258.227L383.778 257.95C383.856 257.936 383.917 257.875 383.93 257.797C383.943 257.719 383.906 257.641 383.837 257.603Z" fill="url(#paint39_linear_743_6233)"/>
<path d="M387.187 259.781L385.051 258.558C384.918 258.478 384.762 258.446 384.608 258.467L382.173 258.852C382.098 258.865 382.04 258.925 382.029 259C382.018 259.075 382.057 259.149 382.125 259.183L384.063 260.31C384.203 260.393 384.366 260.428 384.528 260.411L387.102 260.134C387.187 260.133 387.262 260.074 387.282 259.991C387.302 259.907 387.263 259.821 387.187 259.781Z" fill="url(#paint40_linear_743_6233)"/>
<path d="M390.541 261.96L388.405 260.732C388.271 260.654 388.115 260.624 387.962 260.646L385.521 261.025C385.443 261.035 385.38 261.097 385.369 261.175C385.358 261.254 385.4 261.33 385.473 261.362L387.417 262.489C387.556 262.569 387.716 262.605 387.876 262.59L390.45 262.312C390.537 262.314 390.614 262.256 390.635 262.172C390.657 262.088 390.618 262 390.541 261.96Z" fill="url(#paint41_linear_743_6233)"/>
<path d="M393.891 264.133L391.755 262.911C391.622 262.83 391.465 262.8 391.312 262.825L388.877 263.204C388.802 263.219 388.745 263.279 388.733 263.354C388.721 263.429 388.757 263.503 388.823 263.541L390.767 264.667C390.908 264.748 391.07 264.784 391.232 264.769L393.806 264.491C393.896 264.496 393.977 264.436 393.998 264.348C394.019 264.26 393.974 264.17 393.891 264.133Z" fill="url(#paint42_linear_743_6233)"/>
<path d="M355.741 243.131L353.631 241.903C353.499 241.822 353.341 241.792 353.188 241.817L350.748 242.196C350.669 242.206 350.607 242.268 350.596 242.346C350.584 242.425 350.627 242.501 350.7 242.533L352.644 243.659C352.784 243.741 352.947 243.776 353.108 243.761L355.677 243.483C355.759 243.474 355.825 243.412 355.84 243.331C355.855 243.25 355.815 243.168 355.741 243.131Z" fill="url(#paint43_linear_743_6233)"/>
<path d="M359.113 245.304L356.977 244.087C356.844 244.006 356.687 243.976 356.534 244.001L354.099 244.38C354.024 244.394 353.966 244.453 353.955 244.529C353.944 244.604 353.983 244.677 354.05 244.711L355.989 245.838C356.128 245.924 356.292 245.96 356.454 245.94L359.028 245.662C359.118 245.667 359.199 245.607 359.22 245.519C359.241 245.431 359.196 245.341 359.113 245.304Z" fill="url(#paint44_linear_743_6233)"/>
<path d="M362.435 247.483L360.331 246.255C360.196 246.18 360.041 246.15 359.887 246.169L357.447 246.549C357.368 246.558 357.306 246.62 357.295 246.698C357.284 246.777 357.326 246.853 357.399 246.885L359.337 248.012C359.477 248.095 359.64 248.13 359.802 248.113L362.376 247.835C362.457 247.825 362.522 247.762 362.536 247.681C362.549 247.6 362.508 247.52 362.435 247.483Z" fill="url(#paint45_linear_743_6233)"/>
<path d="M365.791 249.662L363.655 248.434C363.522 248.353 363.365 248.323 363.212 248.348L360.771 248.727C360.693 248.737 360.63 248.799 360.619 248.877C360.608 248.956 360.65 249.032 360.723 249.064L362.667 250.19C362.808 250.272 362.97 250.307 363.132 250.292L365.7 250.014C365.787 250.016 365.864 249.958 365.885 249.874C365.907 249.79 365.868 249.702 365.791 249.662Z" fill="url(#paint46_linear_743_6233)"/>
<path d="M369.137 251.835L367.028 250.612C366.895 250.532 366.738 250.502 366.584 250.527L364.149 250.906C364.075 250.919 364.017 250.979 364.006 251.054C363.995 251.129 364.033 251.203 364.101 251.237L366.056 252.364C366.194 252.45 366.358 252.486 366.52 252.465L369.094 252.188C369.173 252.172 369.233 252.107 369.243 252.027C369.253 251.947 369.21 251.869 369.137 251.835Z" fill="url(#paint47_linear_743_6233)"/>
<path d="M372.466 254.014L370.357 252.786C370.222 252.71 370.066 252.68 369.913 252.7L367.478 253.08C367.4 253.09 367.337 253.151 367.326 253.229C367.315 253.308 367.357 253.384 367.43 253.416L369.369 254.543C369.509 254.626 369.672 254.661 369.833 254.644L372.407 254.366C372.489 254.356 372.553 254.293 372.567 254.212C372.58 254.131 372.539 254.051 372.466 254.014Z" fill="url(#paint48_linear_743_6233)"/>
<path d="M375.838 256.193L373.702 254.965C373.568 254.887 373.412 254.857 373.259 254.879L370.818 255.258C370.739 255.268 370.677 255.33 370.666 255.408C370.655 255.487 370.697 255.563 370.77 255.595L372.714 256.721C372.853 256.802 373.013 256.838 373.173 256.823L375.747 256.545C375.834 256.547 375.911 256.489 375.932 256.405C375.954 256.321 375.915 256.233 375.838 256.193Z" fill="url(#paint49_linear_743_6233)"/>
<path d="M379.187 258.366L377.051 257.143C376.918 257.063 376.761 257.032 376.608 257.058L374.173 257.437C374.097 257.448 374.038 257.507 374.026 257.583C374.014 257.658 374.051 257.733 374.119 257.768L376.063 258.895C376.202 258.981 376.366 259.017 376.528 258.996L379.102 258.718C379.188 258.718 379.262 258.659 379.282 258.576C379.302 258.492 379.263 258.406 379.187 258.366Z" fill="url(#paint50_linear_743_6233)"/>
<path d="M382.536 260.545L380.4 259.317C380.265 259.241 380.109 259.211 379.956 259.231L377.521 259.61C377.443 259.62 377.38 259.682 377.369 259.76C377.358 259.839 377.4 259.915 377.473 259.947L379.412 261.073C379.551 261.157 379.714 261.192 379.876 261.175L382.45 260.897C382.536 260.897 382.61 260.838 382.631 260.754C382.651 260.671 382.612 260.585 382.536 260.545Z" fill="url(#paint51_linear_743_6233)"/>
<path d="M385.889 262.724L383.78 261.495C383.646 261.418 383.49 261.388 383.337 261.41L380.896 261.789C380.818 261.799 380.755 261.86 380.744 261.939C380.733 262.017 380.775 262.094 380.848 262.125L382.787 263.252C382.928 263.332 383.09 263.368 383.251 263.354L385.825 263.076C385.907 263.067 385.974 263.005 385.989 262.924C386.003 262.842 385.963 262.761 385.889 262.724Z" fill="url(#paint52_linear_743_6233)"/>
<path d="M389.239 264.913L387.129 263.69C386.996 263.61 386.839 263.579 386.686 263.605L384.251 263.984C384.175 263.995 384.116 264.054 384.104 264.13C384.092 264.205 384.13 264.28 384.198 264.315L386.141 265.442C386.28 265.528 386.444 265.564 386.606 265.543L389.175 265.265C389.257 265.256 389.323 265.194 389.338 265.113C389.353 265.032 389.312 264.95 389.239 264.913Z" fill="url(#paint53_linear_743_6233)"/>
<path d="M351.103 243.889L348.967 242.666C348.835 242.586 348.677 242.555 348.524 242.581L346.084 242.96C346.005 242.97 345.943 243.031 345.931 243.11C345.92 243.188 345.963 243.265 346.036 243.296L347.979 244.423C348.12 244.504 348.282 244.54 348.444 244.525L351.013 244.247C351.098 244.244 351.171 244.185 351.192 244.102C351.213 244.019 351.177 243.932 351.103 243.889Z" fill="url(#paint54_linear_743_6233)"/>
<path d="M354.437 246.068L352.301 244.845C352.168 244.765 352.012 244.733 351.858 244.754L349.423 245.139C349.348 245.152 349.29 245.212 349.279 245.287C349.268 245.362 349.307 245.436 349.375 245.47L351.313 246.597C351.453 246.68 351.616 246.716 351.778 246.698L354.352 246.42C354.437 246.42 354.512 246.361 354.532 246.277C354.552 246.194 354.513 246.108 354.437 246.068Z" fill="url(#paint55_linear_743_6233)"/>
<path d="M357.786 248.247L355.65 247.018C355.516 246.94 355.36 246.91 355.206 246.933L352.771 247.312C352.693 247.322 352.63 247.384 352.619 247.462C352.608 247.541 352.65 247.617 352.723 247.649L354.662 248.775C354.802 248.856 354.965 248.892 355.126 248.877L357.7 248.599C357.786 248.599 357.86 248.54 357.881 248.456C357.901 248.373 357.862 248.287 357.786 248.247Z" fill="url(#paint56_linear_743_6233)"/>
<path d="M361.139 250.42L359.03 249.197C358.897 249.117 358.74 249.087 358.587 249.112L356.146 249.491C356.068 249.501 356.005 249.562 355.994 249.641C355.983 249.719 356.025 249.796 356.098 249.827L358.042 250.954C358.181 251.035 358.341 251.07 358.501 251.055L361.075 250.778C361.156 250.765 361.22 250.703 361.235 250.622C361.249 250.541 361.211 250.46 361.139 250.42Z" fill="url(#paint57_linear_743_6233)"/>
<path d="M364.485 252.599L362.375 251.376C362.242 251.296 362.086 251.264 361.932 251.285L359.497 251.67C359.422 251.681 359.362 251.74 359.35 251.816C359.338 251.891 359.376 251.966 359.444 252.001L361.388 253.128C361.527 253.211 361.69 253.247 361.852 253.229L364.426 252.951C364.507 252.94 364.572 252.878 364.586 252.797C364.599 252.716 364.558 252.636 364.485 252.599Z" fill="url(#paint58_linear_743_6233)"/>
<path d="M367.836 254.767L365.7 253.539C365.567 253.46 365.41 253.43 365.257 253.453L362.822 253.832C362.743 253.842 362.681 253.904 362.67 253.982C362.659 254.061 362.701 254.137 362.774 254.169L364.712 255.296C364.853 255.376 365.015 255.412 365.177 255.397L367.751 255.119C367.837 255.119 367.911 255.06 367.931 254.977C367.951 254.893 367.912 254.807 367.836 254.767Z" fill="url(#paint59_linear_743_6233)"/>
<path d="M371.189 256.951L369.053 255.728C368.92 255.648 368.763 255.618 368.61 255.643L366.17 256.022C366.091 256.032 366.029 256.093 366.017 256.172C366.006 256.25 366.049 256.327 366.122 256.358L368.06 257.485C368.201 257.565 368.363 257.601 368.525 257.587L371.099 257.309C371.184 257.306 371.257 257.247 371.278 257.164C371.299 257.081 371.263 256.994 371.189 256.951Z" fill="url(#paint60_linear_743_6233)"/>
<path d="M374.535 259.13L372.399 257.907C372.266 257.827 372.109 257.795 371.956 257.816L369.521 258.2C369.445 258.212 369.386 258.271 369.373 258.347C369.361 258.422 369.399 258.497 369.467 258.532L371.411 259.658C371.551 259.742 371.714 259.777 371.876 259.76L374.444 259.482C374.531 259.484 374.608 259.426 374.629 259.342C374.651 259.258 374.612 259.17 374.535 259.13Z" fill="url(#paint61_linear_743_6233)"/>
<path d="M377.884 261.308L375.775 260.107C375.641 260.029 375.484 259.998 375.331 260.021L372.896 260.401C372.818 260.411 372.755 260.472 372.744 260.55C372.733 260.629 372.775 260.705 372.848 260.737L374.787 261.864C374.927 261.945 375.09 261.98 375.251 261.965L377.825 261.688C377.93 261.704 378.028 261.632 378.044 261.527C378.06 261.423 377.989 261.325 377.884 261.308Z" fill="url(#paint62_linear_743_6233)"/>
<path d="M381.237 263.482L379.128 262.243C378.995 262.163 378.838 262.133 378.684 262.157L376.244 262.537C376.165 262.547 376.103 262.608 376.092 262.687C376.08 262.765 376.123 262.841 376.196 262.873L378.134 264C378.275 264.08 378.437 264.115 378.599 264.101L381.173 263.824C381.245 263.805 381.3 263.746 381.313 263.673C381.327 263.6 381.297 263.525 381.237 263.482Z" fill="url(#paint63_linear_743_6233)"/>
<path d="M384.586 265.661L382.45 264.438C382.316 264.358 382.16 264.326 382.006 264.347L379.571 264.731C379.496 264.743 379.436 264.802 379.424 264.878C379.412 264.953 379.45 265.028 379.518 265.063L381.462 266.189C381.601 266.273 381.765 266.308 381.926 266.291L384.495 266.013C384.582 266.015 384.658 265.957 384.68 265.873C384.702 265.789 384.663 265.701 384.586 265.661Z" fill="url(#paint64_linear_743_6233)"/>
<path d="M402.168 265.661L400.032 264.438C399.899 264.358 399.742 264.326 399.588 264.347L397.153 264.732C397.078 264.745 397.021 264.805 397.01 264.88C396.999 264.955 397.037 265.029 397.105 265.063L399.044 266.189C399.183 266.272 399.346 266.308 399.508 266.291L402.082 266.013C402.168 266.013 402.242 265.954 402.263 265.87C402.283 265.787 402.244 265.701 402.168 265.661Z" fill="url(#paint65_linear_743_6233)"/>
<path d="M397.517 266.424L395.407 265.196C395.273 265.12 395.117 265.09 394.964 265.111L392.529 265.49C392.45 265.5 392.388 265.561 392.377 265.64C392.366 265.718 392.408 265.795 392.481 265.826L394.419 266.953C394.559 267.036 394.722 267.072 394.884 267.054L397.458 266.777C397.539 266.766 397.604 266.703 397.618 266.622C397.631 266.541 397.59 266.461 397.517 266.424Z" fill="url(#paint66_linear_743_6233)"/>
<path d="M392.864 267.188L390.728 265.96C390.594 265.881 390.438 265.851 390.284 265.874L387.849 266.253C387.771 266.263 387.708 266.325 387.697 266.403C387.686 266.482 387.729 266.558 387.801 266.59L389.74 267.717C389.881 267.797 390.043 267.833 390.204 267.818L392.778 267.54C392.864 267.54 392.938 267.481 392.959 267.397C392.979 267.314 392.94 267.228 392.864 267.188Z" fill="url(#paint67_linear_743_6233)"/>
<path d="M388.211 267.952L386.075 266.723C385.942 266.645 385.785 266.615 385.632 266.638L383.197 267.017C383.118 267.027 383.056 267.088 383.045 267.167C383.034 267.245 383.076 267.322 383.149 267.353L385.087 268.48C385.228 268.561 385.39 268.597 385.552 268.582L388.126 268.304C388.212 268.303 388.286 268.244 388.306 268.161C388.326 268.078 388.287 267.991 388.211 267.952Z" fill="url(#paint68_linear_743_6233)"/>
<path d="M405.799 267.952L403.69 266.723C403.556 266.646 403.4 266.616 403.247 266.638L400.806 267.017C400.728 267.027 400.665 267.088 400.654 267.167C400.643 267.246 400.686 267.322 400.758 267.354L402.697 268.48C402.838 268.56 403 268.596 403.161 268.582L405.735 268.304C405.817 268.295 405.884 268.233 405.899 268.152C405.914 268.07 405.873 267.989 405.799 267.952Z" fill="url(#paint69_linear_743_6233)"/>
<path d="M401.146 268.715L399.01 267.487C398.877 267.407 398.72 267.377 398.567 267.401L396.127 267.781C396.048 267.791 395.986 267.852 395.974 267.931C395.963 268.009 396.006 268.085 396.079 268.117L398.017 269.244C398.158 269.324 398.32 269.359 398.482 269.345L401.056 269.068C401.142 269.07 401.219 269.011 401.241 268.927C401.262 268.843 401.223 268.755 401.146 268.715Z" fill="url(#paint70_linear_743_6233)"/>
<path d="M396.496 269.474L394.392 268.251C394.259 268.171 394.102 268.14 393.949 268.165L391.509 268.544C391.434 268.558 391.376 268.617 391.365 268.693C391.354 268.768 391.393 268.841 391.461 268.875L393.399 270.002C393.538 270.087 393.702 270.123 393.864 270.104L396.438 269.826C396.519 269.815 396.584 269.752 396.597 269.671C396.611 269.59 396.57 269.51 396.496 269.474Z" fill="url(#paint71_linear_743_6233)"/>
<path d="M391.84 270.253L389.736 269.03C389.603 268.951 389.447 268.919 389.293 268.94L386.852 269.324C386.778 269.337 386.72 269.397 386.709 269.472C386.698 269.547 386.736 269.621 386.804 269.655L388.743 270.782C388.882 270.867 389.046 270.903 389.207 270.883L391.781 270.606C391.863 270.595 391.927 270.532 391.941 270.451C391.954 270.37 391.914 270.29 391.84 270.253Z" fill="url(#paint72_linear_743_6233)"/>
<path d="M409.426 270.253L407.289 269.03C407.156 268.951 407 268.919 406.846 268.939L404.411 269.324C404.336 269.336 404.276 269.395 404.264 269.47C404.252 269.546 404.29 269.62 404.358 269.655L406.302 270.782C406.44 270.868 406.604 270.904 406.766 270.883L409.335 270.606C409.422 270.608 409.498 270.549 409.52 270.465C409.542 270.381 409.502 270.293 409.426 270.253Z" fill="url(#paint73_linear_743_6233)"/>
<path d="M404.773 271.001L402.637 269.778C402.504 269.698 402.348 269.666 402.194 269.687L399.759 270.072C399.683 270.083 399.624 270.142 399.612 270.218C399.599 270.293 399.637 270.368 399.705 270.403L401.649 271.53C401.789 271.613 401.952 271.649 402.114 271.631L404.682 271.353C404.769 271.355 404.846 271.297 404.868 271.213C404.889 271.129 404.85 271.041 404.773 271.001Z" fill="url(#paint74_linear_743_6233)"/>
<path d="M400.12 271.764L398.01 270.536C397.876 270.461 397.72 270.431 397.567 270.451L395.127 270.83C395.048 270.84 394.986 270.901 394.974 270.98C394.963 271.058 395.006 271.135 395.079 271.166L397.022 272.293C397.162 272.377 397.325 272.412 397.487 272.395L400.056 272.117C400.138 272.108 400.204 272.046 400.219 271.965C400.234 271.883 400.193 271.802 400.12 271.764Z" fill="url(#paint75_linear_743_6233)"/>
<path d="M395.471 272.528L393.335 271.3C393.201 271.222 393.045 271.191 392.891 271.214L390.451 271.594C390.372 271.604 390.31 271.665 390.299 271.743C390.287 271.822 390.33 271.898 390.403 271.93L392.347 273.057C392.487 273.138 392.65 273.173 392.811 273.158L395.38 272.881C395.467 272.882 395.543 272.824 395.565 272.74C395.587 272.656 395.548 272.568 395.471 272.528Z" fill="url(#paint76_linear_743_6233)"/>
<path d="M413.051 272.528L410.915 271.3C410.782 271.222 410.625 271.191 410.472 271.214L408.037 271.594C407.958 271.604 407.896 271.665 407.885 271.743C407.873 271.822 407.916 271.898 407.989 271.93L409.927 273.057C410.068 273.137 410.23 273.173 410.392 273.158L412.966 272.881C413.052 272.88 413.126 272.821 413.146 272.738C413.166 272.654 413.127 272.568 413.051 272.528Z" fill="url(#paint77_linear_743_6233)"/>
<path d="M408.4 273.292L406.29 272.063C406.157 271.983 406 271.953 405.847 271.978L403.412 272.357C403.333 272.367 403.271 272.429 403.26 272.507C403.248 272.586 403.291 272.662 403.364 272.694L405.302 273.82C405.443 273.901 405.605 273.937 405.767 273.922L408.341 273.644C408.422 273.633 408.487 273.571 408.5 273.49C408.514 273.409 408.473 273.328 408.4 273.292Z" fill="url(#paint78_linear_743_6233)"/>
<path d="M403.746 274.05L401.61 272.827C401.477 272.747 401.32 272.716 401.166 272.742L398.731 273.121C398.657 273.134 398.599 273.194 398.588 273.269C398.577 273.344 398.615 273.418 398.683 273.452L400.622 274.584C400.762 274.665 400.925 274.701 401.086 274.686L403.66 274.402C403.746 274.402 403.82 274.343 403.841 274.26C403.861 274.176 403.822 274.09 403.746 274.05Z" fill="url(#paint79_linear_743_6233)"/>
<path d="M399.097 274.814L396.961 273.591C396.829 273.51 396.671 273.48 396.518 273.505L394.083 273.884C394.007 273.896 393.948 273.955 393.936 274.031C393.924 274.106 393.962 274.181 394.03 274.215L395.973 275.342C396.112 275.428 396.276 275.464 396.438 275.444L399.012 275.166C399.098 275.165 399.172 275.107 399.192 275.023C399.213 274.94 399.173 274.853 399.097 274.814Z" fill="url(#paint80_linear_743_6233)"/>
<path opacity="0.2" d="M380.784 217.884L382.836 219.212C383.852 219.869 384.142 221.225 383.485 222.24L379.708 228.077C379.051 229.092 377.695 229.382 376.679 228.725L374.627 227.397C373.612 226.74 373.321 225.384 373.978 224.369L377.755 218.532C378.413 217.517 379.768 217.227 380.784 217.884Z" fill="#090817"/>
<path opacity="0.2" d="M393.206 218.745L395.258 220.073C396.274 220.731 396.564 222.086 395.907 223.102L388.854 234C388.197 235.015 386.841 235.305 385.826 234.648L383.773 233.32C382.758 232.663 382.467 231.307 383.125 230.292L390.177 219.394C390.834 218.378 392.19 218.088 393.206 218.745Z" fill="#090817"/>
<path opacity="0.2" d="M408.725 214.824L410.778 216.152C411.793 216.809 412.084 218.165 411.426 219.18L398.005 239.919C397.348 240.934 395.992 241.224 394.977 240.567L392.924 239.239C391.909 238.582 391.618 237.226 392.275 236.211L405.697 215.472C406.354 214.457 407.71 214.166 408.725 214.824Z" fill="#090817"/>
<path opacity="0.2" d="M415.354 224.631L417.407 225.959C418.422 226.616 418.712 227.972 418.055 228.988L407.149 245.839C406.492 246.855 405.136 247.145 404.121 246.488L402.069 245.16C401.053 244.502 400.763 243.147 401.42 242.131L412.326 225.28C412.983 224.264 414.339 223.974 415.354 224.631Z" fill="#090817"/>
<path d="M396.507 192.101L413.008 203.421C413.331 203.643 413.414 204.085 413.192 204.408L413.155 204.461C412.934 204.785 412.492 204.867 412.168 204.645L395.668 193.326C395.344 193.104 395.262 192.662 395.484 192.339L395.52 192.285C395.742 191.962 396.184 191.88 396.507 192.101Z" fill="#D6D5D5"/>
<path d="M394.398 195.186L410.899 206.505C411.222 206.727 411.304 207.169 411.083 207.492L411.046 207.546C410.824 207.869 410.382 207.951 410.059 207.729L393.558 196.41C393.235 196.188 393.153 195.746 393.374 195.423L393.411 195.37C393.633 195.046 394.075 194.964 394.398 195.186Z" fill="#D6D5D5"/>
<path d="M392.273 198.275L403.282 205.828C403.606 206.05 403.688 206.491 403.466 206.815L403.43 206.868C403.208 207.191 402.766 207.274 402.443 207.052L391.433 199.499C391.11 199.278 391.028 198.836 391.249 198.512L391.286 198.459C391.508 198.136 391.95 198.053 392.273 198.275Z" fill="#D6D5D5"/>
<path d="M446.395 232.808C455.217 233.623 462.206 240.606 463.03 249.427L466.57 249.662L468.269 249.427C467.437 237.697 458.104 228.364 446.374 227.532L444.676 227.767L446.395 232.808Z" fill="#EA6016"/>
<path d="M446.395 232.808C455.217 233.623 462.206 240.606 463.03 249.427L466.57 249.662L468.269 249.427C467.437 237.697 458.104 228.364 446.374 227.532L444.676 227.767L446.395 232.808Z" fill="black" fill-opacity="0.15"/>
<path d="M426.358 249.427C427.174 240.6 434.165 233.608 442.992 232.792V227.554C431.262 228.385 421.929 237.718 421.098 249.448L424.638 249.683L426.358 249.427ZM463.029 252.845C462.212 261.671 455.221 268.663 446.394 269.479V274.718C458.124 273.886 467.457 264.553 468.289 252.823L463.029 252.845Z" fill="#090817"/>
<path d="M442.99 269.479C434.164 268.663 427.172 261.671 426.356 252.844H421.117C421.949 264.575 431.282 273.907 443.012 274.739L442.99 269.479Z" fill="url(#paint81_linear_743_6233)"/>
<path d="M444.697 233.038C453.524 233.859 460.514 240.851 461.332 249.678H466.57C465.739 237.948 456.406 228.615 444.676 227.783L444.697 233.038Z" fill="#EA6016"/>
<path d="M424.658 249.678C425.476 240.851 432.466 233.859 441.293 233.038V227.805C429.563 228.636 420.23 237.969 419.398 249.699L424.658 249.678Z" fill="#090817"/>
<path d="M424.658 249.678C425.476 240.851 432.466 233.859 441.293 233.038V227.805C429.563 228.636 420.23 237.969 419.398 249.699L424.658 249.678Z" fill="white" fill-opacity="0.2"/>
<path d="M461.33 253.074C460.517 261.904 453.525 268.9 444.695 269.719V274.958C456.425 274.124 465.756 264.793 466.59 253.063L461.33 253.074Z" fill="#090817"/>
<path d="M461.33 253.074C460.517 261.904 453.525 268.9 444.695 269.719V274.958C456.425 274.124 465.756 264.793 466.59 253.063L461.33 253.074Z" fill="white" fill-opacity="0.2"/>
<path d="M441.295 269.719C432.467 268.901 425.476 261.907 424.661 253.079H419.422C420.256 264.809 429.587 274.14 441.316 274.974L441.295 269.719Z" fill="url(#paint82_linear_743_6233)"/>
<path d="M466.567 253.074L468.265 252.844H463.026L461.328 253.074H466.567Z" fill="#090817"/>
<path d="M442.996 269.484L441.293 269.714V274.953L442.996 274.718V269.484Z" fill="#9B9FA5"/>
<path d="M442.996 227.569L441.293 227.799V233.038L442.996 232.808V227.569Z" fill="#090817"/>
<path opacity="0.2" d="M470.675 185.651C495.299 178.047 508.911 151.324 501.08 125.962C493.249 100.6 466.939 86.2042 442.315 93.8076C417.692 101.411 404.079 128.135 411.91 153.496C419.742 178.858 446.052 193.254 470.675 185.651Z" fill="#EA6016"/>
<path d="M468.705 179.289C489.913 172.74 501.638 149.724 494.893 127.882C488.148 106.039 465.488 93.6411 444.28 100.19C423.072 106.739 411.347 129.754 418.091 151.597C424.836 173.44 447.496 185.838 468.705 179.289Z" fill="white"/>
<path opacity="0.4" d="M467.028 173.808C485.316 168.158 495.423 148.309 489.604 129.474C483.784 110.639 464.241 99.9513 445.953 105.602C427.665 111.253 417.557 131.102 423.377 149.936C429.196 168.771 448.74 179.459 467.028 173.808Z" fill="#EA6016"/>
<path d="M465.13 167.665C480.123 163.032 488.411 146.759 483.639 131.317C478.868 115.875 462.846 107.113 447.852 111.745C432.858 116.378 424.571 132.652 429.342 148.094C434.113 163.535 450.136 172.298 465.13 167.665Z" fill="white"/>
<path opacity="0.7" d="M463.386 162.09C475.399 158.39 482.047 145.36 478.236 132.986C474.425 120.613 461.597 113.582 449.584 117.282C437.57 120.982 430.922 134.013 434.733 146.386C438.544 158.76 451.373 165.791 463.386 162.09Z" fill="#EA6016"/>
<path d="M461.603 156.366C470.513 153.623 475.445 143.959 472.62 134.781C469.794 125.603 460.281 120.386 451.371 123.129C442.461 125.872 437.529 135.535 440.354 144.713C443.179 153.892 452.693 159.108 461.603 156.366Z" fill="white"/>
<path d="M459.587 149.808C464.988 148.145 467.977 142.288 466.264 136.727C464.551 131.166 458.785 128.007 453.384 129.67C447.984 131.334 444.994 137.19 446.707 142.751C448.42 148.312 454.187 151.472 459.587 149.808Z" fill="#EA6016"/>
<path d="M454.703 143.297L505.435 150.773L505.51 159.381L507.534 160.764L521.018 163.584L518.812 150.1L530 141.022L527.976 139.639L514.567 139.163L507.523 145.219L456.306 139.243C456.306 139.243 453.475 140.418 454.703 143.297Z" fill="white"/>
<path d="M452.653 141.908L503.385 149.384L505.489 159.376L518.973 162.195L516.799 148.695L527.966 139.591L512.527 137.727L504.309 144.797L454.272 137.855C454.272 137.855 451.452 139.03 452.653 141.908Z" fill="#EA6016"/>
<path d="M433.315 73.4057C450.286 68.1023 459.616 49.6322 454.153 32.1515C448.69 14.6709 430.504 4.79927 413.533 10.1027C396.562 15.4061 387.233 33.8762 392.696 51.3568C398.158 68.8375 416.344 78.7091 433.315 73.4057Z" fill="#EA6016"/>
<path d="M401.836 40.2262L419.913 60.3852L441.952 37.4602L434.838 30.3472L418.439 47.6282L406.974 34.6942L401.836 40.2262Z" fill="white"/>
<path d="M25.2868 214.23C24.0518 221.914 24.0608 229.746 25.3135 237.428L58.3209 219.186L45.8357 175.621C36.0044 182.675 27.9622 196.928 25.2868 214.23Z" fill="#EA6016"/>
<path d="M58.3195 219.185L65.1655 220.355L32.1635 238.597L25.3125 237.427L58.3195 219.185Z" fill="#EA6016"/>
<path d="M58.3195 219.185L65.1655 220.355L32.1635 238.597L25.3125 237.427L58.3195 219.185Z" fill="black" fill-opacity="0.15"/>
<path d="M52.678 176.79L45.832 175.62L58.317 219.185L65.163 220.355L52.678 176.79Z" fill="#EA6016"/>
<path d="M52.678 176.79L45.832 175.62L58.317 219.185L65.163 220.355L52.678 176.79Z" fill="black" fill-opacity="0.15"/>
<path d="M68.075 221.562L42.5117 235.692C44.1992 253.8 52.8823 267.733 65.2341 269.629C81.5215 272.149 98.0333 252.839 102.081 226.501C106.129 200.164 96.2817 176.801 79.9943 174.253C72.0374 173.02 64.0272 177.004 57.4428 184.469L68.075 221.562Z" fill="url(#paint83_linear_743_6233)"/>
<path d="M68.0739 221.562L35.0664 239.815C37.7365 255.499 45.9283 267.135 57.1479 268.865C73.414 271.375 89.9685 252.097 94.0217 225.738C98.0749 199.379 88.1902 176.005 71.9028 173.49C66.3277 172.619 60.6885 174.323 55.5833 177.997L68.0739 221.562Z" fill="#090817"/>
<path d="M68.0739 221.562L35.0664 239.815C37.7365 255.499 45.9283 267.135 57.1479 268.865C73.414 271.375 89.9685 252.097 94.0217 225.738C98.0749 199.379 88.1902 176.005 71.9028 173.49C66.3277 172.619 60.6885 174.323 55.5833 177.997L68.0739 221.562Z" fill="white" fill-opacity="0.2"/>
<path d="M124.19 343.338L85.4721 423.5C82.2631 430.144 74.2755 432.929 67.6314 429.72L12.027 402.864C5.38291 399.655 2.59819 391.667 5.80724 385.023L44.5246 304.861C47.7336 298.217 55.7212 295.432 62.3654 298.641L117.97 325.497C124.614 328.706 127.399 336.694 124.19 343.338Z" fill="#090817"/>
<path d="M9.93301 396.927L73.5823 427.676C75.8031 428.746 78.4712 427.814 79.5419 425.593L122.156 337.379C123.224 335.159 122.295 332.494 120.079 331.419L56.4244 300.692C55.3596 300.172 54.1315 300.097 53.0114 300.483C51.8912 300.87 50.971 301.687 50.4541 302.753L7.85569 390.967C7.33984 392.033 7.26894 393.26 7.65862 394.378C8.04829 395.496 8.86654 396.413 9.93301 396.927Z" fill="white"/>
<path d="M105.054 348.158L73.6773 333.004C72.7146 332.539 72.3111 331.381 72.7761 330.419C73.241 329.456 74.3984 329.052 75.3611 329.517L106.738 344.672C107.7 345.137 108.104 346.294 107.639 347.257C107.174 348.22 106.016 348.623 105.054 348.158Z" fill="#CECECE"/>
<path d="M101.062 356.419L49.1522 331.347C48.1895 330.882 47.786 329.725 48.251 328.762C48.7159 327.799 49.8733 327.396 50.836 327.861L102.745 352.932C103.708 353.397 104.112 354.555 103.647 355.517C103.182 356.48 102.024 356.884 101.062 356.419Z" fill="#CECECE"/>
<path d="M44.3862 339.237L97.8625 365.068C98.392 365.32 99.0263 365.099 99.283 364.571L100.041 363.001C100.295 362.473 100.076 361.839 99.55 361.58L46.0684 335.75C45.5388 335.497 44.9046 335.719 44.6479 336.247L43.8896 337.817C43.6368 338.346 43.8586 338.981 44.3862 339.237Z" fill="#CECECE"/>
<path d="M93.0772 372.949L41.1678 347.877C40.2051 347.412 39.8016 346.255 40.2666 345.292C40.7316 344.33 41.8889 343.926 42.8516 344.391L94.761 369.463C95.7237 369.928 96.1272 371.085 95.6622 372.048C95.1973 373.01 94.0399 373.414 93.0772 372.949Z" fill="#CECECE"/>
<path d="M86.9209 385.696L55.5445 370.541C54.5818 370.076 54.1783 368.919 54.6433 367.956C55.1082 366.993 56.2656 366.59 57.2283 367.055L88.6048 382.209C89.5675 382.674 89.9709 383.832 89.506 384.794C89.041 385.757 87.8836 386.161 86.9209 385.696Z" fill="#CECECE"/>
<path d="M82.9326 393.959L31.0233 368.888C30.0606 368.423 29.6571 367.265 30.1221 366.303C30.587 365.34 31.7444 364.936 32.7071 365.401L84.6165 390.473C85.5792 390.938 85.9827 392.095 85.5177 393.058C85.0527 394.021 83.8954 394.424 82.9326 393.959Z" fill="#CECECE"/>
<path d="M78.9405 402.218L27.0311 377.147C26.0684 376.682 25.6649 375.524 26.1299 374.562C26.5948 373.599 27.7522 373.195 28.7149 373.66L80.6243 398.732C81.587 399.197 81.9905 400.354 81.5255 401.317C81.0605 402.28 79.9032 402.683 78.9405 402.218Z" fill="#CECECE"/>
<path d="M74.9483 410.488L23.0389 385.417C22.0762 384.952 21.6727 383.794 22.1377 382.832C22.6027 381.869 23.76 381.465 24.7227 381.93L76.6321 407.002C77.5948 407.467 77.9983 408.624 77.5333 409.587C77.0684 410.55 75.911 410.953 74.9483 410.488Z" fill="#CECECE"/>
<path d="M80.522 302.972L86.5243 305.872C88.3836 303.833 91.3619 303.258 93.8466 304.458C96.3313 305.659 97.7319 308.349 97.2901 311.073L103.319 313.973C104.637 314.616 105.19 316.201 104.558 317.524L102.39 322.021C101.747 323.339 100.162 323.892 98.8387 323.259L76.0629 312.259C74.7449 311.616 74.1918 310.031 74.824 308.708L76.9975 304.211C77.6397 302.908 79.2057 302.358 80.522 302.972Z" fill="#EA6016"/>
<path d="M91.5313 312.136C93.0976 312.136 94.3673 310.866 94.3673 309.3C94.3673 307.734 93.0976 306.464 91.5313 306.464C89.965 306.464 88.6953 307.734 88.6953 309.3C88.6953 310.866 89.965 312.136 91.5313 312.136Z" fill="white"/>
<path d="M386.738 437.891L399.752 432.038V407.1L386.738 412.947V437.891Z" fill="#EA6016"/>
<path d="M376.625 408.606L386.74 412.947L399.754 407.1L389.634 402.753L376.625 408.606Z" fill="url(#paint84_linear_743_6233)"/>
<path d="M376.625 433.544L386.74 437.891V412.947L376.625 408.606V433.544Z" fill="url(#paint85_linear_743_6233)"/>
<path d="M409.871 427.878L422.88 422.026V385.777L409.871 391.63V427.878Z" fill="#EA6016"/>
<path d="M399.754 387.288L409.873 391.63L422.882 385.777L412.768 381.435L399.754 387.288Z" fill="url(#paint86_linear_743_6233)"/>
<path d="M399.754 423.532L409.873 427.878V391.63L399.754 387.288V423.532Z" fill="url(#paint87_linear_743_6233)"/>
<path d="M433 417.866L446.014 412.013V360.657L433 366.509V417.866Z" fill="#EA6016"/>
<path d="M422.883 362.163L433.002 366.509L446.016 360.657L435.897 356.31L422.883 362.163Z" fill="url(#paint88_linear_743_6233)"/>
<path d="M422.883 413.519L433.002 417.866V366.509L422.883 362.163V413.519Z" fill="url(#paint89_linear_743_6233)"/>
<path d="M456.129 407.853L469.143 402V365.751L456.129 371.604V407.853Z" fill="#EA6016"/>
<path d="M446.016 367.262L456.131 371.604L469.145 365.751L459.03 361.41L446.016 367.262Z" fill="url(#paint90_linear_743_6233)"/>
<path d="M446.016 403.506L456.131 407.853V371.604L446.016 367.262V403.506Z" fill="url(#paint91_linear_743_6233)"/>
<defs>
<linearGradient id="paint0_linear_743_6233" x1="311.559" y1="444.042" x2="2459.9" y2="444.042" gradientUnits="userSpaceOnUse">
<stop stop-color="#4C6FBF"/>
<stop offset="1" stop-color="#8CA3D8"/>
</linearGradient>
<linearGradient id="paint1_linear_743_6233" x1="6004.58" y1="3233.16" x2="1628.88" y2="3233.16" gradientUnits="userSpaceOnUse">
<stop stop-color="white"/>
<stop offset="1" stop-color="#D6D5D5"/>
</linearGradient>
<linearGradient id="paint2_linear_743_6233" x1="99.9766" y1="6156.4" x2="29782.1" y2="6156.4" gradientUnits="userSpaceOnUse">
<stop stop-color="white"/>
<stop offset="1" stop-color="#DDDCDC"/>
</linearGradient>
<linearGradient id="paint3_linear_743_6233" x1="33386.7" y1="5530.62" x2="9755.24" y2="7118.45" gradientUnits="userSpaceOnUse">
<stop stop-color="white"/>
<stop offset="1" stop-color="#DDDCDC"/>
</linearGradient>
<linearGradient id="paint4_linear_743_6233" x1="155.688" y1="3932.61" x2="17496.8" y2="3932.61" gradientUnits="userSpaceOnUse">
<stop stop-color="white"/>
<stop offset="1" stop-color="#D6D5D5"/>
</linearGradient>
<linearGradient id="paint5_linear_743_6233" x1="12088.8" y1="4302.89" x2="-1043.23" y2="2881.81" gradientUnits="userSpaceOnUse">
<stop stop-color="#F7F7F7"/>
<stop offset="1" stop-color="#DDDCDC"/>
</linearGradient>
<linearGradient id="paint6_linear_743_6233" x1="248.391" y1="1739.92" x2="8318.99" y2="1739.92" gradientUnits="userSpaceOnUse">
<stop stop-color="#AAA5A5"/>
<stop offset="1" stop-color="#DDDCDC"/>
</linearGradient>
<linearGradient id="paint7_linear_743_6233" x1="1611.83" y1="215.342" x2="1611.83" y2="4257.34" gradientUnits="userSpaceOnUse">
<stop stop-color="white"/>
<stop offset="1" stop-color="#D6D5D5"/>
</linearGradient>
<linearGradient id="paint8_linear_743_6233" x1="1658.28" y1="181.86" x2="1658.28" y2="7585.46" gradientUnits="userSpaceOnUse">
<stop stop-color="white"/>
<stop offset="1" stop-color="#D6D5D5"/>
</linearGradient>
<linearGradient id="paint9_linear_743_6233" x1="1704.73" y1="122.137" x2="1704.73" y2="13521.9" gradientUnits="userSpaceOnUse">
<stop stop-color="white"/>
<stop offset="1" stop-color="#D6D5D5"/>
</linearGradient>
<linearGradient id="paint10_linear_743_6233" x1="1751.18" y1="141.801" x2="1751.18" y2="11567.9" gradientUnits="userSpaceOnUse">
<stop stop-color="white"/>
<stop offset="1" stop-color="#D6D5D5"/>
</linearGradient>
<linearGradient id="paint11_linear_743_6233" x1="84.8594" y1="8910.96" x2="31555.8" y2="8910.96" gradientUnits="userSpaceOnUse">
<stop stop-color="white"/>
<stop offset="1" stop-color="#D6D5D5"/>
</linearGradient>
<linearGradient id="paint12_linear_743_6233" x1="117.574" y1="452.328" x2="15145.9" y2="452.328" gradientUnits="userSpaceOnUse">
<stop stop-color="white"/>
<stop offset="1" stop-color="#D6D5D5"/>
</linearGradient>
<linearGradient id="paint13_linear_743_6233" x1="117.716" y1="452.296" x2="14271.7" y2="452.296" gradientUnits="userSpaceOnUse">
<stop stop-color="#FFAC06"/>
<stop offset="1" stop-color="#FA8A13"/>
</linearGradient>
<linearGradient id="paint14_linear_743_6233" x1="117.574" y1="473.037" x2="15145.9" y2="473.037" gradientUnits="userSpaceOnUse">
<stop stop-color="white"/>
<stop offset="1" stop-color="#D6D5D5"/>
</linearGradient>
<linearGradient id="paint15_linear_743_6233" x1="117.699" y1="473.005" x2="12630.6" y2="473.005" gradientUnits="userSpaceOnUse">
<stop stop-color="#FFAC06"/>
<stop offset="1" stop-color="#FA8A13"/>
</linearGradient>
<linearGradient id="paint16_linear_743_6233" x1="117.574" y1="493.746" x2="15145.9" y2="493.746" gradientUnits="userSpaceOnUse">
<stop stop-color="white"/>
<stop offset="1" stop-color="#D6D5D5"/>
</linearGradient>
<linearGradient id="paint17_linear_743_6233" x1="117.676" y1="493.714" x2="10287.4" y2="493.714" gradientUnits="userSpaceOnUse">
<stop stop-color="#FFAC06"/>
<stop offset="1" stop-color="#FA8A13"/>
</linearGradient>
<linearGradient id="paint18_linear_743_6233" x1="2201.83" y1="-1916.08" x2="3313.34" y2="4450.56" gradientUnits="userSpaceOnUse">
<stop stop-color="#FFAC06"/>
<stop offset="1" stop-color="#F56A1E"/>
</linearGradient>
<linearGradient id="paint19_linear_743_6233" x1="5521.51" y1="4973.53" x2="6054.4" y2="6858.52" gradientUnits="userSpaceOnUse">
<stop stop-color="#D6D5D5"/>
<stop offset="0.53" stop-color="white"/>
<stop offset="0.7" stop-color="#DFDEDE"/>
<stop offset="1" stop-color="#D6D5D5"/>
</linearGradient>
<linearGradient id="paint20_linear_743_6233" x1="11772.1" y1="2773.67" x2="2994.54" y2="2773.67" gradientUnits="userSpaceOnUse">
<stop stop-color="white"/>
<stop offset="1" stop-color="#D6D5D5"/>
</linearGradient>
<linearGradient id="paint21_linear_743_6233" x1="944.556" y1="268.26" x2="533.363" y2="268.26" gradientUnits="userSpaceOnUse">
<stop stop-color="white"/>
<stop offset="1" stop-color="#D6D5D5"/>
</linearGradient>
<linearGradient id="paint22_linear_743_6233" x1="947.963" y1="269.466" x2="537.302" y2="269.466" gradientUnits="userSpaceOnUse">
<stop stop-color="white"/>
<stop offset="1" stop-color="#D6D5D5"/>
</linearGradient>
<linearGradient id="paint23_linear_743_6233" x1="948.821" y1="270.339" x2="537.628" y2="270.339" gradientUnits="userSpaceOnUse">
<stop stop-color="white"/>
<stop offset="1" stop-color="#D6D5D5"/>
</linearGradient>
<linearGradient id="paint24_linear_743_6233" x1="953.424" y1="272.068" x2="542.231" y2="272.068" gradientUnits="userSpaceOnUse">
<stop stop-color="white"/>
<stop offset="1" stop-color="#D6D5D5"/>
</linearGradient>
<linearGradient id="paint25_linear_743_6233" x1="959.473" y1="273.248" x2="548.818" y2="273.248" gradientUnits="userSpaceOnUse">
<stop stop-color="white"/>
<stop offset="1" stop-color="#D6D5D5"/>
</linearGradient>
<linearGradient id="paint26_linear_743_6233" x1="960.372" y1="274.654" x2="549.177" y2="274.654" gradientUnits="userSpaceOnUse">
<stop stop-color="white"/>
<stop offset="1" stop-color="#D6D5D5"/>
</linearGradient>
<linearGradient id="paint27_linear_743_6233" x1="967.688" y1="275.875" x2="557.033" y2="275.875" gradientUnits="userSpaceOnUse">
<stop stop-color="white"/>
<stop offset="1" stop-color="#D6D5D5"/>
</linearGradient>
<linearGradient id="paint28_linear_743_6233" x1="972.087" y1="277.563" x2="560.894" y2="277.563" gradientUnits="userSpaceOnUse">
<stop stop-color="white"/>
<stop offset="1" stop-color="#D6D5D5"/>
</linearGradient>
<linearGradient id="paint29_linear_743_6233" x1="971.883" y1="276.348" x2="560.694" y2="276.348" gradientUnits="userSpaceOnUse">
<stop stop-color="white"/>
<stop offset="1" stop-color="#D6D5D5"/>
</linearGradient>
<linearGradient id="paint30_linear_743_6233" x1="976.563" y1="281.798" x2="565.907" y2="281.798" gradientUnits="userSpaceOnUse">
<stop stop-color="white"/>
<stop offset="1" stop-color="#D6D5D5"/>
</linearGradient>
<linearGradient id="paint31_linear_743_6233" x1="983.069" y1="281.371" x2="571.876" y2="281.371" gradientUnits="userSpaceOnUse">
<stop stop-color="white"/>
<stop offset="1" stop-color="#D6D5D5"/>
</linearGradient>
<linearGradient id="paint32_linear_743_6233" x1="937.491" y1="268.39" x2="526.298" y2="268.39" gradientUnits="userSpaceOnUse">
<stop stop-color="white"/>
<stop offset="1" stop-color="#D6D5D5"/>
</linearGradient>
<linearGradient id="paint33_linear_743_6233" x1="940.931" y1="269.937" x2="529.738" y2="269.937" gradientUnits="userSpaceOnUse">
<stop stop-color="white"/>
<stop offset="1" stop-color="#D6D5D5"/>
</linearGradient>
<linearGradient id="paint34_linear_743_6233" x1="946.542" y1="271.129" x2="535.884" y2="271.129" gradientUnits="userSpaceOnUse">
<stop stop-color="white"/>
<stop offset="1" stop-color="#D6D5D5"/>
</linearGradient>
<linearGradient id="paint35_linear_743_6233" x1="951.796" y1="273.233" x2="540.601" y2="273.233" gradientUnits="userSpaceOnUse">
<stop stop-color="white"/>
<stop offset="1" stop-color="#D6D5D5"/>
</linearGradient>
<linearGradient id="paint36_linear_743_6233" x1="955.087" y1="273.745" x2="544.428" y2="273.745" gradientUnits="userSpaceOnUse">
<stop stop-color="white"/>
<stop offset="1" stop-color="#D6D5D5"/>
</linearGradient>
<linearGradient id="paint37_linear_743_6233" x1="955.95" y1="274.936" x2="544.755" y2="274.936" gradientUnits="userSpaceOnUse">
<stop stop-color="white"/>
<stop offset="1" stop-color="#D6D5D5"/>
</linearGradient>
<linearGradient id="paint38_linear_743_6233" x1="962.248" y1="276.513" x2="551.057" y2="276.513" gradientUnits="userSpaceOnUse">
<stop stop-color="white"/>
<stop offset="1" stop-color="#D6D5D5"/>
</linearGradient>
<linearGradient id="paint39_linear_743_6233" x1="963.955" y1="278.609" x2="553.297" y2="278.609" gradientUnits="userSpaceOnUse">
<stop stop-color="white"/>
<stop offset="1" stop-color="#D6D5D5"/>
</linearGradient>
<linearGradient id="paint40_linear_743_6233" x1="970.146" y1="279.292" x2="558.952" y2="279.292" gradientUnits="userSpaceOnUse">
<stop stop-color="white"/>
<stop offset="1" stop-color="#D6D5D5"/>
</linearGradient>
<linearGradient id="paint41_linear_743_6233" x1="974.822" y1="280.276" x2="563.629" y2="280.276" gradientUnits="userSpaceOnUse">
<stop stop-color="white"/>
<stop offset="1" stop-color="#D6D5D5"/>
</linearGradient>
<linearGradient id="paint42_linear_743_6233" x1="977.376" y1="281.866" x2="566.717" y2="281.866" gradientUnits="userSpaceOnUse">
<stop stop-color="white"/>
<stop offset="1" stop-color="#D6D5D5"/>
</linearGradient>
<linearGradient id="paint43_linear_743_6233" x1="933.215" y1="269.003" x2="522.024" y2="269.003" gradientUnits="userSpaceOnUse">
<stop stop-color="white"/>
<stop offset="1" stop-color="#D6D5D5"/>
</linearGradient>
<linearGradient id="paint44_linear_743_6233" x1="935.694" y1="269.904" x2="524.503" y2="269.904" gradientUnits="userSpaceOnUse">
<stop stop-color="white"/>
<stop offset="1" stop-color="#D6D5D5"/>
</linearGradient>
<linearGradient id="paint45_linear_743_6233" x1="940.372" y1="271.612" x2="529.71" y2="271.612" gradientUnits="userSpaceOnUse">
<stop stop-color="white"/>
<stop offset="1" stop-color="#D6D5D5"/>
</linearGradient>
<linearGradient id="paint46_linear_743_6233" x1="947.374" y1="272.809" x2="536.184" y2="272.809" gradientUnits="userSpaceOnUse">
<stop stop-color="white"/>
<stop offset="1" stop-color="#D6D5D5"/>
</linearGradient>
<linearGradient id="paint47_linear_743_6233" x1="947.209" y1="274.241" x2="536.016" y2="274.241" gradientUnits="userSpaceOnUse">
<stop stop-color="white"/>
<stop offset="1" stop-color="#D6D5D5"/>
</linearGradient>
<linearGradient id="paint48_linear_743_6233" x1="954.001" y1="275.456" x2="543.345" y2="275.456" gradientUnits="userSpaceOnUse">
<stop stop-color="white"/>
<stop offset="1" stop-color="#D6D5D5"/>
</linearGradient>
<linearGradient id="paint49_linear_743_6233" x1="958.924" y1="276.967" x2="547.729" y2="276.967" gradientUnits="userSpaceOnUse">
<stop stop-color="white"/>
<stop offset="1" stop-color="#D6D5D5"/>
</linearGradient>
<linearGradient id="paint50_linear_743_6233" x1="961.76" y1="278.048" x2="550.573" y2="278.048" gradientUnits="userSpaceOnUse">
<stop stop-color="white"/>
<stop offset="1" stop-color="#D6D5D5"/>
</linearGradient>
<linearGradient id="paint51_linear_743_6233" x1="966.575" y1="279.263" x2="555.382" y2="279.263" gradientUnits="userSpaceOnUse">
<stop stop-color="white"/>
<stop offset="1" stop-color="#D6D5D5"/>
</linearGradient>
<linearGradient id="paint52_linear_743_6233" x1="967.794" y1="280.773" x2="556.603" y2="280.773" gradientUnits="userSpaceOnUse">
<stop stop-color="white"/>
<stop offset="1" stop-color="#D6D5D5"/>
</linearGradient>
<linearGradient id="paint53_linear_743_6233" x1="970.631" y1="280.269" x2="559.974" y2="280.269" gradientUnits="userSpaceOnUse">
<stop stop-color="white"/>
<stop offset="1" stop-color="#D6D5D5"/>
</linearGradient>
<linearGradient id="paint54_linear_743_6233" x1="929.35" y1="269.498" x2="518.693" y2="269.498" gradientUnits="userSpaceOnUse">
<stop stop-color="white"/>
<stop offset="1" stop-color="#D6D5D5"/>
</linearGradient>
<linearGradient id="paint55_linear_743_6233" x1="933.919" y1="270.711" x2="522.725" y2="270.711" gradientUnits="userSpaceOnUse">
<stop stop-color="white"/>
<stop offset="1" stop-color="#D6D5D5"/>
</linearGradient>
<linearGradient id="paint56_linear_743_6233" x1="938.633" y1="272.289" x2="527.44" y2="272.289" gradientUnits="userSpaceOnUse">
<stop stop-color="white"/>
<stop offset="1" stop-color="#D6D5D5"/>
</linearGradient>
<linearGradient id="paint57_linear_743_6233" x1="939.813" y1="273.282" x2="529.155" y2="273.282" gradientUnits="userSpaceOnUse">
<stop stop-color="white"/>
<stop offset="1" stop-color="#D6D5D5"/>
</linearGradient>
<linearGradient id="paint58_linear_743_6233" x1="943.218" y1="275.026" x2="532.027" y2="275.026" gradientUnits="userSpaceOnUse">
<stop stop-color="white"/>
<stop offset="1" stop-color="#D6D5D5"/>
</linearGradient>
<linearGradient id="paint59_linear_743_6233" x1="950.143" y1="277.153" x2="539.487" y2="277.153" gradientUnits="userSpaceOnUse">
<stop stop-color="white"/>
<stop offset="1" stop-color="#D6D5D5"/>
</linearGradient>
<linearGradient id="paint60_linear_743_6233" x1="954.502" y1="277.089" x2="543.311" y2="277.089" gradientUnits="userSpaceOnUse">
<stop stop-color="white"/>
<stop offset="1" stop-color="#D6D5D5"/>
</linearGradient>
<linearGradient id="paint61_linear_743_6233" x1="957.378" y1="278.834" x2="546.186" y2="278.834" gradientUnits="userSpaceOnUse">
<stop stop-color="white"/>
<stop offset="1" stop-color="#D6D5D5"/>
</linearGradient>
<linearGradient id="paint62_linear_743_6233" x1="959.011" y1="277.237" x2="548.354" y2="277.237" gradientUnits="userSpaceOnUse">
<stop stop-color="white"/>
<stop offset="1" stop-color="#D6D5D5"/>
</linearGradient>
<linearGradient id="paint63_linear_743_6233" x1="963.41" y1="282.99" x2="552.218" y2="282.99" gradientUnits="userSpaceOnUse">
<stop stop-color="white"/>
<stop offset="1" stop-color="#D6D5D5"/>
</linearGradient>
<linearGradient id="paint64_linear_743_6233" x1="968.893" y1="282.64" x2="557.7" y2="282.64" gradientUnits="userSpaceOnUse">
<stop stop-color="white"/>
<stop offset="1" stop-color="#D6D5D5"/>
</linearGradient>
<linearGradient id="paint65_linear_743_6233" x1="986.61" y1="282.662" x2="575.416" y2="282.662" gradientUnits="userSpaceOnUse">
<stop stop-color="white"/>
<stop offset="1" stop-color="#D6D5D5"/>
</linearGradient>
<linearGradient id="paint66_linear_743_6233" x1="979.898" y1="283.141" x2="569.239" y2="283.141" gradientUnits="userSpaceOnUse">
<stop stop-color="white"/>
<stop offset="1" stop-color="#D6D5D5"/>
</linearGradient>
<linearGradient id="paint67_linear_743_6233" x1="978.157" y1="283.759" x2="566.965" y2="283.759" gradientUnits="userSpaceOnUse">
<stop stop-color="white"/>
<stop offset="1" stop-color="#D6D5D5"/>
</linearGradient>
<linearGradient id="paint68_linear_743_6233" x1="973.737" y1="283.748" x2="562.544" y2="283.748" gradientUnits="userSpaceOnUse">
<stop stop-color="white"/>
<stop offset="1" stop-color="#D6D5D5"/>
</linearGradient>
<linearGradient id="paint69_linear_743_6233" x1="988.675" y1="283.706" x2="578.014" y2="283.706" gradientUnits="userSpaceOnUse">
<stop stop-color="white"/>
<stop offset="1" stop-color="#D6D5D5"/>
</linearGradient>
<linearGradient id="paint70_linear_743_6233" x1="986.933" y1="284.337" x2="576.276" y2="284.337" gradientUnits="userSpaceOnUse">
<stop stop-color="white"/>
<stop offset="1" stop-color="#D6D5D5"/>
</linearGradient>
<linearGradient id="paint71_linear_743_6233" x1="978.524" y1="284.833" x2="567.33" y2="284.833" gradientUnits="userSpaceOnUse">
<stop stop-color="white"/>
<stop offset="1" stop-color="#D6D5D5"/>
</linearGradient>
<linearGradient id="paint72_linear_743_6233" x1="974.669" y1="284.037" x2="563.475" y2="284.037" gradientUnits="userSpaceOnUse">
<stop stop-color="white"/>
<stop offset="1" stop-color="#D6D5D5"/>
</linearGradient>
<linearGradient id="paint73_linear_743_6233" x1="994.759" y1="284.057" x2="584.104" y2="284.057" gradientUnits="userSpaceOnUse">
<stop stop-color="white"/>
<stop offset="1" stop-color="#D6D5D5"/>
</linearGradient>
<linearGradient id="paint74_linear_743_6233" x1="990.339" y1="285.631" x2="579.146" y2="285.631" gradientUnits="userSpaceOnUse">
<stop stop-color="white"/>
<stop offset="1" stop-color="#D6D5D5"/>
</linearGradient>
<linearGradient id="paint75_linear_743_6233" x1="984.292" y1="286.112" x2="573.101" y2="286.112" gradientUnits="userSpaceOnUse">
<stop stop-color="white"/>
<stop offset="1" stop-color="#D6D5D5"/>
</linearGradient>
<linearGradient id="paint76_linear_743_6233" x1="982.555" y1="286.749" x2="571.365" y2="286.749" gradientUnits="userSpaceOnUse">
<stop stop-color="white"/>
<stop offset="1" stop-color="#D6D5D5"/>
</linearGradient>
<linearGradient id="paint77_linear_743_6233" x1="999.604" y1="286.75" x2="588.949" y2="286.75" gradientUnits="userSpaceOnUse">
<stop stop-color="white"/>
<stop offset="1" stop-color="#D6D5D5"/>
</linearGradient>
<linearGradient id="paint78_linear_743_6233" x1="992.578" y1="287.362" x2="581.387" y2="287.362" gradientUnits="userSpaceOnUse">
<stop stop-color="white"/>
<stop offset="1" stop-color="#D6D5D5"/>
</linearGradient>
<linearGradient id="paint79_linear_743_6233" x1="989.945" y1="287.351" x2="578.751" y2="287.351" gradientUnits="userSpaceOnUse">
<stop stop-color="white"/>
<stop offset="1" stop-color="#D6D5D5"/>
</linearGradient>
<linearGradient id="paint80_linear_743_6233" x1="985.961" y1="287.848" x2="574.768" y2="287.848" gradientUnits="userSpaceOnUse">
<stop stop-color="white"/>
<stop offset="1" stop-color="#D6D5D5"/>
</linearGradient>
<linearGradient id="paint81_linear_743_6233" x1="1969.22" y1="2522.94" x2="406.163" y2="-2002.3" gradientUnits="userSpaceOnUse">
<stop stop-color="white"/>
<stop offset="1" stop-color="#D6D5D5"/>
</linearGradient>
<linearGradient id="paint82_linear_743_6233" x1="788.434" y1="236.527" x2="2079.14" y2="2227.34" gradientUnits="userSpaceOnUse">
<stop stop-color="white"/>
<stop offset="1" stop-color="#D6D5D5"/>
</linearGradient>
<linearGradient id="paint83_linear_743_6233" x1="3066.43" y1="174.415" x2="3066.43" y2="9756.22" gradientUnits="userSpaceOnUse">
<stop stop-color="#D6D5D5"/>
<stop offset="1" stop-color="white"/>
</linearGradient>
<linearGradient id="paint84_linear_743_6233" x1="376.625" y1="912.494" x2="2689.52" y2="912.494" gradientUnits="userSpaceOnUse">
<stop stop-color="white"/>
<stop offset="1" stop-color="#D6D5D5"/>
</linearGradient>
<linearGradient id="paint85_linear_743_6233" x1="882.375" y1="408.723" x2="882.375" y2="3337.22" gradientUnits="userSpaceOnUse">
<stop stop-color="white"/>
<stop offset="1" stop-color="#D6D5D5"/>
</linearGradient>
<linearGradient id="paint86_linear_743_6233" x1="399.754" y1="891.226" x2="2712.55" y2="891.226" gradientUnits="userSpaceOnUse">
<stop stop-color="white"/>
<stop offset="1" stop-color="#D6D5D5"/>
</linearGradient>
<linearGradient id="paint87_linear_743_6233" x1="905.703" y1="387.45" x2="905.703" y2="4446.45" gradientUnits="userSpaceOnUse">
<stop stop-color="white"/>
<stop offset="1" stop-color="#D6D5D5"/>
</linearGradient>
<linearGradient id="paint88_linear_743_6233" x1="422.883" y1="866.301" x2="2736.19" y2="866.301" gradientUnits="userSpaceOnUse">
<stop stop-color="white"/>
<stop offset="1" stop-color="#D6D5D5"/>
</linearGradient>
<linearGradient id="paint89_linear_743_6233" x1="928.834" y1="362.386" x2="928.834" y2="5932.69" gradientUnits="userSpaceOnUse">
<stop stop-color="white"/>
<stop offset="1" stop-color="#D6D5D5"/>
</linearGradient>
<linearGradient id="paint90_linear_743_6233" x1="446.016" y1="871.151" x2="2758.92" y2="871.151" gradientUnits="userSpaceOnUse">
<stop stop-color="white"/>
<stop offset="1" stop-color="#D6D5D5"/>
</linearGradient>
<linearGradient id="paint91_linear_743_6233" x1="951.765" y1="367.424" x2="951.765" y2="4426.52" gradientUnits="userSpaceOnUse">
<stop stop-color="white"/>
<stop offset="1" stop-color="#D6D5D5"/>
</linearGradient>
</defs>
</svg>