<svg width="567" height="485" viewBox="0 0 567 485" fill="none" xmlns="http://www.w3.org/2000/svg">
<g clip-path="url(#clip0_1_144)">
<path d="M566.85 237.37C566.85 249.14 565.564 260.86 562.772 272.25C561.853 275.997 560.751 279.733 559.49 283.407C559.122 284.46 558.755 285.513 558.363 286.554C558.044 287.411 557.714 288.269 557.383 289.114C557.285 289.346 557.199 289.579 557.101 289.812C556.746 290.694 556.391 291.575 556.011 292.445C555.95 292.58 555.889 292.727 555.828 292.873C555.46 293.731 555.081 294.588 554.701 295.433C554.529 295.813 554.358 296.18 554.187 296.548C553.844 297.307 553.489 298.054 553.121 298.801C552.741 299.597 552.35 300.381 551.958 301.165C551.811 301.446 551.676 301.728 551.529 301.997C551.186 302.671 550.831 303.345 550.488 304.018C550.206 304.545 549.925 305.059 549.643 305.574C548.345 307.974 546.985 310.338 545.565 312.677C544.989 313.632 544.401 314.587 543.801 315.53C543.666 315.763 543.519 315.996 543.372 316.228C542.687 317.306 541.989 318.384 541.278 319.462C540.703 320.331 540.127 321.201 539.527 322.07C539.013 322.83 538.498 323.577 537.972 324.336C537.861 324.495 537.751 324.654 537.629 324.814C537.09 325.597 536.526 326.381 535.975 327.165C535.29 328.132 534.591 329.075 533.893 330.031C533.746 330.227 533.612 330.423 533.465 330.606C532.669 331.696 531.848 332.774 531.04 333.84C530.55 334.476 530.06 335.125 529.558 335.75C528.676 336.914 527.77 338.065 526.851 339.216C525.982 340.318 525.1 341.408 524.206 342.498C524.108 342.621 524.01 342.731 523.912 342.853C523.03 343.943 522.148 345.021 521.242 346.099C520.985 346.429 520.703 346.76 520.434 347.078C519.613 348.07 518.781 349.062 517.948 350.042C515.547 352.884 513.123 355.7 510.685 358.493C505.725 364.2 500.655 369.87 495.487 375.504C491.188 380.157 486.828 384.787 482.383 389.33C461.049 411.24 437.951 431.68 412.832 447.969C409.709 449.99 406.562 451.961 403.378 453.835C402.214 454.521 401.051 455.207 399.887 455.88C399.691 455.991 399.483 456.113 399.287 456.223C398.087 456.909 396.887 457.583 395.674 458.244C394.437 458.93 393.2 459.603 391.951 460.253L390.261 461.134C387.824 462.408 385.362 463.633 382.876 464.808C381.541 465.445 380.206 466.058 378.859 466.658C377.622 467.221 376.373 467.772 375.124 468.311C374.61 468.531 374.107 468.752 373.593 468.96C372.454 469.45 371.303 469.915 370.152 470.381C367.935 471.275 365.694 472.132 363.44 472.94C362.583 473.259 361.714 473.565 360.844 473.871C360.354 474.043 359.864 474.202 359.374 474.373C358.566 474.643 357.758 474.912 356.949 475.169C356.251 475.402 355.541 475.622 354.843 475.843C354.818 475.855 354.794 475.855 354.77 475.867C353.386 476.296 352.002 476.712 350.618 477.117C348.426 477.753 346.233 478.341 344.029 478.905C342.572 479.272 341.114 479.615 339.645 479.946C338.261 480.264 336.877 480.558 335.481 480.852C335.37 480.876 335.26 480.901 335.15 480.913C333.705 481.207 332.247 481.489 330.79 481.746C330.043 481.881 329.308 482.003 328.561 482.126C327.814 482.248 327.067 482.371 326.308 482.481C325.634 482.591 324.948 482.689 324.275 482.775C323.454 482.897 322.621 483.007 321.801 483.118C313.093 484.232 304.361 484.697 295.629 484.599C295.102 484.599 294.588 484.587 294.061 484.575C286.15 484.428 278.238 483.816 270.364 482.799C269.788 482.726 269.212 482.652 268.637 482.566C267.645 482.432 266.653 482.297 265.661 482.15L263.346 481.783C260.076 481.268 256.831 480.68 253.585 480.019C252.863 479.884 252.152 479.737 251.442 479.578C249.262 479.125 247.07 478.635 244.902 478.121C243.445 477.778 242 477.423 240.555 477.055C239.832 476.872 239.109 476.688 238.387 476.492C237.664 476.308 236.942 476.112 236.219 475.916C233.341 475.145 230.475 474.312 227.622 473.442C224.303 472.438 221.008 471.373 217.726 470.246C216.538 469.842 215.338 469.425 214.15 469.009C210.464 467.699 206.777 466.315 203.14 464.882C202.491 464.625 201.83 464.355 201.144 464.074C200.617 463.853 200.091 463.62 199.539 463.375C199.184 463.216 198.829 463.057 198.462 462.886C196.086 461.808 193.502 460.546 190.722 459.126C190.256 458.881 189.779 458.636 189.301 458.391C187.599 457.497 185.823 456.554 183.998 455.55C180.165 453.443 176.062 451.116 171.751 448.581C122.751 419.752 47.7386 365.645 30.1275 345.131C29.2334 344.09 28.3639 343.037 27.4944 341.972C26.8208 341.139 26.1472 340.294 25.4981 339.436C24.898 338.665 24.3101 337.893 23.7345 337.097C23.2202 336.411 22.718 335.713 22.2282 335.003C21.7628 334.354 21.2974 333.693 20.8443 333.031C20.8198 332.982 20.783 332.933 20.7463 332.884C20.1952 332.064 19.6441 331.243 19.1052 330.41C18.5908 329.614 18.0765 328.818 17.5866 328.01C17.3416 327.63 17.1089 327.238 16.8763 326.847C16.3251 325.94 15.7863 325.034 15.2597 324.128C15.2597 324.128 15.2556 324.12 15.2474 324.103C14.684 323.099 14.1207 322.095 13.5696 321.078C12.6143 319.302 11.6958 317.514 10.8385 315.702C10.6181 315.236 10.3976 314.759 10.1772 314.293C8.43811 310.57 6.90724 306.774 5.59682 302.916C5.11918 301.569 4.69054 300.209 4.27414 298.85C3.74753 297.099 3.2699 295.335 2.829 293.572C2.74328 293.216 2.65755 292.873 2.58407 292.518C2.36362 291.6 2.15542 290.669 1.97172 289.738C1.69004 288.44 1.45735 287.142 1.2369 285.831C1.18791 285.513 1.12668 285.195 1.08994 284.876C0.979716 284.203 0.88174 283.529 0.796012 282.843C0.685789 282.035 0.587814 281.214 0.502085 280.406C0.465344 280.124 0.44085 279.855 0.416356 279.586C0.342875 278.887 0.293887 278.189 0.232652 277.504C0.232652 277.442 0.232652 277.381 0.220405 277.332C0.15917 276.499 0.110183 275.679 0.0856887 274.858C0.0856887 274.772 0.0856887 274.699 0.0856887 274.626C0.0489479 273.756 0.024454 272.886 0.012207 272.017C0.012207 271.686 0.012207 271.368 0.012207 271.049C0.012207 270.535 0.012207 270.033 0.012207 269.519C0.024454 268.245 0.0611948 266.959 0.146923 265.685C0.195911 264.852 0.257146 264.02 0.330628 263.199C0.477591 261.558 0.673542 259.917 0.918481 258.288C1.04095 257.455 1.17567 256.622 1.33488 255.802C1.6288 254.149 1.98397 252.495 2.40036 250.842C3.50259 246.494 4.91099 242.306 6.62556 238.289C7.92373 235.19 9.39337 232.214 11.0222 229.3C11.1447 229.055 11.2916 228.797 11.4386 228.552C18.0397 216.93 27.0167 206.618 37.1327 197.066C38.2104 196.037 39.3004 195.033 40.4149 194.041C41.5784 192.975 42.7541 191.934 43.942 190.881C44.0155 190.82 44.089 190.746 44.1625 190.685C46.0607 189.019 47.9835 187.378 49.9308 185.749C52.9313 183.239 55.9808 180.777 59.0547 178.328C59.1527 178.242 59.2629 178.169 59.3609 178.083C61.994 176.001 64.6516 173.931 67.2969 171.874C71.4609 168.653 75.6371 165.444 79.7276 162.248C80.8176 161.402 81.8953 160.557 82.9608 159.712C84.1487 158.782 85.3122 157.851 86.4757 156.92C97.4489 148.127 106.904 138.77 115.697 129.193C117.399 127.331 119.089 125.458 120.767 123.572C121.563 122.665 122.359 121.771 123.143 120.865C134.324 108.128 144.722 95.2445 156.296 83.0833C159.051 80.1807 161.868 77.3272 164.77 74.5226C167.22 72.1835 169.706 69.881 172.29 67.6276C175.242 65.0312 178.279 62.4961 181.463 60.0467C185.811 56.6666 190.391 53.4211 195.29 50.3227C196.49 49.5511 197.678 48.804 198.878 48.0692C320.992 -27.8251 410.873 -3.04954 470.834 48.0692C475.353 51.9025 479.713 55.9073 483.889 60.0467C486.436 62.5084 488.898 65.0557 491.286 67.6276C491.556 67.897 491.801 68.1787 492.058 68.4726C493.736 70.2607 495.364 72.061 496.957 73.8736C497.434 74.4124 497.9 74.9513 498.365 75.4901C499.063 76.2984 499.761 77.1067 500.447 77.9273C501.292 78.9193 502.125 79.9235 502.958 80.9278C503.484 81.5646 503.999 82.2015 504.513 82.8383C507.856 86.9533 511.041 91.1295 514.078 95.3302C514.69 96.163 515.29 97.008 515.89 97.8531C520.079 103.732 523.973 109.671 527.586 115.574C528.101 116.419 528.615 117.264 529.117 118.097C529.631 118.942 530.134 119.787 530.623 120.632C531.113 121.465 531.603 122.31 532.081 123.143C532.571 123.988 533.048 124.821 533.514 125.654C533.979 126.486 534.444 127.331 534.91 128.164C535.388 128.997 535.841 129.83 536.269 130.65C536.722 131.483 537.163 132.316 537.604 133.137C538.045 133.957 538.474 134.79 538.902 135.61C539.319 136.431 539.747 137.252 540.164 138.06C540.58 138.88 540.984 139.701 541.388 140.509C542.993 143.742 544.511 146.939 545.957 150.086C546.667 151.678 547.377 153.258 548.051 154.814C551.1 161.819 553.709 168.518 555.84 174.752C555.852 174.776 555.864 174.813 555.864 174.837C556.073 175.437 556.269 176.025 556.464 176.613C556.673 177.226 556.869 177.826 557.065 178.426C557.212 178.891 557.371 179.344 557.505 179.81C557.726 180.495 557.946 181.181 558.155 181.879C558.387 182.626 558.608 183.374 558.816 184.121C559.22 185.492 559.612 186.864 559.979 188.248C560.298 189.411 560.604 190.575 560.898 191.75C560.959 191.971 561.02 192.179 561.069 192.4C561.118 192.583 561.155 192.767 561.204 192.951C561.375 193.636 561.547 194.322 561.706 195.02C562.147 196.845 562.551 198.682 562.931 200.519C563.139 201.523 563.347 202.515 563.531 203.52C563.568 203.703 563.604 203.887 563.641 204.083C563.825 205.026 563.996 205.969 564.156 206.912C564.376 208.174 564.584 209.447 564.768 210.709C564.927 211.664 565.062 212.631 565.197 213.599C565.209 213.734 565.233 213.881 565.258 214.028C565.344 214.664 565.429 215.314 565.503 215.963C565.576 216.501 565.637 217.04 565.699 217.567C565.919 219.514 566.115 221.449 566.274 223.397L566.385 224.719C566.434 225.454 566.482 226.201 566.531 226.936C566.58 227.756 566.629 228.577 566.666 229.41C566.703 230.047 566.727 230.671 566.752 231.308C566.789 232.239 566.813 233.182 566.825 234.113C566.85 235.19 566.862 236.28 566.862 237.37H566.85Z" fill="white"/>
<path opacity="0.2" d="M16.2516 257.492C16.0067 257.333 16.0679 257.223 16.2516 257.492V257.492Z" fill="#263238"/>
<path opacity="0.2" d="M130.797 246.69C129.548 255.018 123.4 261.791 115.403 264.412L112.366 265.404C101.441 280.872 82.2872 287.473 65.962 277.883L61.1857 275.079L47.8121 259.182C47.8121 259.182 47.7018 259.207 47.6528 259.219C43.4154 260.101 38.6268 259.452 35.4916 256.464C34.9895 259.084 31.5726 260.627 29.2824 259.28C26.9922 257.933 26.6983 254.186 28.7436 252.483C26.0492 254.859 21.8853 253.769 19.2889 251.173C19.1787 244.082 19.9258 236.991 21.6771 229.998C22.7793 225.65 24.1877 221.462 25.9023 217.445C27.2004 214.346 28.6701 211.37 30.2989 208.455C30.4214 208.211 30.5683 207.953 30.7153 207.708C33.128 203.446 35.859 199.368 38.8595 195.437L40.4027 194.041C41.5661 192.975 42.7418 191.934 43.9298 190.881C44.0033 190.82 44.0767 190.746 44.1502 190.685C46.0485 189.02 47.9713 187.378 49.9185 185.75C52.919 183.239 55.9685 180.777 59.0425 178.328C59.1405 178.242 59.2507 178.169 59.3487 178.083C61.9818 176.001 64.6394 173.931 67.2847 171.874C68.6196 170.845 69.9423 169.816 71.2772 168.788C72.0855 168.886 72.8693 169.069 73.6286 169.339C76.8986 170.478 77.4619 173.478 79.7276 175.536C82.7403 178.291 85.6306 173.662 90.2722 173.809C104.54 174.25 99.0043 188.885 105.973 187.048C136.064 179.112 131.006 217.604 117.926 226.054C125.641 232.447 132.292 236.672 130.797 246.69Z" fill="black"/>
<path d="M66.0967 283.284C94.1259 283.284 116.848 260.842 116.848 233.158C116.848 205.473 94.1259 183.031 66.0967 183.031C38.0675 183.031 15.3453 205.473 15.3453 233.158C15.3453 260.842 38.0675 283.284 66.0967 283.284Z" fill="white" stroke="#263238" stroke-miterlimit="10"/>
<path d="M66.0967 276.842C91.6504 276.842 112.366 256.379 112.366 231.137C112.366 205.894 91.6504 185.431 66.0967 185.431C40.5431 185.431 19.8278 205.894 19.8278 231.137C19.8278 256.379 40.5431 276.842 66.0967 276.842Z" fill="#263238" stroke="white" stroke-miterlimit="10"/>
<path d="M16.3741 249.152C13.4593 250.965 12.6265 257.051 14.929 259.697C17.2314 262.317 21.6158 260.297 22.5098 256.182C22.9385 257.333 24.2856 257.517 24.9837 256.525C25.4736 255.814 25.4981 254.712 25.1552 253.953C24.9347 253.769 25.0205 253.634 25.1552 253.953C26.6493 255.141 29.2212 253.843 29.5763 251.32C28.4863 258.055 34.6098 263.934 39.1167 260.505C37.7818 263.371 39.5331 267.13 41.86 267.853C44.1869 268.576 46.6853 267.204 48.9142 265.673C51.1432 264.142 53.4211 262.403 55.8583 262.293C57.9892 262.195 59.9487 263.395 61.9695 264.105C68.4114 266.347 75.9555 263.371 80.8788 256.623C84.1365 262.195 92.1582 260.15 94.3137 253.206C94.7668 256.451 96.9835 258.925 99.4697 258.962C101.944 258.998 104.454 256.586 105.299 253.353V253.389C105.348 256.463 108.092 257.97 110.051 255.986C112.549 253.463 114.105 248.834 112.88 245.123C116.223 244.988 119.444 241.118 119.959 236.636C120.473 232.153 118.207 227.659 114.987 226.777C120.51 224.487 124.845 216.955 125.054 209.276C125.249 201.609 121.306 194.469 115.881 192.681C113.811 191.995 111.398 192.13 109.647 193.979C109.01 189.607 107.014 185.701 104.099 183.741C99.4452 180.594 92.9665 182.749 89.5006 188.603C91.1907 185.578 91.3009 181.206 89.7701 178.34C88.227 175.487 85.1775 174.335 82.5811 175.695C82.0177 171.004 78.4049 167.673 74.8655 168.579C71.3384 169.486 68.4726 174.507 68.7788 179.246C68.4481 175.425 63.9413 174.482 62.3124 177.691C62.2389 177.813 62.4471 177.985 62.3124 177.691C60.059 172.964 55.4786 170.539 51.2289 171.923C46.7098 173.405 42.9132 179.087 42.3376 185.272C39.2147 182.431 34.6711 182.553 31.3276 185.578C27.9842 188.591 26.0492 194.322 26.6371 199.454C23.1222 195.988 17.2069 197.874 14.7943 203.238C12.3816 208.602 14.0472 216.208 18.1132 218.449C15.3086 218.877 12.8347 222.601 12.8347 226.373C12.8347 230.157 15.3209 233.378 18.1377 233.28C15.2964 233.525 12.6265 236.881 12.2102 240.689C11.7938 244.51 13.692 248.331 16.4109 249.164L16.3741 249.152Z" fill="#FFCBA1"/>
<g opacity="0.2">
<path d="M63.0227 231.59C61.6021 230.402 59.7896 229.826 58.0627 230.365C56.3359 230.904 54.7438 232.704 54.3519 234.921C53.96 237.138 54.9765 239.587 56.6788 240.003C58.7486 240.518 60.8673 238.203 62.9738 238.46C63.7208 238.546 64.4067 238.962 65.1415 239.171C68.1665 240.016 71.216 237.309 73.7878 234.749C74.6941 233.855 75.6126 232.925 76.225 231.7C76.8373 230.475 77.0945 228.859 76.5556 227.671C75.8086 226.017 73.9715 225.883 72.4407 226.201C69.3544 226.838 66.3662 228.602 63.9045 231.222C63.9903 230.61 64.0882 229.985 64.174 229.361L63.0105 231.59H63.0227Z" fill="white"/>
<path d="M107.259 225.552C106.451 224.866 105.605 224.168 104.638 223.935C103.658 223.703 102.507 224.033 101.87 225.087C101.001 226.52 101.49 228.663 102.556 229.692C103.609 230.72 105.042 230.941 106.402 231.124C107.798 231.32 109.561 231.271 110.284 229.655C110.81 228.479 110.431 226.985 109.696 226.128C108.961 225.27 107.945 224.903 106.977 224.56L107.271 225.552H107.259Z" fill="white"/>
<path d="M38.0145 200.532C35.1732 202.197 32.9443 205.651 32.2094 209.496C31.989 210.66 31.989 212.093 32.7728 212.656C33.3239 213.048 34.0342 212.827 34.6833 212.595C37.3899 211.615 40.1087 210.635 42.8153 209.656C41.5171 210.366 40.1822 211.101 39.129 212.35C38.0757 213.587 37.3532 215.461 37.6593 217.151C38.0145 219.135 39.7168 220.261 41.3457 220.139C42.9745 220.004 44.5054 218.89 45.8403 217.604C47.2732 216.232 48.6816 214.358 48.7428 212.154C48.8163 209.937 46.6608 208.027 45.3137 209.521C48.4122 208.259 51.3882 206.373 54.0825 203.948C55.0622 203.067 56.0175 202.087 56.6544 200.801C57.2789 199.503 57.5239 197.837 56.985 196.576C54.3397 190.342 50.6778 199.944 48.951 200.887C45.6933 202.675 42.1417 198.119 38.0145 200.544V200.532Z" fill="white"/>
<path d="M24.947 228.626C24.6409 229.9 24.8123 231.394 25.5961 232.153C26.3799 232.912 27.8006 232.557 28.1925 231.32C26.3799 232.153 24.4327 233.096 23.2692 235.105C22.1057 237.113 22.3262 240.481 24.1142 241.118C25.2287 241.522 26.4412 240.738 27.4822 239.954C30.4459 237.738 33.2872 235.215 35.9693 232.423C35.1242 234.835 37.0103 237.395 39.0188 237.493C41.0273 237.591 42.9255 236.084 44.6769 234.651C46.8201 232.888 49.294 230.23 48.7918 227.193C48.3509 224.548 45.6934 223.519 43.6114 224.438C41.5294 225.344 39.9373 227.573 38.4554 229.691C39.6311 227.512 38.0758 224.487 36.0918 224.266C34.169 224.058 32.2095 225.674 30.9848 227.548C33.2627 225.834 33.8383 221.706 30.8378 221.413C28.8783 221.217 25.4614 226.507 24.9593 228.626H24.947Z" fill="white"/>
<path d="M86.8309 215.644C85.1531 214.934 82.9976 216.477 82.4955 218.743C81.9933 221.009 83.267 223.482 85.0551 223.727C83.7324 223.948 82.4587 224.866 81.5892 226.214C81.0993 226.961 80.7319 227.904 80.8176 228.834C80.9524 230.218 82.0913 231.051 83.1935 231.039C84.2958 231.027 85.349 230.365 86.3655 229.716C85.2755 229.912 84.1243 230.145 83.2425 231.051C82.3608 231.957 81.9566 233.782 82.7159 234.713C83.3528 235.497 84.4182 235.289 85.3 234.921C87.284 234.101 89.1456 232.668 90.6642 230.794C91.7542 232.313 93.3953 233.354 95.0608 232.9C96.7142 232.459 98.1593 230.12 97.6817 228.124C97.3388 226.703 96.1631 225.858 94.9874 225.748C93.7994 225.638 92.6114 226.128 91.4602 226.667C92.6359 225.54 93.8974 224.291 94.3505 222.527C94.8037 220.764 93.9341 218.486 92.5012 218.718C90.8969 218.976 90.0273 221.805 88.7537 222.882C87.235 221.119 90.211 217.065 86.8309 215.644Z" fill="white"/>
<path d="M58.173 208.933C56.3237 210.611 55.6379 213.746 55.7113 216.538C55.7971 219.612 56.8381 222.846 59.0303 223.948C61.9205 225.393 65.6314 222.074 66.2437 218.032C66.8561 213.991 64.8598 210.035 62.0675 208.333C62.0675 208.333 60.01 207.243 58.173 208.921V208.933Z" fill="white"/>
<path d="M78.6376 204.341C78.8826 204.598 79.1275 204.867 79.3724 205.124C78.1722 203.202 75.5514 203.091 74.0573 204.916C72.5509 206.729 72.4897 210.084 73.9103 211.738C75.3432 213.391 77.964 212.987 79.25 210.917C81.332 212.032 84.1243 211.382 85.6551 209.007C87.186 206.631 86.9166 202.675 84.9203 201.328C82.9241 199.993 79.8011 202.369 79.9725 205.308C79.6909 204.916 79.3969 204.512 79.1153 204.12L78.6376 204.341Z" fill="white"/>
<path d="M101.086 207.598C99.6044 209.496 98.0735 211.529 97.4979 214.052C96.9223 216.575 97.7429 219.698 99.6901 220.225C101.625 220.739 103.523 218.571 104.675 216.367C105.716 214.371 106.524 211.921 105.985 209.754C105.446 207.586 102.985 206.435 101.711 208.21L101.086 207.598Z" fill="white"/>
<path d="M68.8891 194.518C68.191 192.473 65.8763 191.885 64.321 193.183C62.7656 194.494 62.1532 197.249 62.7901 199.344C63.4147 201.438 65.1048 202.773 66.8928 202.907C69.0973 203.079 71.7671 200.642 71.314 197.898C72.2447 199.442 73.9471 199.98 75.5147 199.687C77.0945 199.393 78.5641 198.388 79.9603 197.311C81.8463 195.829 83.8671 193.6 83.7201 190.893C83.5976 188.738 81.9933 187.158 80.291 187.06C78.5886 186.962 76.8986 188.076 75.5759 189.571C74.5349 190.746 73.6654 192.167 72.5387 193.208C71.4119 194.249 69.9056 194.861 68.7421 194.126L68.9013 194.518H68.8891Z" fill="white"/>
</g>
<path d="M437.804 270.364H155.304V389.343H437.804V270.364Z" fill="#FF873A" stroke="black" stroke-miterlimit="10"/>
<path d="M187.783 277.552H161.207V292.261H187.783V277.552Z" fill="#FF873A" stroke="black" stroke-miterlimit="10"/>
<path d="M431.264 349.283H389.404V363.992H431.264V349.283Z" fill="#FF873A" stroke="black" stroke-miterlimit="10"/>
<path d="M431.276 295.935H405.435V310.644H431.276V295.935Z" fill="#FF873A" stroke="black" stroke-miterlimit="10"/>
<path d="M187.783 331.133H161.207V345.841H187.783V331.133Z" fill="#FF873A" stroke="black" stroke-miterlimit="10"/>
<path d="M182.725 313.424H161.207V328.132H182.725V313.424Z" fill="#FF873A" stroke="black" stroke-miterlimit="10"/>
<path d="M175.915 295.482H161.207V310.191H175.915V295.482Z" fill="#FF873A" stroke="black" stroke-miterlimit="10"/>
<path d="M194.702 295.482H179.994V310.191H194.702V295.482Z" fill="#FF873A" stroke="black" stroke-miterlimit="10"/>
<path d="M213.477 295.482H198.768V310.191H213.477V295.482Z" fill="#FF873A" stroke="black" stroke-miterlimit="10"/>
<path d="M232.251 295.482H217.543V310.191H232.251V295.482Z" fill="#FF873A" stroke="black" stroke-miterlimit="10"/>
<path d="M251.038 295.482H236.329V310.191H251.038V295.482Z" fill="#FF873A" stroke="black" stroke-miterlimit="10"/>
<path d="M269.813 295.482H255.104V310.191H269.813V295.482Z" fill="#FF873A" stroke="black" stroke-miterlimit="10"/>
<path d="M288.599 295.482H273.891V310.191H288.599V295.482Z" fill="#FF873A" stroke="black" stroke-miterlimit="10"/>
<path d="M307.374 295.482H292.665V310.191H307.374V295.482Z" fill="#FF873A" stroke="black" stroke-miterlimit="10"/>
<path d="M326.149 295.482H311.44V310.191H326.149V295.482Z" fill="#FF873A" stroke="black" stroke-miterlimit="10"/>
<path d="M344.935 295.482H330.227V310.191H344.935V295.482Z" fill="#FF873A" stroke="black" stroke-miterlimit="10"/>
<path d="M363.71 295.482H349.001V310.191H363.71V295.482Z" fill="#FF873A" stroke="black" stroke-miterlimit="10"/>
<path d="M382.484 295.482H367.776V310.191H382.484V295.482Z" fill="#FF873A" stroke="black" stroke-miterlimit="10"/>
<path d="M401.271 295.482H386.563V310.191H401.271V295.482Z" fill="#FF873A" stroke="black" stroke-miterlimit="10"/>
<path d="M175.915 367.421H161.207V382.129H175.915V367.421Z" fill="#FF873A" stroke="black" stroke-miterlimit="10"/>
<path d="M194.702 367.421H179.994V382.129H194.702V367.421Z" fill="#FF873A" stroke="black" stroke-miterlimit="10"/>
<path d="M213.477 367.421H198.768V382.129H213.477V367.421Z" fill="#FF873A" stroke="black" stroke-miterlimit="10"/>
<path d="M235.497 367.421H217.543V382.129H235.497V367.421Z" fill="#FF873A" stroke="black" stroke-miterlimit="10"/>
<path d="M329.394 367.421H239.563V382.129H329.394V367.421Z" fill="#FF873A" stroke="black" stroke-miterlimit="10"/>
<path d="M374.304 367.421H359.595V382.129H374.304V367.421Z" fill="#FF873A" stroke="black" stroke-miterlimit="10"/>
<path d="M393.09 367.421H378.382V382.129H393.09V367.421Z" fill="#FF873A" stroke="black" stroke-miterlimit="10"/>
<path d="M411.89 367.421H397.181V382.129H411.89V367.421Z" fill="#FF873A" stroke="black" stroke-miterlimit="10"/>
<path d="M355.909 367.421H333.068V382.129H355.909V367.421Z" fill="#FF873A" stroke="black" stroke-miterlimit="10"/>
<path d="M431.264 367.421H416.556V382.129H431.264V367.421Z" fill="#FF873A" stroke="black" stroke-miterlimit="10"/>
<path d="M201.609 313.424H186.901V328.132H201.609V313.424Z" fill="#FF873A" stroke="black" stroke-miterlimit="10"/>
<path d="M220.396 313.424H205.688V328.132H220.396V313.424Z" fill="#FF873A" stroke="black" stroke-miterlimit="10"/>
<path d="M239.171 313.424H224.462V328.132H239.171V313.424Z" fill="#FF873A" stroke="black" stroke-miterlimit="10"/>
<path d="M257.945 313.424H243.237V328.132H257.945V313.424Z" fill="#FF873A" stroke="black" stroke-miterlimit="10"/>
<path d="M276.732 313.424H262.024V328.132H276.732V313.424Z" fill="#FF873A" stroke="black" stroke-miterlimit="10"/>
<path d="M295.507 313.424H280.798V328.132H295.507V313.424Z" fill="#FF873A" stroke="black" stroke-miterlimit="10"/>
<path d="M314.281 313.424H299.573V328.132H314.281V313.424Z" fill="#FF873A" stroke="black" stroke-miterlimit="10"/>
<path d="M333.068 313.424H318.359V328.132H333.068V313.424Z" fill="#FF873A" stroke="black" stroke-miterlimit="10"/>
<path d="M351.843 313.424H337.134V328.132H351.843V313.424Z" fill="#FF873A" stroke="black" stroke-miterlimit="10"/>
<path d="M370.617 313.424H355.909V328.132H370.617V313.424Z" fill="#FF873A" stroke="black" stroke-miterlimit="10"/>
<path d="M389.404 313.424H374.695V328.132H389.404V313.424Z" fill="#FF873A" stroke="black" stroke-miterlimit="10"/>
<path d="M408.179 313.424H393.47V328.132H408.179V313.424Z" fill="#FF873A" stroke="black" stroke-miterlimit="10"/>
<path d="M431.276 313.424V346.062H416.568V328.132H412.245V313.424H431.276Z" fill="#FF873A" stroke="black" stroke-miterlimit="10"/>
<path d="M205.92 331.353H191.212V346.062H205.92V331.353Z" fill="#FF873A" stroke="black" stroke-miterlimit="10"/>
<path d="M224.695 331.353H209.986V346.062H224.695V331.353Z" fill="#FF873A" stroke="black" stroke-miterlimit="10"/>
<path d="M243.482 331.353H228.773V346.062H243.482V331.353Z" fill="#FF873A" stroke="black" stroke-miterlimit="10"/>
<path d="M262.256 331.353H247.548V346.062H262.256V331.353Z" fill="#FF873A" stroke="black" stroke-miterlimit="10"/>
<path d="M281.031 331.353H266.322V346.062H281.031V331.353Z" fill="#FF873A" stroke="black" stroke-miterlimit="10"/>
<path d="M299.818 331.353H285.109V346.062H299.818V331.353Z" fill="#FF873A" stroke="black" stroke-miterlimit="10"/>
<path d="M318.592 331.353H303.884V346.062H318.592V331.353Z" fill="#FF873A" stroke="black" stroke-miterlimit="10"/>
<path d="M337.367 331.353H322.658V346.062H337.367V331.353Z" fill="#FF873A" stroke="black" stroke-miterlimit="10"/>
<path d="M356.154 331.353H341.445V346.062H356.154V331.353Z" fill="#FF873A" stroke="black" stroke-miterlimit="10"/>
<path d="M374.928 331.353H360.219V346.062H374.928V331.353Z" fill="#FF873A" stroke="black" stroke-miterlimit="10"/>
<path d="M393.703 331.353H378.994V346.062H393.703V331.353Z" fill="#FF873A" stroke="black" stroke-miterlimit="10"/>
<path d="M412.489 331.353H397.781V346.062H412.489V331.353Z" fill="#FF873A" stroke="black" stroke-miterlimit="10"/>
<path d="M197.935 349.283H183.227V363.992H197.935V349.283Z" fill="#FF873A" stroke="black" stroke-miterlimit="10"/>
<path d="M216.722 349.283H202.014V363.992H216.722V349.283Z" fill="#FF873A" stroke="black" stroke-miterlimit="10"/>
<path d="M235.497 349.283H220.788V363.992H235.497V349.283Z" fill="#FF873A" stroke="black" stroke-miterlimit="10"/>
<path d="M254.271 349.283H239.563V363.992H254.271V349.283Z" fill="#FF873A" stroke="black" stroke-miterlimit="10"/>
<path d="M273.058 349.283H258.349V363.992H273.058V349.283Z" fill="#FF873A" stroke="black" stroke-miterlimit="10"/>
<path d="M291.833 349.283H277.124V363.992H291.833V349.283Z" fill="#FF873A" stroke="black" stroke-miterlimit="10"/>
<path d="M310.607 349.283H295.899V363.992H310.607V349.283Z" fill="#FF873A" stroke="black" stroke-miterlimit="10"/>
<path d="M329.394 349.283H314.685V363.992H329.394V349.283Z" fill="#FF873A" stroke="black" stroke-miterlimit="10"/>
<path d="M348.169 349.283H333.46V363.992H348.169V349.283Z" fill="#FF873A" stroke="black" stroke-miterlimit="10"/>
<path d="M366.943 349.283H352.234V363.992H366.943V349.283Z" fill="#FF873A" stroke="black" stroke-miterlimit="10"/>
<path d="M385.73 349.283H371.021V363.992H385.73V349.283Z" fill="#FF873A" stroke="black" stroke-miterlimit="10"/>
<path d="M205.92 278.447H191.212V293.155H205.92V278.447Z" fill="#FF873A" stroke="black" stroke-miterlimit="10"/>
<path d="M224.695 278.447H209.986V293.155H224.695V278.447Z" fill="#FF873A" stroke="black" stroke-miterlimit="10"/>
<path d="M243.482 278.447H228.773V293.155H243.482V278.447Z" fill="#FF873A" stroke="black" stroke-miterlimit="10"/>
<path d="M262.256 278.447H247.548V293.155H262.256V278.447Z" fill="#FF873A" stroke="black" stroke-miterlimit="10"/>
<path d="M281.031 278.447H266.322V293.155H281.031V278.447Z" fill="#FF873A" stroke="black" stroke-miterlimit="10"/>
<path d="M299.818 278.447H285.109V293.155H299.818V278.447Z" fill="#FF873A" stroke="black" stroke-miterlimit="10"/>
<path d="M318.592 278.447H303.884V293.155H318.592V278.447Z" fill="#FF873A" stroke="black" stroke-miterlimit="10"/>
<path d="M337.367 278.447H322.658V293.155H337.367V278.447Z" fill="#FF873A" stroke="black" stroke-miterlimit="10"/>
<path d="M356.154 278.447H341.445V293.155H356.154V278.447Z" fill="#FF873A" stroke="black" stroke-miterlimit="10"/>
<path d="M374.928 278.447H360.219V293.155H374.928V278.447Z" fill="#FF873A" stroke="black" stroke-miterlimit="10"/>
<path d="M393.703 278.447H378.994V293.155H393.703V278.447Z" fill="#FF873A" stroke="black" stroke-miterlimit="10"/>
<path d="M412.489 278.447H397.781V293.155H412.489V278.447Z" fill="#FF873A" stroke="black" stroke-miterlimit="10"/>
<path d="M431.264 278.447H416.556V293.155H431.264V278.447Z" fill="#FF873A" stroke="black" stroke-miterlimit="10"/>
<path d="M179.026 349.283H161.207V363.992H179.026V349.283Z" fill="#FF873A" stroke="black" stroke-miterlimit="10"/>
<path d="M155.304 271.123L161.207 269.151H433.971L437.853 271.098L155.304 271.123Z" fill="#FF873A" stroke="#ED5500" stroke-miterlimit="10"/>
<path opacity="0.2" d="M356.95 475.169L351.206 440.572C349.944 435.416 347.238 430.725 343.429 427.026C332.003 416.004 316.902 404.688 316.253 390.237C315.261 368.155 311.82 368.817 312.187 363.367C312.199 363.171 313.902 360.734 316.118 355.284C316.829 353.52 317.306 350.899 317.784 348.744C318.274 346.478 320.429 344.935 322.732 345.254C324.275 345.462 325.793 346.16 326.883 347.201C328.978 349.234 329.908 352.234 329.994 355.161C330.08 358.076 329.431 360.966 328.769 363.808C330.827 368.413 331.794 374.009 332.456 379.006C333.766 374.965 334.758 370.886 336.069 366.857C336.338 366.71 336.24 366.392 336.497 366.245C334.648 362.277 336.216 362.497 332.554 353.765C326.393 339.069 319.523 324.899 314.612 306.431C314.22 304.998 314.244 302.646 314.722 301.238C316.498 295.96 321.936 297.172 324.311 300.246C324.948 301.054 325.414 301.961 325.781 302.916C328.292 309.493 333.644 319.633 337.501 325.512L350.838 345.841C350.838 345.841 355.48 342.033 356.19 340.33H356.203C356.901 338.604 357.244 324.801 357.244 324.801C357.244 324.801 356.19 327.385 353.851 327.238C352.161 327.116 348.732 328.096 346.295 325.352C344.299 323.111 344.298 319.743 346.074 317.343L352.112 309.186C352.112 309.186 356.166 305.635 361.591 308.047C367.004 310.472 372.258 315.518 372.258 315.518C372.258 315.518 377.28 315.261 381.541 317.306C385.816 319.364 390.298 325.267 390.298 325.267C390.298 325.267 395.283 325.573 397.524 327.202C398.087 327.606 405.692 339.449 402.949 348.671C401.32 354.169 400.316 362.154 399.581 364.298L395.846 418.294L403.378 453.835L387.273 462.812C381.346 466.119 375.149 468.887 368.743 471.103L356.95 475.169Z" fill="black"/>
<path d="M402.68 412.073L402.827 357.941C403.415 355.749 403.892 347.715 405.141 342.118C407.26 332.737 398.895 321.421 398.295 321.054C395.944 319.584 390.959 319.609 390.959 319.609C390.959 319.609 386.097 314.012 381.688 312.248C377.304 310.497 372.307 311.085 372.307 311.085C372.307 311.085 366.735 306.394 361.163 304.337C355.59 302.291 351.781 306.1 351.781 306.1L346.307 314.636C344.69 317.147 344.923 320.515 347.054 322.621C349.675 325.205 353.031 323.993 354.721 323.993C357.072 323.993 357.942 321.348 357.942 321.348C357.942 321.348 358.517 335.138 357.942 336.889H357.929C357.329 338.653 352.945 342.755 352.945 342.755L338.298 323.356C334.048 317.747 328.035 307.986 325.095 301.593C324.667 300.663 324.14 299.781 323.442 299.021C320.87 296.107 315.371 295.262 313.938 300.65C313.559 302.095 313.693 304.435 314.171 305.843C320.307 323.944 328.096 337.624 335.211 351.879C339.449 360.342 337.869 360.244 339.975 364.065C339.73 364.236 339.841 364.555 339.583 364.702C338.542 368.817 337.832 372.944 336.791 377.059C335.799 372.123 334.464 366.6 332.101 362.142C332.578 359.264 333.031 356.337 332.737 353.422C332.468 350.508 331.341 347.581 329.112 345.695C327.961 344.727 326.393 344.139 324.838 344.029C322.523 343.858 320.478 345.548 320.135 347.838C319.805 350.018 319.511 352.663 318.898 354.463C317.049 360.048 315.518 362.583 315.518 362.779C315.518 368.241 318.898 367.347 321.36 389.33C323.27 406.439 345.315 417.756 357.317 430.113L370.103 470.344C384.946 464.392 399.153 456.774 412.783 447.932L402.631 412.036L402.68 412.073Z" fill="white"/>
<mask id="mask0_1_144" style="mask-type:luminance" maskUnits="userSpaceOnUse" x="313" y="296" width="100" height="175">
<path d="M402.68 412.073L402.827 357.941C403.415 355.749 403.892 347.715 405.141 342.118C407.26 332.737 398.895 321.421 398.295 321.054C395.944 319.584 390.959 319.609 390.959 319.609C390.959 319.609 386.097 314.012 381.688 312.248C377.304 310.497 372.307 311.085 372.307 311.085C372.307 311.085 366.735 306.394 361.163 304.337C355.59 302.291 351.781 306.1 351.781 306.1L346.307 314.636C344.69 317.147 344.923 320.515 347.054 322.621C349.675 325.205 353.031 323.993 354.721 323.993C357.072 323.993 357.942 321.348 357.942 321.348C357.942 321.348 358.517 335.138 357.942 336.889H357.929C357.329 338.653 352.945 342.755 352.945 342.755L338.298 323.356C334.048 317.747 328.035 307.986 325.095 301.593C324.667 300.663 324.14 299.781 323.442 299.021C320.87 296.107 315.371 295.262 313.938 300.65C313.559 302.095 313.693 304.435 314.171 305.843C320.307 323.944 328.096 337.624 335.211 351.879C339.449 360.342 337.869 360.244 339.975 364.065C339.73 364.236 339.841 364.555 339.583 364.702C338.542 368.817 337.832 372.944 336.791 377.059C335.799 372.123 334.464 366.6 332.101 362.142C332.578 359.264 333.031 356.337 332.737 353.422C332.468 350.508 331.341 347.581 329.112 345.695C327.961 344.727 326.393 344.139 324.838 344.029C322.523 343.858 320.478 345.548 320.135 347.838C319.805 350.018 319.511 352.663 318.898 354.463C317.049 360.048 315.518 362.583 315.518 362.779C315.518 368.241 318.898 367.347 321.36 389.33C323.27 406.439 345.315 417.756 357.317 430.113L370.103 470.344C384.946 464.392 399.153 456.774 412.783 447.932L402.631 412.036L402.68 412.073Z" fill="white"/>
</mask>
<g mask="url(#mask0_1_144)">
<path d="M317.772 359.607C317.698 359.864 317.649 360.195 317.87 360.366C318.188 360.636 318.617 360.219 318.862 359.877C320.441 357.635 323.564 356.619 326.161 357.513C327.153 357.488 327.483 355.982 326.834 355.235C326.185 354.488 325.083 354.353 324.091 354.353C323.099 354.353 322.034 354.402 321.201 353.876C320.172 353.226 319.768 351.916 320.025 350.789C319.364 353.741 318.531 356.668 317.772 359.607Z" fill="#92E3A9"/>
<g opacity="0.5">
<path d="M317.772 359.607C317.698 359.864 317.649 360.195 317.87 360.366C318.188 360.636 318.617 360.219 318.862 359.877C320.441 357.635 323.564 356.619 326.161 357.513C327.153 357.488 327.483 355.982 326.834 355.235C326.185 354.488 325.083 354.353 324.091 354.353C323.099 354.353 322.034 354.402 321.201 353.876C320.172 353.226 319.768 351.916 320.025 350.789C319.364 353.741 318.531 356.668 317.772 359.607Z" fill="#FF8302"/>
</g>
<path d="M329.333 382.448C329.48 382.178 329.602 381.909 329.737 381.627C329.48 381.823 329.308 382.092 329.333 382.448Z" fill="#92E3A9"/>
<path d="M332.97 363.477C332.725 360.452 333.154 357.427 333.031 354.402C332.909 351.377 332.113 348.193 329.908 346.111C326.749 343.135 318.09 344.654 320.993 350.312C321.801 351.879 323.871 352.688 325.487 351.989C327.104 351.291 327.9 349.087 327.018 347.568C330.521 352.871 330.202 360.415 326.271 365.412C330.753 369.294 332.186 376.263 329.725 381.639C330.251 381.235 331.17 381.186 331.733 381.615C332.59 382.264 332.872 383.391 333.301 384.383C333.717 385.375 334.525 386.403 335.603 386.33C337.073 382.729 336.583 378.614 335.628 374.842C334.672 371.07 333.264 367.372 332.958 363.489L332.97 363.477Z" fill="#92E3A9"/>
<path d="M364.653 306.688C362.963 305.402 360.967 304.52 358.86 304.251L364.653 306.688Z" fill="#92E3A9"/>
<path d="M379.055 345.009C378.59 342.927 377.635 340.992 377.059 338.934C375.724 334.146 376.557 329.026 375.945 324.091C375.149 317.71 371.83 311.685 366.845 307.607L364.653 306.676C366.747 308.28 368.364 310.546 369.062 313.093C370.752 318.935 371.291 325.046 372.038 331.096C373.201 340.416 374.904 349.663 377.133 358.787C378.59 354.316 380.072 349.589 379.043 344.996L379.055 345.009Z" fill="#92E3A9"/>
<path d="M358.113 312.407C358.138 312.615 358.162 312.811 358.187 313.02C358.223 312.824 358.223 312.615 358.113 312.407Z" fill="#92E3A9"/>
<path d="M351.708 337.195C347.409 328.757 343.111 320.319 338.396 312.113C335.64 307.313 332.713 302.573 329.027 298.446C327.398 296.609 322.707 292.371 320.123 295.164C318.396 297.025 320.662 300.418 318.543 302.426C319.033 302.451 321.421 302.193 321.678 302.512C327.055 309.162 330.019 317.71 329.896 326.259C331.623 324.899 333.987 326.785 335.346 328.524C343.637 339.191 351.402 350.275 358.578 361.714C357.182 356.656 357.158 351.291 355.651 346.258C354.708 343.098 353.202 340.134 351.708 337.195Z" fill="#92E3A9"/>
<path d="M401.602 357.758C403.66 352.271 405.252 346.637 405.435 340.808C405.595 335.505 404.394 330.006 401.59 325.475C400.879 324.324 397.94 319.633 396.324 320.013C393.446 320.698 397.23 325.695 397.879 326.944C400.365 331.659 402.912 336.644 402.753 341.971C402.631 346.074 400.904 349.932 399.52 353.802C398.553 356.496 397.769 359.374 397.793 362.203C397.585 362.522 397.389 362.84 397.156 363.146C395.246 365.645 392.564 367.714 389.465 368.217C390.653 364.567 391.829 360.905 393.017 357.256C393.433 355.957 393.593 354.169 392.833 353.263C393.078 352.761 393.225 352.234 393.213 351.671C393.176 350.667 392.601 349.773 392.172 348.854C390.531 345.327 391.094 341.224 391.486 337.354C391.976 332.578 392.16 327.667 390.763 323.074C389.367 318.482 386.122 314.22 381.566 312.701C381.958 313.118 382.35 313.546 382.729 313.963L381.186 312.836C382.142 314.82 383.097 316.816 384.052 318.812C383.697 319.315 383.342 319.817 382.999 320.319C384.579 319.486 386.6 320.686 387.322 322.327C388.045 323.956 387.849 325.83 387.677 327.606C386.746 337.513 387.249 347.544 389.122 357.317C388.939 359.595 388.547 361.909 387.359 363.857C386.073 365.951 383.673 367.531 381.235 367.176C381.774 364.824 380.868 362.044 378.872 360.648C376.398 364.077 377.855 369.405 378.235 373.311C378.81 379.227 379.753 385.105 381.076 390.898C381.456 385.877 382.509 380.904 384.199 376.153C385.534 380.99 386.869 385.828 388.192 390.665C388.228 389.306 388.29 387.897 388.951 386.709C389.612 385.522 391.07 384.664 392.331 385.142C393.372 385.534 393.935 386.636 394.352 387.665C397.818 395.98 398.687 405.349 396.813 414.155C398.455 415.073 400.635 413.959 401.541 412.318C402.447 410.677 402.447 408.693 402.41 406.807C402.129 390.469 401.835 374.132 401.553 357.794L401.602 357.758Z" fill="#92E3A9"/>
<path d="M360.085 362.938C359.301 364.31 362.51 369.772 363.036 371.07C365.731 377.659 368.437 384.248 371.132 390.837C370.238 382.154 368.119 373.605 364.849 365.522C364.298 364.151 361.628 360.207 360.073 362.938H360.085Z" fill="#92E3A9"/>
<g opacity="0.5">
<path d="M329.333 382.448C329.48 382.178 329.602 381.909 329.737 381.627C329.48 381.823 329.308 382.092 329.333 382.448Z" fill="white"/>
<path d="M332.97 363.477C332.725 360.452 333.154 357.427 333.031 354.402C332.909 351.377 332.113 348.193 329.908 346.111C326.749 343.135 318.09 344.654 320.993 350.312C321.801 351.879 323.871 352.688 325.487 351.989C327.104 351.291 327.9 349.087 327.018 347.568C330.521 352.871 330.202 360.415 326.271 365.412C330.753 369.294 332.186 376.263 329.725 381.639C330.251 381.235 331.17 381.186 331.733 381.615C332.59 382.264 332.872 383.391 333.301 384.383C333.717 385.375 334.525 386.403 335.603 386.33C337.073 382.729 336.583 378.614 335.628 374.842C334.672 371.07 333.264 367.372 332.958 363.489L332.97 363.477Z" fill="#FF8302"/>
<path d="M364.653 306.688C362.963 305.402 360.967 304.52 358.86 304.251L364.653 306.688Z" fill="white"/>
<path d="M379.055 345.009C378.59 342.927 377.635 340.992 377.059 338.934C375.724 334.146 376.557 329.026 375.945 324.091C375.149 317.71 371.83 311.685 366.845 307.607L364.653 306.676C366.747 308.28 368.364 310.546 369.062 313.093C370.752 318.935 371.291 325.046 372.038 331.096C373.201 340.416 374.904 349.663 377.133 358.787C378.59 354.316 380.072 349.589 379.043 344.996L379.055 345.009Z" fill="#FF8302"/>
<path d="M358.113 312.407C358.138 312.615 358.162 312.811 358.187 313.02C358.223 312.824 358.223 312.615 358.113 312.407Z" fill="white"/>
<path d="M351.708 337.195C347.409 328.757 343.111 320.319 338.396 312.113C335.64 307.313 332.713 302.573 329.027 298.446C327.398 296.609 322.707 292.371 320.123 295.164C318.396 297.025 320.662 300.418 318.543 302.426C319.033 302.451 321.421 302.193 321.678 302.512C327.055 309.162 330.019 317.71 329.896 326.259C331.623 324.899 333.987 326.785 335.346 328.524C343.637 339.191 351.402 350.275 358.578 361.714C357.182 356.656 357.158 351.291 355.651 346.258C354.708 343.098 353.202 340.134 351.708 337.195Z" fill="#FF8302"/>
<path d="M401.602 357.758C403.66 352.271 405.252 346.637 405.435 340.808C405.595 335.505 404.394 330.006 401.59 325.475C400.879 324.324 397.94 319.633 396.324 320.013C393.446 320.698 397.23 325.695 397.879 326.944C400.365 331.659 402.912 336.644 402.753 341.971C402.631 346.074 400.904 349.932 399.52 353.802C398.553 356.496 397.769 359.374 397.793 362.203C397.585 362.522 397.389 362.84 397.156 363.146C395.246 365.645 392.564 367.714 389.465 368.217C390.653 364.567 391.829 360.905 393.017 357.256C393.433 355.957 393.593 354.169 392.833 353.263C393.078 352.761 393.225 352.234 393.213 351.671C393.176 350.667 392.601 349.773 392.172 348.854C390.531 345.327 391.094 341.224 391.486 337.354C391.976 332.578 392.16 327.667 390.763 323.074C389.367 318.482 386.122 314.22 381.566 312.701C381.958 313.118 382.35 313.546 382.729 313.963L381.186 312.836C382.142 314.82 383.097 316.816 384.052 318.812C383.697 319.315 383.342 319.817 382.999 320.319C384.579 319.486 386.6 320.686 387.322 322.327C388.045 323.956 387.849 325.83 387.677 327.606C386.746 337.513 387.249 347.544 389.122 357.317C388.939 359.595 388.547 361.909 387.359 363.857C386.073 365.951 383.673 367.531 381.235 367.176C381.774 364.824 380.868 362.044 378.872 360.648C376.398 364.077 377.855 369.405 378.235 373.311C378.81 379.227 379.753 385.105 381.076 390.898C381.456 385.877 382.509 380.904 384.199 376.153C385.534 380.99 386.869 385.828 388.192 390.665C388.228 389.306 388.29 387.897 388.951 386.709C389.612 385.522 391.07 384.664 392.331 385.142C393.372 385.534 393.935 386.636 394.352 387.665C397.818 395.98 398.687 405.349 396.813 414.155C398.455 415.073 400.635 413.959 401.541 412.318C402.447 410.677 402.447 408.693 402.41 406.807C402.129 390.469 401.835 374.132 401.553 357.794L401.602 357.758Z" fill="#FF8302"/>
<path d="M360.085 362.938C359.301 364.31 362.51 369.772 363.036 371.07C365.731 377.659 368.437 384.248 371.132 390.837C370.238 382.154 368.119 373.605 364.849 365.522C364.298 364.151 361.628 360.207 360.073 362.938H360.085Z" fill="#FF8302"/>
</g>
</g>
<path d="M319.278 358.934C317.857 360.06 316.633 361.432 315.69 362.975L319.278 358.934Z" fill="white"/>
<path d="M370.152 470.381L357.366 430.149C345.364 417.792 323.319 406.476 321.409 389.367C318.947 367.396 315.567 368.278 315.567 362.816C315.567 362.62 317.098 360.072 318.947 354.5C319.547 352.688 319.854 350.042 320.184 347.874C320.527 345.584 322.572 343.894 324.887 344.066C326.442 344.176 328.01 344.764 329.161 345.731C331.39 347.617 332.517 350.557 332.786 353.459C333.08 356.374 332.615 359.289 332.149 362.179C334.513 366.637 335.848 372.148 336.84 377.096C337.881 372.981 338.591 368.854 339.632 364.739C339.89 364.579 339.779 364.261 340.024 364.102C337.918 360.281 339.485 360.379 335.26 351.916C328.145 337.661 320.343 323.981 314.22 305.88C313.73 304.484 313.608 302.132 313.987 300.687C315.42 295.298 320.919 296.156 323.491 299.058C324.189 299.817 324.716 300.699 325.144 301.63C328.083 308.023 334.097 317.784 338.346 323.393L352.994 342.792C352.994 342.792 357.366 338.689 357.978 336.938H357.99C358.566 335.174 357.99 321.384 357.99 321.384C357.99 321.384 357.109 324.03 354.77 324.03C353.079 324.03 349.724 325.23 347.103 322.658C344.972 320.564 344.739 317.196 346.356 314.673L351.83 306.137C351.83 306.137 355.639 302.328 361.211 304.373C366.784 306.431 372.356 311.121 372.356 311.121C372.356 311.121 377.353 310.534 381.737 312.285C386.146 314.048 391.008 319.645 391.008 319.645C391.008 319.645 396.005 319.621 398.344 321.09C398.932 321.458 407.309 332.762 405.19 342.155C403.929 347.752 403.463 355.786 402.876 357.978L402.729 412.11L412.881 448.006" stroke="#263238" stroke-miterlimit="10"/>
<path d="M373.654 313.02C375.822 321.005 376.936 329.271 376.998 337.538C376.998 338.922 376.998 340.342 377.439 341.653C377.879 342.963 378.896 344.176 380.243 344.457" stroke="#263238" stroke-miterlimit="10"/>
<path d="M390.972 321.066C394.609 328.733 390.886 345.854 391.155 347.066C391.425 348.279 392.123 349.442 393.225 350.005" stroke="#263238" stroke-miterlimit="10"/>
<path d="M359.399 311.966C358.97 314.404 358.615 317.233 358.186 319.67C355.345 317.245 353.533 313.644 353.275 309.921" stroke="#263238" stroke-miterlimit="10"/>
<path d="M335.934 377.316C335.052 377.708 334.17 378.088 333.288 378.48" stroke="#263238" stroke-miterlimit="10"/>
<path d="M336.607 379.435C336.179 381.468 336.166 383.587 336.583 385.632" stroke="#263238" stroke-miterlimit="10"/>
<path d="M352.088 356.545C353.067 358.309 354.047 360.06 355.015 361.824" stroke="#263238" stroke-miterlimit="10"/>
<path d="M357.721 337.232C358.689 335.86 359.668 334.489 360.636 333.117" stroke="#263238" stroke-miterlimit="10"/>
<path d="M398.712 356.545C398.418 357.623 398.124 358.701 397.83 359.766" stroke="#263238" stroke-miterlimit="10"/>
<path d="M391.584 347.715C392.441 344.972 393.298 342.229 394.168 339.485" stroke="#263238" stroke-miterlimit="10"/>
<path d="M400.206 333.129C401.724 332.247 403.917 332.933 404.664 334.513" stroke="#263238" stroke-miterlimit="10"/>
<path d="M382.607 319.07C384.628 318.482 386.942 319.008 388.51 320.417" stroke="#263238" stroke-miterlimit="10"/>
<path d="M328.059 327.238C329.945 325.144 332.86 324.042 335.664 324.373" stroke="#263238" stroke-miterlimit="10"/>
<path d="M317.012 304.128C318.764 302.843 321.041 302.316 323.185 302.683" stroke="#263238" stroke-miterlimit="10"/>
<path d="M319.278 358.934C317.857 360.06 316.633 361.432 315.69 362.975" stroke="#263238" stroke-miterlimit="10"/>
<path d="M320.454 353.373C322.389 351.989 325.475 355.088 327.251 353.508C327.961 352.883 328.01 351.793 327.851 350.85C327.692 349.92 327.361 348.977 327.496 348.046" stroke="#263238" stroke-miterlimit="10"/>
<path d="M375.063 344.886C377.414 349.712 377.904 355.419 376.41 360.587" stroke="#263238" stroke-miterlimit="10"/>
<path d="M389.294 352.43C389.686 354.721 389.232 357.145 388.069 359.166" stroke="#263238" stroke-miterlimit="10"/>
<path opacity="0.2" d="M270.878 370.813C270.988 371.658 270.951 372.528 270.768 373.36C269.972 377.047 267.669 387.787 266.824 393.666C265.82 400.843 254.222 423.058 254.222 423.058C254.222 423.058 243.543 436.334 238.105 443.241C235.435 446.634 231.21 460.363 227.622 473.442C223.09 472.071 218.608 470.589 214.15 469.009C210.464 467.699 206.777 466.315 203.14 464.882C198.021 462.861 191.493 459.652 183.998 455.55C186.031 448.165 187.391 442.482 187.366 442.151C187.305 441.38 191.726 432.868 191.726 432.868L187.868 382.117L185.59 374.389C184.402 370.397 183.655 366.282 183.349 362.167C182.871 355.884 183.398 349.552 184.929 343.392L191.579 333.521L194.69 333.288L204.316 319.841C204.316 319.841 209.521 318.274 210.856 322.193C212.191 326.124 206.52 333.435 206.52 333.435L204.573 345.523L209.202 356.839L211.603 357.721C211.603 357.721 212.411 337.795 211.86 333.815L216.979 315.628C216.979 315.628 220.029 309.554 220.972 306.492C221.902 303.443 227.377 300.418 230.524 305.769C230.524 305.769 232.276 308.488 231.014 312.224C229.728 315.959 228.663 318.898 228.663 318.898C228.663 318.898 227.499 334.305 227.132 334.734C226.765 335.138 229.398 357.672 229.398 357.672L231.406 358.566L232.116 337.073L236.293 316.877C236.293 316.877 235.95 307.166 242.796 308.341C242.796 308.341 246.004 307.974 247.829 311.477C249.654 314.967 247.915 338.212 247.915 338.212L249.605 362.24L252.312 380.77L255.496 368.07C255.496 368.07 255.68 349.871 267.167 348.315C267.167 348.315 270.584 347.703 271.282 350.079C271.98 352.443 269.58 357.305 269.923 361.958C270.18 365.228 270.645 368.915 270.878 370.813Z" fill="black"/>
<path d="M267.388 348.328C266.861 345.903 263.42 346.258 263.42 346.258C251.846 346.944 250.291 365.081 250.291 365.081L246.151 377.5L244.853 358.811L244.988 334.721C244.988 334.721 248.491 311.672 246.923 308.047C245.38 304.422 242.134 304.545 242.134 304.545C235.399 302.855 235.007 312.567 235.007 312.567L229.324 332.382L226.997 353.753L225.062 352.712C225.062 352.712 224.144 330.043 224.536 329.663C224.927 329.271 227.267 313.987 227.267 313.987C227.267 313.987 228.553 311.146 230.108 307.509C231.651 303.883 230.108 301.03 230.108 301.03C227.377 295.458 221.694 298.054 220.531 301.03C219.367 304.006 215.865 309.835 215.865 309.835L209.374 327.581C209.619 331.586 207.316 351.402 207.316 351.402L204.989 350.336L201.23 338.701L204.083 326.785C204.083 326.785 210.292 319.927 209.264 315.91C208.223 311.905 202.92 313.069 202.92 313.069L192.302 325.756H189.179L181.806 335.089C179.81 341.114 178.805 347.397 178.805 353.692C178.805 357.819 179.234 361.971 180.116 366.049L181.806 373.924V424.822C181.806 424.822 176.76 432.979 176.76 433.75C176.76 434.105 174.678 440.535 171.763 448.557C184.464 456.027 195.4 461.808 203.152 464.857C206.79 466.302 210.476 467.674 214.175 468.985C218.828 455.917 224.266 441.931 227.267 438.673C233.219 432.195 244.865 419.764 244.865 419.764C244.865 419.764 258.117 398.491 259.66 391.412C260.946 385.607 264.044 375.075 265.122 371.45C265.367 370.642 265.477 369.772 265.428 368.915C265.342 367.004 265.159 363.293 265.159 360.011C265.159 355.345 267.926 350.679 267.412 348.266L267.388 348.328Z" fill="white"/>
<mask id="mask1_1_144" style="mask-type:luminance" maskUnits="userSpaceOnUse" x="171" y="297" width="97" height="172">
<path d="M267.388 348.328C266.861 345.903 263.42 346.258 263.42 346.258C251.846 346.944 250.291 365.081 250.291 365.081L246.151 377.5L244.853 358.811L244.988 334.721C244.988 334.721 248.491 311.672 246.923 308.047C245.38 304.422 242.134 304.545 242.134 304.545C235.399 302.855 235.007 312.567 235.007 312.567L229.324 332.382L226.997 353.753L225.062 352.712C225.062 352.712 224.144 330.043 224.536 329.663C224.927 329.271 227.267 313.987 227.267 313.987C227.267 313.987 228.553 311.146 230.108 307.509C231.651 303.883 230.108 301.03 230.108 301.03C227.377 295.458 221.694 298.054 220.531 301.03C219.367 304.006 215.865 309.835 215.865 309.835L209.374 327.581C209.619 331.586 207.316 351.402 207.316 351.402L204.989 350.336L201.23 338.701L204.083 326.785C204.083 326.785 210.292 319.927 209.264 315.91C208.223 311.905 202.92 313.069 202.92 313.069L192.302 325.756H189.179L181.806 335.089C179.81 341.114 178.805 347.397 178.805 353.692C178.805 357.819 179.234 361.971 180.116 366.049L181.806 373.924V424.822C181.806 424.822 176.76 432.979 176.76 433.75C176.76 434.105 174.678 440.535 171.763 448.557C184.464 456.027 195.4 461.808 203.152 464.857C206.79 466.302 210.476 467.674 214.175 468.985C218.828 455.917 224.266 441.931 227.267 438.673C233.219 432.195 244.865 419.764 244.865 419.764C244.865 419.764 258.117 398.491 259.66 391.412C260.946 385.607 264.044 375.075 265.122 371.45C265.367 370.642 265.477 369.772 265.428 368.915C265.342 367.004 265.159 363.293 265.159 360.011C265.159 355.345 267.926 350.679 267.412 348.266L267.388 348.328Z" fill="white"/>
</mask>
<g mask="url(#mask1_1_144)">
<path d="M187.917 343.196C189.889 340.735 193.967 339.779 196.257 341.947C197.58 343.196 198.021 345.082 198.351 346.858C198.682 348.634 199.013 350.532 200.201 351.904C201.376 353.275 203.74 353.814 204.989 352.504C205.149 355.186 205.32 357.868 205.479 360.55C208.345 355.578 209.815 349.822 209.692 344.09C209.631 341.31 209.215 338.469 209.864 335.762C210.513 333.056 212.607 330.41 215.399 330.288C218.485 330.153 220.923 333.154 221.523 336.191C222.123 339.228 221.425 342.339 221.229 345.425C220.947 350.128 221.866 354.904 223.886 359.154C224.535 357.844 225.185 356.533 225.834 355.21C226.421 357.844 226.997 360.477 227.585 363.11C228.087 357.305 228.601 351.512 229.104 345.707C229.251 344.066 229.397 342.376 230.169 340.93C230.928 339.473 232.459 338.297 234.1 338.457C236.305 338.677 237.578 341.028 238.313 343.123C243.837 358.725 241.559 375.871 239.22 392.257C240.75 392.527 242.036 390.996 242.428 389.477C242.808 387.971 242.673 386.33 243.249 384.885C243.824 383.44 245.6 382.239 246.911 383.072C248.846 384.285 247.486 388.044 249.519 389.085C250.144 384.236 252.079 379.57 255.067 375.7C256.427 373.936 258.46 372.185 260.615 372.748C262.219 373.164 263.273 374.806 263.505 376.447C263.738 378.088 266.114 371.303 265.71 372.907C266.64 363.465 264.779 362.461 265.71 353.018C265.881 351.316 268.637 348.352 267.461 347.103C266.347 345.915 263.015 344.176 261.533 344.862C260.052 345.548 255.239 347.936 254.283 349.258C248.27 357.562 248.674 369.601 246.8 379.692C245.208 364.31 243.616 348.671 246.433 333.472C247.988 325.083 250.854 316.351 248.148 308.256C246.911 304.569 243.628 300.871 239.807 301.569C236.721 302.132 234.847 305.255 233.598 308.133C229.385 317.808 227.511 328.316 225.662 338.714C227.965 328.255 230.267 317.796 232.569 307.337C233.17 304.618 233.77 301.814 233.28 299.07C232.79 296.327 230.916 293.645 228.185 293.069C225.478 292.506 222.796 294.098 220.763 295.96C213.489 302.622 210.77 312.775 208.406 322.352C209.239 319.853 210.084 317.257 209.827 314.636C209.57 312.015 207.904 309.333 205.32 308.77C201.989 308.035 198.952 311.011 197.494 314.097C196.025 317.184 195.302 320.723 192.975 323.221C191.273 321.311 188.076 321.421 185.933 322.829C183.802 324.25 182.504 326.614 181.463 328.953C177.63 337.55 175.989 347.103 176.723 356.484C178.413 352.724 182.675 350.287 186.778 350.765C186.533 348.683 186.288 346.589 186.043 344.507" fill="#92E3A9"/>
<path opacity="0.5" d="M187.917 343.196C189.889 340.735 193.967 339.779 196.257 341.947C197.58 343.196 198.021 345.082 198.351 346.858C198.682 348.634 199.013 350.532 200.201 351.904C201.376 353.275 203.74 353.814 204.989 352.504C205.149 355.186 205.32 357.868 205.479 360.55C208.345 355.578 209.815 349.822 209.692 344.09C209.631 341.31 209.215 338.469 209.864 335.762C210.513 333.056 212.607 330.41 215.399 330.288C218.485 330.153 220.923 333.154 221.523 336.191C222.123 339.228 221.425 342.339 221.229 345.425C220.947 350.128 221.866 354.904 223.886 359.154C224.535 357.844 225.185 356.533 225.834 355.21C226.421 357.844 226.997 360.477 227.585 363.11C228.087 357.305 228.601 351.512 229.104 345.707C229.251 344.066 229.397 342.376 230.169 340.93C230.928 339.473 232.459 338.297 234.1 338.457C236.305 338.677 237.578 341.028 238.313 343.123C243.837 358.725 241.559 375.871 239.22 392.257C240.75 392.527 242.036 390.996 242.428 389.477C242.808 387.971 242.673 386.33 243.249 384.885C243.824 383.44 245.6 382.239 246.911 383.072C248.846 384.285 247.486 388.044 249.519 389.085C250.144 384.236 252.079 379.57 255.067 375.7C256.427 373.936 258.46 372.185 260.615 372.748C262.219 373.164 263.273 374.806 263.505 376.447C263.738 378.088 266.114 371.303 265.71 372.907C266.64 363.465 264.779 362.461 265.71 353.018C265.881 351.316 268.637 348.352 267.461 347.103C266.347 345.915 263.015 344.176 261.533 344.862C260.052 345.548 255.239 347.936 254.283 349.258C248.27 357.562 248.674 369.601 246.8 379.692C245.208 364.31 243.616 348.671 246.433 333.472C247.988 325.083 250.854 316.351 248.148 308.256C246.911 304.569 243.628 300.871 239.807 301.569C236.721 302.132 234.847 305.255 233.598 308.133C229.385 317.808 227.511 328.316 225.662 338.714C227.965 328.255 230.267 317.796 232.569 307.337C233.17 304.618 233.77 301.814 233.28 299.07C232.79 296.327 230.916 293.645 228.185 293.069C225.478 292.506 222.796 294.098 220.763 295.96C213.489 302.622 210.77 312.775 208.406 322.352C209.239 319.853 210.084 317.257 209.827 314.636C209.57 312.015 207.904 309.333 205.32 308.77C201.989 308.035 198.952 311.011 197.494 314.097C196.025 317.184 195.302 320.723 192.975 323.221C191.273 321.311 188.076 321.421 185.933 322.829C183.802 324.25 182.504 326.614 181.463 328.953C177.63 337.55 175.989 347.103 176.723 356.484C178.413 352.724 182.675 350.287 186.778 350.765C186.533 348.683 186.288 346.589 186.043 344.507" fill="#FF8309"/>
</g>
<path d="M171.751 448.581C174.666 440.559 176.748 434.13 176.748 433.774C176.748 433.003 181.794 424.846 181.794 424.846V373.948L180.104 366.073C179.222 361.995 178.793 357.843 178.793 353.716C178.793 347.409 179.797 341.139 181.794 335.113L189.166 325.781H192.289L202.907 313.093C202.907 313.093 208.21 311.93 209.251 315.934C210.292 319.964 204.071 326.81 204.071 326.81L201.217 338.726L204.977 350.36L207.304 351.426C207.304 351.426 209.607 331.61 209.362 327.606L215.852 309.86C215.852 309.86 219.355 304.03 220.519 301.054C221.682 298.078 227.377 295.482 230.096 301.054C230.096 301.054 231.639 303.896 230.096 307.533C228.54 311.158 227.254 314.012 227.254 314.012C227.254 314.012 224.927 329.296 224.523 329.688C224.131 330.067 225.05 352.736 225.05 352.736L226.985 353.777L229.312 332.406L234.994 312.591C234.994 312.591 235.386 302.879 242.122 304.569C242.122 304.569 245.355 304.434 246.911 308.072C248.466 311.685 244.976 334.746 244.976 334.746L244.841 358.835L246.139 377.524L250.279 365.106C250.279 365.106 251.834 346.968 263.407 346.282C263.407 346.282 266.849 345.927 267.375 348.352C267.89 350.765 265.122 355.431 265.122 360.097C265.122 363.379 265.306 367.078 265.391 369C265.44 369.858 265.342 370.715 265.085 371.535C264.007 375.148 260.909 385.693 259.623 391.498C258.08 398.577 244.829 419.85 244.829 419.85C244.829 419.85 233.182 432.28 227.23 438.759C224.229 442.017 218.792 456.003 214.138 469.07" stroke="#263238" stroke-miterlimit="10"/>
<path d="M207.096 353.349C207.769 355.762 207.096 358.517 205.357 360.33L207.096 353.349Z" fill="white"/>
<path d="M207.096 353.349C207.769 355.762 207.096 358.517 205.357 360.33" stroke="#263238" stroke-miterlimit="10"/>
<path d="M187.342 370.47C189.032 367.861 190.66 364.285 190.207 361.211C189.326 355.198 186.582 348.278 187.819 342.326C188.603 338.53 189.399 334.721 190.183 330.925" fill="white"/>
<path d="M187.342 370.47C189.032 367.861 190.66 364.285 190.207 361.211C189.326 355.198 186.582 348.278 187.819 342.326C188.603 338.53 189.399 334.721 190.183 330.925" stroke="#263238" stroke-miterlimit="10"/>
<path d="M236.17 313.669C238.166 313.142 240.285 313.154 242.281 313.681C242.306 313.118 242.33 312.542 242.355 311.979" stroke="#263238" stroke-miterlimit="10"/>
<path d="M220.09 306.014C221.266 306.859 222.919 306.97 224.193 306.296C225.466 305.622 226.311 304.19 226.275 302.744" stroke="#263238" stroke-miterlimit="10"/>
<path d="M264.35 348.523C260.946 349.295 258.411 352.81 258.729 356.276C259.733 356.57 260.725 356.876 261.73 357.17" stroke="#263238" stroke-miterlimit="10"/>
<path d="M224.94 350.03C225.074 352.088 224.829 356.999 224.964 359.056L224.94 350.03Z" fill="white"/>
<path d="M224.94 350.03C225.074 352.088 224.829 356.999 224.964 359.056" stroke="#263238" stroke-miterlimit="10"/>
<path d="M227.193 352.871C226.948 356.239 226.703 359.607 226.446 362.963C226.471 362.534 226.483 362.106 226.507 361.677" fill="white"/>
<path d="M227.193 352.871C226.948 356.239 226.703 359.607 226.446 362.963C226.471 362.534 226.483 362.106 226.507 361.677" stroke="#263238" stroke-miterlimit="10"/>
<path d="M245.882 381.26C246.776 384.946 246.372 388.926 244.743 392.355L245.882 381.26Z" fill="white"/>
<path d="M245.882 381.26C246.776 384.946 246.372 388.926 244.743 392.355" stroke="#263238" stroke-miterlimit="10"/>
<path d="M214.836 363.612C212.166 366.539 212.558 373.556 214.444 377.426" stroke="#263238" stroke-miterlimit="10"/>
<path d="M234.566 368.437C234.627 371.597 233.476 374.769 231.296 377.414" stroke="#263238" stroke-miterlimit="10"/>
<path d="M195.388 365.008C194.947 367.947 195.608 371.046 197.213 373.544" stroke="#263238" stroke-miterlimit="10"/>
<path d="M184.023 374.144C183.888 376.459 184.574 378.798 185.909 380.684" stroke="#263238" stroke-miterlimit="10"/>
<path d="M199.601 317.686C200.985 317.012 202.773 317.306 203.887 318.372C204.389 317.71 204.891 317.037 205.406 316.375" stroke="#263238" stroke-miterlimit="10"/>
<path d="M212.166 326.675C214.187 325.389 217.151 325.891 218.645 327.777" stroke="#263238" stroke-miterlimit="10"/>
<path d="M231.798 332.798C233.978 331.806 236.611 331.868 238.754 332.945" stroke="#263238" stroke-miterlimit="10"/>
<path d="M188.125 343.074C189.399 340.881 192.032 339.571 194.543 339.889" stroke="#263238" stroke-miterlimit="10"/>
<path d="M179.908 354.794C179.944 353.214 181.243 351.745 182.81 351.536" stroke="#263238" stroke-miterlimit="10"/>
<path d="M495.475 266.788C523.511 266.788 546.238 244.06 546.238 216.024C546.238 187.988 523.511 165.26 495.475 165.26C467.439 165.26 444.711 187.988 444.711 216.024C444.711 244.06 467.439 266.788 495.475 266.788Z" stroke="#263238" stroke-linecap="round" stroke-linejoin="round"/>
<path opacity="0.2" d="M552.937 217.347C542.111 235.092 538.266 232.704 501.353 250.389C482.616 259.366 464.502 230.5 476.749 200.875C477.349 199.429 482.64 192.118 482.64 192.118C484.869 182.32 493.001 174.115 502.786 171.812C512.559 169.498 523.508 173.184 529.889 180.949C536.821 174.813 546.875 172.535 555.828 174.752C556.256 176.001 556.661 177.226 557.052 178.426C557.199 178.891 557.359 179.344 557.493 179.81C557.959 181.243 558.4 182.676 558.804 184.121C559.612 186.864 560.359 189.62 561.057 192.4C556.979 191.261 552.876 191.236 549.006 193.122C546.3 194.445 544.034 196.625 541.217 197.703C538.4 198.768 534.506 198.168 533.428 195.351C534.788 201.009 540.727 199.319 546.422 200.434C555.252 202.173 557.481 209.864 552.937 217.334V217.347Z" fill="black"/>
<path d="M536.269 208.602C536.269 208.602 545.357 207.365 549.668 208.015C552.411 208.419 554.089 210.023 554.897 211.015C555.264 211.48 555.485 212.044 555.522 212.632L556.011 219.735C556.073 220.543 555.791 221.351 555.228 221.939C553.452 223.789 548.1 227.156 532.265 228.369C509.987 230.071 536.269 208.615 536.269 208.615V208.602Z" fill="white" stroke="#263238" stroke-linecap="round" stroke-linejoin="round"/>
<path d="M529.632 190.244C532.191 193.428 537.065 200.642 537.065 211.836C537.065 220.298 527.268 249.201 502.174 252.716C475.61 256.439 454.264 233.709 458.82 206.349C461.979 187.427 508.31 163.73 529.632 190.232V190.244Z" fill="white" stroke="#263238" stroke-linecap="round" stroke-linejoin="round"/>
<path d="M497.177 246.409C518.463 246.409 535.718 230.074 535.718 209.925C535.718 189.776 518.463 173.441 497.177 173.441C475.891 173.441 458.636 189.776 458.636 209.925C458.636 230.074 475.891 246.409 497.177 246.409Z" fill="white"/>
<path d="M497.091 241.779C514.569 241.779 528.738 228.373 528.738 211.836C528.738 195.298 514.569 181.892 497.091 181.892C479.614 181.892 465.445 195.298 465.445 211.836C465.445 228.373 479.614 241.779 497.091 241.779Z" fill="#263238"/>
<path d="M535.718 209.925C535.718 189.779 518.462 173.441 497.177 173.441C475.892 173.441 458.636 189.779 458.636 209.925" stroke="#263238" stroke-linecap="round" stroke-linejoin="round"/>
<path d="M525.541 234.615C531.86 228.124 535.706 219.453 535.706 209.925" stroke="#263238" stroke-linecap="round" stroke-linejoin="round"/>
<path d="M470.173 235.962C477.129 242.429 486.657 246.409 497.165 246.409C503.619 246.409 509.706 244.902 515.058 242.245" stroke="#263238" stroke-linecap="round" stroke-linejoin="round"/>
<path d="M464.613 229.459C465.115 230.206 465.654 230.941 466.217 231.663" stroke="#263238" stroke-linecap="round" stroke-linejoin="round"/>
<path d="M458.636 209.925C458.636 215.497 459.959 220.764 462.31 225.491" stroke="#263238" stroke-linecap="round" stroke-linejoin="round"/>
<path d="M553.734 219.906C553.734 219.906 546.863 215.106 535.718 219.453L553.734 219.906Z" fill="white"/>
<path d="M553.734 219.906C553.734 219.906 546.863 215.106 535.718 219.453" stroke="#263238" stroke-linecap="round" stroke-linejoin="round"/>
<path d="M547.818 223.25C545.185 224.034 540.776 224.928 533.563 225.491L547.818 223.25Z" fill="white"/>
<path d="M547.818 223.25C545.185 224.034 540.776 224.928 533.563 225.491" stroke="#263238" stroke-linecap="round" stroke-linejoin="round"/>
<path d="M551.382 221.731C551.382 221.731 550.966 222.099 549.668 222.613L551.382 221.731Z" fill="white"/>
<path d="M551.382 221.731C551.382 221.731 550.966 222.099 549.668 222.613" stroke="#263238" stroke-linecap="round" stroke-linejoin="round"/>
<path d="M557.493 179.81C557.359 179.344 557.2 178.891 557.053 178.426C554.713 171.176 551.701 163.215 548.039 154.814C547.365 153.258 546.655 151.679 545.945 150.086C545.663 150.111 545.393 150.135 545.124 150.16C541.609 150.515 537.911 150.956 535.02 152.952C532.118 154.985 530.403 159.161 532.277 162.162C534.114 165.138 538.927 166.791 538.168 170.184C530.317 174.605 520.74 174.09 512.008 176.319C506.754 177.654 501.782 180.018 497.422 183.202C497.41 183.202 497.41 183.202 497.398 183.202C496.014 184.243 494.679 185.345 493.43 186.533C492.879 187.06 492.303 187.636 491.813 188.272C491.813 188.272 491.809 188.281 491.801 188.297C491.078 189.215 490.527 190.244 490.417 191.408C490.111 194.678 493.087 196.907 496.259 198.327C496.847 198.597 496.81 199.442 496.21 199.65C494.14 200.483 492.119 201.45 490.49 202.957C490.478 202.957 490.466 202.969 490.454 202.981C489.449 203.887 490.27 205.59 491.642 205.406C491.789 205.381 491.972 205.369 492.131 205.357C493.479 205.259 494.74 205.418 495.83 205.798C497.704 206.459 499.014 207.733 499.149 209.3C499.345 211.787 496.516 214.028 492.842 214.309C491.948 214.395 492.634 215.461 493.944 215.681C496.553 216.146 499.21 215.644 501.782 215.044C504.856 214.309 508.138 213.244 509.877 210.611C510.612 209.496 510.833 208.039 510.612 206.716C510.306 204.904 509.167 203.324 507.354 203.14C513.037 202.467 518.671 201.34 524.157 199.772H524.169L525.896 199.246C527.537 198.756 529.264 198.156 530.636 197.176C531.493 196.564 532.203 195.841 532.706 194.898C533.979 192.436 532.179 188.542 529.46 189.056C537.359 185.958 545.712 184.145 553.697 181.292C554.971 180.826 556.244 180.336 557.493 179.798V179.81Z" fill="white"/>
<path d="M496.944 73.8736C489.547 80.4502 481.097 86.0348 472.573 91.0683C427.982 117.448 377.61 133.247 326.369 140.95C275.14 148.653 222.956 148.421 171.322 144.171C161.182 143.338 150.87 142.309 141.55 138.219C133.651 134.741 126.486 128.691 123.131 120.865C134.312 108.128 144.71 95.2445 156.283 83.0833C159.039 80.1807 161.856 77.3272 164.758 74.5226C167.208 72.1835 169.694 69.881 172.278 67.6276C175.229 65.0312 178.267 62.4961 181.451 60.0467C185.798 56.6666 190.379 53.4211 195.278 50.3227C196.478 49.5511 197.666 48.804 198.866 48.0692C320.98 -27.8251 410.861 -3.04954 470.822 48.0692C475.341 51.9025 479.701 55.9073 483.877 60.0467C486.424 62.5084 488.886 65.0557 491.274 67.6276C491.543 67.897 491.788 68.1787 492.046 68.4726C493.723 70.2607 495.352 72.061 496.944 73.8736Z" fill="white"/>
<path d="M501.77 61.7002L90.9213 63.574L97.1305 54.2663C100.119 49.7839 105.14 47.1018 110.529 47.1018H482.297C487.171 47.1018 491.788 49.3063 494.85 53.1028L501.77 61.7002Z" fill="white" stroke="#263238" stroke-linecap="round" stroke-linejoin="round"/>
<path d="M303.504 123.29H280.994C257.896 123.29 239.171 142.015 239.171 165.113V187.623C239.171 210.722 257.896 229.447 280.994 229.447H303.504C326.602 229.447 345.327 210.722 345.327 187.623V165.113C345.327 142.015 326.602 123.29 303.504 123.29Z" fill="#757575" stroke="#263238" stroke-linecap="round" stroke-linejoin="round"/>
<path d="M258.459 185.333V200.421C258.459 205.161 262.293 208.994 267.032 208.994H318.8C323.515 208.994 327.324 205.185 327.373 200.482C327.434 193.698 327.802 185.333 327.802 185.333H258.459Z" fill="#999999" stroke="#263238" stroke-linecap="round" stroke-linejoin="round"/>
<path d="M447.932 190.379H145.175C141.979 190.379 139.113 188.419 137.95 185.443L91.252 65.5947C90.0273 62.4595 92.3419 59.0793 95.7099 59.0793H497.397C500.765 59.0793 503.08 62.4595 501.855 65.5947L455.158 185.443C453.994 188.419 451.128 190.379 447.932 190.379Z" fill="#BFBFBF" stroke="#263238" stroke-linecap="round" stroke-linejoin="round"/>
<path d="M450.173 179.932H142.199L99.8248 66.6602H492.352L450.173 179.932Z" fill="#263238"/>
<path d="M327.447 190.22H258.79V194.923H327.447V190.22Z" fill="#263238"/>
<path d="M405.19 175.07H187.709C186.509 175.07 185.37 174.531 185.162 173.858L154.226 75.5761C153.883 74.4739 154.838 73.5798 156.381 73.5798H436.506C438.049 73.5798 439.004 74.4739 438.661 75.5761L407.725 173.858C407.517 174.531 406.378 175.07 405.178 175.07H405.19Z" fill="#FF840B"/>
<path d="M404.382 172.841H188.517L162.223 86.488H430.676L404.382 172.841Z" fill="#263238"/>
<path d="M219.502 107.92H178.634C177.63 107.92 176.956 108.459 177.152 109.133C177.348 109.794 178.316 110.345 179.308 110.345H219.943C220.947 110.345 221.658 109.806 221.547 109.133C221.425 108.459 220.506 107.92 219.502 107.92Z" fill="white"/>
<path d="M220.861 115.391H186.105C185.113 115.391 184.451 115.918 184.623 116.567C184.794 117.216 185.737 117.73 186.729 117.73H221.29C222.27 117.73 222.98 117.204 222.87 116.567C222.76 115.918 221.853 115.391 220.861 115.391Z" fill="white"/>
<path opacity="0.5" d="M222.184 122.592H182.749C181.769 122.592 181.132 123.094 181.304 123.719C181.475 124.344 182.406 124.846 183.374 124.846H222.588C223.556 124.846 224.254 124.344 224.144 123.719C224.033 123.094 223.152 122.592 222.172 122.592H222.184Z" fill="white"/>
<path d="M223.458 129.536H200.299C199.344 129.536 198.682 130.026 198.829 130.626C198.976 131.226 199.87 131.716 200.826 131.716H223.862C224.817 131.716 225.503 131.226 225.393 130.626C225.283 130.026 224.425 129.536 223.47 129.536H223.458Z" fill="white"/>
<path d="M224.695 136.26H186.582C185.639 136.26 185.015 136.737 185.174 137.313C185.345 137.889 186.227 138.366 187.17 138.366H225.074C226.005 138.366 226.691 137.901 226.581 137.313C226.471 136.725 225.626 136.26 224.683 136.26H224.695Z" fill="white"/>
<path d="M225.883 142.751H195.106C194.175 142.751 193.551 143.204 193.71 143.767C193.857 144.331 194.726 144.784 195.645 144.784H226.25C227.169 144.784 227.83 144.331 227.732 143.767C227.634 143.204 226.801 142.751 225.87 142.751H225.883Z" fill="white"/>
<path d="M227.046 149.033H196.772C195.866 149.033 195.241 149.474 195.388 150.025C195.535 150.564 196.38 151.005 197.286 151.005H227.401C228.308 151.005 228.957 150.564 228.859 150.025C228.761 149.487 227.94 149.033 227.034 149.033H227.046Z" fill="white"/>
<path d="M228.161 155.12H195.131C194.237 155.12 193.624 155.549 193.771 156.075C193.918 156.602 194.751 157.031 195.645 157.031H228.504C229.398 157.031 230.047 156.602 229.949 156.075C229.851 155.549 229.055 155.12 228.161 155.12Z" fill="white"/>
<path opacity="0.5" d="M229.238 161.011H207.904C207.022 161.011 206.41 161.427 206.533 161.942C206.655 162.456 207.476 162.86 208.345 162.86H229.569C230.451 162.86 231.088 162.444 230.99 161.942C230.904 161.427 230.108 161.011 229.226 161.011H229.238Z" fill="white"/>
<path opacity="0.5" d="M218.081 100.193H187.623C186.595 100.193 185.909 100.756 186.092 101.454C186.276 102.152 187.244 102.703 188.272 102.703H218.547C219.563 102.703 220.298 102.14 220.176 101.454C220.053 100.756 219.122 100.193 218.094 100.193H218.081Z" fill="white"/>
<path d="M216.612 92.1584H174.213C173.172 92.1584 172.486 92.7463 172.694 93.4689C172.902 94.1914 173.907 94.767 174.948 94.767H217.102C218.143 94.767 218.877 94.1914 218.755 93.4689C218.62 92.7463 217.677 92.1584 216.624 92.1584H216.612Z" fill="white"/>
<path d="M230.279 166.706H195.143C194.273 166.706 193.685 167.11 193.832 167.6C193.967 168.09 194.788 168.494 195.645 168.494H230.61C231.467 168.494 232.104 168.09 232.018 167.6C231.933 167.11 231.149 166.706 230.292 166.706H230.279Z" fill="white"/>
<path opacity="0.5" d="M233.855 110.651H241.779L241.387 107.626H233.402L233.855 110.651Z" fill="white"/>
<path opacity="0.5" d="M234.958 118.012H242.747L242.367 115.097H234.517L234.958 118.012Z" fill="white"/>
<path opacity="0.5" d="M236.023 125.127H243.678L243.31 122.298H235.607L236.023 125.127Z" fill="white"/>
<path opacity="0.5" d="M237.064 131.986H244.584L244.229 129.267H236.648L237.064 131.986Z" fill="white"/>
<path opacity="0.5" d="M238.056 138.624H245.453L245.11 135.99H237.664L238.056 138.624Z" fill="white"/>
<path opacity="0.5" d="M239.024 145.041H246.298L245.956 142.493H238.632L239.024 145.041Z" fill="white"/>
<path opacity="0.5" d="M239.954 151.25H247.107L246.788 148.788H239.587L239.954 151.25Z" fill="white"/>
<path opacity="0.5" d="M240.861 157.263H247.891L247.584 154.875H240.493L240.861 157.263Z" fill="white"/>
<path opacity="0.5" d="M241.73 163.081H248.662L248.356 160.778H241.387L241.73 163.081Z" fill="white"/>
<path opacity="0.5" d="M232.704 103.009H240.775L240.371 99.874H232.239L232.704 103.009Z" fill="white"/>
<path opacity="0.5" d="M231.516 95.0856H239.746L239.318 91.8279H231.026L231.516 95.0856Z" fill="white"/>
<path opacity="0.5" d="M242.575 168.727H249.397L249.103 166.485H242.245L242.575 168.727Z" fill="white"/>
<path d="M284.35 156.075C284.337 155.549 285.048 155.12 285.942 155.12H403.292C404.186 155.12 404.786 155.549 404.639 156.075C404.48 156.602 403.635 157.031 402.753 157.031H286.003C285.109 157.031 284.374 156.602 284.362 156.075H284.35Z" fill="white"/>
<path d="M404.468 151.005H339.498C338.591 151.005 337.906 150.564 337.967 150.025C338.028 149.487 338.812 149.033 339.718 149.033H405.031C405.937 149.033 406.55 149.474 406.391 150.025C406.231 150.564 405.374 151.005 404.468 151.005Z" fill="white"/>
<path opacity="0.5" d="M324.067 151.005H303.859C302.953 151.005 302.23 150.564 302.23 150.025C302.23 149.487 302.977 149.033 303.896 149.033H324.214C325.12 149.033 325.83 149.474 325.781 150.025C325.744 150.564 324.973 151.005 324.067 151.005Z" fill="white"/>
<path d="M366.257 144.784H274.601C273.683 144.784 272.911 144.331 272.874 143.767C272.838 143.204 273.56 142.751 274.491 142.751H366.637C367.568 142.751 368.229 143.204 368.119 143.767C368.009 144.331 367.188 144.784 366.257 144.784Z" fill="white"/>
<path opacity="0.5" d="M255.435 142.751H261.962C262.893 142.751 263.677 143.204 263.726 143.767C263.775 144.331 263.064 144.784 262.146 144.784H255.643C254.724 144.784 253.928 144.331 253.867 143.767C253.806 143.204 254.504 142.751 255.435 142.751Z" fill="white"/>
<path d="M379.508 137.313C379.386 137.889 378.529 138.366 377.586 138.366H291.208C290.277 138.366 289.506 137.901 289.493 137.313C289.493 136.725 290.24 136.26 291.183 136.26H378.027C378.97 136.26 379.631 136.737 379.508 137.313Z" fill="white"/>
<path d="M254.737 136.26H279.255C280.198 136.26 280.982 136.737 281.006 137.313C281.031 137.889 280.284 138.366 279.353 138.366H254.969C254.039 138.366 253.218 137.901 253.157 137.313C253.096 136.725 253.806 136.26 254.749 136.26H254.737Z" fill="white"/>
<path d="M254.026 129.536H348.242C349.197 129.536 349.908 130.026 349.834 130.626C349.748 131.226 348.916 131.716 347.96 131.716H254.259C253.304 131.716 252.483 131.226 252.41 130.626C252.348 130.026 253.059 129.536 254.026 129.536Z" fill="white"/>
<path d="M315.188 124.846C314.22 124.846 313.461 124.344 313.485 123.719C313.51 123.094 314.318 122.592 315.298 122.592H365.008C365.976 122.592 366.686 123.094 366.576 123.719C366.465 124.344 365.596 124.846 364.628 124.846H315.188Z" fill="white"/>
<path d="M253.279 122.592H296.303C297.27 122.592 298.066 123.094 298.066 123.719C298.066 124.344 297.282 124.846 296.303 124.846H253.512C252.544 124.846 251.699 124.344 251.638 123.719C251.565 123.094 252.299 122.592 253.279 122.592Z" fill="white"/>
<path d="M414.02 117.718H295.592C294.613 117.718 293.804 117.191 293.804 116.554C293.804 115.905 294.6 115.379 295.592 115.379H414.694C415.686 115.379 416.335 115.905 416.151 116.554C415.968 117.203 415.012 117.718 414.033 117.718H414.02Z" fill="white"/>
<path d="M416.127 110.345H311.918C310.913 110.345 310.117 109.806 310.142 109.133C310.166 108.459 310.999 107.92 312.003 107.92H416.825C417.829 107.92 418.491 108.459 418.295 109.133C418.099 109.794 417.131 110.345 416.127 110.345Z" fill="white"/>
<path opacity="0.5" d="M418.331 102.703H396.507C395.491 102.703 394.793 102.14 394.952 101.454C395.111 100.756 396.079 100.193 397.107 100.193H419.054C420.083 100.193 420.756 100.756 420.548 101.454C420.352 102.152 419.36 102.703 418.331 102.703Z" fill="white"/>
<path d="M381.235 102.703H301.104C300.087 102.703 299.254 102.14 299.266 101.454C299.266 100.756 300.112 100.193 301.14 100.193H381.75C382.778 100.193 383.501 100.756 383.354 101.454C383.207 102.152 382.276 102.703 381.248 102.703H381.235Z" fill="white"/>
<path d="M257.382 161.011H331.378C332.26 161.011 332.933 161.427 332.884 161.942C332.835 162.456 332.076 162.86 331.207 162.86H257.578C256.696 162.86 255.949 162.444 255.888 161.942C255.827 161.427 256.5 161.011 257.382 161.011Z" fill="white"/>
<path d="M257.982 166.706H371.67C372.54 166.706 373.152 167.11 373.054 167.6C372.944 168.09 372.16 168.494 371.303 168.494H258.178C257.321 168.494 256.574 168.09 256.512 167.6C256.463 167.11 257.112 166.706 257.982 166.706Z" fill="white"/>
<path d="M377.267 94.767H319.388C318.347 94.767 317.527 94.1914 317.563 93.4689C317.6 92.7463 318.47 92.1584 319.523 92.1584H377.757C378.798 92.1584 379.545 92.7463 379.398 93.4689C379.263 94.1914 378.308 94.767 377.267 94.767Z" fill="white"/>
<path opacity="0.5" d="M302.965 94.767H250.315C249.274 94.767 248.368 94.1914 248.282 93.4689C248.197 92.7463 248.98 92.1584 250.034 92.1584H303.002C304.043 92.1584 304.888 92.7463 304.876 93.4689C304.863 94.1914 304.006 94.767 302.965 94.767Z" fill="white"/>
<path opacity="0.5" d="M347.789 161.011C348.671 161.011 349.32 161.427 349.246 161.942C349.173 162.456 348.401 162.86 347.519 162.86H341.8C340.918 162.86 340.257 162.444 340.318 161.942C340.379 161.427 341.139 161.011 342.021 161.011H347.764H347.789Z" fill="white"/>
<path opacity="0.5" d="M277.602 156.075C277.626 156.602 276.928 157.031 276.034 157.031H268.245C267.351 157.031 266.592 156.602 266.555 156.075C266.518 155.549 267.204 155.12 268.098 155.12H275.936C276.83 155.12 277.577 155.549 277.602 156.075Z" fill="white"/>
<path opacity="0.5" d="M371.597 130.626C371.487 131.226 370.617 131.716 369.662 131.716H360.55C359.595 131.716 358.909 131.226 358.995 130.626C359.093 130.026 359.938 129.536 360.905 129.536H370.066C371.021 129.536 371.707 130.026 371.597 130.626Z" fill="white"/>
<path opacity="0.5" d="M400.022 136.26C400.965 136.26 401.602 136.737 401.443 137.313C401.284 137.889 400.402 138.366 399.471 138.366H392.209C391.278 138.366 390.629 137.901 390.763 137.313C390.898 136.725 391.78 136.26 392.723 136.26H400.022Z" fill="white"/>
<path opacity="0.5" d="M281.239 117.718C280.259 117.718 279.439 117.191 279.402 116.554C279.377 115.905 280.161 115.379 281.153 115.379H288.881C289.873 115.379 290.681 115.905 290.694 116.554C290.694 117.203 289.91 117.718 288.93 117.718H281.239Z" fill="white"/>
<path d="M175.989 80.0094C176.589 82.0179 175.425 83.6222 173.417 83.6222C171.408 83.6222 169.241 82.0179 168.591 80.0094C167.93 77.9764 169.069 76.3108 171.139 76.3108C173.209 76.3108 175.376 77.9764 175.989 80.0094Z" fill="white"/>
<path d="M185.958 80.0706C186.496 82.0791 185.284 83.6835 183.263 83.6835C181.243 83.6835 179.136 82.0791 178.56 80.0706C177.973 78.0377 179.161 76.3721 181.23 76.3721C183.3 76.3721 185.419 78.0377 185.958 80.0706Z" fill="white"/>
<path d="M196.049 80.0094C196.515 82.0179 195.253 83.6222 193.232 83.6222C191.212 83.6222 189.166 82.0179 188.64 80.0094C188.113 77.9764 189.362 76.3108 191.432 76.3108C193.502 76.3108 195.572 77.9764 196.037 80.0094H196.049Z" fill="white"/>
<path opacity="0.1" d="M99.8248 66.6602L132.83 154.875L172.645 66.6602H99.8248Z" fill="white"/>
<path opacity="0.1" d="M155.512 179.932L221.56 66.6602H290.694L193.49 179.932H155.512Z" fill="white"/>
<path opacity="0.1" d="M320.49 66.1091L217.542 179.932H233.402L340.036 66.6602L320.49 66.1091Z" fill="white"/>
<path opacity="0.1" d="M340.82 179.932L453.958 66.6602H469.928L353.275 179.932H340.82Z" fill="white"/>
<path d="M187.415 229.091H161.574C158.218 229.091 155.5 231.81 155.5 235.166V247.731C155.5 251.087 158.218 253.806 161.574 253.806H168.322L173.441 265.404L180.655 253.806H187.403C190.758 253.806 193.477 251.087 193.477 247.731V235.166C193.477 231.81 190.758 229.091 187.403 229.091H187.415Z" fill="#FF8625" stroke="#263238" stroke-linecap="round" stroke-linejoin="round"/>
<path d="M170.906 236.28C170.906 235.619 171.445 235.104 172.168 235.104C172.89 235.104 173.429 235.594 173.429 236.231C173.429 236.929 172.915 237.456 172.168 237.456C171.42 237.456 170.906 236.942 170.906 236.28ZM171.176 238.84H173.147V247.241H171.176V238.84Z" fill="white"/>
<path d="M177.899 238.411V238.913H180.214V240.493H177.96V247.254H175.989V240.493H174.605V238.913H175.989V238.374C175.989 236.611 177.042 235.46 178.989 235.46C179.663 235.46 180.324 235.607 180.765 235.913L180.214 237.395C179.92 237.187 179.54 237.052 179.124 237.052C178.303 237.052 177.887 237.505 177.887 238.399L177.899 238.411Z" fill="white"/>
<path d="M266.065 230.855H240.224C236.868 230.855 234.149 233.574 234.149 236.929V249.495C234.149 252.851 236.868 255.569 240.224 255.569H246.972L252.091 267.167L259.305 255.569H266.053C269.408 255.569 272.127 252.851 272.127 249.495V236.929C272.127 233.574 269.408 230.855 266.053 230.855H266.065Z" fill="#FF8625" stroke="#263238" stroke-linecap="round" stroke-linejoin="round"/>
<path d="M245.662 245.441H239.073C239.305 246.666 240.334 247.449 241.792 247.449C242.735 247.449 243.469 247.155 244.069 246.531L245.123 247.743C244.363 248.637 243.188 249.115 241.743 249.115C238.926 249.115 237.101 247.302 237.101 244.804C237.101 242.306 238.938 240.505 241.449 240.505C243.959 240.505 245.698 242.22 245.698 244.853C245.698 245.012 245.686 245.245 245.662 245.441ZM239.048 244.13H243.812C243.653 242.918 242.722 242.085 241.436 242.085C240.15 242.085 239.232 242.906 239.048 244.13Z" fill="white"/>
<path d="M247.572 237.333H249.544V249.005H247.572V237.333Z" fill="white"/>
<path d="M251.16 248.172L251.92 246.678C252.655 247.168 253.793 247.511 254.847 247.511C256.084 247.511 256.61 247.168 256.61 246.58C256.61 244.975 251.418 246.482 251.418 243.138C251.418 241.546 252.85 240.505 255.116 240.505C256.231 240.505 257.504 240.775 258.264 241.228L257.504 242.722C256.708 242.244 255.9 242.097 255.092 242.097C253.891 242.097 253.328 242.489 253.328 243.04C253.328 244.743 258.521 243.224 258.521 246.519C258.521 248.098 257.076 249.115 254.712 249.115C253.316 249.115 251.907 248.711 251.16 248.172Z" fill="white"/>
<path d="M268.086 245.441H261.497C261.73 246.666 262.758 247.449 264.216 247.449C265.159 247.449 265.894 247.155 266.494 246.531L267.547 247.743C266.788 248.637 265.612 249.115 264.167 249.115C261.35 249.115 259.525 247.302 259.525 244.804C259.525 242.306 261.362 240.505 263.873 240.505C266.383 240.505 268.122 242.22 268.122 244.853C268.122 245.012 268.11 245.245 268.086 245.441ZM261.472 244.13H266.236C266.077 242.918 265.146 242.085 263.861 242.085C262.575 242.085 261.656 242.906 261.472 244.13Z" fill="white"/>
<path d="M342.314 230.108H316.473C313.118 230.108 310.399 232.827 310.399 236.182V248.748C310.399 252.103 313.118 254.822 316.473 254.822H323.221L328.341 266.42L335.554 254.822H342.302C345.658 254.822 348.377 252.103 348.377 248.748V236.182C348.377 232.827 345.658 230.108 342.302 230.108H342.314Z" fill="#FF8625" stroke="#263238" stroke-linecap="round" stroke-linejoin="round"/>
<path d="M322.401 239.428V239.93H324.716V241.51H322.462V248.27H320.49V241.51H319.106V239.93H320.49V239.391C320.49 237.628 321.544 236.476 323.491 236.476C324.164 236.476 324.826 236.623 325.267 236.929L324.716 238.411C324.422 238.203 324.042 238.068 323.626 238.068C322.805 238.068 322.376 238.522 322.376 239.416L322.401 239.428Z" fill="white"/>
<path d="M325.218 244.069C325.218 241.547 327.104 239.771 329.688 239.771C332.272 239.771 334.17 241.547 334.17 244.069C334.17 246.592 332.296 248.38 329.688 248.38C327.079 248.38 325.218 246.592 325.218 244.069ZM332.186 244.069C332.186 242.465 331.121 241.436 329.688 241.436C328.255 241.436 327.202 242.465 327.202 244.069C327.202 245.674 328.267 246.703 329.688 246.703C331.108 246.703 332.186 245.686 332.186 244.069Z" fill="white"/>
<path d="M340.918 239.771V241.645C340.747 241.608 340.6 241.596 340.465 241.596C338.971 241.596 338.028 242.477 338.028 244.192V248.27H336.056V239.869H337.93V241.093C338.493 240.212 339.522 239.771 340.918 239.771Z" fill="white"/>
<path d="M417.462 229.091H391.621C388.265 229.091 385.546 231.81 385.546 235.166V247.731C385.546 251.087 388.265 253.806 391.621 253.806H398.369L403.488 265.404L410.701 253.806H417.449C420.805 253.806 423.524 251.087 423.524 247.731V235.166C423.524 231.81 420.805 229.091 417.449 229.091H417.462Z" fill="#FF8625" stroke="#263238" stroke-linecap="round" stroke-linejoin="round"/>
<path d="M401.186 238.436H408.436V240.003H401.186V238.436ZM401.186 242.245H408.436V243.812H401.186V242.245Z" fill="white"/>
<path d="M226.801 214.542H200.96C197.604 214.542 194.886 217.261 194.886 220.616V233.182C194.886 236.538 197.604 239.256 200.96 239.256H207.708L212.827 250.854L220.041 239.256H226.789C230.145 239.256 232.863 236.538 232.863 233.182V220.616C232.863 217.261 230.145 214.542 226.789 214.542H226.801Z" fill="#FF8625" stroke="#263238" stroke-linecap="round" stroke-linejoin="round"/>
<path d="M207.806 219.771H211.566V221.339H209.778V232.925H211.566V234.505H207.806V219.771Z" fill="white"/>
<path d="M216.44 234.492V232.912H218.216V221.327H216.44V219.759H220.188V234.492H216.44Z" fill="white"/>
<path d="M303.614 213.256H277.773C274.417 213.256 271.698 215.975 271.698 219.331V231.896C271.698 235.252 274.417 237.97 277.773 237.97H284.521L289.64 249.568L296.854 237.97H303.602C306.957 237.97 309.676 235.252 309.676 231.896V219.331C309.676 215.975 306.957 213.256 303.602 213.256H303.614Z" fill="#FF8625" stroke="#263238" stroke-linecap="round" stroke-linejoin="round"/>
<path d="M285.44 225.797C286.064 226.005 286.37 226.422 286.37 227.401V230.39C286.37 231.149 286.75 231.59 287.534 231.59H287.865V233.17H287.081C285.305 233.17 284.411 232.276 284.411 230.61V227.365C284.411 226.85 284.141 226.605 283.701 226.605H283.186V225.001H283.701C284.141 225.001 284.411 224.768 284.411 224.242V220.996C284.411 219.331 285.305 218.437 287.081 218.437H287.865V220.004H287.534C286.75 220.004 286.37 220.445 286.37 221.204V224.193C286.37 225.172 286.076 225.589 285.44 225.797Z" fill="white"/>
<path d="M297.442 224.989V226.593H296.903C296.474 226.593 296.205 226.826 296.205 227.352V230.598C296.205 232.263 295.286 233.157 293.51 233.157H292.727V231.578H293.057C293.866 231.578 294.233 231.137 294.233 230.377V227.389C294.233 226.409 294.515 225.993 295.151 225.785C294.527 225.577 294.233 225.16 294.233 224.18V221.192C294.233 220.433 293.853 219.992 293.057 219.992H292.727V218.424H293.51C295.286 218.424 296.205 219.318 296.205 220.984V224.229C296.205 224.744 296.474 224.989 296.903 224.989H297.442Z" fill="white"/>
<path d="M379.619 210.709H353.778C350.422 210.709 347.703 213.428 347.703 216.783V229.349C347.703 232.704 350.422 235.423 353.778 235.423H360.526L365.645 247.021L372.858 235.423H379.606C382.962 235.423 385.681 232.704 385.681 229.349V216.783C385.681 213.428 382.962 210.709 379.606 210.709H379.619Z" fill="#FF8625" stroke="#263238" stroke-linecap="round" stroke-linejoin="round"/>
<path d="M365.669 220.016C365.669 219.233 366.257 218.706 366.955 218.706C367.653 218.706 368.241 219.22 368.241 220.016C368.241 220.813 367.653 221.327 366.955 221.327C366.257 221.327 365.669 220.776 365.669 220.016ZM368.254 226.005C368.254 226.348 368.18 226.63 367.886 227.365L367.078 229.581H365.804L366.429 227.169C365.988 226.985 365.694 226.569 365.694 226.005C365.694 225.221 366.245 224.695 366.968 224.695C367.69 224.695 368.241 225.234 368.241 226.005H368.254Z" fill="white"/>
<path d="M278.606 430.468H304.447C307.803 430.468 310.521 427.749 310.521 424.393V411.828C310.521 408.472 307.803 405.754 304.447 405.754H297.699L295.727 394.156L285.366 405.754H278.618C275.262 405.754 272.544 408.472 272.544 411.828V424.393C272.544 427.749 275.262 430.468 278.618 430.468H278.606Z" fill="#FF8625" stroke="#263238" stroke-linecap="round" stroke-linejoin="round"/>
<path d="M287.681 415.527L282.255 417.56L287.681 419.593V421.234L280.431 418.417V416.715L287.681 413.898V415.539V415.527Z" fill="white"/>
<path d="M293.412 409.82H295.176L289.983 424.638H288.22L293.412 409.82Z" fill="white"/>
<path d="M302.794 416.715V418.417L295.543 421.234V419.593L300.969 417.56L295.543 415.527V413.885L302.794 416.702V416.715Z" fill="white"/>
<path d="M114.35 338.934H140.191C143.546 338.934 146.265 336.215 146.265 332.86V320.294C146.265 316.939 143.546 314.22 140.191 314.22H133.443L134.912 302.622L121.11 314.22H114.362C111.006 314.22 108.287 316.939 108.287 320.294V332.86C108.287 336.215 111.006 338.934 114.362 338.934H114.35Z" fill="#FF8625" stroke="#263238" stroke-linecap="round" stroke-linejoin="round"/>
<path d="M122.004 330.961C122.004 330.288 122.543 329.749 123.278 329.749C124.013 329.749 124.515 330.288 124.515 330.961C124.515 331.635 124 332.186 123.278 332.186C122.555 332.186 122.004 331.635 122.004 330.961ZM122.114 321.066H124.441L124.049 328.426H122.494L122.114 321.066Z" fill="white"/>
<path d="M126.474 323.883H133.724V325.45H126.474V323.883ZM126.474 327.692H133.724V329.271H126.474V327.692Z" fill="white"/>
<path d="M528.039 324.679C528.039 329.725 527.623 334.611 526.851 339.216C523.3 360.403 512.155 375.871 498.977 375.871C497.802 375.871 496.614 375.736 495.475 375.504C481.084 372.454 469.915 350.863 469.915 324.679C469.915 296.413 482.934 286.407 498.965 286.407C514.996 286.407 528.027 296.401 528.027 324.679H528.039Z" fill="white"/>
<mask id="mask2_1_144" style="mask-type:luminance" maskUnits="userSpaceOnUse" x="469" y="286" width="60" height="90">
<path d="M528.039 324.679C528.039 329.725 527.623 334.611 526.851 339.216C523.3 360.403 512.155 375.871 498.977 375.871C497.802 375.871 496.614 375.736 495.475 375.504C481.084 372.454 469.915 350.863 469.915 324.679C469.915 296.413 482.934 286.407 498.965 286.407C514.996 286.407 528.027 296.401 528.027 324.679H528.039Z" fill="white"/>
</mask>
<g mask="url(#mask2_1_144)">
<path d="M517.507 325.01C518.585 340.171 515.976 355.407 511.616 369.968C522.565 360.979 527.598 346.858 532.154 333.448C535.461 323.711 538.804 313.669 538.217 303.406C537.616 293.143 532.118 282.464 522.479 278.863C517.776 277.1 512.29 277.234 507.636 279.108C499.565 282.341 503.986 284.974 507.366 290.779C513.429 301.153 516.662 313.093 517.507 325.034V325.01Z" fill="#FF8618"/>
</g>
<path d="M528.039 324.679C528.039 329.725 527.623 334.611 526.851 339.216C523.3 360.403 512.155 375.871 498.977 375.871C497.802 375.871 496.614 375.736 495.475 375.504C481.084 372.454 469.915 350.863 469.915 324.679C469.915 296.413 482.934 286.407 498.965 286.407C514.996 286.407 528.027 296.401 528.027 324.679H528.039Z" stroke="#263238" stroke-miterlimit="10"/>
<path d="M514.592 350.691C512.645 357.219 509.436 363.355 505.064 368.572L514.592 350.691Z" fill="white"/>
<path d="M514.592 350.691C512.645 357.219 509.436 363.355 505.064 368.572" stroke="#263238" stroke-miterlimit="10"/>
<path d="M515.511 347.128C515.351 347.814 515.192 348.512 515.008 349.197" stroke="#263238" stroke-miterlimit="10"/>
<path d="M515.437 324.618C516.98 331.133 517.139 337.955 516.013 344.556L515.437 324.618Z" fill="white"/>
<path d="M515.437 324.618C516.98 331.133 517.139 337.955 516.013 344.556" stroke="#263238" stroke-miterlimit="10"/>
<path d="M469.927 324.679C469.927 324.679 502.958 311.624 528.039 324.679" stroke="#263238" stroke-miterlimit="10"/>
<path d="M498.977 286.419C498.977 286.419 502.284 298.666 502.664 318.58L498.977 286.419Z" fill="white"/>
<path d="M498.977 286.419C498.977 286.419 502.284 298.666 502.664 318.58" stroke="#263238" stroke-miterlimit="10"/>
<path d="M503.594 301.312C504.023 305.121 503.362 308.366 502.125 308.562C500.888 308.758 499.541 305.831 499.112 302.022C498.683 298.213 499.345 294.968 500.582 294.772C501.819 294.576 503.166 297.503 503.594 301.312Z" fill="#BFBFBF" stroke="#263238" stroke-linecap="round" stroke-linejoin="round"/>
<path d="M485.947 385.656H447.222C442.396 385.656 438.428 382.08 437.804 377.439C437.718 377.022 437.694 376.581 437.694 376.128V284.778C437.694 284.337 437.718 283.897 437.804 283.456C438.428 278.814 442.396 275.25 447.222 275.25H557.101C558.767 275.25 560.322 275.679 561.669 276.426" stroke="#263238" stroke-miterlimit="10"/>
</g>
<defs>
<clipPath id="clip0_1_144">
<rect width="566.85" height="484.612" fill="white"/>
</clipPath>
</defs>
</svg>
