<svg width="41" height="26" viewBox="0 0 41 26" fill="none" xmlns="http://www.w3.org/2000/svg">
<path d="M32.8141 0.854492C32.9169 0.890161 33.0198 0.923732 33.1205 0.961498C33.8506 1.23636 34.329 1.7567 34.3689 2.53092C34.4255 3.62616 34.3836 4.7277 34.3836 5.8628H33.1477C33.1477 5.79776 33.1477 5.70334 33.1477 5.60893C33.1477 4.70881 33.1477 3.8087 33.1477 2.90859C33.1477 2.32321 32.9316 2.1029 32.3421 2.1029C26.2784 2.1029 20.2168 2.1029 14.1531 2.1029C10.3072 2.1029 6.46333 2.1029 2.6174 2.1029C1.97746 2.1029 1.77604 2.30852 1.77604 2.95475C1.77604 7.78052 1.77604 12.6084 1.77604 17.4342C1.77604 17.5412 1.77604 17.6503 1.77604 17.7929H2.17259C10.4897 17.7929 18.8068 17.7929 27.1239 17.7867C27.3988 17.7867 27.5561 17.8328 27.6715 18.1203C27.8016 18.4392 28.0366 18.7161 28.238 19.0351H1.77814C1.77814 19.7086 1.76555 20.3443 1.78233 20.978C1.79073 21.2885 2.03411 21.5151 2.34464 21.5445C2.52508 21.5612 2.70762 21.557 2.89016 21.557C12.6529 21.557 22.4157 21.5654 32.1763 21.5403C32.8603 21.5403 33.5401 21.5801 34.2682 21.555C34.1318 21.9515 33.9031 22.2285 33.6009 22.4488C33.2338 22.7173 32.8141 22.8013 32.3672 22.8013C28.3409 22.7971 24.3145 22.7992 20.2881 22.7992C20.1916 22.7992 20.0951 22.7992 19.9818 22.7992V24.6896C20.5546 24.6896 21.1085 24.6896 21.6624 24.6896C22.1219 24.6896 22.3569 24.8218 22.445 25.1302C22.5394 25.4617 22.4115 25.7009 22.0128 25.9401H12.9047C12.8837 25.9233 12.8627 25.9044 12.8396 25.8919C12.5165 25.7156 12.3927 25.4722 12.4683 25.1596C12.5396 24.8617 12.7809 24.6938 13.146 24.6917C13.4376 24.6917 13.7272 24.6917 14.0188 24.6917C14.323 24.6917 14.6273 24.6917 14.9567 24.6917C14.9567 24.1399 14.942 23.6321 14.963 23.1265C14.9735 22.8621 14.8916 22.7929 14.6294 22.7929C12.5207 22.8034 10.4121 22.7992 8.30342 22.8013C6.35842 22.8013 4.41343 22.8013 2.46843 22.8013C1.52846 22.8013 0.844456 22.2767 0.580088 21.3703C0.567499 21.3284 0.542321 21.2906 0.523438 21.2528C0.523438 14.9814 0.523438 8.70791 0.523438 2.43651C0.6808 2.12388 0.806689 1.79027 1.00182 1.50492C1.25989 1.12935 1.68582 0.986676 2.10545 0.854492C12.3403 0.854492 22.5772 0.854492 32.8141 0.854492ZM18.704 22.8034C18.2529 22.8034 17.8207 22.8013 17.3885 22.8034C17.0087 22.8055 16.6289 22.8159 16.2492 22.8222C16.2324 23.2083 16.2135 23.5923 16.2009 23.9783C16.1946 24.2091 16.2009 24.442 16.2009 24.6812H18.7061V22.8013L18.704 22.8034Z" fill="black"/>
<path d="M40.6681 14.4361C40.5338 14.8054 40.3848 15.1663 40.0386 15.395C39.9106 15.4789 39.7763 15.5586 39.6336 15.6153C39.3294 15.7349 39.214 15.9972 39.3504 16.2951C39.6273 16.8952 39.5224 17.5541 39.0671 18.0387C38.8615 18.257 38.6475 18.4668 38.4313 18.6745C37.9299 19.1571 37.2815 19.2662 36.6458 18.9788C36.3688 18.8529 36.0897 18.9725 35.9848 19.2578C35.7519 19.8873 35.2252 20.2734 34.5559 20.2922C34.2391 20.3006 33.9201 20.3006 33.6012 20.2922C32.9508 20.2755 32.4115 19.8873 32.1849 19.2809C32.0632 18.9557 31.8051 18.8487 31.4883 18.9934C30.9071 19.2578 30.2441 19.1529 29.7657 18.7081C29.5328 18.492 29.3082 18.2654 29.09 18.0345C28.6368 17.5541 28.5361 16.891 28.8131 16.2888C28.9432 16.0077 28.8257 15.7307 28.5445 15.6216C27.9066 15.374 27.5436 14.9145 27.508 14.2242C27.4891 13.8801 27.4849 13.5318 27.508 13.1897C27.552 12.5162 27.9045 12.0567 28.534 11.8133C28.8319 11.6979 28.939 11.4272 28.811 11.1272C28.5424 10.4977 28.6263 9.9165 29.0837 9.40663C29.3019 9.16324 29.537 8.93453 29.7761 8.71212C30.2482 8.26939 30.905 8.17078 31.4988 8.44355C31.7946 8.57993 32.0632 8.46872 32.1765 8.16448C32.4136 7.53082 32.9634 7.14264 33.639 7.13425C33.939 7.13005 34.2391 7.13005 34.5391 7.13425C35.2022 7.14474 35.7435 7.53082 35.9806 8.15399C36.1002 8.46872 36.3667 8.57364 36.6772 8.43935C37.2731 8.18337 37.8375 8.24631 38.3327 8.67015C38.616 8.91145 38.8846 9.17373 39.1238 9.45699C39.5497 9.96057 39.6168 10.5334 39.3483 11.1398C39.2245 11.4188 39.3336 11.7084 39.6126 11.8091C40.1099 11.9854 40.4352 12.3253 40.5988 12.8246C40.6156 12.875 40.645 12.9191 40.6681 12.9652V14.4382V14.4361ZM31.461 17.3484C31.8072 17.5247 32.0884 17.6925 32.3884 17.8163C32.6885 17.9401 33.0053 18.022 33.3389 18.129C33.3389 18.2989 33.3347 18.4794 33.3389 18.6598C33.3452 18.9431 33.4376 19.0396 33.7145 19.0459C33.96 19.0522 34.2055 19.0522 34.451 19.0459C34.7217 19.0396 34.8203 18.9347 34.8266 18.6577C34.8308 18.4773 34.8266 18.2968 34.8266 18.1269C35.1581 18.0199 35.4749 17.938 35.775 17.8121C36.0813 17.6841 36.3709 17.5142 36.7045 17.3442C36.8262 17.4785 36.95 17.6233 37.0822 17.7597C37.2458 17.9296 37.4158 17.9212 37.5795 17.7555C37.7599 17.575 37.9362 17.3946 38.1187 17.2162C38.2971 17.0421 38.3013 16.8637 38.1166 16.7001C37.9697 16.57 37.804 16.4588 37.6466 16.3392C37.697 16.3203 37.7473 16.3014 37.7977 16.2804C37.997 15.7769 38.2215 15.2817 38.3852 14.7676C38.4628 14.5263 38.5405 14.4382 38.8006 14.4466C39.3986 14.4676 39.4175 14.434 39.4175 13.8444C39.4175 13.8171 39.4175 13.7898 39.4175 13.7626C39.4175 13.2478 39.165 12.9813 38.66 12.9631C38.6412 12.9631 38.6181 12.9694 38.6055 12.9631C38.5488 12.9212 38.4649 12.8876 38.4418 12.8288C38.2215 12.2581 38.0117 11.6832 37.7977 11.1104C37.762 11.1062 37.7263 11.102 37.6907 11.0978C37.8396 10.9656 37.9949 10.8376 38.1376 10.6991C38.2971 10.5439 38.2887 10.3781 38.1334 10.2207C37.955 10.0403 37.7767 9.85775 37.5921 9.6815C37.3843 9.48427 37.2584 9.48217 37.057 9.6815C36.9248 9.81369 36.8073 9.96476 36.7297 10.055C36.2303 9.83467 35.8128 9.64163 35.3868 9.46538C35.2127 9.39404 34.9588 9.40663 34.8644 9.28703C34.7699 9.16534 34.8287 8.92194 34.8245 8.7331C34.8182 8.50439 34.7091 8.3764 34.472 8.3764C34.2076 8.3764 33.9453 8.3743 33.681 8.3764C33.4606 8.3764 33.3431 8.48971 33.3368 8.71002C33.3326 8.86529 33.3452 9.02056 33.3285 9.17163C33.3201 9.23458 33.2655 9.3227 33.2109 9.34578C32.6339 9.5682 32.0506 9.78222 31.4149 10.0172C31.3414 9.93958 31.2113 9.799 31.0791 9.66262C30.9134 9.49476 30.7455 9.50105 30.5819 9.66681C30.3951 9.85356 30.2084 10.0382 30.0237 10.227C29.8685 10.3844 29.8643 10.5502 30.0237 10.7033C30.1685 10.8397 30.3259 10.9656 30.4539 11.0747C30.2734 11.4272 30.1035 11.7084 29.9797 12.0084C29.8517 12.3148 29.7678 12.6379 29.6586 12.9673C29.4677 12.9673 29.2768 12.9631 29.0879 12.9673C28.8718 12.9715 28.748 13.0827 28.7438 13.3051C28.7396 13.5779 28.7375 13.8507 28.7438 14.1235C28.7501 14.3396 28.8676 14.4571 29.09 14.4571C29.2348 14.4571 29.3838 14.4424 29.5244 14.4634C29.5936 14.4739 29.6964 14.5368 29.709 14.5956C29.8475 15.204 30.0867 15.7664 30.477 16.3329C30.3217 16.4672 30.1643 16.5889 30.0195 16.7274C29.8601 16.8805 29.8664 17.0463 30.0195 17.2037C30.2105 17.3988 30.4014 17.5918 30.5966 17.7828C30.7455 17.9275 30.9071 17.9275 31.054 17.7828C31.1966 17.6443 31.3246 17.4911 31.4526 17.3526L31.461 17.3484Z" fill="black"/>
<path d="M9.50187 9.95013C9.74737 10.1159 9.97188 10.2691 10.1964 10.4201C11.5351 11.3119 12.8716 12.2036 14.2103 13.0954C14.2711 13.1352 14.332 13.1751 14.3886 13.2192C14.6509 13.429 14.7097 13.7731 14.5355 14.0501C14.3677 14.3165 14.0131 14.4131 13.7193 14.2578C13.5661 14.1781 13.4277 14.0752 13.2829 13.9787C11.5749 12.8394 9.86697 11.7022 8.15901 10.5628C7.59458 10.1851 7.59249 9.71723 8.15481 9.34165C9.95929 8.13516 11.7659 6.93078 13.5724 5.7264C13.9417 5.4809 14.3278 5.52916 14.5292 5.8418C14.7349 6.16073 14.6383 6.51533 14.2586 6.76712C12.7709 7.76168 11.2812 8.75414 9.79353 9.7466C9.7054 9.80535 9.61728 9.8683 9.50187 9.94803V9.95013Z" fill="black"/>
<path d="M25.42 9.94376C24.6206 9.41081 23.8506 8.89675 23.0805 8.38268C22.2937 7.85812 21.5089 7.33567 20.7221 6.81111C20.6697 6.77544 20.6151 6.74187 20.5647 6.702C20.2689 6.47329 20.2017 6.12079 20.3948 5.83543C20.5857 5.55427 20.955 5.47454 21.2614 5.67177C21.8027 6.02008 22.3356 6.38517 22.8728 6.74187C24.1884 7.61893 25.504 8.49389 26.8175 9.37305C27.3022 9.69827 27.3043 10.1976 26.8259 10.5187C25.013 11.7294 23.2001 12.94 21.3851 14.1465C21.2802 14.2158 21.1648 14.2829 21.0452 14.3123C20.7578 14.3836 20.4619 14.2283 20.3444 13.9682C20.2185 13.6933 20.2941 13.3849 20.5626 13.1981C21.0473 12.8603 21.5425 12.5393 22.0335 12.2119C23.1141 11.4923 24.1968 10.7726 25.2774 10.0508C25.313 10.0256 25.3487 9.99832 25.4221 9.94376H25.42Z" fill="black"/>
<path d="M19.3324 5.32152C19.2695 5.56492 19.1918 5.87336 19.11 6.1797C18.3525 9.0207 17.593 11.8617 16.8334 14.7006C16.7348 15.0678 16.5585 15.242 16.2627 15.2713C15.8179 15.3154 15.4926 14.9272 15.6101 14.4698C15.8703 13.4585 16.1431 12.4513 16.4117 11.4442C16.9551 9.40048 17.5006 7.35891 18.0462 5.31523C18.0756 5.20193 18.1028 5.08442 18.1511 4.97742C18.2728 4.71094 18.5728 4.57246 18.854 4.6396C19.1415 4.70884 19.3387 4.96063 19.3324 5.32152Z" fill="black"/>
<path d="M17.4587 20.9212C16.6236 20.9212 15.7885 20.9254 14.9513 20.9191C14.6156 20.917 14.3743 20.6925 14.3303 20.3799C14.2883 20.0819 14.4687 19.7966 14.7625 19.7063C14.838 19.6833 14.922 19.677 15.0038 19.677C16.6383 19.677 18.2728 19.6749 19.9073 19.677C20.2473 19.677 20.4676 19.8301 20.5557 20.1113C20.6375 20.3715 20.5536 20.6694 20.3165 20.8037C20.1822 20.8792 20.0102 20.9149 19.8528 20.917C19.0534 20.9275 18.2539 20.9212 17.4545 20.9212H17.4587Z" fill="black"/>
<path d="M6.19422 20.1182C6.18792 20.4038 5.95064 20.6348 5.66926 20.6327C5.37739 20.6327 5.1422 20.3786 5.1569 20.0825C5.1695 19.7969 5.40888 19.5743 5.69446 19.5848C5.97584 19.5932 6.20262 19.8368 6.19632 20.1203L6.19422 20.1182Z" fill="black"/>
<path d="M3.56979 20.6325C3.29051 20.6325 3.04903 20.3973 3.04693 20.1159C3.04273 19.8262 3.29471 19.5763 3.58239 19.5847C3.86586 19.5931 4.09475 19.8325 4.09055 20.1138C4.08635 20.3973 3.85327 20.6325 3.56979 20.6325Z" fill="black"/>
<path d="M36.5789 13.725C36.5726 15.1099 35.4563 16.224 34.082 16.2219C32.695 16.2198 31.5599 15.0805 31.5704 13.7041C31.583 12.3087 32.7076 11.203 34.1029 11.2135C35.4878 11.2239 36.5852 12.3381 36.5789 13.725ZM34.0778 12.4598C33.3749 12.464 32.8062 13.0368 32.8188 13.7271C32.8293 14.4112 33.3958 14.9714 34.0778 14.9735C34.7702 14.9735 35.3367 14.3986 35.3325 13.6999C35.3283 13.0116 34.766 12.4556 34.0778 12.4598Z" fill="black"/>
</svg>
