<svg width="31" height="40" viewBox="0 0 31 40" fill="none" xmlns="http://www.w3.org/2000/svg">
<path d="M23.1086 31.1593C23.1086 31.3534 23.1086 31.4982 23.1086 31.642C23.1086 33.3976 23.1107 35.1521 23.1076 36.9076C23.1044 38.5184 22.1065 39.5142 20.501 39.5142C14.8208 39.5142 9.1396 39.5142 3.45943 39.5142C1.79935 39.5142 0.812954 38.5289 0.809805 36.8699C0.807707 35.6904 0.808756 34.512 0.809805 33.3325C0.809805 32.684 0.988196 32.5056 1.64824 32.5056C8.19937 32.5035 14.7505 32.5035 21.3027 32.5035C21.4863 32.5035 21.67 32.5035 21.8746 32.5035V31.2233C21.8505 31.2044 21.8305 31.175 21.8085 31.1729C20.8431 31.09 20.8168 31.0659 20.6752 30.1005C20.6657 30.0344 20.6626 29.9672 20.651 29.9011C20.5304 29.1823 20.3047 28.9388 19.5964 28.7951C19.5135 28.7783 19.3971 28.8339 19.3215 28.8895C19.0109 29.1214 18.7129 29.3722 18.4044 29.6073C18.0339 29.8885 17.7653 29.8791 17.4432 29.5622C16.908 29.0364 16.3781 28.5054 15.8523 27.9703C15.5417 27.6544 15.527 27.4141 15.7757 27.0416C15.8796 26.8852 15.973 26.7163 16.1031 26.5851C16.5281 26.1538 16.6142 25.7194 16.2805 25.1706C16.144 24.946 16.0297 24.8275 15.7799 24.8096C15.4462 24.7865 15.1125 24.753 14.7809 24.7099C14.3245 24.6512 14.1377 24.4518 14.1324 23.9995C14.124 23.2492 14.123 22.4989 14.1303 21.7486C14.1345 21.2859 14.3077 21.1001 14.7631 21.0225C14.9215 20.9952 15.079 20.9669 15.2374 20.9427C16.1671 20.8042 16.1724 20.8063 16.4547 19.9217C16.4872 19.8199 16.4442 19.6604 16.3781 19.5681C16.1524 19.2522 15.8964 18.9595 15.6613 18.6499C15.3959 18.2994 15.4053 18.0329 15.7096 17.7223C16.2437 17.1766 16.7905 16.6435 17.3288 16.1021C17.5964 15.8334 17.8828 15.803 18.1945 16.0139C18.3718 16.1335 18.566 16.2395 18.7171 16.3864C19.1389 16.7967 19.5608 16.8838 20.0928 16.5617C20.3068 16.4316 20.4475 16.3518 20.4569 16.079C20.4705 15.7054 20.5346 15.3339 20.5828 14.9625C20.6269 14.6235 20.8231 14.4168 21.1652 14.4115C21.9953 14.3979 22.8264 14.4011 23.6564 14.4105C23.9806 14.4147 24.1758 14.6025 24.2346 14.9205C24.3049 15.3014 24.3867 15.6823 24.4287 16.0674C24.4539 16.2993 24.5599 16.3906 24.7593 16.5008C25.3112 16.8051 25.7173 16.7243 26.199 16.293C27.0794 15.5039 27.113 15.5417 27.9504 16.3791C28.3386 16.7673 28.7311 17.1525 29.1162 17.5428C29.4803 17.9111 29.495 18.1336 29.197 18.5649C29.1057 18.6971 29.0113 18.8272 28.9179 18.9584C28.3879 19.7024 28.3827 19.7045 28.7961 20.5125C28.8444 20.6059 28.984 20.6898 29.0942 20.7077C29.4898 20.7748 29.8906 20.8074 30.2883 20.8619C30.6944 20.9176 30.8749 21.1159 30.8781 21.5314C30.8844 22.2954 30.8781 23.0582 30.8812 23.8222C30.8833 24.222 30.685 24.4465 30.3009 24.5179C29.919 24.5882 29.5317 24.6323 29.1571 24.7288C29.0207 24.7645 28.8822 24.8957 28.7993 25.0195C28.4446 25.5547 28.5495 25.9912 28.9882 26.4823C29.7689 27.3543 29.7332 27.3879 28.9179 28.2106C28.5223 28.6104 28.1319 29.0154 27.7279 29.4079C27.369 29.7563 27.1382 29.7678 26.7342 29.4876C26.6019 29.3964 26.454 29.3187 26.3448 29.2043C25.881 28.7195 25.3763 28.6618 24.8327 29.0448C24.7204 29.1235 24.6008 29.2557 24.5746 29.3827C24.5064 29.7091 24.4822 30.0449 24.4508 30.3775C24.393 30.9798 24.2105 31.153 23.6155 31.1572C23.4696 31.1572 23.3227 31.1572 23.1065 31.1572L23.1086 31.1593ZM29.6545 22.0068C29.2285 21.9543 28.8192 21.8935 28.4089 21.8567C28.049 21.8252 27.8759 21.6206 27.7604 21.2974C27.6083 20.8714 27.4414 20.4453 27.2347 20.0445C27.0637 19.7139 27.0836 19.4411 27.2987 19.1525C27.538 18.8325 27.7625 18.5009 27.9556 18.2281C27.6114 17.8755 27.2903 17.546 26.9629 17.2102C26.667 17.4452 26.348 17.6897 26.0395 17.9468C25.7666 18.1745 25.5001 18.1714 25.1874 18.0203C24.7803 17.823 24.3616 17.6362 23.9303 17.505C23.5546 17.3896 23.3783 17.1682 23.3269 16.7988C23.2734 16.4179 23.201 16.0391 23.1349 15.6466H21.7287C21.6784 16.0758 21.6227 16.4735 21.586 16.8723C21.5535 17.228 21.3552 17.4075 21.0288 17.5218C20.6017 17.6719 20.1799 17.845 19.7769 18.0497C19.4495 18.2165 19.1746 18.2071 18.885 17.9867C18.5586 17.7401 18.2186 17.5113 17.8881 17.2784C17.5418 17.6205 17.2291 17.93 16.8996 18.2564C17.1609 18.5869 17.4117 18.9154 17.674 19.2333C17.8975 19.5041 17.9049 19.7717 17.7548 20.0875C17.5544 20.5083 17.3728 20.9406 17.2238 21.3814C17.1179 21.6941 16.9531 21.8861 16.6194 21.9386C16.2007 22.0047 15.7841 22.0897 15.3623 22.1673V23.5483C15.7747 23.5966 16.1703 23.6469 16.5669 23.6879C16.909 23.7235 17.1158 23.8851 17.2322 24.2262C17.3823 24.6669 17.5733 25.0961 17.7789 25.5148C17.9384 25.839 17.9343 26.1192 17.7149 26.4099C17.4746 26.7289 17.2522 27.0615 17.0528 27.3449C17.3896 27.6953 17.7002 28.0196 18.0266 28.3585C18.3487 28.1046 18.6751 27.8507 18.9983 27.5925C19.2449 27.3952 19.4978 27.3858 19.7853 27.5138C20.2355 27.7153 20.692 27.9073 21.1558 28.0742C21.436 28.1749 21.6091 28.3302 21.6563 28.6314C21.7245 29.0648 21.8095 29.495 21.8914 29.9494C22.0991 29.9494 22.2859 29.9494 22.4717 29.9494C23.0047 29.9494 23.307 29.6835 23.3783 29.1519C23.3941 29.0322 23.4045 28.9126 23.4108 28.7919C23.4297 28.3806 23.6281 28.1403 24.0342 28.0154C24.4403 27.8905 24.8411 27.7258 25.2136 27.5212C25.5715 27.3249 25.859 27.348 26.1717 27.5925C26.4834 27.836 26.8171 28.0511 27.0762 28.2316C27.4446 27.9 27.7709 27.6062 28.1172 27.2945C27.8601 26.9671 27.6324 26.6554 27.3816 26.3627C27.1319 26.0709 27.1151 25.7845 27.2819 25.4403C27.4781 25.0331 27.6544 24.6113 27.7888 24.18C27.9 23.8232 28.1088 23.648 28.4656 23.5987C28.8602 23.543 29.2516 23.4685 29.6587 23.3993V22.0057L29.6545 22.0068ZM21.8798 33.7449H2.01761C2.01761 34.7911 2.01761 35.8069 2.01761 36.8237C2.01761 37.8668 2.45729 38.3054 3.50875 38.3064C9.05355 38.3064 14.5983 38.3064 20.1431 38.3064C20.3436 38.3064 20.5461 38.3148 20.7455 38.3012C21.3331 38.2624 21.8494 37.8489 21.8672 37.2875C21.905 36.1133 21.8788 34.938 21.8788 33.7449H21.8798Z" fill="black"/>
<path d="M21.8923 6.54907H2.01745C2.01745 6.739 2.01745 6.909 2.01745 7.079C2.01745 14.6763 2.01745 22.2726 2.01745 29.87C2.01745 30.5206 1.82647 30.8175 1.41197 30.8165C1.00063 30.8165 0.808594 30.5185 0.808594 29.8689C0.808594 21.0533 0.808594 12.2376 0.809643 3.42094C0.810692 1.76715 1.80758 0.771313 3.45822 0.771313C9.15203 0.770264 14.8469 0.770264 20.5407 0.770264C22.0759 0.770264 23.1011 1.77555 23.1053 3.29606C23.1116 5.3591 23.1032 7.42318 23.1053 9.48622C23.1053 9.80417 23.0466 10.1116 22.7034 10.183C22.5124 10.2229 22.2344 10.1652 22.0937 10.0413C21.9605 9.9238 21.907 9.66251 21.9017 9.46208C21.8807 8.63204 21.8923 7.80095 21.8912 6.96986C21.8912 6.83869 21.8912 6.70752 21.8912 6.54697L21.8923 6.54907ZM2.0206 5.28774H21.8923C21.8923 4.69905 21.8587 4.13555 21.8996 3.57729C21.9867 2.36843 21.2731 1.96233 20.2784 1.96653C14.7871 1.99276 9.29474 1.97912 3.80346 1.97912C3.58939 1.97912 3.37427 1.97073 3.16125 1.98647C2.55053 2.03054 2.05418 2.48806 2.029 3.08829C1.99961 3.8092 2.02165 4.53221 2.02165 5.28774H2.0206Z" fill="black"/>
<path d="M14.0962 8.63106C14.0647 8.73179 14.029 8.87451 13.9755 9.00987C12.8412 11.8652 11.7047 14.7205 10.5672 17.5747C10.3794 18.0469 10.0772 18.2169 9.71829 18.0637C9.372 17.9158 9.26391 17.5863 9.43601 17.1529C10.584 14.2598 11.7362 11.3678 12.8842 8.4747C13.0164 8.14101 13.2221 7.92379 13.6093 7.99095C13.9336 8.04761 14.0794 8.26798 14.0962 8.6321V8.63106Z" fill="black"/>
<path d="M17.8281 12.9909C17.1985 12.3844 16.6004 11.8083 16.0033 11.2312C15.8973 11.1283 15.7903 11.0265 15.6958 10.9143C15.4524 10.6257 15.4608 10.2909 15.7084 10.0517C15.9382 9.83027 16.2866 9.81243 16.5395 10.0632C17.3968 10.9111 18.2437 11.7695 19.0821 12.6352C19.3193 12.8797 19.3235 13.1966 19.0926 13.4359C18.2479 14.3142 17.3874 15.1788 16.5196 16.0341C16.2688 16.2817 15.9225 16.2492 15.6895 16.0131C15.4545 15.7759 15.4524 15.4254 15.7158 15.1516C16.3202 14.524 16.9372 13.9102 17.5479 13.29C17.6224 13.2144 17.6928 13.1357 17.8281 12.992V12.9909Z" fill="black"/>
<path d="M6.0678 13.1118C6.69112 13.6994 7.31339 14.286 7.93461 14.8736C8.0322 14.966 8.12874 15.0594 8.21374 15.1622C8.45194 15.4476 8.44565 15.7971 8.20639 16.0279C7.96084 16.2651 7.62505 16.2661 7.34592 15.9933C6.74359 15.4036 6.1549 14.7981 5.56096 14.1989C5.32486 13.9607 5.08246 13.7288 4.85894 13.4811C4.58296 13.1747 4.58087 12.8862 4.86839 12.5913C5.69108 11.7476 6.52113 10.9113 7.35746 10.0812C7.62505 9.81574 7.98288 9.82203 8.21794 10.0623C8.44879 10.2974 8.45824 10.6594 8.20114 10.927C7.59776 11.5545 6.97865 12.1663 6.36792 12.7854C6.29342 12.861 6.22311 12.9428 6.0678 13.1128V13.1118Z" fill="black"/>
<path d="M22.5213 19.5711C24.2968 19.5742 25.7323 21.0223 25.7207 22.7989C25.7103 24.5419 24.2558 25.99 22.5139 25.9931C20.7457 25.9963 19.2987 24.545 19.3008 22.7716C19.3029 20.9898 20.7342 19.5679 22.5213 19.5711ZM23.1089 24.6342C24.0323 24.3949 24.6336 23.4348 24.4846 22.5124C24.3062 21.4095 23.4384 20.7128 22.3334 20.7831C21.3722 20.845 20.5758 21.6845 20.5065 22.6572C20.4404 23.5827 21.2043 24.5922 21.899 24.6111C21.899 23.9154 21.8948 23.2197 21.9011 22.525C21.9053 22.0549 22.134 21.7768 22.5013 21.7705C22.8696 21.7642 23.1026 22.0391 23.1078 22.5103C23.1152 23.206 23.1099 23.9017 23.1099 24.6342H23.1089Z" fill="black"/>
<path d="M11.9064 36.8427C11.0491 36.8427 10.1928 36.848 9.33549 36.8406C8.88637 36.8364 8.62298 36.6119 8.61353 36.2551C8.60409 35.8899 8.86118 35.6433 9.29771 35.637C10.1676 35.6265 11.0386 35.6318 11.9085 35.6307C12.7921 35.6307 13.6767 35.6255 14.5602 35.6328C15.0555 35.637 15.2979 35.8458 15.2958 36.2341C15.2937 36.6171 15.0345 36.8385 14.5592 36.8417C13.6756 36.8469 12.7921 36.8427 11.9075 36.8427H11.9064Z" fill="black"/>
<path d="M13.4805 4.24367C12.9989 4.24367 12.5162 4.25102 12.0345 4.24157C11.62 4.23423 11.3629 4.00442 11.3556 3.65918C11.3493 3.31814 11.6106 3.04531 12.0072 3.04006C12.9978 3.02747 13.9884 3.02852 14.979 3.04006C15.3841 3.04531 15.6349 3.3024 15.6307 3.65184C15.6265 4.01386 15.3904 4.23213 14.9664 4.24052C14.4711 4.24997 13.9758 4.24262 13.4805 4.24367Z" fill="black"/>
</svg>
