<svg width="31" height="28" viewBox="0 0 31 28" fill="none" xmlns="http://www.w3.org/2000/svg">
<path d="M15.4701 27.3072C10.798 27.3072 6.12993 27.3072 1.4579 27.3033C0.967959 27.3033 0.415311 27.4166 0.105671 26.8581C-0.203969 26.3035 0.242853 25.9442 0.474103 25.538C1.80673 23.2103 3.14328 20.8825 4.48766 18.5587C6.03586 15.8834 7.59582 13.2197 9.14402 10.5444C10.3003 8.54476 11.4369 6.53728 12.5893 4.53371C13.3104 3.28002 14.0355 2.02632 14.7646 0.776533C15.1252 0.163355 15.8307 0.147733 16.2148 0.792156C17.4416 2.84259 18.637 4.91646 19.8403 6.97861C20.1343 7.48243 20.4204 7.99407 20.7144 8.50179C22.8387 12.1574 24.967 15.8131 27.0875 19.4687C28.2868 21.5348 29.4744 23.6125 30.662 25.6825C30.7443 25.8231 30.8188 25.9676 30.8894 26.116C31.1833 26.737 30.8737 27.2643 30.1721 27.2799C29.0786 27.3072 27.985 27.3033 26.8915 27.3072C23.0857 27.3072 19.2798 27.3072 15.474 27.3072H15.4701ZM8.2151 25.7567H28.8865C28.718 25.4091 28.6004 25.1279 28.4514 24.8662C27.9654 24.0187 27.452 23.1868 26.9777 22.3354C26.8366 22.0815 26.6759 21.9995 26.3976 22.0073C25.6294 22.023 24.8612 22.0112 24.093 22.0112C19.6639 22.0112 15.2388 22.0112 10.8098 22.0034C10.4531 22.0034 10.2493 22.105 10.0847 22.4291C9.82209 22.9525 9.49677 23.4407 9.20673 23.9523C8.88141 24.5264 8.56785 25.1084 8.20726 25.7606L8.2151 25.7567ZM2.13205 25.7919C3.54698 25.7919 4.84826 25.8075 6.14953 25.7723C6.31415 25.7684 6.52188 25.5419 6.61987 25.37C7.78004 23.3782 8.92453 21.3707 10.0769 19.375C10.9313 17.8986 11.7975 16.4301 12.6559 14.9538C13.236 13.9579 13.7886 12.9425 14.3961 11.9621C14.5686 11.6809 14.5843 11.4818 14.4314 11.2123C13.8709 10.2398 13.3183 9.26338 12.7774 8.28308C12.5971 7.95892 12.4638 7.95501 12.2757 8.27136C11.7152 9.22433 11.1351 10.1656 10.5825 11.1185C7.99953 15.5592 5.42442 19.9999 2.84931 24.4444C2.61023 24.8584 2.40249 25.2841 2.13597 25.7879L2.13205 25.7919ZM25.892 20.4685C22.4193 14.4813 18.9976 8.57991 15.5171 2.58092C14.843 3.74869 14.2825 4.77195 13.6632 5.76397C13.428 6.13891 13.4202 6.45136 13.6397 6.79896C13.914 7.24029 14.2119 7.6699 14.4706 8.11905C15.4387 9.81407 16.3794 11.5208 17.3554 13.208C18.6801 15.5045 20.0324 17.7815 21.3532 20.078C21.5139 20.3592 21.6942 20.4646 22.0078 20.4646C23.117 20.4646 24.2262 20.492 25.3354 20.5076C25.4765 20.5076 25.6137 20.4881 25.892 20.4646V20.4685ZM19.7737 20.4412C18.3548 17.9807 16.9752 15.5904 15.5289 13.0831C14.0669 15.6022 12.6833 17.9807 11.2527 20.4412H19.7737Z" fill="white"/>
</svg>
