<svg width="34" height="35" viewBox="0 0 34 35" fill="none" xmlns="http://www.w3.org/2000/svg">
<path d="M17.0299 34.3127C16.8165 34.1391 16.6307 34.0089 16.4726 33.855C13.1175 30.5087 9.76624 27.1584 6.41107 23.812C4.40745 21.8153 2.39593 19.8264 0.388362 17.8297C-0.13329 17.3127 -0.137242 17.1825 0.423929 16.6222C2.96105 14.0887 5.51004 11.5632 8.05112 9.02979C10.8016 6.29116 13.5522 3.54859 16.3027 0.806017C16.9627 0.14701 17.0654 0.14701 17.7293 0.813909C23.013 6.09385 28.2967 11.3738 33.5844 16.6537C34.1456 17.2141 34.1456 17.3127 33.5409 17.9244C28.937 22.5572 24.329 27.186 19.7251 31.8148C19.0532 32.4896 18.3854 33.1723 17.6977 33.8392C17.5159 34.0168 17.2828 34.1352 17.0338 34.3127H17.0299ZM3.29697 15.6869C3.44714 15.6711 3.57755 15.679 3.70006 15.6435C4.64852 15.3752 5.59698 15.1108 6.54148 14.8227C9.71487 13.8559 12.8883 12.8852 16.0537 11.8907C16.2079 11.8434 16.3857 11.5711 16.3857 11.4014C16.3975 8.91929 16.3817 6.43322 16.3699 3.9511C16.3699 3.5328 16.3699 3.11451 16.3699 2.67254C11.9833 7.03698 7.65592 11.3422 3.29302 15.683L3.29697 15.6869ZM17.7135 2.62124C17.7135 2.86591 17.7135 3.00402 17.7135 3.14608C17.7096 5.61242 17.6938 8.07482 17.7017 10.5412C17.7056 11.9657 17.4132 11.7447 18.9584 12.2143C22.602 13.3192 26.2457 14.4281 29.8933 15.5291C30.17 15.612 30.4624 15.6514 30.7864 15.7185C26.4196 11.3422 22.116 7.02909 17.7175 2.62519L17.7135 2.62124ZM16.3896 31.803C16.3896 31.803 16.4331 31.653 16.4331 31.5189C16.4331 28.7921 16.4331 26.0614 16.4134 23.3346C16.4134 23.1688 16.2197 22.9084 16.0616 22.8571C12.248 21.6338 8.42655 20.4341 4.60505 19.2306C4.1901 19.1003 3.77515 18.9622 3.41552 18.8439C7.73496 23.157 12.0702 27.4899 16.3896 31.803ZM30.6758 18.8675C30.5889 18.8873 30.4466 18.907 30.3122 18.9464C29.0713 19.3213 27.8265 19.6923 26.5895 20.0829C23.8311 20.955 21.0845 21.8587 18.3182 22.6913C17.7926 22.8492 17.674 23.0702 17.6819 23.5595C17.7214 26.1087 17.7333 28.6579 17.761 31.2071C17.761 31.3926 17.7886 31.582 17.8005 31.7399C22.112 27.4307 26.4038 23.1412 30.6758 18.8675ZM3.15075 17.218C3.13889 17.2693 3.13099 17.3246 3.11913 17.3759C7.5018 18.7768 11.8805 20.1737 16.3462 21.6022V13.1496C11.9121 14.5149 7.53341 15.8645 3.15075 17.2141V17.218ZM17.7412 13.1456V21.5943C22.1555 20.1737 26.4986 18.7728 30.8418 17.3759C30.8418 17.3127 30.8339 17.2496 30.8339 17.1825C26.5026 15.8448 22.1713 14.511 17.7451 13.1456H17.7412Z" fill="white"/>
</svg>
