<svg width="38" height="32" viewBox="0 0 38 32" fill="none" xmlns="http://www.w3.org/2000/svg">
<path d="M19.1293 7.38116C19.4565 6.97694 19.7452 6.56791 20.0917 6.21181C21.694 4.56125 23.2964 2.92032 24.9229 1.29382C26.1691 0.0474764 26.4675 0.0619127 27.6993 1.29382C30.9041 4.50351 34.1137 7.7132 37.3232 10.9229C38.2134 11.8131 38.2279 12.1211 37.3521 12.9969C33.9789 16.3798 30.6009 19.758 27.2278 23.1409C26.5878 23.7809 26.1114 23.7953 25.4281 23.1168C23.4408 21.1487 21.4727 19.1564 19.495 17.1787C19.3458 17.0247 19.1822 16.8851 19.0186 16.7311C18.1717 17.5636 17.3633 18.3528 16.5597 19.1516C15.2557 20.4461 13.9613 21.755 12.6524 23.0446C11.8873 23.8001 11.435 23.7905 10.6747 23.0254C7.34002 19.6858 4.01016 16.3462 0.680299 13.0065C-0.224346 12.1019 -0.224346 11.7602 0.665863 10.8796C3.95242 7.60733 7.22935 4.33027 10.5207 1.06284C11.5264 0.061913 11.8344 0.0619131 12.8401 1.06765C14.7648 2.98769 16.6704 4.92697 18.5855 6.85664C18.7106 6.98175 18.8406 7.10206 19.1341 7.38116H19.1293ZM20.39 8.61788C20.6017 8.84886 20.7798 9.05578 20.9722 9.24827C21.593 9.86903 22.2282 10.4754 22.8393 11.1106C23.4648 11.7554 23.4745 12.0826 22.8585 12.7515C22.1945 13.4685 21.5064 14.1711 20.7846 14.8303C20.4044 15.1768 20.4093 15.3789 20.7701 15.7302C22.5169 17.4289 24.254 19.1372 25.9622 20.8744C26.3376 21.2545 26.5252 21.2016 26.8669 20.8599C29.6145 18.0978 32.3814 15.3549 35.1386 12.6071C35.3407 12.405 35.5332 12.1837 35.7353 11.9623C35.5909 11.8083 35.4995 11.7025 35.4033 11.6014C32.6989 8.91142 29.9898 6.22625 27.2855 3.53146C26.4001 2.65084 26.4001 2.63159 25.5099 3.51221C23.8113 5.19645 22.1223 6.89032 20.39 8.62269V8.61788ZM17.6328 8.75262C17.5173 8.57938 17.4692 8.48795 17.4018 8.42058C15.5636 6.58716 13.7158 4.75374 11.8825 2.91551C11.5842 2.61234 11.4109 2.7952 11.1992 3.01175C9.14931 5.06171 7.09943 7.11168 5.04473 9.15684C4.11602 10.0808 3.18251 10.9999 2.05651 12.1115C2.38373 12.3232 2.67244 12.4531 2.88417 12.6601C5.65103 15.4078 8.4179 18.1555 11.1559 20.9273C11.5072 21.2834 11.6852 21.2834 12.0124 20.9514C13.6725 19.2767 15.3519 17.6166 17.0168 15.9467C17.2141 15.7495 17.3922 15.5425 17.6087 15.3067C17.4451 15.1335 17.3152 14.9891 17.1804 14.8496C16.502 14.1711 15.809 13.507 15.145 12.8141C14.5387 12.174 14.5483 11.8276 15.145 11.1635C15.3712 10.9133 15.6214 10.6775 15.862 10.4417C16.449 9.87384 17.0409 9.31082 17.628 8.7478L17.6328 8.75262ZM20.9819 11.9864C20.3419 11.356 19.8029 10.8026 19.2255 10.2829C19.1341 10.2011 18.8309 10.2059 18.7299 10.2925C18.1476 10.7978 17.5943 11.3367 16.9832 11.9142C17.7434 12.6216 18.4075 13.2327 18.9897 13.7717C19.6153 13.2135 20.2649 12.6312 20.9819 11.9864Z" fill="white"/>
<path d="M12.9219 12.0288C13.0999 11.7305 13.201 11.461 13.3886 11.2733C14.9236 9.72864 16.4635 8.19357 18.0225 6.66813C18.8117 5.89819 19.1533 5.89338 19.9329 6.66813C21.4583 8.16951 22.9644 9.68052 24.4657 11.206C25.1875 11.9374 25.2068 12.2502 24.509 12.972C22.9644 14.56 21.3909 16.124 19.8078 17.6783C19.2399 18.2365 18.8357 18.2317 18.2535 17.6638C16.6511 16.1047 15.068 14.5263 13.4945 12.9335C13.2539 12.6929 13.1192 12.3464 12.9219 12.0288ZM18.8213 15.6909C20.1542 14.4397 21.4101 13.2559 22.6083 12.1299C21.3668 10.8836 20.1638 9.6709 18.932 8.42456C18.8454 8.49674 18.701 8.59779 18.5807 8.72291C17.6328 9.66608 16.7089 10.6333 15.7369 11.5524C15.3278 11.9374 15.376 12.1973 15.7417 12.563C16.8051 13.6168 17.8397 14.6948 18.8213 15.6909Z" fill="white"/>
<path d="M18.9927 31.1814C18.7232 31.0226 18.473 30.9264 18.2998 30.7579C16.6782 29.1603 15.0614 27.5579 13.4686 25.9362C12.8864 25.3443 12.8671 24.9353 13.459 24.3289C15.0277 22.7073 16.6252 21.1144 18.2324 19.5361C18.7232 19.0548 19.1708 19.05 19.6568 19.5264C21.3024 21.1289 22.9337 22.7457 24.5361 24.3867C25.1376 25.0026 25.1039 25.3732 24.5024 25.9795C22.9337 27.5723 21.3506 29.1555 19.7578 30.7243C19.5605 30.9215 19.2718 31.0226 18.9879 31.1862L18.9927 31.1814ZM19.0697 28.8475C20.1668 27.7407 21.2688 26.6147 22.3851 25.5031C22.6787 25.2096 22.6017 25.0074 22.3466 24.7572C21.6633 24.0835 20.9993 23.3906 20.3208 22.7121C19.8877 22.279 19.4402 21.8555 19.0745 21.4994C17.7897 22.7409 16.5579 23.9295 15.3501 25.0989C16.5867 26.3452 17.7897 27.5579 19.0745 28.8475H19.0697Z" fill="white"/>
</svg>
