<svg width="34" height="35" viewBox="0 0 34 35" fill="none" xmlns="http://www.w3.org/2000/svg">
<path d="M0.0042956 17.2649C0.0687297 16.3113 0.326466 15.3362 1.08679 14.5715C5.39528 10.2502 9.70377 5.92449 14.038 1.62888C15.593 0.08676 17.5261 -0.0936554 19.2615 1.05327C19.5278 1.22939 19.7684 1.45276 19.9917 1.68043C24.2057 5.89442 28.4197 10.1084 32.6294 14.3267C34.0427 15.7442 34.3648 17.2735 33.5873 19.0175C33.4155 19.3998 33.175 19.7821 32.8786 20.0785C28.613 24.3698 24.3432 28.6525 20.0519 32.9224C18.1403 34.8253 15.8551 34.8124 13.9435 32.9095C9.73384 28.717 5.54133 24.503 1.33593 20.3062C0.511177 19.4857 0.021478 18.5321 0 17.2692L0.0042956 17.2649ZM9.51047 17.3207C12.0277 19.8422 14.5148 22.3294 16.8474 24.6576C19.3646 22.2134 21.9076 19.7477 24.4506 17.2778C21.9377 14.7992 19.4333 12.3292 16.9934 9.92369C14.532 12.355 12.032 14.8293 9.51476 17.3207H9.51047ZM20.9411 29.5804C21.332 29.1809 21.637 28.8587 21.9462 28.5494C25.2152 25.2848 28.467 22.0072 31.7617 18.7683C32.5263 18.0166 32.4834 16.6291 31.7875 15.9075C30.7608 14.8422 29.4635 14.7863 28.3811 15.8559C25.0606 19.1464 21.7658 22.454 18.4539 25.753C18.2477 25.9592 18.2177 26.131 18.4281 26.3415C19.3818 27.2951 20.46 28.1499 20.9411 29.5804ZM4.70369 21.1997C4.87551 21.4058 4.95713 21.5218 5.05593 21.6206C8.5053 25.0571 11.9547 28.4893 15.3997 31.9258C16.3104 32.8321 17.569 32.9138 18.4281 32.0976C19.4677 31.1139 19.5364 29.8897 18.5914 28.8716C18.1876 28.442 17.7494 28.0426 17.3328 27.6259C14.459 24.7306 11.5852 21.8397 8.72437 18.9273C8.35495 18.5536 8.14876 18.5665 7.78793 18.9445C6.91592 19.8594 6.12983 20.8947 4.69939 21.1997H4.70369ZM29.2144 13.4375C29.2488 13.3559 29.2831 13.2743 29.3132 13.1884C29.1543 13.0981 28.9696 13.038 28.845 12.9177C27.8914 11.9985 26.9463 11.0706 26.0099 10.1385C23.4755 7.60836 20.9497 5.07396 18.4195 2.54385C17.9384 2.06274 17.3499 1.9081 16.697 2.04126C15.7735 2.23027 15.1721 2.82306 14.8714 3.68648C14.5621 4.57137 14.9358 5.30162 15.5501 5.92019C18.8319 9.21921 22.1267 12.5054 25.4085 15.8044C25.6319 16.0277 25.7951 16.0793 26.0271 15.8387C26.9592 14.8722 27.8656 13.8714 29.2144 13.4375ZM13.093 5.0353C12.6463 5.48204 12.2811 5.84287 11.916 6.208C8.80599 9.31801 5.68738 12.4237 2.59025 15.5509C2.23801 15.9075 1.90295 16.3585 1.76549 16.8267C1.47339 17.8362 1.98027 18.7297 3.00263 19.2967C3.76295 19.7177 4.81967 19.5501 5.51985 18.8586C8.83176 15.5681 12.1308 12.2691 15.4513 8.98725C15.7906 8.65219 15.7219 8.46319 15.4255 8.16679C14.5106 7.26472 13.5183 6.41848 13.093 5.0353Z" fill="white"/>
</svg>
